solid HandySlotmachine
facet normal 0.0 -1.0 0.0
  outer loop
    vertex 4471.124394031527 4775.349374689017 -24.841388019624244
    vertex 4386.394781761637 4775.349374689017 -178.58701086365306
    vertex 4471.124394031527 4775.349374689017 -178.58701086365306
  endloop
endfacet
facet normal 0.0 -1.0 0.0
  outer loop
    vertex 4386.394781761637 4775.349374689017 -178.58701086365306
    vertex 4471.124394031527 4775.349374689017 -24.841388019624244
    vertex 4418.273105523361 4775.349374689017 -103.84995556001802
  endloop
endfacet
facet normal 0.0 -1.0 0.0
  outer loop
    vertex 4386.394781761637 4775.349374689017 -178.58701086365306
    vertex 4418.273105523361 4775.349374689017 -103.84995556001802
    vertex 4386.394781761637 4775.349374689017 -113.29744690748136
  endloop
endfacet
facet normal 0.0 -1.0 0.0
  outer loop
    vertex 4418.273105523361 4775.349374689017 -103.84995556001802
    vertex 4471.124394031527 4775.349374689017 -24.841388019624244
    vertex 4454.17473792943 4775.349374689017 -24.841388019626123
  endloop
endfacet
facet normal 0.0 -1.0 0.0
  outer loop
    vertex 4454.17473792943 4775.349374689017 -24.841388019626123
    vertex 4443.363439163876 4775.349374689017 -21.545583830668992
    vertex 4418.273105523361 4775.349374689017 -103.84995556001802
  endloop
endfacet
facet normal 0.0 -1.0 0.0
  outer loop
    vertex 4443.363439163876 4775.349374689017 -21.545583830668992
    vertex 4454.17473792943 4775.349374689017 -24.841388019626123
    vertex 4444.812597989785 4775.349374689017 -21.987357185791605
  endloop
endfacet
facet normal -0.0 1.0 -0.0
  outer loop
    vertex 4418.273105523364 4848.574374689018 -103.84995556001675
    vertex 4444.812597989785 4848.574374689018 -21.987357185791605
    vertex 4454.174737929428 4848.574374689018 -24.841388019624247
  endloop
endfacet
facet normal -0.0 1.0 -0.0
  outer loop
    vertex 4444.812597989785 4848.574374689018 -21.987357185791605
    vertex 4418.273105523364 4848.574374689018 -103.84995556001675
    vertex 4443.363439163876 4848.574374689018 -21.545583830668946
  endloop
endfacet
facet normal -0.0 1.0 -0.0
  outer loop
    vertex 4386.394781761637 4848.574374689018 -113.29744690748136
    vertex 4471.124394031527 4848.574374689018 -178.58701086365306
    vertex 4386.394781761637 4848.574374689018 -178.58701086365306
  endloop
endfacet
facet normal -0.0 1.0 -0.0
  outer loop
    vertex 4471.124394031527 4848.574374689018 -178.58701086365306
    vertex 4386.394781761637 4848.574374689018 -113.29744690748136
    vertex 4418.273105523364 4848.574374689018 -103.84995556001675
  endloop
endfacet
facet normal -0.0 1.0 -0.0
  outer loop
    vertex 4471.124394031527 4848.574374689018 -178.58701086365306
    vertex 4418.273105523364 4848.574374689018 -103.84995556001675
    vertex 4471.124394031527 4848.574374689018 -24.841388019624247
  endloop
endfacet
facet normal -0.0 1.0 -0.0
  outer loop
    vertex 4471.124394031527 4848.574374689018 -24.841388019624247
    vertex 4418.273105523364 4848.574374689018 -103.84995556001675
    vertex 4454.174737929428 4848.574374689018 -24.841388019624247
  endloop
endfacet
facet normal 0.0 -1.0 0.0
  outer loop
    vertex 4414.595661989532 4846.996249689018 -154.6734988849885
    vertex 4444.812597989785 4846.996249689018 -21.987357185791627
    vertex 4404.363476093158 4846.996249689018 -154.6734988849903
  endloop
endfacet
facet normal 0.0 -1.0 0.0
  outer loop
    vertex 4444.812597989785 4846.996249689018 -21.987357185791627
    vertex 4414.595661989532 4846.996249689018 -154.6734988849885
    vertex 4454.174737929424 4846.996249689018 -24.841388019624244
  endloop
endfacet
facet normal -1.0 0.0 0.0
  outer loop
    vertex 4386.394781761637 4848.574374689018 -113.29744690748136
    vertex 4386.394781761637 4775.349374689017 -178.58701086365306
    vertex 4386.394781761637 4775.349374689017 -113.29744690748136
  endloop
endfacet
facet normal -1.0 0.0 0.0
  outer loop
    vertex 4386.394781761637 4775.349374689017 -178.58701086365306
    vertex 4386.394781761637 4848.574374689018 -113.29744690748136
    vertex 4386.394781761637 4848.574374689018 -178.58701086365306
  endloop
endfacet
facet normal -0.9565404791465104 1.5216349721249737e-14 0.29159957433810607
  outer loop
    vertex 4449.01963748088 4819.179875845812 -2.9914324380434576
    vertex 4441.219149194654 4820.09847221015 -28.579545245886354
    vertex 4440.992734624508 4819.9962496890175 -29.322257926130188
  endloop
endfacet
facet normal -0.9565404791465104 1.5216349721249737e-14 0.29159957433810607
  outer loop
    vertex 4441.219149194654 4820.09847221015 -28.579545245886354
    vertex 4449.01963748088 4819.179875845812 -2.9914324380434576
    vertex 4448.497129208684 4826.19786584787 -4.70542778312715
  endloop
endfacet
facet normal -0.9565404791465104 1.5216349721249737e-14 0.29159957433810607
  outer loop
    vertex 4441.219149194654 4820.09847221015 -28.579545245886354
    vertex 4448.497129208684 4826.19786584787 -4.70542778312715
    vertex 4441.430133986015 4820.398173477664 -27.887447207410403
  endloop
endfacet
facet normal -0.9565404791465104 1.5216349721249737e-14 0.29159957433810607
  outer loop
    vertex 4441.430133986015 4820.398173477664 -27.887447207410403
    vertex 4448.497129208684 4826.19786584787 -4.70542778312715
    vertex 4441.611310733724 4820.874929345458 -27.293129148278382
  endloop
endfacet
facet normal -0.9565404791465104 1.5216349721249737e-14 0.29159957433810607
  outer loop
    vertex 4441.611310733724 4820.874929345458 -27.293129148278382
    vertex 4448.497129208684 4826.19786584787 -4.70542778312715
    vertex 4441.7503325418365 4821.496249689018 -26.837092862063106
  endloop
endfacet
facet normal -0.9565404791465104 1.5216349721249737e-14 0.29159957433810607
  outer loop
    vertex 4441.7503325418365 4821.496249689018 -26.837092862063106
    vertex 4448.497129208684 4826.19786584787 -4.70542778312715
    vertex 4441.837725303872 4822.21979255371 -26.550416468034552
  endloop
endfacet
facet normal -0.9565404791465104 1.5216349721249737e-14 0.29159957433810607
  outer loop
    vertex 4441.837725303872 4822.21979255371 -26.550416468034552
    vertex 4448.497129208684 4826.19786584787 -4.70542778312715
    vertex 4441.867533347521 4822.9962496890175 -26.45263648869062
  endloop
endfacet
facet normal -0.9565404791465104 1.5216349721249737e-14 0.29159957433810607
  outer loop
    vertex 4441.867533347521 4822.9962496890175 -26.45263648869062
    vertex 4448.497129208684 4826.19786584787 -4.70542778312715
    vertex 4441.837725303872 4823.772706824326 -26.550416468034552
  endloop
endfacet
facet normal -0.9565404791465104 1.5216349721249737e-14 0.29159957433810607
  outer loop
    vertex 4441.837725303872 4823.772706824326 -26.550416468034552
    vertex 4448.497129208684 4826.19786584787 -4.70542778312715
    vertex 4441.7503325418365 4824.496249689018 -26.837092862063106
  endloop
endfacet
facet normal -0.9565404791465104 1.5216349721249737e-14 0.29159957433810607
  outer loop
    vertex 4441.7503325418365 4824.496249689018 -26.837092862063106
    vertex 4448.497129208684 4826.19786584787 -4.70542778312715
    vertex 4441.611310733724 4825.1175700325775 -27.293129148278382
  endloop
endfacet
facet normal -0.9565404791465104 1.5216349721249737e-14 0.29159957433810607
  outer loop
    vertex 4441.611310733724 4825.1175700325775 -27.293129148278382
    vertex 4448.497129208684 4826.19786584787 -4.70542778312715
    vertex 4441.430133986015 4825.594325900372 -27.887447207410403
  endloop
endfacet
facet normal -0.9565404791465104 1.5216349721249737e-14 0.29159957433810607
  outer loop
    vertex 4441.430133986015 4825.594325900372 -27.887447207410403
    vertex 4448.497129208684 4826.19786584787 -4.70542778312715
    vertex 4441.219149194654 4825.894027167885 -28.579545245886354
  endloop
endfacet
facet normal -0.9565404791465104 1.5216349721249737e-14 0.29159957433810607
  outer loop
    vertex 4441.219149194654 4825.894027167885 -28.579545245886354
    vertex 4448.497129208684 4826.19786584787 -4.70542778312715
    vertex 4440.992734624508 4825.9962496890175 -29.322257926130188
  endloop
endfacet
facet normal -0.9565404791465104 1.5216349721249737e-14 0.29159957433810607
  outer loop
    vertex 4446.47908855878 4785.0568812755555 -11.325250787255476
    vertex 4438.076738881126 4782.927499689017 -38.887662717595234
    vertex 4445.039476183289 4779.756927676954 -16.047642836572866
  endloop
endfacet
facet normal -0.9565404791465104 1.5216349721249737e-14 0.29159957433810607
  outer loop
    vertex 4438.076738881126 4782.927499689017 -38.887662717595234
    vertex 4446.47908855878 4785.0568812755555 -11.325250787255476
    vertex 4440.235136707179 4821.4962496890175 -31.807422990197274
  endloop
endfacet
facet normal -0.9565404791465104 1.5216349721249737e-14 0.29159957433810607
  outer loop
    vertex 4438.076738881126 4782.927499689017 -38.887662717595234
    vertex 4440.235136707179 4821.4962496890175 -31.807422990197274
    vertex 4440.147743945143 4822.21979255371 -32.09409938422583
  endloop
endfacet
facet normal -0.9565404791465104 1.5216349721249737e-14 0.29159957433810607
  outer loop
    vertex 4438.076738881126 4782.927499689017 -38.887662717595234
    vertex 4440.147743945143 4822.21979255371 -32.09409938422583
    vertex 4438.076738881126 4840.996249689018 -38.88766271759531
  endloop
endfacet
facet normal -0.9565404791465104 1.5216349721249737e-14 0.29159957433810607
  outer loop
    vertex 4440.235136707179 4821.4962496890175 -31.807422990197274
    vertex 4446.47908855878 4785.0568812755555 -11.325250787255476
    vertex 4440.374158515291 4820.874929345458 -31.351386703981994
  endloop
endfacet
facet normal -0.9565404791465104 1.5216349721249737e-14 0.29159957433810607
  outer loop
    vertex 4440.374158515291 4820.874929345458 -31.351386703981994
    vertex 4446.47908855878 4785.0568812755555 -11.325250787255476
    vertex 4447.642384563082 4791.102373518987 -7.5092653906039635
  endloop
endfacet
facet normal -0.9565404791465104 1.5216349721249737e-14 0.29159957433810607
  outer loop
    vertex 4440.374158515291 4820.874929345458 -31.351386703981994
    vertex 4447.642384563082 4791.102373518987 -7.5092653906039635
    vertex 4448.497129208685 4797.725883530165 -4.705427783127251
  endloop
endfacet
facet normal -0.9565404791465104 1.5216349721249737e-14 0.29159957433810607
  outer loop
    vertex 4440.374158515291 4820.874929345458 -31.351386703981994
    vertex 4448.497129208685 4797.725883530165 -4.705427783127251
    vertex 4440.555335263 4820.398173477664 -30.757068644849973
  endloop
endfacet
facet normal -0.9565404791465104 1.5216349721249737e-14 0.29159957433810607
  outer loop
    vertex 4440.555335263 4820.398173477664 -30.757068644849973
    vertex 4448.497129208685 4797.725883530165 -4.705427783127251
    vertex 4449.01963748088 4804.743873532224 -2.991432438043514
  endloop
endfacet
facet normal -0.9565404791465104 1.5216349721249737e-14 0.29159957433810607
  outer loop
    vertex 4440.555335263 4820.398173477664 -30.757068644849973
    vertex 4449.01963748088 4804.743873532224 -2.991432438043514
    vertex 4440.76632005436 4820.09847221015 -30.06497060637402
  endloop
endfacet
facet normal -0.9565404791465104 1.5216349721249737e-14 0.29159957433810607
  outer loop
    vertex 4440.76632005436 4820.09847221015 -30.06497060637402
    vertex 4449.01963748088 4804.743873532224 -2.991432438043514
    vertex 4449.107534065759 4808.352874110621 -2.7031033428910427
  endloop
endfacet
facet normal -0.9565404791465104 1.5216349721249737e-14 0.29159957433810607
  outer loop
    vertex 4440.76632005436 4820.09847221015 -30.06497060637402
    vertex 4449.107534065759 4808.352874110621 -2.7031033428910427
    vertex 4449.195430650638 4811.961874689017 -2.4147742477385714
  endloop
endfacet
facet normal -0.9565404791465104 1.5216349721249737e-14 0.29159957433810607
  outer loop
    vertex 4440.76632005436 4820.09847221015 -30.06497060637402
    vertex 4449.195430650638 4811.961874689017 -2.4147742477385714
    vertex 4449.107534065759 4815.5708752674145 -2.7031033428909934
  endloop
endfacet
facet normal -0.9565404791465104 1.5216349721249737e-14 0.29159957433810607
  outer loop
    vertex 4440.76632005436 4820.09847221015 -30.06497060637402
    vertex 4449.107534065759 4815.5708752674145 -2.7031033428909934
    vertex 4440.992734624508 4819.9962496890175 -29.322257926130188
  endloop
endfacet
facet normal -0.9565404791465104 1.5216349721249737e-14 0.29159957433810607
  outer loop
    vertex 4440.992734624508 4819.9962496890175 -29.322257926130188
    vertex 4449.107534065759 4815.5708752674145 -2.7031033428909934
    vertex 4449.01963748088 4819.179875845812 -2.9914324380434576
  endloop
endfacet
facet normal -0.9565404791465104 1.5216349721249737e-14 0.29159957433810607
  outer loop
    vertex 4438.076738881126 4840.996249689018 -38.88766271759531
    vertex 4440.147743945143 4822.21979255371 -32.09409938422583
    vertex 4440.117935901493 4822.9962496890175 -32.19187936356976
  endloop
endfacet
facet normal -0.9565404791465104 1.5216349721249737e-14 0.29159957433810607
  outer loop
    vertex 4438.076738881126 4840.996249689018 -38.88766271759531
    vertex 4440.117935901493 4822.9962496890175 -32.19187936356976
    vertex 4440.147743945143 4823.772706824326 -32.09409938422583
  endloop
endfacet
facet normal -0.9565404791465104 1.5216349721249737e-14 0.29159957433810607
  outer loop
    vertex 4438.076738881126 4840.996249689018 -38.88766271759531
    vertex 4440.147743945143 4823.772706824326 -32.09409938422583
    vertex 4440.235136707179 4824.4962496890175 -31.807422990197274
  endloop
endfacet
facet normal -0.9565404791465104 1.5216349721249737e-14 0.29159957433810607
  outer loop
    vertex 4438.076738881126 4840.996249689018 -38.88766271759531
    vertex 4440.235136707179 4824.4962496890175 -31.807422990197274
    vertex 4440.374158515291 4825.1175700325775 -31.351386703981998
  endloop
endfacet
facet normal -0.9565404791465104 1.5216349721249737e-14 0.29159957433810607
  outer loop
    vertex 4438.076738881126 4840.996249689018 -38.88766271759531
    vertex 4440.374158515291 4825.1175700325775 -31.351386703981998
    vertex 4440.555335263 4825.594325900372 -30.757068644849973
  endloop
endfacet
facet normal -0.9565404791465104 1.5216349721249737e-14 0.29159957433810607
  outer loop
    vertex 4438.076738881126 4840.996249689018 -38.88766271759531
    vertex 4440.555335263 4825.594325900372 -30.757068644849973
    vertex 4440.76632005436 4825.894027167885 -30.064970606374025
  endloop
endfacet
facet normal -0.9565404791465104 1.5216349721249737e-14 0.29159957433810607
  outer loop
    vertex 4438.076738881126 4840.996249689018 -38.88766271759531
    vertex 4440.76632005436 4825.894027167885 -30.064970606374025
    vertex 4440.992734624508 4825.9962496890175 -29.322257926130188
  endloop
endfacet
facet normal -0.9565404791465104 1.5216349721249737e-14 0.29159957433810607
  outer loop
    vertex 4438.076738881126 4840.996249689018 -38.88766271759531
    vertex 4440.992734624508 4825.9962496890175 -29.322257926130188
    vertex 4448.497129208684 4826.19786584787 -4.70542778312715
  endloop
endfacet
facet normal -0.9565404791465104 1.5216349721249737e-14 0.29159957433810607
  outer loop
    vertex 4438.076738881126 4840.996249689018 -38.88766271759531
    vertex 4448.497129208684 4826.19786584787 -4.70542778312715
    vertex 4447.642384563082 4832.821375859048 -7.509265390603794
  endloop
endfacet
facet normal -0.9565404791465104 1.5216349721249737e-14 0.29159957433810607
  outer loop
    vertex 4438.076738881126 4840.996249689018 -38.88766271759531
    vertex 4447.642384563082 4832.821375859048 -7.509265390603794
    vertex 4446.479088558779 4838.866868102479 -11.32525078725525
  endloop
endfacet
facet normal -0.9565404791465104 1.5216349721249737e-14 0.29159957433810607
  outer loop
    vertex 4438.076738881126 4840.996249689018 -38.88766271759531
    vertex 4446.479088558779 4838.866868102479 -11.32525078725525
    vertex 4445.039476183287 4844.166821701082 -16.04764283657259
  endloop
endfacet
facet normal -0.9565404791465104 1.5216349721249737e-14 0.29159957433810607
  outer loop
    vertex 4438.076738881126 4840.996249689018 -38.88766271759531
    vertex 4445.039476183287 4844.166821701082 -16.04764283657259
    vertex 4418.273105523364 4840.996249689018 -103.84995556001664
  endloop
endfacet
facet normal -0.9565404791465104 1.5216349721249737e-14 0.29159957433810607
  outer loop
    vertex 4418.273105523364 4840.996249689018 -103.84995556001664
    vertex 4445.039476183287 4844.166821701082 -16.04764283657259
    vertex 4418.273105523364 4848.574374689018 -103.84995556001675
  endloop
endfacet
facet normal -0.9565404791465104 1.5216349721249737e-14 0.29159957433810607
  outer loop
    vertex 4418.273105523364 4848.574374689018 -103.84995556001675
    vertex 4445.039476183287 4844.166821701082 -16.04764283657259
    vertex 4443.363439163876 4848.574374689018 -21.545583830668946
  endloop
endfacet
facet normal -0.9565404791465104 1.5216349721249737e-14 0.29159957433810607
  outer loop
    vertex 4445.039476183289 4779.756927676954 -16.047642836572866
    vertex 4418.273105523361 4775.349374689017 -103.84995556001802
    vertex 4443.363439163876 4775.349374689017 -21.545583830668992
  endloop
endfacet
facet normal -0.9565404791465104 1.5216349721249737e-14 0.29159957433810607
  outer loop
    vertex 4418.273105523361 4775.349374689017 -103.84995556001802
    vertex 4445.039476183289 4779.756927676954 -16.047642836572866
    vertex 4418.273105523361 4782.927499689019 -103.84995556001792
  endloop
endfacet
facet normal -0.9565404791465104 1.5216349721249737e-14 0.29159957433810607
  outer loop
    vertex 4418.273105523361 4782.927499689019 -103.84995556001792
    vertex 4445.039476183289 4779.756927676954 -16.047642836572866
    vertex 4438.076738881126 4782.927499689017 -38.887662717595234
  endloop
endfacet
facet normal 0.9565404791464986 1.7445713866456378e-15 -0.2915995743381441
  outer loop
    vertex 4444.812597989785 4776.927499689017 -21.987357185792124
    vertex 4446.488635009197 4779.756927676954 -16.48941619169615
    vertex 4444.812597989785 4775.349374689017 -21.987357185791605
  endloop
endfacet
facet normal 0.9565404791464986 1.7445713866456378e-15 -0.2915995743381441
  outer loop
    vertex 4446.488635009197 4779.756927676954 -16.48941619169615
    vertex 4444.812597989785 4776.927499689017 -21.987357185792124
    vertex 4404.363476093158 4776.927499689018 -154.6734988849903
  endloop
endfacet
facet normal 0.9565404791464986 1.7445713866456378e-15 -0.2915995743381441
  outer loop
    vertex 4446.488635009197 4779.756927676954 -16.48941619169615
    vertex 4404.363476093158 4776.927499689018 -154.6734988849903
    vertex 4420.014241189133 4782.927499689019 -103.33395088360817
  endloop
endfacet
facet normal 0.9565404791464986 1.7445713866456378e-15 -0.2915995743381441
  outer loop
    vertex 4420.014241189133 4782.927499689019 -103.33395088360817
    vertex 4404.363476093158 4776.927499689018 -154.6734988849903
    vertex 4404.363476093158 4806.961874689018 -154.6734988849903
  endloop
endfacet
facet normal 0.9565404791464986 1.7445713866456378e-15 -0.2915995743381441
  outer loop
    vertex 4446.488635009197 4779.756927676954 -16.48941619169615
    vertex 4420.014241189133 4782.927499689019 -103.33395088360817
    vertex 4439.525897707033 4782.927499689017 -39.32943607271741
  endloop
endfacet
facet normal 0.9565404791464986 1.7445713866456378e-15 -0.2915995743381441
  outer loop
    vertex 4420.014241189133 4782.927499689019 -103.33395088360817
    vertex 4404.363476093158 4806.961874689018 -154.6734988849903
    vertex 4420.014241189133 4840.996249689018 -103.33395088360817
  endloop
endfacet
facet normal 0.9565404791464986 1.7445713866456378e-15 -0.2915995743381441
  outer loop
    vertex 4420.014241189133 4840.996249689018 -103.33395088360817
    vertex 4404.363476093158 4806.961874689018 -154.6734988849903
    vertex 4404.363476093158 4816.961874689019 -154.6734988849903
  endloop
endfacet
facet normal 0.9565404791464986 1.7445713866456378e-15 -0.2915995743381441
  outer loop
    vertex 4404.363476093158 4816.961874689019 -154.6734988849903
    vertex 4404.363476093158 4806.961874689018 -154.6734988849903
    vertex 4398.531484606397 4816.961874689019 -173.80430846792044
  endloop
endfacet
facet normal 0.9565404791464986 1.7445713866456378e-15 -0.2915995743381441
  outer loop
    vertex 4420.014241189133 4840.996249689018 -103.33395088360817
    vertex 4404.363476093158 4816.961874689019 -154.6734988849903
    vertex 4404.363476093158 4846.996249689018 -154.6734988849903
  endloop
endfacet
facet normal 0.9565404791464986 1.7445713866456378e-15 -0.2915995743381441
  outer loop
    vertex 4420.014241189133 4840.996249689018 -103.33395088360817
    vertex 4404.363476093158 4846.996249689018 -154.6734988849903
    vertex 4439.525897707033 4840.996249689018 -39.32943607271738
  endloop
endfacet
facet normal 0.9565404791464986 1.7445713866456378e-15 -0.2915995743381441
  outer loop
    vertex 4439.525897707033 4840.996249689018 -39.32943607271738
    vertex 4404.363476093158 4846.996249689018 -154.6734988849903
    vertex 4446.488635009197 4844.166821701082 -16.48941619169603
  endloop
endfacet
facet normal 0.9565404791464986 1.7445713866456378e-15 -0.2915995743381441
  outer loop
    vertex 4446.488635009197 4844.166821701082 -16.48941619169603
    vertex 4404.363476093158 4846.996249689018 -154.6734988849903
    vertex 4444.812597989785 4846.996249689018 -21.987357185791627
  endloop
endfacet
facet normal 0.9565404791464986 1.7445713866456378e-15 -0.2915995743381441
  outer loop
    vertex 4446.488635009197 4844.166821701082 -16.48941619169603
    vertex 4444.812597989785 4846.996249689018 -21.987357185791627
    vertex 4444.812597989785 4848.574374689018 -21.987357185791605
  endloop
endfacet
facet normal 0.9565404791464986 1.7445713866456378e-15 -0.2915995743381441
  outer loop
    vertex 4439.525897707033 4782.927499689017 -39.32943607271741
    vertex 4447.9282473846915 4785.056881275556 -11.767024142379483
    vertex 4446.488635009197 4779.756927676954 -16.48941619169615
  endloop
endfacet
facet normal 0.9565404791464986 1.7445713866456378e-15 -0.2915995743381441
  outer loop
    vertex 4447.9282473846915 4785.056881275556 -11.767024142379483
    vertex 4439.525897707033 4782.927499689017 -39.32943607271741
    vertex 4441.68429553309 4821.4962496890175 -32.2491963453208
  endloop
endfacet
facet normal 0.9565404791464986 1.7445713866456378e-15 -0.2915995743381441
  outer loop
    vertex 4441.68429553309 4821.4962496890175 -32.2491963453208
    vertex 4439.525897707033 4782.927499689017 -39.32943607271741
    vertex 4441.596902771054 4822.21979255371 -32.53587273934935
  endloop
endfacet
facet normal 0.9565404791464986 1.7445713866456378e-15 -0.2915995743381441
  outer loop
    vertex 4441.596902771054 4822.21979255371 -32.53587273934935
    vertex 4439.525897707033 4782.927499689017 -39.32943607271741
    vertex 4439.525897707033 4840.996249689018 -39.32943607271738
  endloop
endfacet
facet normal 0.9565404791464986 1.7445713866456378e-15 -0.2915995743381441
  outer loop
    vertex 4447.9282473846915 4785.056881275556 -11.767024142379483
    vertex 4441.68429553309 4821.4962496890175 -32.2491963453208
    vertex 4441.823317341203 4820.874929345458 -31.793160059105514
  endloop
endfacet
facet normal 0.9565404791464986 1.7445713866456378e-15 -0.2915995743381441
  outer loop
    vertex 4447.9282473846915 4785.056881275556 -11.767024142379483
    vertex 4441.823317341203 4820.874929345458 -31.793160059105514
    vertex 4449.091543388994 4791.102373518987 -7.951038745728568
  endloop
endfacet
facet normal 0.9565404791464986 1.7445713866456378e-15 -0.2915995743381441
  outer loop
    vertex 4449.091543388994 4791.102373518987 -7.951038745728568
    vertex 4441.823317341203 4820.874929345458 -31.793160059105514
    vertex 4449.946288034598 4797.725883530165 -5.147201138252307
  endloop
endfacet
facet normal 0.9565404791464986 1.7445713866456378e-15 -0.2915995743381441
  outer loop
    vertex 4449.946288034598 4797.725883530165 -5.147201138252307
    vertex 4441.823317341203 4820.874929345458 -31.793160059105514
    vertex 4442.004494088912 4820.398173477664 -31.198841999973496
  endloop
endfacet
facet normal 0.9565404791464986 1.7445713866456378e-15 -0.2915995743381441
  outer loop
    vertex 4449.946288034598 4797.725883530165 -5.147201138252307
    vertex 4442.004494088912 4820.398173477664 -31.198841999973496
    vertex 4450.468796306794 4804.743873532224 -3.4332057931688573
  endloop
endfacet
facet normal 0.9565404791464986 1.7445713866456378e-15 -0.2915995743381441
  outer loop
    vertex 4450.468796306794 4804.743873532224 -3.4332057931688573
    vertex 4442.004494088912 4820.398173477664 -31.198841999973496
    vertex 4442.215478880272 4820.09847221015 -30.50674396149754
  endloop
endfacet
facet normal 0.9565404791464986 1.7445713866456378e-15 -0.2915995743381441
  outer loop
    vertex 4450.468796306794 4804.743873532224 -3.4332057931688573
    vertex 4442.215478880272 4820.09847221015 -30.50674396149754
    vertex 4450.644589476553 4811.961874689017 -2.8565476028635626
  endloop
endfacet
facet normal 0.9565404791464986 1.7445713866456378e-15 -0.2915995743381441
  outer loop
    vertex 4450.644589476553 4811.961874689017 -2.8565476028635626
    vertex 4442.215478880272 4820.09847221015 -30.50674396149754
    vertex 4442.441893450419 4819.9962496890175 -29.76403128125371
  endloop
endfacet
facet normal 0.9565404791464986 1.7445713866456378e-15 -0.2915995743381441
  outer loop
    vertex 4450.644589476553 4811.961874689017 -2.8565476028635626
    vertex 4442.441893450419 4819.9962496890175 -29.76403128125371
    vertex 4450.468796306794 4819.179875845812 -3.4332057931688236
  endloop
endfacet
facet normal 0.9565404791464986 1.7445713866456378e-15 -0.2915995743381441
  outer loop
    vertex 4441.596902771054 4822.21979255371 -32.53587273934935
    vertex 4439.525897707033 4840.996249689018 -39.32943607271738
    vertex 4441.567094727405 4822.9962496890175 -32.633652718693284
  endloop
endfacet
facet normal 0.9565404791464986 1.7445713866456378e-15 -0.2915995743381441
  outer loop
    vertex 4441.567094727405 4822.9962496890175 -32.633652718693284
    vertex 4439.525897707033 4840.996249689018 -39.32943607271738
    vertex 4441.596902771054 4823.772706824326 -32.53587273934935
  endloop
endfacet
facet normal 0.9565404791464986 1.7445713866456378e-15 -0.2915995743381441
  outer loop
    vertex 4441.596902771054 4823.772706824326 -32.53587273934935
    vertex 4439.525897707033 4840.996249689018 -39.32943607271738
    vertex 4441.68429553309 4824.4962496890175 -32.2491963453208
  endloop
endfacet
facet normal 0.9565404791464986 1.7445713866456378e-15 -0.2915995743381441
  outer loop
    vertex 4441.68429553309 4824.4962496890175 -32.2491963453208
    vertex 4439.525897707033 4840.996249689018 -39.32943607271738
    vertex 4441.823317341203 4825.1175700325775 -31.79316005910552
  endloop
endfacet
facet normal 0.9565404791464986 1.7445713866456378e-15 -0.2915995743381441
  outer loop
    vertex 4441.823317341203 4825.1175700325775 -31.79316005910552
    vertex 4439.525897707033 4840.996249689018 -39.32943607271738
    vertex 4442.004494088912 4825.594325900372 -31.198841999973496
  endloop
endfacet
facet normal 0.9565404791464986 1.7445713866456378e-15 -0.2915995743381441
  outer loop
    vertex 4442.004494088912 4825.594325900372 -31.198841999973496
    vertex 4439.525897707033 4840.996249689018 -39.32943607271738
    vertex 4442.215478880272 4825.894027167885 -30.506743961497545
  endloop
endfacet
facet normal 0.9565404791464986 1.7445713866456378e-15 -0.2915995743381441
  outer loop
    vertex 4442.215478880272 4825.894027167885 -30.506743961497545
    vertex 4439.525897707033 4840.996249689018 -39.32943607271738
    vertex 4442.441893450419 4825.9962496890175 -29.76403128125371
  endloop
endfacet
facet normal 0.9565404791464986 1.7445713866456378e-15 -0.2915995743381441
  outer loop
    vertex 4442.441893450419 4825.9962496890175 -29.76403128125371
    vertex 4439.525897707033 4840.996249689018 -39.32943607271738
    vertex 4449.946288034598 4826.19786584787 -5.147201138252257
  endloop
endfacet
facet normal 0.9565404791464986 1.7445713866456378e-15 -0.2915995743381441
  outer loop
    vertex 4449.946288034598 4826.19786584787 -5.147201138252257
    vertex 4439.525897707033 4840.996249689018 -39.32943607271738
    vertex 4449.091543388993 4832.821375859048 -7.951038745728489
  endloop
endfacet
facet normal 0.9565404791464986 1.7445713866456378e-15 -0.2915995743381441
  outer loop
    vertex 4449.091543388993 4832.821375859048 -7.951038745728489
    vertex 4439.525897707033 4840.996249689018 -39.32943607271738
    vertex 4447.9282473846915 4838.866868102479 -11.767024142379377
  endloop
endfacet
facet normal 0.9565404791464986 1.7445713866456378e-15 -0.2915995743381441
  outer loop
    vertex 4447.9282473846915 4838.866868102479 -11.767024142379377
    vertex 4439.525897707033 4840.996249689018 -39.32943607271738
    vertex 4446.488635009197 4844.166821701082 -16.48941619169603
  endloop
endfacet
facet normal 0.9565404791464986 1.7445713866456378e-15 -0.2915995743381441
  outer loop
    vertex 4450.468796306794 4819.179875845812 -3.4332057931688236
    vertex 4442.668308020566 4820.09847221015 -29.021318601009877
    vertex 4449.946288034598 4826.19786584787 -5.147201138252257
  endloop
endfacet
facet normal 0.9565404791464986 1.7445713866456378e-15 -0.2915995743381441
  outer loop
    vertex 4442.668308020566 4820.09847221015 -29.021318601009877
    vertex 4450.468796306794 4819.179875845812 -3.4332057931688236
    vertex 4442.441893450419 4819.9962496890175 -29.76403128125371
  endloop
endfacet
facet normal 0.9565404791464986 1.7445713866456378e-15 -0.2915995743381441
  outer loop
    vertex 4449.946288034598 4826.19786584787 -5.147201138252257
    vertex 4442.668308020566 4820.09847221015 -29.021318601009877
    vertex 4442.879292811926 4820.398173477664 -28.329220562533926
  endloop
endfacet
facet normal 0.9565404791464986 1.7445713866456378e-15 -0.2915995743381441
  outer loop
    vertex 4449.946288034598 4826.19786584787 -5.147201138252257
    vertex 4442.879292811926 4820.398173477664 -28.329220562533926
    vertex 4443.060469559636 4820.874929345458 -27.7349025034019
  endloop
endfacet
facet normal 0.9565404791464986 1.7445713866456378e-15 -0.2915995743381441
  outer loop
    vertex 4449.946288034598 4826.19786584787 -5.147201138252257
    vertex 4443.060469559636 4820.874929345458 -27.7349025034019
    vertex 4443.199491367748 4821.496249689018 -27.278866217186625
  endloop
endfacet
facet normal 0.9565404791464986 1.7445713866456378e-15 -0.2915995743381441
  outer loop
    vertex 4449.946288034598 4826.19786584787 -5.147201138252257
    vertex 4443.199491367748 4821.496249689018 -27.278866217186625
    vertex 4443.286884129783 4822.21979255371 -26.99218982315807
  endloop
endfacet
facet normal 0.9565404791464986 1.7445713866456378e-15 -0.2915995743381441
  outer loop
    vertex 4449.946288034598 4826.19786584787 -5.147201138252257
    vertex 4443.286884129783 4822.21979255371 -26.99218982315807
    vertex 4443.316692173433 4822.9962496890175 -26.89440984381414
  endloop
endfacet
facet normal 0.9565404791464986 1.7445713866456378e-15 -0.2915995743381441
  outer loop
    vertex 4449.946288034598 4826.19786584787 -5.147201138252257
    vertex 4443.316692173433 4822.9962496890175 -26.89440984381414
    vertex 4443.286884129783 4823.772706824326 -26.99218982315807
  endloop
endfacet
facet normal 0.9565404791464986 1.7445713866456378e-15 -0.2915995743381441
  outer loop
    vertex 4449.946288034598 4826.19786584787 -5.147201138252257
    vertex 4443.286884129783 4823.772706824326 -26.99218982315807
    vertex 4443.199491367748 4824.496249689018 -27.278866217186625
  endloop
endfacet
facet normal 0.9565404791464986 1.7445713866456378e-15 -0.2915995743381441
  outer loop
    vertex 4449.946288034598 4826.19786584787 -5.147201138252257
    vertex 4443.199491367748 4824.496249689018 -27.278866217186625
    vertex 4443.060469559636 4825.1175700325775 -27.7349025034019
  endloop
endfacet
facet normal 0.9565404791464986 1.7445713866456378e-15 -0.2915995743381441
  outer loop
    vertex 4449.946288034598 4826.19786584787 -5.147201138252257
    vertex 4443.060469559636 4825.1175700325775 -27.7349025034019
    vertex 4442.879292811926 4825.594325900372 -28.329220562533926
  endloop
endfacet
facet normal 0.9565404791464986 1.7445713866456378e-15 -0.2915995743381441
  outer loop
    vertex 4449.946288034598 4826.19786584787 -5.147201138252257
    vertex 4442.879292811926 4825.594325900372 -28.329220562533926
    vertex 4442.668308020566 4825.894027167885 -29.021318601009877
  endloop
endfacet
facet normal 0.9565404791464986 1.7445713866456378e-15 -0.2915995743381441
  outer loop
    vertex 4449.946288034598 4826.19786584787 -5.147201138252257
    vertex 4442.668308020566 4825.894027167885 -29.021318601009877
    vertex 4442.441893450419 4825.9962496890175 -29.76403128125371
  endloop
endfacet
facet normal 0.9565404791464986 1.7445713866456378e-15 -0.2915995743381441
  outer loop
    vertex 4398.531484606397 4816.961874689019 -173.80430846792044
    vertex 4404.363476093158 4806.961874689018 -154.6734988849903
    vertex 4398.531484606397 4806.961874689018 -173.80430846792044
  endloop
endfacet
facet normal -1.818944551370181e-13 3.755651958860969e-16 1.0
  outer loop
    vertex 4414.595661989532 4776.927499689017 -154.67349888498842
    vertex 4404.363476093158 4806.961874689018 -154.6734988849903
    vertex 4404.363476093158 4776.927499689018 -154.6734988849903
  endloop
endfacet
facet normal -1.818944551370181e-13 3.755651958860969e-16 1.0
  outer loop
    vertex 4404.363476093158 4806.961874689018 -154.6734988849903
    vertex 4414.595661989532 4776.927499689017 -154.67349888498842
    vertex 4414.595661989532 4806.961874689017 -154.67349888498845
  endloop
endfacet
facet normal 0.29058778924887224 0.0832316758752648 0.9532214983257815
  outer loop
    vertex 4449.107534065759 4815.5708752674145 -2.7031033428909934
    vertex 4450.468796306794 4819.179875845812 -3.4332057931688236
    vertex 4449.01963748088 4819.179875845812 -2.9914324380434576
  endloop
endfacet
facet normal 0.29058778924887224 0.0832316758752648 0.9532214983257815
  outer loop
    vertex 4450.468796306794 4819.179875845812 -3.4332057931688236
    vertex 4449.107534065759 4815.5708752674145 -2.7031033428909934
    vertex 4449.195430650638 4811.961874689017 -2.4147742477385714
  endloop
endfacet
facet normal 0.29058778924887224 0.0832316758752648 0.9532214983257815
  outer loop
    vertex 4450.468796306794 4819.179875845812 -3.4332057931688236
    vertex 4449.195430650638 4811.961874689017 -2.4147742477385714
    vertex 4450.644589476553 4811.961874689017 -2.8565476028635626
  endloop
endfacet
facet normal 0.2905877892488611 -0.08323167587527072 0.9532214983257845
  outer loop
    vertex 4450.468796306794 4804.743873532224 -3.4332057931688573
    vertex 4449.107534065759 4808.352874110621 -2.7031033428910427
    vertex 4449.01963748088 4804.743873532224 -2.991432438043514
  endloop
endfacet
facet normal 0.2905877892488611 -0.08323167587527072 0.9532214983257845
  outer loop
    vertex 4449.107534065759 4808.352874110621 -2.7031033428910427
    vertex 4450.468796306794 4804.743873532224 -3.4332057931688573
    vertex 4449.195430650638 4811.961874689017 -2.4147742477385714
  endloop
endfacet
facet normal 0.2905877892488611 -0.08323167587527072 0.9532214983257845
  outer loop
    vertex 4449.195430650638 4811.961874689017 -2.4147742477385714
    vertex 4450.468796306794 4804.743873532224 -3.4332057931688573
    vertex 4450.644589476553 4811.961874689017 -2.8565476028635626
  endloop
endfacet
facet normal 0.2133695694809978 0.6816041305106115 0.6999208784501052
  outer loop
    vertex 4446.479088558779 4838.866868102479 -11.32525078725525
    vertex 4446.488635009197 4844.166821701082 -16.48941619169603
    vertex 4445.039476183287 4844.166821701082 -16.04764283657259
  endloop
endfacet
facet normal 0.2133695694809978 0.6816041305106115 0.6999208784501052
  outer loop
    vertex 4446.488635009197 4844.166821701082 -16.48941619169603
    vertex 4446.479088558779 4838.866868102479 -11.32525078725525
    vertex 4447.9282473846915 4838.866868102479 -11.767024142379377
  endloop
endfacet
facet normal 0.2666543118248683 0.4046905200963456 0.8747119874160609
  outer loop
    vertex 4448.497129208684 4826.19786584787 -4.70542778312715
    vertex 4449.091543388993 4832.821375859048 -7.951038745728489
    vertex 4447.642384563082 4832.821375859048 -7.509265390603794
  endloop
endfacet
facet normal 0.2666543118248683 0.4046905200963456 0.8747119874160609
  outer loop
    vertex 4449.091543388993 4832.821375859048 -7.951038745728489
    vertex 4448.497129208684 4826.19786584787 -4.70542778312715
    vertex 4449.946288034598 4826.19786584787 -5.147201138252257
  endloop
endfacet
facet normal 0.17744262586521817 -0.7935426054728795 0.5820689373479488
  outer loop
    vertex 4446.488635009197 4779.756927676954 -16.48941619169615
    vertex 4443.363439163876 4775.349374689017 -21.545583830668992
    vertex 4444.812597989785 4775.349374689017 -21.987357185791605
  endloop
endfacet
facet normal 0.17744262586521817 -0.7935426054728795 0.5820689373479488
  outer loop
    vertex 4443.363439163876 4775.349374689017 -21.545583830668992
    vertex 4446.488635009197 4779.756927676954 -16.48941619169615
    vertex 4445.039476183289 4779.756927676954 -16.047642836572866
  endloop
endfacet
facet normal 0.2825355878129206 0.24738867393567893 0.9268076853520119
  outer loop
    vertex 4449.01963748088 4819.179875845812 -2.9914324380434576
    vertex 4449.946288034598 4826.19786584787 -5.147201138252257
    vertex 4448.497129208684 4826.19786584787 -4.70542778312715
  endloop
endfacet
facet normal 0.2825355878129206 0.24738867393567893 0.9268076853520119
  outer loop
    vertex 4449.946288034598 4826.19786584787 -5.147201138252257
    vertex 4449.01963748088 4819.179875845812 -2.9914324380434576
    vertex 4450.468796306794 4819.179875845812 -3.4332057931688236
  endloop
endfacet
facet normal 0.26665431182482874 -0.404690520096351 0.8747119874160707
  outer loop
    vertex 4449.091543388994 4791.102373518987 -7.951038745728568
    vertex 4448.497129208685 4797.725883530165 -4.705427783127251
    vertex 4447.642384563082 4791.102373518987 -7.5092653906039635
  endloop
endfacet
facet normal 0.26665431182482874 -0.404690520096351 0.8747119874160707
  outer loop
    vertex 4448.497129208685 4797.725883530165 -4.705427783127251
    vertex 4449.091543388994 4791.102373518987 -7.951038745728568
    vertex 4449.946288034598 4797.725883530165 -5.147201138252307
  endloop
endfacet
facet normal 0.24338403219647478 -0.5507783727320573 0.7983779787809858
  outer loop
    vertex 4447.9282473846915 4785.056881275556 -11.767024142379483
    vertex 4447.642384563082 4791.102373518987 -7.5092653906039635
    vertex 4446.47908855878 4785.0568812755555 -11.325250787255476
  endloop
endfacet
facet normal 0.24338403219647478 -0.5507783727320573 0.7983779787809858
  outer loop
    vertex 4447.642384563082 4791.102373518987 -7.5092653906039635
    vertex 4447.9282473846915 4785.056881275556 -11.767024142379483
    vertex 4449.091543388994 4791.102373518987 -7.951038745728568
  endloop
endfacet
facet normal 0.17744262586517495 0.7935426054728771 0.5820689373479649
  outer loop
    vertex 4443.363439163876 4848.574374689018 -21.545583830668946
    vertex 4446.488635009197 4844.166821701082 -16.48941619169603
    vertex 4444.812597989785 4848.574374689018 -21.987357185791605
  endloop
endfacet
facet normal 0.17744262586517495 0.7935426054728771 0.5820689373479649
  outer loop
    vertex 4446.488635009197 4844.166821701082 -16.48941619169603
    vertex 4443.363439163876 4848.574374689018 -21.545583830668946
    vertex 4445.039476183287 4844.166821701082 -16.04764283657259
  endloop
endfacet
facet normal 0.2433840321965279 0.5507783727320535 0.7983779787809725
  outer loop
    vertex 4447.642384563082 4832.821375859048 -7.509265390603794
    vertex 4447.9282473846915 4838.866868102479 -11.767024142379377
    vertex 4446.479088558779 4838.866868102479 -11.32525078725525
  endloop
endfacet
facet normal 0.2433840321965279 0.5507783727320535 0.7983779787809725
  outer loop
    vertex 4447.9282473846915 4838.866868102479 -11.767024142379377
    vertex 4447.642384563082 4832.821375859048 -7.509265390603794
    vertex 4449.091543388993 4832.821375859048 -7.951038745728489
  endloop
endfacet
facet normal 0.2825355878129642 -0.24738867393566913 0.9268076853520012
  outer loop
    vertex 4449.946288034598 4797.725883530165 -5.147201138252307
    vertex 4449.01963748088 4804.743873532224 -2.991432438043514
    vertex 4448.497129208685 4797.725883530165 -4.705427783127251
  endloop
endfacet
facet normal 0.2825355878129642 -0.24738867393566913 0.9268076853520012
  outer loop
    vertex 4449.01963748088 4804.743873532224 -2.991432438043514
    vertex 4449.946288034598 4797.725883530165 -5.147201138252307
    vertex 4450.468796306794 4804.743873532224 -3.4332057931688573
  endloop
endfacet
facet normal 0.21336956948108446 -0.6816041305106061 0.6999208784500842
  outer loop
    vertex 4446.488635009197 4779.756927676954 -16.48941619169615
    vertex 4446.47908855878 4785.0568812755555 -11.325250787255476
    vertex 4445.039476183289 4779.756927676954 -16.047642836572866
  endloop
endfacet
facet normal 0.21336956948108446 -0.6816041305106061 0.6999208784500842
  outer loop
    vertex 4446.47908855878 4785.0568812755555 -11.325250787255476
    vertex 4446.488635009197 4779.756927676954 -16.48941619169615
    vertex 4447.9282473846915 4785.056881275556 -11.767024142379483
  endloop
endfacet
facet normal 3.871162177311041e-14 1.0 -6.896490884546677e-15
  outer loop
    vertex 4444.812597989785 4776.927499689017 -21.987357185792124
    vertex 4414.595661989532 4776.927499689017 -154.67349888498842
    vertex 4404.363476093158 4776.927499689018 -154.6734988849903
  endloop
endfacet
facet normal 3.871162177311041e-14 1.0 -6.896490884546677e-15
  outer loop
    vertex 4414.595661989532 4776.927499689017 -154.67349888498842
    vertex 4444.812597989785 4776.927499689017 -21.987357185792124
    vertex 4454.174737929424 4776.927499689017 -24.84138801962437
  endloop
endfacet
facet normal 0.0 -1.0 0.0
  outer loop
    vertex 4420.014241189133 4840.996249689018 -103.33395088360817
    vertex 4438.076738881126 4840.996249689018 -38.88766271759531
    vertex 4418.273105523364 4840.996249689018 -103.84995556001664
  endloop
endfacet
facet normal 0.0 -1.0 0.0
  outer loop
    vertex 4438.076738881126 4840.996249689018 -38.88766271759531
    vertex 4420.014241189133 4840.996249689018 -103.33395088360817
    vertex 4439.525897707033 4840.996249689018 -39.32943607271738
  endloop
endfacet
facet normal -5.246744510265822e-16 1.0 2.254932260412184e-14
  outer loop
    vertex 4438.076738881126 4782.927499689017 -38.887662717595234
    vertex 4420.014241189133 4782.927499689019 -103.33395088360817
    vertex 4418.273105523361 4782.927499689019 -103.84995556001792
  endloop
endfacet
facet normal -5.246744510265822e-16 1.0 2.254932260412184e-14
  outer loop
    vertex 4420.014241189133 4782.927499689019 -103.33395088360817
    vertex 4438.076738881126 4782.927499689017 -38.887662717595234
    vertex 4439.525897707033 4782.927499689017 -39.32943607271741
  endloop
endfacet
facet normal -0.28414534363239397 4.401280926426447e-17 0.958781217844837
  outer loop
    vertex 4420.014241189133 4782.927499689019 -103.33395088360817
    vertex 4418.273105523364 4840.996249689018 -103.84995556001664
    vertex 4418.273105523361 4782.927499689019 -103.84995556001792
  endloop
endfacet
facet normal -0.28414534363239397 4.401280926426447e-17 0.958781217844837
  outer loop
    vertex 4418.273105523364 4840.996249689018 -103.84995556001664
    vertex 4420.014241189133 4782.927499689019 -103.33395088360817
    vertex 4420.014241189133 4840.996249689018 -103.33395088360817
  endloop
endfacet
facet normal -0.28414534363239397 4.401280926426447e-17 0.958781217844837
  outer loop
    vertex 4418.273105523361 4775.349374689017 -103.84995556001802
    vertex 4386.394781761637 4848.574374689018 -113.29744690748136
    vertex 4386.394781761637 4775.349374689017 -113.29744690748136
  endloop
endfacet
facet normal -0.28414534363239397 4.401280926426447e-17 0.958781217844837
  outer loop
    vertex 4386.394781761637 4848.574374689018 -113.29744690748136
    vertex 4418.273105523361 4775.349374689017 -103.84995556001802
    vertex 4418.273105523361 4782.927499689019 -103.84995556001792
  endloop
endfacet
facet normal -0.28414534363239397 4.401280926426447e-17 0.958781217844837
  outer loop
    vertex 4386.394781761637 4848.574374689018 -113.29744690748136
    vertex 4418.273105523361 4782.927499689019 -103.84995556001792
    vertex 4418.273105523364 4848.574374689018 -103.84995556001675
  endloop
endfacet
facet normal -0.28414534363239397 4.401280926426447e-17 0.958781217844837
  outer loop
    vertex 4418.273105523364 4848.574374689018 -103.84995556001675
    vertex 4418.273105523361 4782.927499689019 -103.84995556001792
    vertex 4418.273105523364 4840.996249689018 -103.84995556001664
  endloop
endfacet
facet normal -0.2915995743379911 -3.7176883683401817e-16 -0.9565404791465454
  outer loop
    vertex 4439.525897707033 4840.996249689018 -39.32943607271738
    vertex 4438.076738881126 4782.927499689017 -38.887662717595234
    vertex 4438.076738881126 4840.996249689018 -38.88766271759531
  endloop
endfacet
facet normal -0.2915995743379911 -3.7176883683401817e-16 -0.9565404791465454
  outer loop
    vertex 4438.076738881126 4782.927499689017 -38.887662717595234
    vertex 4439.525897707033 4840.996249689018 -39.32943607271738
    vertex 4439.525897707033 4782.927499689017 -39.32943607271741
  endloop
endfacet
facet normal 0.29159957433816636 2.2685800910969304e-13 0.9565404791464919
  outer loop
    vertex 4454.17473792943 4775.349374689017 -24.841388019626123
    vertex 4444.812597989785 4776.927499689017 -21.987357185792124
    vertex 4444.812597989785 4775.349374689017 -21.987357185791605
  endloop
endfacet
facet normal 0.29159957433816636 2.2685800910969304e-13 0.9565404791464919
  outer loop
    vertex 4444.812597989785 4776.927499689017 -21.987357185792124
    vertex 4454.17473792943 4775.349374689017 -24.841388019626123
    vertex 4454.174737929424 4776.927499689017 -24.84138801962437
  endloop
endfacet
facet normal 0.2915995743381166 -4.728574391712214e-13 0.9565404791465072
  outer loop
    vertex 4454.174737929424 4846.996249689018 -24.841388019624244
    vertex 4444.812597989785 4848.574374689018 -21.987357185791605
    vertex 4444.812597989785 4846.996249689018 -21.987357185791627
  endloop
endfacet
facet normal 0.2915995743381166 -4.728574391712214e-13 0.9565404791465072
  outer loop
    vertex 4444.812597989785 4848.574374689018 -21.987357185791605
    vertex 4454.174737929424 4846.996249689018 -24.841388019624244
    vertex 4454.174737929428 4848.574374689018 -24.841388019624247
  endloop
endfacet
facet normal -2.953122161516688e-14 -9.339110349146767e-15 1.0
  outer loop
    vertex 4454.17473792943 4775.349374689017 -24.841388019626123
    vertex 4454.174737929424 4846.996249689018 -24.841388019624244
    vertex 4454.174737929424 4776.927499689017 -24.84138801962437
  endloop
endfacet
facet normal -2.953122161516688e-14 -9.339110349146767e-15 1.0
  outer loop
    vertex 4454.174737929424 4846.996249689018 -24.841388019624244
    vertex 4454.17473792943 4775.349374689017 -24.841388019626123
    vertex 4454.174737929428 4848.574374689018 -24.841388019624247
  endloop
endfacet
facet normal -2.953122161516688e-14 -9.339110349146767e-15 1.0
  outer loop
    vertex 4454.174737929428 4848.574374689018 -24.841388019624247
    vertex 4454.17473792943 4775.349374689017 -24.841388019626123
    vertex 4471.124394031527 4848.574374689018 -24.841388019624247
  endloop
endfacet
facet normal -2.953122161516688e-14 -9.339110349146767e-15 1.0
  outer loop
    vertex 4471.124394031527 4848.574374689018 -24.841388019624247
    vertex 4454.17473792943 4775.349374689017 -24.841388019626123
    vertex 4471.124394031527 4775.349374689017 -24.841388019624244
  endloop
endfacet
facet normal 0.23134149632856907 0.6087614290091284 0.7588745842543568
  outer loop
    vertex 4440.374158515291 4820.874929345458 -31.351386703981994
    vertex 4441.68429553309 4821.4962496890175 -32.2491963453208
    vertex 4440.235136707179 4821.4962496890175 -31.807422990197274
  endloop
endfacet
facet normal 0.23134149632856907 0.6087614290091284 0.7588745842543568
  outer loop
    vertex 4441.68429553309 4821.4962496890175 -32.2491963453208
    vertex 4440.374158515291 4820.874929345458 -31.351386703981994
    vertex 4441.823317341203 4820.874929345458 -31.793160059105514
  endloop
endfacet
facet normal 0.17751457357248496 0.7933533402910555 0.5823049489901351
  outer loop
    vertex 4440.374158515291 4820.874929345458 -31.351386703981994
    vertex 4442.004494088912 4820.398173477664 -31.198841999973496
    vertex 4441.823317341203 4820.874929345458 -31.793160059105514
  endloop
endfacet
facet normal 0.17751457357248496 0.7933533402910555 0.5823049489901351
  outer loop
    vertex 4442.004494088912 4820.398173477664 -31.198841999973496
    vertex 4440.374158515291 4820.874929345458 -31.351386703981994
    vertex 4440.555335263 4820.398173477664 -30.757068644849973
  endloop
endfacet
facet normal 0.11159032598389869 0.9238795325113114 0.36605219375587417
  outer loop
    vertex 4440.555335263 4820.398173477664 -30.757068644849973
    vertex 4442.215478880272 4820.09847221015 -30.50674396149754
    vertex 4442.004494088912 4820.398173477664 -31.198841999973496
  endloop
endfacet
facet normal 0.11159032598389869 0.9238795325113114 0.36605219375587417
  outer loop
    vertex 4442.215478880272 4820.09847221015 -30.50674396149754
    vertex 4440.555335263 4820.398173477664 -30.757068644849973
    vertex 4440.76632005436 4820.09847221015 -30.06497060637402
  endloop
endfacet
facet normal 0.038061382091295434 0.9914448613738327 0.12485358644717572
  outer loop
    vertex 4440.76632005436 4820.09847221015 -30.06497060637402
    vertex 4442.441893450419 4819.9962496890175 -29.76403128125371
    vertex 4442.215478880272 4820.09847221015 -30.50674396149754
  endloop
endfacet
facet normal 0.038061382091295434 0.9914448613738327 0.12485358644717572
  outer loop
    vertex 4442.441893450419 4819.9962496890175 -29.76403128125371
    vertex 4440.76632005436 4820.09847221015 -30.06497060637402
    vertex 4440.992734624508 4819.9962496890175 -29.322257926130188
  endloop
endfacet
facet normal -0.03806138209129502 0.9914448613738328 -0.12485358644717492
  outer loop
    vertex 4440.992734624508 4819.9962496890175 -29.322257926130188
    vertex 4442.668308020566 4820.09847221015 -29.021318601009877
    vertex 4442.441893450419 4819.9962496890175 -29.76403128125371
  endloop
endfacet
facet normal -0.03806138209129502 0.9914448613738328 -0.12485358644717492
  outer loop
    vertex 4442.668308020566 4820.09847221015 -29.021318601009877
    vertex 4440.992734624508 4819.9962496890175 -29.322257926130188
    vertex 4441.219149194654 4820.09847221015 -28.579545245886354
  endloop
endfacet
facet normal -0.11159032598389926 0.9238795325113104 -0.36605219375587655
  outer loop
    vertex 4441.219149194654 4820.09847221015 -28.579545245886354
    vertex 4442.879292811926 4820.398173477664 -28.329220562533926
    vertex 4442.668308020566 4820.09847221015 -29.021318601009877
  endloop
endfacet
facet normal -0.11159032598389926 0.9238795325113104 -0.36605219375587655
  outer loop
    vertex 4442.879292811926 4820.398173477664 -28.329220562533926
    vertex 4441.219149194654 4820.09847221015 -28.579545245886354
    vertex 4441.430133986015 4820.398173477664 -27.887447207410403
  endloop
endfacet
facet normal -0.17751457357248387 0.793353340291058 -0.5823049489901319
  outer loop
    vertex 4441.430133986015 4820.398173477664 -27.887447207410403
    vertex 4443.060469559636 4820.874929345458 -27.7349025034019
    vertex 4442.879292811926 4820.398173477664 -28.329220562533926
  endloop
endfacet
facet normal -0.17751457357248387 0.793353340291058 -0.5823049489901319
  outer loop
    vertex 4443.060469559636 4820.874929345458 -27.7349025034019
    vertex 4441.430133986015 4820.398173477664 -27.887447207410403
    vertex 4441.611310733724 4820.874929345458 -27.293129148278382
  endloop
endfacet
facet normal -0.23134149632866954 0.6087614290086789 -0.7588745842546868
  outer loop
    vertex 4441.7503325418365 4821.496249689018 -26.837092862063106
    vertex 4443.060469559636 4820.874929345458 -27.7349025034019
    vertex 4441.611310733724 4820.874929345458 -27.293129148278382
  endloop
endfacet
facet normal -0.23134149632866954 0.6087614290086789 -0.7588745842546868
  outer loop
    vertex 4443.060469559636 4820.874929345458 -27.7349025034019
    vertex 4441.7503325418365 4821.496249689018 -26.837092862063106
    vertex 4443.199491367748 4821.496249689018 -27.278866217186625
  endloop
endfacet
facet normal -0.26940287841997673 0.3826834323653201 -0.8837281707019013
  outer loop
    vertex 4441.837725303872 4822.21979255371 -26.550416468034552
    vertex 4443.199491367748 4821.496249689018 -27.278866217186625
    vertex 4441.7503325418365 4821.496249689018 -26.837092862063106
  endloop
endfacet
facet normal -0.26940287841997673 0.3826834323653201 -0.8837281707019013
  outer loop
    vertex 4443.199491367748 4821.496249689018 -27.278866217186625
    vertex 4441.837725303872 4822.21979255371 -26.550416468034552
    vertex 4443.286884129783 4822.21979255371 -26.99218982315807
  endloop
endfacet
facet normal -0.2891048995563388 0.13052619221988693 -0.9483571427458626
  outer loop
    vertex 4441.867533347521 4822.9962496890175 -26.45263648869062
    vertex 4443.286884129783 4822.21979255371 -26.99218982315807
    vertex 4441.837725303872 4822.21979255371 -26.550416468034552
  endloop
endfacet
facet normal -0.2891048995563388 0.13052619221988693 -0.9483571427458626
  outer loop
    vertex 4443.286884129783 4822.21979255371 -26.99218982315807
    vertex 4441.867533347521 4822.9962496890175 -26.45263648869062
    vertex 4443.316692173433 4822.9962496890175 -26.89440984381414
  endloop
endfacet
facet normal -0.2891048995563388 -0.13052619221988693 -0.9483571427458626
  outer loop
    vertex 4443.286884129783 4823.772706824326 -26.99218982315807
    vertex 4441.867533347521 4822.9962496890175 -26.45263648869062
    vertex 4441.837725303872 4823.772706824326 -26.550416468034552
  endloop
endfacet
facet normal -0.2891048995563388 -0.13052619221988693 -0.9483571427458626
  outer loop
    vertex 4441.867533347521 4822.9962496890175 -26.45263648869062
    vertex 4443.286884129783 4823.772706824326 -26.99218982315807
    vertex 4443.316692173433 4822.9962496890175 -26.89440984381414
  endloop
endfacet
facet normal -0.2694028784200162 -0.38268343236499414 -0.8837281707020304
  outer loop
    vertex 4443.199491367748 4824.496249689018 -27.278866217186625
    vertex 4441.837725303872 4823.772706824326 -26.550416468034552
    vertex 4441.7503325418365 4824.496249689018 -26.837092862063106
  endloop
endfacet
facet normal -0.2694028784200162 -0.38268343236499414 -0.8837281707020304
  outer loop
    vertex 4441.837725303872 4823.772706824326 -26.550416468034552
    vertex 4443.199491367748 4824.496249689018 -27.278866217186625
    vertex 4443.286884129783 4823.772706824326 -26.99218982315807
  endloop
endfacet
facet normal -0.23134149632856998 -0.608761429009124 -0.7588745842543598
  outer loop
    vertex 4443.060469559636 4825.1175700325775 -27.7349025034019
    vertex 4441.7503325418365 4824.496249689018 -26.837092862063106
    vertex 4441.611310733724 4825.1175700325775 -27.293129148278382
  endloop
endfacet
facet normal -0.23134149632856998 -0.608761429009124 -0.7588745842543598
  outer loop
    vertex 4441.7503325418365 4824.496249689018 -26.837092862063106
    vertex 4443.060469559636 4825.1175700325775 -27.7349025034019
    vertex 4443.199491367748 4824.496249689018 -27.278866217186625
  endloop
endfacet
facet normal -0.17751457357248399 -0.793353340291058 -0.5823049489901319
  outer loop
    vertex 4443.060469559636 4825.1175700325775 -27.7349025034019
    vertex 4441.430133986015 4825.594325900372 -27.887447207410403
    vertex 4442.879292811926 4825.594325900372 -28.329220562533926
  endloop
endfacet
facet normal -0.17751457357248399 -0.793353340291058 -0.5823049489901319
  outer loop
    vertex 4441.430133986015 4825.594325900372 -27.887447207410403
    vertex 4443.060469559636 4825.1175700325775 -27.7349025034019
    vertex 4441.611310733724 4825.1175700325775 -27.293129148278382
  endloop
endfacet
facet normal -0.1115903259838994 -0.9238795325113104 -0.36605219375587655
  outer loop
    vertex 4442.879292811926 4825.594325900372 -28.329220562533926
    vertex 4441.219149194654 4825.894027167885 -28.579545245886354
    vertex 4442.668308020566 4825.894027167885 -29.021318601009877
  endloop
endfacet
facet normal -0.1115903259838994 -0.9238795325113104 -0.36605219375587655
  outer loop
    vertex 4441.219149194654 4825.894027167885 -28.579545245886354
    vertex 4442.879292811926 4825.594325900372 -28.329220562533926
    vertex 4441.430133986015 4825.594325900372 -27.887447207410403
  endloop
endfacet
facet normal -0.03806138209129517 -0.9914448613738328 -0.12485358644717487
  outer loop
    vertex 4442.668308020566 4825.894027167885 -29.021318601009877
    vertex 4440.992734624508 4825.9962496890175 -29.322257926130188
    vertex 4442.441893450419 4825.9962496890175 -29.76403128125371
  endloop
endfacet
facet normal -0.03806138209129517 -0.9914448613738328 -0.12485358644717487
  outer loop
    vertex 4440.992734624508 4825.9962496890175 -29.322257926130188
    vertex 4442.668308020566 4825.894027167885 -29.021318601009877
    vertex 4441.219149194654 4825.894027167885 -28.579545245886354
  endloop
endfacet
facet normal 0.03806138209129502 -0.9914448613738328 0.12485358644717492
  outer loop
    vertex 4442.441893450419 4825.9962496890175 -29.76403128125371
    vertex 4440.76632005436 4825.894027167885 -30.064970606374025
    vertex 4442.215478880272 4825.894027167885 -30.506743961497545
  endloop
endfacet
facet normal 0.03806138209129502 -0.9914448613738328 0.12485358644717492
  outer loop
    vertex 4440.76632005436 4825.894027167885 -30.064970606374025
    vertex 4442.441893450419 4825.9962496890175 -29.76403128125371
    vertex 4440.992734624508 4825.9962496890175 -29.322257926130188
  endloop
endfacet
facet normal 0.11159032598389926 -0.9238795325113104 0.36605219375587655
  outer loop
    vertex 4442.215478880272 4825.894027167885 -30.506743961497545
    vertex 4440.555335263 4825.594325900372 -30.757068644849973
    vertex 4442.004494088912 4825.594325900372 -31.198841999973496
  endloop
endfacet
facet normal 0.11159032598389926 -0.9238795325113104 0.36605219375587655
  outer loop
    vertex 4440.555335263 4825.594325900372 -30.757068644849973
    vertex 4442.215478880272 4825.894027167885 -30.506743961497545
    vertex 4440.76632005436 4825.894027167885 -30.064970606374025
  endloop
endfacet
facet normal 0.17751457357248387 -0.793353340291058 0.5823049489901319
  outer loop
    vertex 4442.004494088912 4825.594325900372 -31.198841999973496
    vertex 4440.374158515291 4825.1175700325775 -31.351386703981998
    vertex 4441.823317341203 4825.1175700325775 -31.79316005910552
  endloop
endfacet
facet normal 0.17751457357248387 -0.793353340291058 0.5823049489901319
  outer loop
    vertex 4440.374158515291 4825.1175700325775 -31.351386703981998
    vertex 4442.004494088912 4825.594325900372 -31.198841999973496
    vertex 4440.555335263 4825.594325900372 -30.757068644849973
  endloop
endfacet
facet normal 0.23134149632866954 -0.6087614290086789 0.7588745842546868
  outer loop
    vertex 4441.68429553309 4824.4962496890175 -32.2491963453208
    vertex 4440.374158515291 4825.1175700325775 -31.351386703981998
    vertex 4440.235136707179 4824.4962496890175 -31.807422990197274
  endloop
endfacet
facet normal 0.23134149632866954 -0.6087614290086789 0.7588745842546868
  outer loop
    vertex 4440.374158515291 4825.1175700325775 -31.351386703981998
    vertex 4441.68429553309 4824.4962496890175 -32.2491963453208
    vertex 4441.823317341203 4825.1175700325775 -31.79316005910552
  endloop
endfacet
facet normal 0.26940287841997673 -0.3826834323653201 0.8837281707019013
  outer loop
    vertex 4441.596902771054 4823.772706824326 -32.53587273934935
    vertex 4440.235136707179 4824.4962496890175 -31.807422990197274
    vertex 4440.147743945143 4823.772706824326 -32.09409938422583
  endloop
endfacet
facet normal 0.26940287841997673 -0.3826834323653201 0.8837281707019013
  outer loop
    vertex 4440.235136707179 4824.4962496890175 -31.807422990197274
    vertex 4441.596902771054 4823.772706824326 -32.53587273934935
    vertex 4441.68429553309 4824.4962496890175 -32.2491963453208
  endloop
endfacet
facet normal 0.2891048995563388 -0.13052619221988693 0.9483571427458626
  outer loop
    vertex 4441.567094727405 4822.9962496890175 -32.633652718693284
    vertex 4440.147743945143 4823.772706824326 -32.09409938422583
    vertex 4440.117935901493 4822.9962496890175 -32.19187936356976
  endloop
endfacet
facet normal 0.2891048995563388 -0.13052619221988693 0.9483571427458626
  outer loop
    vertex 4440.147743945143 4823.772706824326 -32.09409938422583
    vertex 4441.567094727405 4822.9962496890175 -32.633652718693284
    vertex 4441.596902771054 4823.772706824326 -32.53587273934935
  endloop
endfacet
facet normal 0.2891048995563388 0.13052619221988693 0.9483571427458626
  outer loop
    vertex 4440.147743945143 4822.21979255371 -32.09409938422583
    vertex 4441.567094727405 4822.9962496890175 -32.633652718693284
    vertex 4440.117935901493 4822.9962496890175 -32.19187936356976
  endloop
endfacet
facet normal 0.2891048995563388 0.13052619221988693 0.9483571427458626
  outer loop
    vertex 4441.567094727405 4822.9962496890175 -32.633652718693284
    vertex 4440.147743945143 4822.21979255371 -32.09409938422583
    vertex 4441.596902771054 4822.21979255371 -32.53587273934935
  endloop
endfacet
facet normal 0.2694028784200162 0.38268343236499414 0.8837281707020304
  outer loop
    vertex 4440.235136707179 4821.4962496890175 -31.807422990197274
    vertex 4441.596902771054 4822.21979255371 -32.53587273934935
    vertex 4440.147743945143 4822.21979255371 -32.09409938422583
  endloop
endfacet
facet normal 0.2694028784200162 0.38268343236499414 0.8837281707020304
  outer loop
    vertex 4441.596902771054 4822.21979255371 -32.53587273934935
    vertex 4440.235136707179 4821.4962496890175 -31.807422990197274
    vertex 4441.68429553309 4821.4962496890175 -32.2491963453208
  endloop
endfacet
facet normal 1.0 -0.0 -0.0
  outer loop
    vertex 4471.124394031527 4806.961874689018 -178.58701086365306
    vertex 4471.124394031527 4775.349374689017 -24.841388019624244
    vertex 4471.124394031527 4775.349374689017 -178.58701086365306
  endloop
endfacet
facet normal 1.0 -0.0 -0.0
  outer loop
    vertex 4471.124394031527 4775.349374689017 -24.841388019624244
    vertex 4471.124394031527 4806.961874689018 -178.58701086365306
    vertex 4471.124394031527 4806.961874689017 -173.80430846792032
  endloop
endfacet
facet normal 1.0 -0.0 -0.0
  outer loop
    vertex 4471.124394031527 4806.961874689017 -173.80430846792032
    vertex 4471.124394031527 4848.574374689018 -24.841388019624247
    vertex 4471.124394031527 4775.349374689017 -24.841388019624244
  endloop
endfacet
facet normal 1.0 -0.0 -0.0
  outer loop
    vertex 4471.124394031527 4848.574374689018 -24.841388019624247
    vertex 4471.124394031527 4806.961874689017 -173.80430846792032
    vertex 4471.124394031527 4816.961874689018 -173.80430846792032
  endloop
endfacet
facet normal 1.0 -0.0 -0.0
  outer loop
    vertex 4471.124394031527 4848.574374689018 -24.841388019624247
    vertex 4471.124394031527 4816.961874689018 -173.80430846792032
    vertex 4471.124394031527 4816.961874689019 -178.58701086365306
  endloop
endfacet
facet normal 1.0 -0.0 -0.0
  outer loop
    vertex 4471.124394031527 4848.574374689018 -24.841388019624247
    vertex 4471.124394031527 4816.961874689019 -178.58701086365306
    vertex 4471.124394031527 4848.574374689018 -178.58701086365306
  endloop
endfacet
facet normal -4.219728750630408e-15 -1.0 -1.4744069506505567e-14
  outer loop
    vertex 4471.124394031527 4816.961874689018 -173.80430846792032
    vertex 4398.531484606397 4816.961874689019 -178.58701086365306
    vertex 4471.124394031527 4816.961874689019 -178.58701086365306
  endloop
endfacet
facet normal -4.219728750630408e-15 -1.0 -1.4744069506505567e-14
  outer loop
    vertex 4398.531484606397 4816.961874689019 -178.58701086365306
    vertex 4471.124394031527 4816.961874689018 -173.80430846792032
    vertex 4398.531484606397 4816.961874689019 -173.80430846792044
  endloop
endfacet
facet normal -4.219728750630408e-15 -1.0 -1.4744069506505567e-14
  outer loop
    vertex 4398.531484606397 4816.961874689019 -173.80430846792044
    vertex 4471.124394031527 4816.961874689018 -173.80430846792032
    vertex 4418.763670502776 4816.961874689018 -173.80430846792032
  endloop
endfacet
facet normal -4.219728750630408e-15 -1.0 -1.4744069506505567e-14
  outer loop
    vertex 4398.531484606397 4816.961874689019 -173.80430846792044
    vertex 4418.763670502776 4816.961874689018 -173.80430846792032
    vertex 4404.363476093158 4816.961874689019 -154.6734988849903
  endloop
endfacet
facet normal -4.219728750630408e-15 -1.0 -1.4744069506505567e-14
  outer loop
    vertex 4404.363476093158 4816.961874689019 -154.6734988849903
    vertex 4418.763670502776 4816.961874689018 -173.80430846792032
    vertex 4411.679666246155 4816.961874689018 -164.23890367645438
  endloop
endfacet
facet normal -4.219728750630408e-15 -1.0 -1.4744069506505567e-14
  outer loop
    vertex 4404.363476093158 4816.961874689019 -154.6734988849903
    vertex 4411.679666246155 4816.961874689018 -164.23890367645438
    vertex 4414.595661989532 4816.961874689018 -154.67349888498845
  endloop
endfacet
facet normal 4.2197287506303605e-15 1.0 1.4744069506505535e-14
  outer loop
    vertex 4404.363476093158 4806.961874689018 -154.6734988849903
    vertex 4418.763670502776 4806.961874689017 -173.80430846792032
    vertex 4398.531484606397 4806.961874689018 -173.80430846792044
  endloop
endfacet
facet normal 4.2197287506303605e-15 1.0 1.4744069506505535e-14
  outer loop
    vertex 4418.763670502776 4806.961874689017 -173.80430846792032
    vertex 4404.363476093158 4806.961874689018 -154.6734988849903
    vertex 4411.679666246154 4806.961874689017 -164.23890367645438
  endloop
endfacet
facet normal 4.2197287506303605e-15 1.0 1.4744069506505535e-14
  outer loop
    vertex 4411.679666246154 4806.961874689017 -164.23890367645438
    vertex 4404.363476093158 4806.961874689018 -154.6734988849903
    vertex 4414.595661989532 4806.961874689017 -154.67349888498845
  endloop
endfacet
facet normal 4.2197287506303605e-15 1.0 1.4744069506505535e-14
  outer loop
    vertex 4398.531484606397 4806.961874689018 -173.80430846792044
    vertex 4471.124394031527 4806.961874689018 -178.58701086365306
    vertex 4398.531484606397 4806.961874689018 -178.58701086365306
  endloop
endfacet
facet normal 4.2197287506303605e-15 1.0 1.4744069506505535e-14
  outer loop
    vertex 4471.124394031527 4806.961874689018 -178.58701086365306
    vertex 4398.531484606397 4806.961874689018 -173.80430846792044
    vertex 4471.124394031527 4806.961874689017 -173.80430846792032
  endloop
endfacet
facet normal 4.2197287506303605e-15 1.0 1.4744069506505535e-14
  outer loop
    vertex 4471.124394031527 4806.961874689017 -173.80430846792032
    vertex 4398.531484606397 4806.961874689018 -173.80430846792044
    vertex 4418.763670502776 4806.961874689017 -173.80430846792032
  endloop
endfacet
facet normal 0.0 0.0 -1.0
  outer loop
    vertex 4386.394781761637 4848.574374689018 -178.58701086365306
    vertex 4398.531484606397 4816.961874689019 -178.58701086365306
    vertex 4386.394781761637 4775.349374689017 -178.58701086365306
  endloop
endfacet
facet normal 0.0 0.0 -1.0
  outer loop
    vertex 4398.531484606397 4816.961874689019 -178.58701086365306
    vertex 4386.394781761637 4848.574374689018 -178.58701086365306
    vertex 4471.124394031527 4848.574374689018 -178.58701086365306
  endloop
endfacet
facet normal 0.0 0.0 -1.0
  outer loop
    vertex 4398.531484606397 4816.961874689019 -178.58701086365306
    vertex 4471.124394031527 4848.574374689018 -178.58701086365306
    vertex 4471.124394031527 4816.961874689019 -178.58701086365306
  endloop
endfacet
facet normal 0.0 0.0 -1.0
  outer loop
    vertex 4386.394781761637 4775.349374689017 -178.58701086365306
    vertex 4398.531484606397 4806.961874689018 -178.58701086365306
    vertex 4471.124394031527 4775.349374689017 -178.58701086365306
  endloop
endfacet
facet normal 0.0 0.0 -1.0
  outer loop
    vertex 4398.531484606397 4806.961874689018 -178.58701086365306
    vertex 4386.394781761637 4775.349374689017 -178.58701086365306
    vertex 4398.531484606397 4816.961874689019 -178.58701086365306
  endloop
endfacet
facet normal 0.0 0.0 -1.0
  outer loop
    vertex 4471.124394031527 4775.349374689017 -178.58701086365306
    vertex 4398.531484606397 4806.961874689018 -178.58701086365306
    vertex 4471.124394031527 4806.961874689018 -178.58701086365306
  endloop
endfacet
facet normal 1.0 -0.0 -0.0
  outer loop
    vertex 4398.531484606397 4816.961874689019 -178.58701086365306
    vertex 4398.531484606397 4806.961874689018 -173.80430846792044
    vertex 4398.531484606397 4806.961874689018 -178.58701086365306
  endloop
endfacet
facet normal 1.0 -0.0 -0.0
  outer loop
    vertex 4398.531484606397 4806.961874689018 -173.80430846792044
    vertex 4398.531484606397 4816.961874689019 -178.58701086365306
    vertex 4398.531484606397 4816.961874689019 -173.80430846792044
  endloop
endfacet
facet normal -1.7858728322543594e-13 7.511303917722162e-16 1.0
  outer loop
    vertex 4414.595661989532 4816.961874689018 -154.67349888498845
    vertex 4404.363476093158 4846.996249689018 -154.6734988849903
    vertex 4404.363476093158 4816.961874689019 -154.6734988849903
  endloop
endfacet
facet normal -1.7858728322543594e-13 7.511303917722162e-16 1.0
  outer loop
    vertex 4404.363476093158 4846.996249689018 -154.6734988849903
    vertex 4414.595661989532 4816.961874689018 -154.67349888498845
    vertex 4414.595661989532 4846.996249689018 -154.6734988849885
  endloop
endfacet
facet normal -0.9565404791465931 5.759264001099923e-16 0.2915995743378344
  outer loop
    vertex 4454.174737929424 4846.996249689018 -24.841388019624244
    vertex 4414.595661989532 4776.927499689017 -154.67349888498842
    vertex 4454.174737929424 4776.927499689017 -24.84138801962437
  endloop
endfacet
facet normal -0.9565404791465931 5.759264001099923e-16 0.2915995743378344
  outer loop
    vertex 4414.595661989532 4776.927499689017 -154.67349888498842
    vertex 4454.174737929424 4846.996249689018 -24.841388019624244
    vertex 4414.595661989532 4806.961874689017 -154.67349888498845
  endloop
endfacet
facet normal -0.9565404791465931 5.759264001099923e-16 0.2915995743378344
  outer loop
    vertex 4414.595661989532 4806.961874689017 -154.67349888498845
    vertex 4454.174737929424 4846.996249689018 -24.841388019624244
    vertex 4411.679666246154 4806.961874689017 -164.23890367645438
  endloop
endfacet
facet normal -0.9565404791465931 5.759264001099923e-16 0.2915995743378344
  outer loop
    vertex 4411.679666246154 4806.961874689017 -164.23890367645438
    vertex 4454.174737929424 4846.996249689018 -24.841388019624244
    vertex 4414.595661989532 4816.961874689018 -154.67349888498845
  endloop
endfacet
facet normal -0.9565404791465931 5.759264001099923e-16 0.2915995743378344
  outer loop
    vertex 4414.595661989532 4816.961874689018 -154.67349888498845
    vertex 4454.174737929424 4846.996249689018 -24.841388019624244
    vertex 4414.595661989532 4846.996249689018 -154.6734988849885
  endloop
endfacet
facet normal -0.9565404791465931 5.759264001099923e-16 0.2915995743378344
  outer loop
    vertex 4411.679666246155 4816.961874689018 -164.23890367645438
    vertex 4411.679666246154 4806.961874689017 -164.23890367645438
    vertex 4414.595661989532 4816.961874689018 -154.67349888498845
  endloop
endfacet
facet normal 0.0 0.0 -1.0
  outer loop
    vertex 4471.124394031527 4816.961874689018 -173.80430846792032
    vertex 4418.763670502776 4806.961874689017 -173.80430846792032
    vertex 4418.763670502776 4816.961874689018 -173.80430846792032
  endloop
endfacet
facet normal 0.0 0.0 -1.0
  outer loop
    vertex 4418.763670502776 4806.961874689017 -173.80430846792032
    vertex 4471.124394031527 4816.961874689018 -173.80430846792032
    vertex 4471.124394031527 4806.961874689017 -173.80430846792032
  endloop
endfacet
facet normal -0.8036166916938199 2.89962390153786e-14 -0.5951472194600931
  outer loop
    vertex 4411.679666246155 4816.961874689018 -164.23890367645438
    vertex 4418.763670502776 4806.961874689017 -173.80430846792032
    vertex 4411.679666246154 4806.961874689017 -164.23890367645438
  endloop
endfacet
facet normal -0.8036166916938199 2.89962390153786e-14 -0.5951472194600931
  outer loop
    vertex 4418.763670502776 4806.961874689017 -173.80430846792032
    vertex 4411.679666246155 4816.961874689018 -164.23890367645438
    vertex 4418.763670502776 4816.961874689018 -173.80430846792032
  endloop
endfacet
endsolid HandySlotmachine
