solid IpadAirSlotmachineTop
facet normal 0.28810247073668266 0.15440799361843166 0.9450688535033568
  outer loop
    vertex 485.72026036477746 707.1972938768636 176.3783972640011
    vertex 487.89580338748664 715.3428656626713 174.38434073640215
    vertex 485.3490516668376 715.3428656626713 175.16071323069485
  endloop
endfacet
facet normal 0.28810247073668266 0.15440799361843166 0.9450688535033568
  outer loop
    vertex 487.89580338748664 715.3428656626713 174.38434073640215
    vertex 485.72026036477746 707.1972938768636 176.3783972640011
    vertex 488.2670120854264 707.1972938768636 175.6020247697084
  endloop
endfacet
facet normal 0.2606269119535207 -0.44849850524791024 0.8549401754251359
  outer loop
    vertex 483.8905706276409 627.454539916836 161.2458878703695
    vertex 482.42204382436455 634.8232904006567 165.55918520905675
    vertex 481.34381890699194 627.454539916836 162.02226036466217
  endloop
endfacet
facet normal 0.2606269119535207 -0.44849850524791024 0.8549401754251359
  outer loop
    vertex 482.42204382436455 634.8232904006567 165.55918520905675
    vertex 483.8905706276409 627.454539916836 161.2458878703695
    vertex 484.9687955450135 634.8232904006567 164.78281271476408
  endloop
endfacet
facet normal -0.2915995743381054 5.554392537502688e-19 -0.9565404791465106
  outer loop
    vertex 468.2523644825426 765.9325673258741 119.07807529061282
    vertex 470.799116203193 615.5634423258737 118.30170279632057
    vertex 468.25236448254043 615.5634423258723 119.0780752906135
  endloop
endfacet
facet normal -0.2915995743381054 5.554392537502688e-19 -0.9565404791465106
  outer loop
    vertex 470.799116203193 615.5634423258737 118.30170279632057
    vertex 468.2523644825426 765.9325673258741 119.07807529061282
    vertex 470.7991162031923 765.9325673258755 118.3017027963208
  endloop
endfacet
facet normal 0.2914594209238758 0.031000678929965553 0.9560807308279987
  outer loop
    vertex 486.01808593679584 690.7480048258735 177.35536101988896
    vertex 488.490309639878 698.98848825427 176.3345126350024
    vertex 485.943557919229 698.98848825427 177.1108851292951
  endloop
endfacet
facet normal 0.2914594209238758 0.031000678929965553 0.9560807308279987
  outer loop
    vertex 488.490309639878 698.98848825427 176.3345126350024
    vertex 486.01808593679584 690.7480048258735 177.35536101988896
    vertex 488.5648376574448 690.7480048258735 176.57898852559623
  endloop
endfacet
facet normal 0.2205420095241814 -0.6542041493894692 0.7234487908322448
  outer loop
    vertex 478.3156958186127 600.6812548258721 142.9585037645545
    vertex 477.34170121234695 606.916677818848 148.89402591532772
    vertex 475.7689440979608 600.6812548258721 143.73487625884704
  endloop
endfacet
facet normal 0.2205420095241814 -0.6542041493894692 0.7234487908322448
  outer loop
    vertex 477.34170121234695 606.916677818848 148.89402591532772
    vertex 478.3156958186127 600.6812548258721 142.9585037645545
    vertex 479.88845293299596 606.916677818848 148.11765342103496
  endloop
endfacet
facet normal -0.9565404791465912 -1.8157169385848428e-16 0.2915995743378404
  outer loop
    vertex 494.76872054853385 604.5634423258726 137.9428299771768
    vertex 452.7171070714031 776.9325673258737 0.0
    vertex 452.7171070714031 604.5634423258712 0.0
  endloop
endfacet
facet normal -0.9565404791465912 -1.8157169385848428e-16 0.2915995743378404
  outer loop
    vertex 452.7171070714031 776.9325673258737 0.0
    vertex 494.76872054853385 604.5634423258726 137.9428299771768
    vertex 494.76872054853385 776.9325673258752 137.94282997717704
  endloop
endfacet
facet normal 8.031806941968139e-14 1.0 -2.4301316871632837e-14
  outer loop
    vertex 478.3156958186127 604.5634423258726 142.9585037645536
    vertex 452.7171070714031 604.5634423258712 0.0
    vertex 434.73506357714723 604.563442325874 0.0
  endloop
endfacet
facet normal 8.031806941968139e-14 1.0 -2.4301316871632837e-14
  outer loop
    vertex 452.7171070714031 604.5634423258712 0.0
    vertex 478.3156958186127 604.5634423258726 142.9585037645536
    vertex 494.76872054853385 604.5634423258726 137.9428299771768
  endloop
endfacet
facet normal -0.9565404791465157 7.465257611252855e-15 0.2915995743380881
  outer loop
    vertex 486.01808593679584 690.7480048258735 177.35536101988896
    vertex 471.04163244810405 687.7480048258727 128.2277721730727
    vertex 485.943557919229 682.5075213974778 177.1108851292951
  endloop
endfacet
facet normal -0.9565404791465157 7.465257611252855e-15 0.2915995743380881
  outer loop
    vertex 471.04163244810405 687.7480048258727 128.2277721730727
    vertex 486.01808593679584 690.7480048258735 177.35536101988896
    vertex 471.26804701825137 687.8502273470061 128.97048485331672
  endloop
endfacet
facet normal -0.9565404791465157 7.465257611252855e-15 0.2915995743380881
  outer loop
    vertex 471.26804701825137 687.8502273470061 128.97048485331672
    vertex 486.01808593679584 690.7480048258735 177.35536101988896
    vertex 471.4790318096105 688.14992861452 129.66258289179257
  endloop
endfacet
facet normal -0.9565404791465157 7.465257611252855e-15 0.2915995743380881
  outer loop
    vertex 471.4790318096105 688.14992861452 129.66258289179257
    vertex 486.01808593679584 690.7480048258735 177.35536101988896
    vertex 471.6602085573206 688.6266844823147 130.256900950924
  endloop
endfacet
facet normal -0.9565404791465157 7.465257611252855e-15 0.2915995743380881
  outer loop
    vertex 471.6602085573206 688.6266844823147 130.256900950924
    vertex 486.01808593679584 690.7480048258735 177.35536101988896
    vertex 471.799230365433 689.2480048258739 130.71293723713953
  endloop
endfacet
facet normal -0.9565404791465157 7.465257611252855e-15 0.2915995743380881
  outer loop
    vertex 471.799230365433 689.2480048258739 130.71293723713953
    vertex 486.01808593679584 690.7480048258735 177.35536101988896
    vertex 471.88662312746857 689.9715476905671 130.9996136311682
  endloop
endfacet
facet normal -0.9565404791465157 7.465257611252855e-15 0.2915995743380881
  outer loop
    vertex 471.88662312746857 689.9715476905671 130.9996136311682
    vertex 486.01808593679584 690.7480048258735 177.35536101988896
    vertex 471.9164311711176 690.7480048258757 131.0973936105116
  endloop
endfacet
facet normal -0.9565404791465157 7.465257611252855e-15 0.2915995743380881
  outer loop
    vertex 471.9164311711176 690.7480048258757 131.0973936105116
    vertex 486.01808593679584 690.7480048258735 177.35536101988896
    vertex 485.943557919229 698.98848825427 177.1108851292951
  endloop
endfacet
facet normal -0.9565404791465157 7.465257611252855e-15 0.2915995743380881
  outer loop
    vertex 471.9164311711176 690.7480048258757 131.0973936105116
    vertex 485.943557919229 698.98848825427 177.1108851292951
    vertex 471.8866231274679 691.524461961182 130.99961363116782
  endloop
endfacet
facet normal -0.9565404791465157 7.465257611252855e-15 0.2915995743380881
  outer loop
    vertex 471.8866231274679 691.524461961182 130.99961363116782
    vertex 485.943557919229 698.98848825427 177.1108851292951
    vertex 471.79923036543084 692.2480048258753 130.7129372371377
  endloop
endfacet
facet normal -0.9565404791465157 7.465257611252855e-15 0.2915995743380881
  outer loop
    vertex 471.79923036543084 692.2480048258753 130.7129372371377
    vertex 485.943557919229 698.98848825427 177.1108851292951
    vertex 471.66020855731915 692.8693251694345 130.25690095092256
  endloop
endfacet
facet normal -0.9565404791465157 7.465257611252855e-15 0.2915995743380881
  outer loop
    vertex 471.66020855731915 692.8693251694345 130.25690095092256
    vertex 485.943557919229 698.98848825427 177.1108851292951
    vertex 471.4790318096105 693.3460810372263 129.66258289179243
  endloop
endfacet
facet normal -0.9565404791465157 7.465257611252855e-15 0.2915995743380881
  outer loop
    vertex 471.4790318096105 693.3460810372263 129.66258289179243
    vertex 485.943557919229 698.98848825427 177.1108851292951
    vertex 471.2680470182506 693.6457823047409 128.9704848533164
  endloop
endfacet
facet normal -0.9565404791465157 7.465257611252855e-15 0.2915995743380881
  outer loop
    vertex 471.2680470182506 693.6457823047409 128.9704848533164
    vertex 485.943557919229 698.98848825427 177.1108851292951
    vertex 471.04163244810405 693.7480048258735 128.22777217307262
  endloop
endfacet
facet normal -0.9565404791465157 7.465257611252855e-15 0.2915995743380881
  outer loop
    vertex 480.13450662398554 620.3291001692553 158.05532675973208
    vertex 468.25236448254043 615.5634423258723 119.0780752906135
    vertex 478.79875577537985 613.4743625480618 153.67363395498214
  endloop
endfacet
facet normal -0.9565404791465157 7.465257611252855e-15 0.2915995743380881
  outer loop
    vertex 468.25236448254043 615.5634423258723 119.0780752906135
    vertex 480.13450662398554 620.3291001692553 158.05532675973208
    vertex 470.28403453077516 689.2480048258739 125.74260710900467
  endloop
endfacet
facet normal -0.9565404791465157 7.465257611252855e-15 0.2915995743380881
  outer loop
    vertex 468.25236448254043 615.5634423258723 119.0780752906135
    vertex 470.28403453077516 689.2480048258739 125.74260710900467
    vertex 470.19664176873886 689.9715476905671 125.45593071497599
  endloop
endfacet
facet normal -0.9565404791465157 7.465257611252855e-15 0.2915995743380881
  outer loop
    vertex 468.25236448254043 615.5634423258723 119.0780752906135
    vertex 470.19664176873886 689.9715476905671 125.45593071497599
    vertex 470.1668337250884 690.7480048258757 125.35815073563249
  endloop
endfacet
facet normal -0.9565404791465157 7.465257611252855e-15 0.2915995743380881
  outer loop
    vertex 468.25236448254043 615.5634423258723 119.0780752906135
    vertex 470.1668337250884 690.7480048258757 125.35815073563249
    vertex 468.2523644825426 765.9325673258741 119.07807529061282
  endloop
endfacet
facet normal -0.9565404791465157 7.465257611252855e-15 0.2915995743380881
  outer loop
    vertex 470.28403453077516 689.2480048258739 125.74260710900467
    vertex 480.13450662398554 620.3291001692553 158.05532675973208
    vertex 481.34381890699194 627.454539916836 162.02226036466217
  endloop
endfacet
facet normal -0.9565404791465157 7.465257611252855e-15 0.2915995743380881
  outer loop
    vertex 470.28403453077516 689.2480048258739 125.74260710900467
    vertex 481.34381890699194 627.454539916836 162.02226036466217
    vertex 482.42204382436455 634.8232904006567 165.55918520905675
  endloop
endfacet
facet normal -0.9565404791465157 7.465257611252855e-15 0.2915995743380881
  outer loop
    vertex 470.28403453077516 689.2480048258739 125.74260710900467
    vertex 482.42204382436455 634.8232904006567 165.55918520905675
    vertex 470.4230563388861 688.6266844823132 126.19864339522034
  endloop
endfacet
facet normal -0.9565404791465157 7.465257611252855e-15 0.2915995743380881
  outer loop
    vertex 470.4230563388861 688.6266844823132 126.19864339522034
    vertex 482.42204382436455 634.8232904006567 165.55918520905675
    vertex 483.3650364979726 642.4070249031348 168.65250475827904
  endloop
endfacet
facet normal -0.9565404791465157 7.465257611252855e-15 0.2915995743380881
  outer loop
    vertex 470.4230563388861 688.6266844823132 126.19864339522034
    vertex 483.3650364979726 642.4070249031348 168.65250475827904
    vertex 484.16917190520144 650.1765902719187 171.29032777113952
  endloop
endfacet
facet normal -0.9565404791465157 7.465257611252855e-15 0.2915995743380881
  outer loop
    vertex 470.4230563388861 688.6266844823132 126.19864339522034
    vertex 484.16917190520144 650.1765902719187 171.29032777113952
    vertex 470.60423308659625 688.14992861452 126.79296145435306
  endloop
endfacet
facet normal -0.9565404791465157 7.465257611252855e-15 0.2915995743380881
  outer loop
    vertex 470.60423308659625 688.14992861452 126.79296145435306
    vertex 484.16917190520144 650.1765902719187 171.29032777113952
    vertex 484.8313588141479 658.1021189895208 173.46251401182954
  endloop
endfacet
facet normal -0.9565404791465157 7.465257611252855e-15 0.2915995743380881
  outer loop
    vertex 470.60423308659625 688.14992861452 126.79296145435306
    vertex 484.8313588141479 658.1021189895208 173.46251401182954
    vertex 485.3490516668376 666.1531439890764 175.16071323069477
  endloop
endfacet
facet normal -0.9565404791465157 7.465257611252855e-15 0.2915995743380881
  outer loop
    vertex 470.60423308659625 688.14992861452 126.79296145435306
    vertex 485.3490516668376 666.1531439890764 175.16071323069477
    vertex 470.8152178779561 687.8502273470054 127.48505949282877
  endloop
endfacet
facet normal -0.9565404791465157 7.465257611252855e-15 0.2915995743380881
  outer loop
    vertex 470.8152178779561 687.8502273470054 127.48505949282877
    vertex 485.3490516668376 666.1531439890764 175.16071323069477
    vertex 485.72026036477746 674.2987157748842 176.37839726400105
  endloop
endfacet
facet normal -0.9565404791465157 7.465257611252855e-15 0.2915995743380881
  outer loop
    vertex 470.8152178779561 687.8502273470054 127.48505949282877
    vertex 485.72026036477746 674.2987157748842 176.37839726400105
    vertex 471.04163244810405 687.7480048258727 128.2277721730727
  endloop
endfacet
facet normal -0.9565404791465157 7.465257611252855e-15 0.2915995743380881
  outer loop
    vertex 471.04163244810405 687.7480048258727 128.2277721730727
    vertex 485.72026036477746 674.2987157748842 176.37839726400105
    vertex 485.943557919229 682.5075213974778 177.1108851292951
  endloop
endfacet
facet normal -0.9565404791465157 7.465257611252855e-15 0.2915995743380881
  outer loop
    vertex 468.2523644825426 765.9325673258741 119.07807529061282
    vertex 470.1668337250884 690.7480048258757 125.35815073563249
    vertex 470.1966417687396 691.524461961182 125.45593071497672
  endloop
endfacet
facet normal -0.9565404791465157 7.465257611252855e-15 0.2915995743380881
  outer loop
    vertex 468.2523644825426 765.9325673258741 119.07807529061282
    vertex 470.1966417687396 691.524461961182 125.45593071497672
    vertex 470.28403453077584 692.2480048258753 125.74260710900538
  endloop
endfacet
facet normal -0.9565404791465157 7.465257611252855e-15 0.2915995743380881
  outer loop
    vertex 468.2523644825426 765.9325673258741 119.07807529061282
    vertex 470.28403453077584 692.2480048258753 125.74260710900538
    vertex 470.42305633888753 692.8693251694324 126.19864339522134
  endloop
endfacet
facet normal -0.9565404791465157 7.465257611252855e-15 0.2915995743380881
  outer loop
    vertex 468.2523644825426 765.9325673258741 119.07807529061282
    vertex 470.42305633888753 692.8693251694324 126.19864339522134
    vertex 470.60423308659625 693.3460810372278 126.79296145435269
  endloop
endfacet
facet normal -0.9565404791465157 7.465257611252855e-15 0.2915995743380881
  outer loop
    vertex 468.2523644825426 765.9325673258741 119.07807529061282
    vertex 470.60423308659625 693.3460810372278 126.79296145435269
    vertex 470.8152178779561 693.6457823047416 127.48505949282877
  endloop
endfacet
facet normal -0.9565404791465157 7.465257611252855e-15 0.2915995743380881
  outer loop
    vertex 468.2523644825426 765.9325673258741 119.07807529061282
    vertex 470.8152178779561 693.6457823047416 127.48505949282877
    vertex 471.04163244810405 693.7480048258735 128.22777217307262
  endloop
endfacet
facet normal -0.9565404791465157 7.465257611252855e-15 0.2915995743380881
  outer loop
    vertex 468.2523644825426 765.9325673258741 119.07807529061282
    vertex 471.04163244810405 693.7480048258735 128.22777217307262
    vertex 485.943557919229 698.98848825427 177.1108851292951
  endloop
endfacet
facet normal -0.9565404791465157 7.465257611252855e-15 0.2915995743380881
  outer loop
    vertex 468.2523644825426 765.9325673258741 119.07807529061282
    vertex 485.943557919229 698.98848825427 177.1108851292951
    vertex 485.72026036477746 707.1972938768636 176.3783972640011
  endloop
endfacet
facet normal -0.9565404791465157 7.465257611252855e-15 0.2915995743380881
  outer loop
    vertex 468.2523644825426 765.9325673258741 119.07807529061282
    vertex 485.72026036477746 707.1972938768636 176.3783972640011
    vertex 485.3490516668376 715.3428656626713 175.16071323069485
  endloop
endfacet
facet normal -0.9565404791465157 7.465257611252855e-15 0.2915995743380881
  outer loop
    vertex 468.2523644825426 765.9325673258741 119.07807529061282
    vertex 485.3490516668376 715.3428656626713 175.16071323069485
    vertex 484.83135881414864 723.3938906622277 173.46251401182968
  endloop
endfacet
facet normal -0.9565404791465157 7.465257611252855e-15 0.2915995743380881
  outer loop
    vertex 468.2523644825426 765.9325673258741 119.07807529061282
    vertex 484.83135881414864 723.3938906622277 173.46251401182968
    vertex 484.1691719052021 731.3194193798291 171.29032777113966
  endloop
endfacet
facet normal -0.9565404791465157 7.465257611252855e-15 0.2915995743380881
  outer loop
    vertex 468.2523644825426 765.9325673258741 119.07807529061282
    vertex 484.1691719052021 731.3194193798291 171.29032777113966
    vertex 483.3650364979733 739.0889847486137 168.65250475827918
  endloop
endfacet
facet normal -0.9565404791465157 7.465257611252855e-15 0.2915995743380881
  outer loop
    vertex 468.2523644825426 765.9325673258741 119.07807529061282
    vertex 483.3650364979733 739.0889847486137 168.65250475827918
    vertex 482.42204382436455 746.672719251091 165.55918520905695
  endloop
endfacet
facet normal -0.9565404791465157 7.465257611252855e-15 0.2915995743380881
  outer loop
    vertex 468.2523644825426 765.9325673258741 119.07807529061282
    vertex 482.42204382436455 746.672719251091 165.55918520905695
    vertex 481.34381890699194 754.0414697349124 162.0222603646624
  endloop
endfacet
facet normal -0.9565404791465157 7.465257611252855e-15 0.2915995743380881
  outer loop
    vertex 468.2523644825426 765.9325673258741 119.07807529061282
    vertex 481.34381890699194 754.0414697349124 162.0222603646624
    vertex 480.13450662398554 761.1669094824925 158.0553267597323
  endloop
endfacet
facet normal -0.9565404791465157 7.465257611252855e-15 0.2915995743380881
  outer loop
    vertex 468.2523644825426 765.9325673258741 119.07807529061282
    vertex 480.13450662398554 761.1669094824925 158.0553267597323
    vertex 478.79875577537985 768.0216471036861 153.6736339549824
  endloop
endfacet
facet normal -0.9565404791465157 7.465257611252855e-15 0.2915995743380881
  outer loop
    vertex 468.2523644825426 765.9325673258741 119.07807529061282
    vertex 478.79875577537985 768.0216471036861 153.6736339549824
    vertex 431.9516361550591 765.9325673258749 0.0
  endloop
endfacet
facet normal -0.9565404791465157 7.465257611252855e-15 0.2915995743380881
  outer loop
    vertex 431.9516361550591 765.9325673258749 0.0
    vertex 478.79875577537985 768.0216471036861 153.6736339549824
    vertex 431.95163615505476 780.8147548258756 0.0
  endloop
endfacet
facet normal -0.9565404791465157 7.465257611252855e-15 0.2915995743380881
  outer loop
    vertex 431.95163615505476 780.8147548258756 0.0
    vertex 478.79875577537985 768.0216471036861 153.6736339549824
    vertex 477.34170121234695 774.5793318328998 148.89402591532803
  endloop
endfacet
facet normal -0.9565404791465157 7.465257611252855e-15 0.2915995743380881
  outer loop
    vertex 431.95163615505476 780.8147548258756 0.0
    vertex 477.34170121234695 774.5793318328998 148.89402591532803
    vertex 475.7689440979608 780.8147548258756 143.73487625884707
  endloop
endfacet
facet normal -0.9565404791465157 7.465257611252855e-15 0.2915995743380881
  outer loop
    vertex 477.34170121234695 606.916677818848 148.89402591532772
    vertex 431.9516361550526 600.6812548258721 0.0
    vertex 475.7689440979608 600.6812548258721 143.73487625884704
  endloop
endfacet
facet normal -0.9565404791465157 7.465257611252855e-15 0.2915995743380881
  outer loop
    vertex 431.9516361550526 600.6812548258721 0.0
    vertex 477.34170121234695 606.916677818848 148.89402591532772
    vertex 431.9516361550526 615.5634423258737 0.0
  endloop
endfacet
facet normal -0.9565404791465157 7.465257611252855e-15 0.2915995743380881
  outer loop
    vertex 431.9516361550526 615.5634423258737 0.0
    vertex 477.34170121234695 606.916677818848 148.89402591532772
    vertex 478.79875577537985 613.4743625480618 153.67363395498214
  endloop
endfacet
facet normal -0.9565404791465157 7.465257611252855e-15 0.2915995743380881
  outer loop
    vertex 431.9516361550526 615.5634423258737 0.0
    vertex 478.79875577537985 613.4743625480618 153.67363395498214
    vertex 468.25236448254043 615.5634423258723 119.0780752906135
  endloop
endfacet
facet normal 0.2914594209238758 -0.03100067892996827 0.9560807308279987
  outer loop
    vertex 488.490309639878 682.5075213974778 176.3345126350024
    vertex 486.01808593679584 690.7480048258735 177.35536101988896
    vertex 485.943557919229 682.5075213974778 177.1108851292951
  endloop
endfacet
facet normal 0.2914594209238758 -0.03100067892996827 0.9560807308279987
  outer loop
    vertex 486.01808593679584 690.7480048258735 177.35536101988896
    vertex 488.490309639878 682.5075213974778 176.3345126350024
    vertex 488.5648376574448 690.7480048258735 176.57898852559623
  endloop
endfacet
facet normal 0.2903390018349353 0.09288286496027663 0.9524053955171949
  outer loop
    vertex 485.943557919229 698.98848825427 177.1108851292951
    vertex 488.2670120854264 707.1972938768636 175.6020247697084
    vertex 485.72026036477746 707.1972938768636 176.3783972640011
  endloop
endfacet
facet normal 0.2903390018349353 0.09288286496027663 0.9524053955171949
  outer loop
    vertex 488.2670120854264 707.1972938768636 175.6020247697084
    vertex 485.943557919229 698.98848825427 177.1108851292951
    vertex 488.490309639878 698.98848825427 176.3345126350024
  endloop
endfacet
facet normal 0.2903390018349351 -0.09288286496028182 0.9524053955171946
  outer loop
    vertex 488.2670120854264 674.2987157748842 175.60202476970838
    vertex 485.943557919229 682.5075213974778 177.1108851292951
    vertex 485.72026036477746 674.2987157748842 176.37839726400105
  endloop
endfacet
facet normal 0.2903390018349351 -0.09288286496028182 0.9524053955171946
  outer loop
    vertex 485.943557919229 682.5075213974778 177.1108851292951
    vertex 488.2670120854264 674.2987157748842 175.60202476970838
    vertex 488.490309639878 682.5075213974778 176.3345126350024
  endloop
endfacet
facet normal 0.28810247073668227 -0.15440799361843677 0.9450688535033561
  outer loop
    vertex 487.89580338748664 666.1531439890764 174.38434073640207
    vertex 485.72026036477746 674.2987157748842 176.37839726400105
    vertex 485.3490516668376 666.1531439890764 175.16071323069477
  endloop
endfacet
facet normal 0.28810247073668227 -0.15440799361843677 0.9450688535033561
  outer loop
    vertex 485.72026036477746 674.2987157748842 176.37839726400105
    vertex 487.89580338748664 666.1531439890764 174.38434073640207
    vertex 488.2670120854264 674.2987157748842 175.60202476970838
  endloop
endfacet
facet normal 0.2424466810737886 0.5556190079922843 0.7953031653363231
  outer loop
    vertex 480.13450662398554 761.1669094824925 158.0553267597323
    vertex 481.34550749602886 768.0216471036861 152.89726146068966
    vertex 478.79875577537985 768.0216471036861 153.6736339549824
  endloop
endfacet
facet normal 0.2424466810737886 0.5556190079922843 0.7953031653363231
  outer loop
    vertex 481.34550749602886 768.0216471036861 152.89726146068966
    vertex 480.13450662398554 761.1669094824925 158.0553267597323
    vertex 482.6812583446345 761.1669094824925 157.2789542654396
  endloop
endfacet
facet normal 0.274803419349504 -0.3344882151656307 0.9014436835593955
  outer loop
    vertex 485.91178821862155 642.4070249031348 167.8761322639863
    vertex 484.16917190520144 650.1765902719187 171.29032777113952
    vertex 483.3650364979726 642.4070249031348 168.65250475827904
  endloop
endfacet
facet normal 0.274803419349504 -0.3344882151656307 0.9014436835593955
  outer loop
    vertex 484.16917190520144 650.1765902719187 171.29032777113952
    vertex 485.91178821862155 642.4070249031348 167.8761322639863
    vertex 486.7159236258504 650.1765902719187 170.51395527684684
  endloop
endfacet
facet normal 0.2606269119535268 0.4484985052478731 0.8549401754251535
  outer loop
    vertex 482.42204382436455 746.672719251091 165.55918520905695
    vertex 483.8905706276409 754.0414697349124 161.24588787036967
    vertex 481.34381890699194 754.0414697349124 162.0222603646624
  endloop
endfacet
facet normal 0.2606269119535268 0.4484985052478731 0.8549401754251535
  outer loop
    vertex 483.8905706276409 754.0414697349124 161.24588787036967
    vertex 482.42204382436455 746.672719251091 165.55918520905695
    vertex 484.9687955450135 746.672719251091 164.78281271476425
  endloop
endfacet
facet normal 0.22054200952418246 0.6542041493894872 0.7234487908322281
  outer loop
    vertex 477.34170121234695 774.5793318328998 148.89402591532803
    vertex 478.3156958186127 780.8147548258756 142.9585037645545
    vertex 475.7689440979608 780.8147548258756 143.73487625884707
  endloop
endfacet
facet normal 0.22054200952418246 0.6542041493894872 0.7234487908322281
  outer loop
    vertex 478.3156958186127 780.8147548258756 142.9585037645545
    vertex 477.34170121234695 774.5793318328998 148.89402591532803
    vertex 479.88845293299596 774.5793318328998 148.11765342103527
  endloop
endfacet
facet normal 0.28031972039259284 -0.275443308786565 0.9195389268561326
  outer loop
    vertex 486.7159236258504 650.1765902719187 170.51395527684684
    vertex 484.8313588141479 658.1021189895208 173.46251401182954
    vertex 484.16917190520144 650.1765902719187 171.29032777113952
  endloop
endfacet
facet normal 0.28031972039259284 -0.275443308786565 0.9195389268561326
  outer loop
    vertex 484.8313588141479 658.1021189895208 173.46251401182954
    vertex 486.7159236258504 650.1765902719187 170.51395527684684
    vertex 487.3781105347969 658.1021189895208 172.68614151753684
  endloop
endfacet
facet normal -2.5850957673428405e-13 1.0 8.490832099370281e-14
  outer loop
    vertex 468.25236448254043 615.5634423258723 119.0780752906135
    vertex 434.73506357714723 615.5634423258737 0.0
    vertex 431.9516361550526 615.5634423258737 0.0
  endloop
endfacet
facet normal -2.5850957673428405e-13 1.0 8.490832099370281e-14
  outer loop
    vertex 434.73506357714723 615.5634423258737 0.0
    vertex 468.25236448254043 615.5634423258723 119.0780752906135
    vertex 470.799116203193 615.5634423258737 118.30170279632057
  endloop
endfacet
facet normal 0.2319401538011586 -0.6060765087652842 0.7608383734917553
  outer loop
    vertex 479.88845293299596 606.916677818848 148.11765342103496
    vertex 478.79875577537985 613.4743625480618 153.67363395498214
    vertex 477.34170121234695 606.916677818848 148.89402591532772
  endloop
endfacet
facet normal 0.2319401538011586 -0.6060765087652842 0.7608383734917553
  outer loop
    vertex 478.79875577537985 613.4743625480618 153.67363395498214
    vertex 479.88845293299596 606.916677818848 148.11765342103496
    vertex 481.34550749602886 613.4743625480618 152.8972614606894
  endloop
endfacet
facet normal 0.2847584252312409 -0.21533955195041488 0.9340993076892942
  outer loop
    vertex 487.3781105347969 658.1021189895208 172.68614151753684
    vertex 485.3490516668376 666.1531439890764 175.16071323069477
    vertex 484.8313588141479 658.1021189895208 173.46251401182954
  endloop
endfacet
facet normal 0.2847584252312409 -0.21533955195041488 0.9340993076892942
  outer loop
    vertex 485.3490516668376 666.1531439890764 175.16071323069477
    vertex 487.3781105347969 658.1021189895208 172.68614151753684
    vertex 487.89580338748664 666.1531439890764 174.38434073640207
  endloop
endfacet
facet normal 0.2748034193495074 0.33448821516560073 0.9014436835594055
  outer loop
    vertex 484.1691719052021 731.3194193798291 171.29032777113966
    vertex 485.9117882186223 739.0889847486137 167.87613226398648
    vertex 483.3650364979733 739.0889847486137 168.65250475827918
  endloop
endfacet
facet normal 0.2748034193495074 0.33448821516560073 0.9014436835594055
  outer loop
    vertex 485.9117882186223 739.0889847486137 167.87613226398648
    vertex 484.1691719052021 731.3194193798291 171.29032777113966
    vertex 486.71592362585113 731.3194193798291 170.51395527684699
  endloop
endfacet
facet normal 0.25202120248204674 0.5030256141994229 0.8267106779029751
  outer loop
    vertex 481.34381890699194 754.0414697349124 162.0222603646624
    vertex 482.6812583446345 761.1669094824925 157.2789542654396
    vertex 480.13450662398554 761.1669094824925 158.0553267597323
  endloop
endfacet
facet normal 0.25202120248204674 0.5030256141994229 0.8267106779029751
  outer loop
    vertex 482.6812583446345 761.1669094824925 157.2789542654396
    vertex 481.34381890699194 754.0414697349124 162.0222603646624
    vertex 483.8905706276409 754.0414697349124 161.24588787036967
  endloop
endfacet
facet normal 0.2319401538011597 0.6060765087652824 0.7608383734917562
  outer loop
    vertex 478.79875577537985 768.0216471036861 153.6736339549824
    vertex 479.88845293299596 774.5793318328998 148.11765342103527
    vertex 477.34170121234695 774.5793318328998 148.89402591532803
  endloop
endfacet
facet normal 0.2319401538011597 0.6060765087652824 0.7608383734917562
  outer loop
    vertex 479.88845293299596 774.5793318328998 148.11765342103527
    vertex 478.79875577537985 768.0216471036861 153.6736339549824
    vertex 481.34550749602886 768.0216471036861 152.89726146068966
  endloop
endfacet
facet normal 0.24244668107378756 -0.555619007992286 0.7953031653363222
  outer loop
    vertex 481.34550749602886 613.4743625480618 152.8972614606894
    vertex 480.13450662398554 620.3291001692553 158.05532675973208
    vertex 478.79875577537985 613.4743625480618 153.67363395498214
  endloop
endfacet
facet normal 0.24244668107378756 -0.555619007992286 0.7953031653363222
  outer loop
    vertex 480.13450662398554 620.3291001692553 158.05532675973208
    vertex 481.34550749602886 613.4743625480618 152.8972614606894
    vertex 482.6812583446345 620.3291001692553 157.27895426543935
  endloop
endfacet
facet normal 0.0 1.0 0.0
  outer loop
    vertex 475.7689440979608 780.8147548258756 143.73487625884707
    vertex 524.5560461823695 780.8147548258756 0.0
    vertex 431.95163615505476 780.8147548258756 0.0
  endloop
endfacet
facet normal 0.0 1.0 0.0
  outer loop
    vertex 524.5560461823695 780.8147548258756 0.0
    vertex 475.7689440979608 780.8147548258756 143.73487625884707
    vertex 478.3156958186127 780.8147548258756 142.9585037645545
  endloop
endfacet
facet normal 0.0 1.0 0.0
  outer loop
    vertex 524.5560461823695 780.8147548258756 0.0
    vertex 478.3156958186127 780.8147548258756 142.9585037645545
    vertex 494.7687205485425 780.8147548258756 137.94282997717704
  endloop
endfacet
facet normal 0.0 1.0 0.0
  outer loop
    vertex 524.5560461823695 780.8147548258756 137.94282997717704
    vertex 524.5560461823695 780.8147548258756 0.0
    vertex 494.7687205485425 780.8147548258756 137.94282997717704
  endloop
endfacet
facet normal -3.944242628761327e-14 -1.0 1.7070527820373245e-14
  outer loop
    vertex 494.76872054853385 776.9325673258752 137.94282997717704
    vertex 434.73506357714723 776.9325673258752 3.383959779057477e-13
    vertex 452.7171070714031 776.9325673258737 0.0
  endloop
endfacet
facet normal -3.944242628761327e-14 -1.0 1.7070527820373245e-14
  outer loop
    vertex 434.73506357714723 776.9325673258752 3.383959779057477e-13
    vertex 494.76872054853385 776.9325673258752 137.94282997717704
    vertex 478.3156958186127 776.9325673258752 142.95850376455448
  endloop
endfacet
facet normal 0.2520212024820519 -0.5030256141993886 0.8267106779029944
  outer loop
    vertex 482.6812583446345 620.3291001692553 157.27895426543935
    vertex 481.34381890699194 627.454539916836 162.02226036466217
    vertex 480.13450662398554 620.3291001692553 158.05532675973208
  endloop
endfacet
facet normal 0.2520212024820519 -0.5030256141993886 0.8267106779029944
  outer loop
    vertex 481.34381890699194 627.454539916836 162.02226036466217
    vertex 482.6812583446345 620.3291001692553 157.27895426543935
    vertex 483.8905706276409 627.454539916836 161.2458878703695
  endloop
endfacet
facet normal 0.2682307276920139 -0.3922472925255691 0.8798831389611769
  outer loop
    vertex 484.9687955450135 634.8232904006567 164.78281271476408
    vertex 483.3650364979726 642.4070249031348 168.65250475827904
    vertex 482.42204382436455 634.8232904006567 165.55918520905675
  endloop
endfacet
facet normal 0.2682307276920139 -0.3922472925255691 0.8798831389611769
  outer loop
    vertex 483.3650364979726 642.4070249031348 168.65250475827904
    vertex 484.9687955450135 634.8232904006567 164.78281271476408
    vertex 485.91178821862155 642.4070249031348 167.8761322639863
  endloop
endfacet
facet normal 0.28031972039259145 0.2754433087865857 0.9195389268561268
  outer loop
    vertex 484.83135881414864 723.3938906622277 173.46251401182968
    vertex 486.71592362585113 731.3194193798291 170.51395527684699
    vertex 484.1691719052021 731.3194193798291 171.29032777113966
  endloop
endfacet
facet normal 0.28031972039259145 0.2754433087865857 0.9195389268561268
  outer loop
    vertex 486.71592362585113 731.3194193798291 170.51395527684699
    vertex 484.83135881414864 723.3938906622277 173.46251401182968
    vertex 487.37811053479766 723.3938906622277 172.68614151753695
  endloop
endfacet
facet normal 0.26823072769200795 0.39224729252561996 0.8798831389611558
  outer loop
    vertex 483.3650364979733 739.0889847486137 168.65250475827918
    vertex 484.9687955450135 746.672719251091 164.78281271476425
    vertex 482.42204382436455 746.672719251091 165.55918520905695
  endloop
endfacet
facet normal 0.26823072769200795 0.39224729252561996 0.8798831389611558
  outer loop
    vertex 484.9687955450135 746.672719251091 164.78281271476425
    vertex 483.3650364979733 739.0889847486137 168.65250475827918
    vertex 485.9117882186223 739.0889847486137 167.87613226398648
  endloop
endfacet
facet normal 0.9565404791465119 3.366156979529386e-16 -0.2915995743381009
  outer loop
    vertex 434.73506357714723 776.9325673258752 3.383959779057477e-13
    vertex 470.7991162031923 765.9325673258755 118.3017027963208
    vertex 434.73506357714723 765.9325673258755 3.383959779057477e-13
  endloop
endfacet
facet normal 0.9565404791465119 3.366156979529386e-16 -0.2915995743381009
  outer loop
    vertex 470.7991162031923 765.9325673258755 118.3017027963208
    vertex 434.73506357714723 776.9325673258752 3.383959779057477e-13
    vertex 481.34550749602886 768.0216471036861 152.89726146068966
  endloop
endfacet
facet normal 0.9565404791465119 3.366156979529386e-16 -0.2915995743381009
  outer loop
    vertex 481.34550749602886 768.0216471036861 152.89726146068966
    vertex 434.73506357714723 776.9325673258752 3.383959779057477e-13
    vertex 479.88845293299596 774.5793318328998 148.11765342103527
  endloop
endfacet
facet normal 0.9565404791465119 3.366156979529386e-16 -0.2915995743381009
  outer loop
    vertex 479.88845293299596 774.5793318328998 148.11765342103527
    vertex 434.73506357714723 776.9325673258752 3.383959779057477e-13
    vertex 478.3156958186127 776.9325673258752 142.95850376455448
  endloop
endfacet
facet normal 0.9565404791465119 3.366156979529386e-16 -0.2915995743381009
  outer loop
    vertex 479.88845293299596 774.5793318328998 148.11765342103527
    vertex 478.3156958186127 776.9325673258752 142.95850376455448
    vertex 478.3156958186127 780.8147548258756 142.9585037645545
  endloop
endfacet
facet normal 0.9565404791465119 3.366156979529386e-16 -0.2915995743381009
  outer loop
    vertex 478.3156958186127 604.5634423258726 142.9585037645536
    vertex 479.88845293299596 606.916677818848 148.11765342103496
    vertex 478.3156958186127 600.6812548258721 142.9585037645545
  endloop
endfacet
facet normal 0.9565404791465119 3.366156979529386e-16 -0.2915995743381009
  outer loop
    vertex 479.88845293299596 606.916677818848 148.11765342103496
    vertex 478.3156958186127 604.5634423258726 142.9585037645536
    vertex 434.73506357714723 604.563442325874 0.0
  endloop
endfacet
facet normal 0.9565404791465119 3.366156979529386e-16 -0.2915995743381009
  outer loop
    vertex 479.88845293299596 606.916677818848 148.11765342103496
    vertex 434.73506357714723 604.563442325874 0.0
    vertex 434.73506357714723 615.5634423258737 0.0
  endloop
endfacet
facet normal 0.9565404791465119 3.366156979529386e-16 -0.2915995743381009
  outer loop
    vertex 479.88845293299596 606.916677818848 148.11765342103496
    vertex 434.73506357714723 615.5634423258737 0.0
    vertex 481.34550749602886 613.4743625480618 152.8972614606894
  endloop
endfacet
facet normal 0.9565404791465119 3.366156979529386e-16 -0.2915995743381009
  outer loop
    vertex 481.34550749602886 613.4743625480618 152.8972614606894
    vertex 434.73506357714723 615.5634423258737 0.0
    vertex 470.799116203193 615.5634423258737 118.30170279632057
  endloop
endfacet
facet normal 0.9565404791465119 3.366156979529386e-16 -0.2915995743381009
  outer loop
    vertex 481.34550749602886 613.4743625480618 152.8972614606894
    vertex 470.799116203193 615.5634423258737 118.30170279632057
    vertex 482.6812583446345 620.3291001692553 157.27895426543935
  endloop
endfacet
facet normal 0.9565404791465119 3.366156979529386e-16 -0.2915995743381009
  outer loop
    vertex 482.6812583446345 620.3291001692553 157.27895426543935
    vertex 470.799116203193 615.5634423258737 118.30170279632057
    vertex 472.83078625143133 689.2480048258732 124.9662346147125
  endloop
endfacet
facet normal 0.9565404791465119 3.366156979529386e-16 -0.2915995743381009
  outer loop
    vertex 472.83078625143133 689.2480048258732 124.9662346147125
    vertex 470.799116203193 615.5634423258737 118.30170279632057
    vertex 472.74339348939503 689.9715476905658 124.67955822068397
  endloop
endfacet
facet normal 0.9565404791465119 3.366156979529386e-16 -0.2915995743381009
  outer loop
    vertex 472.74339348939503 689.9715476905658 124.67955822068397
    vertex 470.799116203193 615.5634423258737 118.30170279632057
    vertex 472.7135854457453 690.7480048258735 124.58177824134003
  endloop
endfacet
facet normal 0.9565404791465119 3.366156979529386e-16 -0.2915995743381009
  outer loop
    vertex 472.7135854457453 690.7480048258735 124.58177824134003
    vertex 470.799116203193 615.5634423258737 118.30170279632057
    vertex 470.7991162031923 765.9325673258755 118.3017027963208
  endloop
endfacet
facet normal 0.9565404791465119 3.366156979529386e-16 -0.2915995743381009
  outer loop
    vertex 482.6812583446345 620.3291001692553 157.27895426543935
    vertex 472.83078625143133 689.2480048258732 124.9662346147125
    vertex 483.8905706276409 627.454539916836 161.2458878703695
  endloop
endfacet
facet normal 0.9565404791465119 3.366156979529386e-16 -0.2915995743381009
  outer loop
    vertex 483.8905706276409 627.454539916836 161.2458878703695
    vertex 472.83078625143133 689.2480048258732 124.9662346147125
    vertex 484.9687955450135 634.8232904006567 164.78281271476408
  endloop
endfacet
facet normal 0.9565404791465119 3.366156979529386e-16 -0.2915995743381009
  outer loop
    vertex 484.9687955450135 634.8232904006567 164.78281271476408
    vertex 472.83078625143133 689.2480048258732 124.9662346147125
    vertex 472.969808059543 688.626684482314 125.42227090092778
  endloop
endfacet
facet normal 0.9565404791465119 3.366156979529386e-16 -0.2915995743381009
  outer loop
    vertex 484.9687955450135 634.8232904006567 164.78281271476408
    vertex 472.969808059543 688.626684482314 125.42227090092778
    vertex 485.91178821862155 642.4070249031348 167.8761322639863
  endloop
endfacet
facet normal 0.9565404791465119 3.366156979529386e-16 -0.2915995743381009
  outer loop
    vertex 485.91178821862155 642.4070249031348 167.8761322639863
    vertex 472.969808059543 688.626684482314 125.42227090092778
    vertex 486.7159236258504 650.1765902719187 170.51395527684684
  endloop
endfacet
facet normal 0.9565404791465119 3.366156979529386e-16 -0.2915995743381009
  outer loop
    vertex 486.7159236258504 650.1765902719187 170.51395527684684
    vertex 472.969808059543 688.626684482314 125.42227090092778
    vertex 473.1509848072524 688.14992861452 126.01658896005982
  endloop
endfacet
facet normal 0.9565404791465119 3.366156979529386e-16 -0.2915995743381009
  outer loop
    vertex 486.7159236258504 650.1765902719187 170.51395527684684
    vertex 473.1509848072524 688.14992861452 126.01658896005982
    vertex 487.3781105347969 658.1021189895208 172.68614151753684
  endloop
endfacet
facet normal 0.9565404791465119 3.366156979529386e-16 -0.2915995743381009
  outer loop
    vertex 487.3781105347969 658.1021189895208 172.68614151753684
    vertex 473.1509848072524 688.14992861452 126.01658896005982
    vertex 487.89580338748664 666.1531439890764 174.38434073640207
  endloop
endfacet
facet normal 0.9565404791465119 3.366156979529386e-16 -0.2915995743381009
  outer loop
    vertex 487.89580338748664 666.1531439890764 174.38434073640207
    vertex 473.1509848072524 688.14992861452 126.01658896005982
    vertex 473.3619695986123 687.8502273470061 126.70868699853581
  endloop
endfacet
facet normal 0.9565404791465119 3.366156979529386e-16 -0.2915995743381009
  outer loop
    vertex 487.89580338748664 666.1531439890764 174.38434073640207
    vertex 473.3619695986123 687.8502273470061 126.70868699853581
    vertex 488.2670120854264 674.2987157748842 175.60202476970838
  endloop
endfacet
facet normal 0.9565404791465119 3.366156979529386e-16 -0.2915995743381009
  outer loop
    vertex 488.2670120854264 674.2987157748842 175.60202476970838
    vertex 473.3619695986123 687.8502273470061 126.70868699853581
    vertex 473.58838416875955 687.7480048258735 127.45139967877967
  endloop
endfacet
facet normal 0.9565404791465119 3.366156979529386e-16 -0.2915995743381009
  outer loop
    vertex 488.2670120854264 674.2987157748842 175.60202476970838
    vertex 473.58838416875955 687.7480048258735 127.45139967877967
    vertex 488.490309639878 682.5075213974778 176.3345126350024
  endloop
endfacet
facet normal 0.9565404791465119 3.366156979529386e-16 -0.2915995743381009
  outer loop
    vertex 472.7135854457453 690.7480048258735 124.58177824134003
    vertex 470.7991162031923 765.9325673258755 118.3017027963208
    vertex 472.74339348939577 691.5244619611813 124.67955822068397
  endloop
endfacet
facet normal 0.9565404791465119 3.366156979529386e-16 -0.2915995743381009
  outer loop
    vertex 472.74339348939577 691.5244619611813 124.67955822068397
    vertex 470.7991162031923 765.9325673258755 118.3017027963208
    vertex 472.83078625143133 692.2480048258739 124.9662346147125
  endloop
endfacet
facet normal 0.9565404791465119 3.366156979529386e-16 -0.2915995743381009
  outer loop
    vertex 472.83078625143133 692.2480048258739 124.9662346147125
    vertex 470.7991162031923 765.9325673258755 118.3017027963208
    vertex 472.969808059543 692.8693251694332 125.42227090092778
  endloop
endfacet
facet normal 0.9565404791465119 3.366156979529386e-16 -0.2915995743381009
  outer loop
    vertex 472.969808059543 692.8693251694332 125.42227090092778
    vertex 470.7991162031923 765.9325673258755 118.3017027963208
    vertex 473.1509848072524 693.346081037227 126.01658896005982
  endloop
endfacet
facet normal 0.9565404791465119 3.366156979529386e-16 -0.2915995743381009
  outer loop
    vertex 473.1509848072524 693.346081037227 126.01658896005982
    vertex 470.7991162031923 765.9325673258755 118.3017027963208
    vertex 473.3619695986123 693.6457823047409 126.70868699853581
  endloop
endfacet
facet normal 0.9565404791465119 3.366156979529386e-16 -0.2915995743381009
  outer loop
    vertex 473.3619695986123 693.6457823047409 126.70868699853581
    vertex 470.7991162031923 765.9325673258755 118.3017027963208
    vertex 473.58838416875955 693.7480048258735 127.45139967877962
  endloop
endfacet
facet normal 0.9565404791465119 3.366156979529386e-16 -0.2915995743381009
  outer loop
    vertex 473.58838416875955 693.7480048258735 127.45139967877962
    vertex 470.7991162031923 765.9325673258755 118.3017027963208
    vertex 488.490309639878 698.98848825427 176.3345126350024
  endloop
endfacet
facet normal 0.9565404791465119 3.366156979529386e-16 -0.2915995743381009
  outer loop
    vertex 488.490309639878 698.98848825427 176.3345126350024
    vertex 470.7991162031923 765.9325673258755 118.3017027963208
    vertex 488.2670120854264 707.1972938768636 175.6020247697084
  endloop
endfacet
facet normal 0.9565404791465119 3.366156979529386e-16 -0.2915995743381009
  outer loop
    vertex 488.2670120854264 707.1972938768636 175.6020247697084
    vertex 470.7991162031923 765.9325673258755 118.3017027963208
    vertex 487.89580338748664 715.3428656626713 174.38434073640215
  endloop
endfacet
facet normal 0.9565404791465119 3.366156979529386e-16 -0.2915995743381009
  outer loop
    vertex 487.89580338748664 715.3428656626713 174.38434073640215
    vertex 470.7991162031923 765.9325673258755 118.3017027963208
    vertex 487.37811053479766 723.3938906622277 172.68614151753695
  endloop
endfacet
facet normal 0.9565404791465119 3.366156979529386e-16 -0.2915995743381009
  outer loop
    vertex 487.37811053479766 723.3938906622277 172.68614151753695
    vertex 470.7991162031923 765.9325673258755 118.3017027963208
    vertex 486.71592362585113 731.3194193798291 170.51395527684699
  endloop
endfacet
facet normal 0.9565404791465119 3.366156979529386e-16 -0.2915995743381009
  outer loop
    vertex 486.71592362585113 731.3194193798291 170.51395527684699
    vertex 470.7991162031923 765.9325673258755 118.3017027963208
    vertex 485.9117882186223 739.0889847486137 167.87613226398648
  endloop
endfacet
facet normal 0.9565404791465119 3.366156979529386e-16 -0.2915995743381009
  outer loop
    vertex 485.9117882186223 739.0889847486137 167.87613226398648
    vertex 470.7991162031923 765.9325673258755 118.3017027963208
    vertex 484.9687955450135 746.672719251091 164.78281271476425
  endloop
endfacet
facet normal 0.9565404791465119 3.366156979529386e-16 -0.2915995743381009
  outer loop
    vertex 484.9687955450135 746.672719251091 164.78281271476425
    vertex 470.7991162031923 765.9325673258755 118.3017027963208
    vertex 483.8905706276409 754.0414697349124 161.24588787036967
  endloop
endfacet
facet normal 0.9565404791465119 3.366156979529386e-16 -0.2915995743381009
  outer loop
    vertex 483.8905706276409 754.0414697349124 161.24588787036967
    vertex 470.7991162031923 765.9325673258755 118.3017027963208
    vertex 482.6812583446345 761.1669094824925 157.2789542654396
  endloop
endfacet
facet normal 0.9565404791465119 3.366156979529386e-16 -0.2915995743381009
  outer loop
    vertex 482.6812583446345 761.1669094824925 157.2789542654396
    vertex 470.7991162031923 765.9325673258755 118.3017027963208
    vertex 481.34550749602886 768.0216471036861 152.89726146068966
  endloop
endfacet
facet normal 0.9565404791465119 3.366156979529386e-16 -0.2915995743381009
  outer loop
    vertex 473.58838416875955 687.7480048258735 127.45139967877967
    vertex 488.5648376574448 690.7480048258735 176.57898852559623
    vertex 488.490309639878 682.5075213974778 176.3345126350024
  endloop
endfacet
facet normal 0.9565404791465119 3.366156979529386e-16 -0.2915995743381009
  outer loop
    vertex 488.5648376574448 690.7480048258735 176.57898852559623
    vertex 473.58838416875955 687.7480048258735 127.45139967877967
    vertex 473.81479873890686 687.8502273470061 128.19411235902348
  endloop
endfacet
facet normal 0.9565404791465119 3.366156979529386e-16 -0.2915995743381009
  outer loop
    vertex 488.5648376574448 690.7480048258735 176.57898852559623
    vertex 473.81479873890686 687.8502273470061 128.19411235902348
    vertex 474.02578353026666 688.14992861452 128.88621039749947
  endloop
endfacet
facet normal 0.9565404791465119 3.366156979529386e-16 -0.2915995743381009
  outer loop
    vertex 488.5648376574448 690.7480048258735 176.57898852559623
    vertex 474.02578353026666 688.14992861452 128.88621039749947
    vertex 474.20696027797607 688.626684482314 129.4805284566315
  endloop
endfacet
facet normal 0.9565404791465119 3.366156979529386e-16 -0.2915995743381009
  outer loop
    vertex 488.5648376574448 690.7480048258735 176.57898852559623
    vertex 474.20696027797607 688.626684482314 129.4805284566315
    vertex 474.3459820860878 689.2480048258732 129.93656474284677
  endloop
endfacet
facet normal 0.9565404791465119 3.366156979529386e-16 -0.2915995743381009
  outer loop
    vertex 488.5648376574448 690.7480048258735 176.57898852559623
    vertex 474.3459820860878 689.2480048258732 129.93656474284677
    vertex 474.4333748481234 689.9715476905658 130.22324113687532
  endloop
endfacet
facet normal 0.9565404791465119 3.366156979529386e-16 -0.2915995743381009
  outer loop
    vertex 488.5648376574448 690.7480048258735 176.57898852559623
    vertex 474.4333748481234 689.9715476905658 130.22324113687532
    vertex 474.4631828917738 690.7480048258735 130.32102111621927
  endloop
endfacet
facet normal 0.9565404791465119 3.366156979529386e-16 -0.2915995743381009
  outer loop
    vertex 488.5648376574448 690.7480048258735 176.57898852559623
    vertex 474.4631828917738 690.7480048258735 130.32102111621927
    vertex 474.43337484812406 691.5244619611813 130.22324113687532
  endloop
endfacet
facet normal 0.9565404791465119 3.366156979529386e-16 -0.2915995743381009
  outer loop
    vertex 488.5648376574448 690.7480048258735 176.57898852559623
    vertex 474.43337484812406 691.5244619611813 130.22324113687532
    vertex 488.490309639878 698.98848825427 176.3345126350024
  endloop
endfacet
facet normal 0.9565404791465119 3.366156979529386e-16 -0.2915995743381009
  outer loop
    vertex 488.490309639878 698.98848825427 176.3345126350024
    vertex 474.43337484812406 691.5244619611813 130.22324113687532
    vertex 474.3459820860878 692.2480048258739 129.93656474284674
  endloop
endfacet
facet normal 0.9565404791465119 3.366156979529386e-16 -0.2915995743381009
  outer loop
    vertex 488.490309639878 698.98848825427 176.3345126350024
    vertex 474.3459820860878 692.2480048258739 129.93656474284674
    vertex 474.20696027797607 692.8693251694332 129.48052845663145
  endloop
endfacet
facet normal 0.9565404791465119 3.366156979529386e-16 -0.2915995743381009
  outer loop
    vertex 488.490309639878 698.98848825427 176.3345126350024
    vertex 474.20696027797607 692.8693251694332 129.48052845663145
    vertex 474.02578353026666 693.346081037227 128.8862103974994
  endloop
endfacet
facet normal 0.9565404791465119 3.366156979529386e-16 -0.2915995743381009
  outer loop
    vertex 488.490309639878 698.98848825427 176.3345126350024
    vertex 474.02578353026666 693.346081037227 128.8862103974994
    vertex 473.81479873890686 693.6457823047409 128.19411235902348
  endloop
endfacet
facet normal 0.9565404791465119 3.366156979529386e-16 -0.2915995743381009
  outer loop
    vertex 488.490309639878 698.98848825427 176.3345126350024
    vertex 473.81479873890686 693.6457823047409 128.19411235902348
    vertex 473.58838416875955 693.7480048258735 127.45139967877962
  endloop
endfacet
facet normal 0.28475842523124406 0.21533955195036963 0.9340993076893036
  outer loop
    vertex 485.3490516668376 715.3428656626713 175.16071323069485
    vertex 487.37811053479766 723.3938906622277 172.68614151753695
    vertex 484.83135881414864 723.3938906622277 173.46251401182968
  endloop
endfacet
facet normal 0.28475842523124406 0.21533955195036963 0.9340993076893036
  outer loop
    vertex 487.37811053479766 723.3938906622277 172.68614151753695
    vertex 485.3490516668376 715.3428656626713 175.16071323069485
    vertex 487.89580338748664 715.3428656626713 174.38434073640215
  endloop
endfacet
facet normal -8.651735158324274e-16 6.441738800143267e-16 -1.0
  outer loop
    vertex 431.95163615505476 780.8147548258756 0.0
    vertex 434.73506357714723 776.9325673258752 3.383959779057477e-13
    vertex 431.9516361550591 765.9325673258749 0.0
  endloop
endfacet
facet normal -8.651735158324274e-16 6.441738800143267e-16 -1.0
  outer loop
    vertex 434.73506357714723 776.9325673258752 3.383959779057477e-13
    vertex 431.95163615505476 780.8147548258756 0.0
    vertex 524.5560461823695 780.8147548258756 0.0
  endloop
endfacet
facet normal -8.651735158324274e-16 6.441738800143267e-16 -1.0
  outer loop
    vertex 434.73506357714723 776.9325673258752 3.383959779057477e-13
    vertex 524.5560461823695 780.8147548258756 0.0
    vertex 452.7171070714031 776.9325673258737 0.0
  endloop
endfacet
facet normal -8.651735158324274e-16 6.441738800143267e-16 -1.0
  outer loop
    vertex 452.7171070714031 776.9325673258737 0.0
    vertex 524.5560461823695 780.8147548258756 0.0
    vertex 467.0560461823698 712.314754825876 0.0
  endloop
endfacet
facet normal -8.651735158324274e-16 6.441738800143267e-16 -1.0
  outer loop
    vertex 452.7171070714031 776.9325673258737 0.0
    vertex 467.0560461823698 712.314754825876 0.0
    vertex 452.7171070714031 604.5634423258712 0.0
  endloop
endfacet
facet normal -8.651735158324274e-16 6.441738800143267e-16 -1.0
  outer loop
    vertex 467.0560461823698 712.314754825876 0.0
    vertex 524.5560461823695 780.8147548258756 0.0
    vertex 510.0560461823698 712.314754825876 0.0
  endloop
endfacet
facet normal -8.651735158324274e-16 6.441738800143267e-16 -1.0
  outer loop
    vertex 510.0560461823698 712.314754825876 0.0
    vertex 524.5560461823695 780.8147548258756 0.0
    vertex 510.0560461823698 669.314754825876 0.0
  endloop
endfacet
facet normal -8.651735158324274e-16 6.441738800143267e-16 -1.0
  outer loop
    vertex 434.73506357714723 615.5634423258737 0.0
    vertex 431.9516361550526 600.6812548258721 0.0
    vertex 431.9516361550526 615.5634423258737 0.0
  endloop
endfacet
facet normal -8.651735158324274e-16 6.441738800143267e-16 -1.0
  outer loop
    vertex 431.9516361550526 600.6812548258721 0.0
    vertex 434.73506357714723 615.5634423258737 0.0
    vertex 434.73506357714723 604.563442325874 0.0
  endloop
endfacet
facet normal -8.651735158324274e-16 6.441738800143267e-16 -1.0
  outer loop
    vertex 431.9516361550526 600.6812548258721 0.0
    vertex 434.73506357714723 604.563442325874 0.0
    vertex 524.5560461823695 600.6812548258721 0.0
  endloop
endfacet
facet normal -8.651735158324274e-16 6.441738800143267e-16 -1.0
  outer loop
    vertex 524.5560461823695 600.6812548258721 0.0
    vertex 434.73506357714723 604.563442325874 0.0
    vertex 452.7171070714031 604.5634423258712 0.0
  endloop
endfacet
facet normal -8.651735158324274e-16 6.441738800143267e-16 -1.0
  outer loop
    vertex 524.5560461823695 600.6812548258721 0.0
    vertex 452.7171070714031 604.5634423258712 0.0
    vertex 467.0560461823698 669.314754825876 0.0
  endloop
endfacet
facet normal -8.651735158324274e-16 6.441738800143267e-16 -1.0
  outer loop
    vertex 467.0560461823698 669.314754825876 0.0
    vertex 452.7171070714031 604.5634423258712 0.0
    vertex 467.0560461823698 712.314754825876 0.0
  endloop
endfacet
facet normal -8.651735158324274e-16 6.441738800143267e-16 -1.0
  outer loop
    vertex 524.5560461823695 600.6812548258721 0.0
    vertex 467.0560461823698 669.314754825876 0.0
    vertex 510.0560461823698 669.314754825876 0.0
  endloop
endfacet
facet normal -8.651735158324274e-16 6.441738800143267e-16 -1.0
  outer loop
    vertex 524.5560461823695 600.6812548258721 0.0
    vertex 510.0560461823698 669.314754825876 0.0
    vertex 524.5560461823695 780.8147548258756 0.0
  endloop
endfacet
facet normal -8.651735158324274e-16 6.441738800143267e-16 -1.0
  outer loop
    vertex 434.73506357714723 765.9325673258755 3.383959779057477e-13
    vertex 431.9516361550591 765.9325673258749 0.0
    vertex 434.73506357714723 776.9325673258752 3.383959779057477e-13
  endloop
endfacet
facet normal 1.0 0.0 0.0
  outer loop
    vertex 524.5560461823695 780.8147548258756 0.0
    vertex 524.5560461823695 600.6812548258721 137.94282997717704
    vertex 524.5560461823695 600.6812548258721 0.0
  endloop
endfacet
facet normal 1.0 0.0 0.0
  outer loop
    vertex 524.5560461823695 600.6812548258721 137.94282997717704
    vertex 524.5560461823695 780.8147548258756 0.0
    vertex 524.5560461823695 780.8147548258756 137.94282997717704
  endloop
endfacet
facet normal -2.953122161516689e-14 -6.671769320158754e-15 1.0
  outer loop
    vertex 494.76872054854465 600.6812548258721 137.94282997717374
    vertex 494.76872054853385 776.9325673258752 137.94282997717704
    vertex 494.76872054853385 604.5634423258726 137.9428299771768
  endloop
endfacet
facet normal -2.953122161516689e-14 -6.671769320158754e-15 1.0
  outer loop
    vertex 494.76872054853385 776.9325673258752 137.94282997717704
    vertex 494.76872054854465 600.6812548258721 137.94282997717374
    vertex 494.7687205485425 780.8147548258756 137.94282997717704
  endloop
endfacet
facet normal -2.953122161516689e-14 -6.671769320158754e-15 1.0
  outer loop
    vertex 494.7687205485425 780.8147548258756 137.94282997717704
    vertex 494.76872054854465 600.6812548258721 137.94282997717374
    vertex 524.5560461823695 780.8147548258756 137.94282997717704
  endloop
endfacet
facet normal -2.953122161516689e-14 -6.671769320158754e-15 1.0
  outer loop
    vertex 524.5560461823695 780.8147548258756 137.94282997717704
    vertex 494.76872054854465 600.6812548258721 137.94282997717374
    vertex 524.5560461823695 600.6812548258721 137.94282997717704
  endloop
endfacet
facet normal 0.29159957433815986 1.3990677674126147e-13 0.956540479146494
  outer loop
    vertex 494.76872054854465 600.6812548258721 137.94282997717374
    vertex 478.3156958186127 604.5634423258726 142.9585037645536
    vertex 478.3156958186127 600.6812548258721 142.9585037645545
  endloop
endfacet
facet normal 0.29159957433815986 1.3990677674126147e-13 0.956540479146494
  outer loop
    vertex 478.3156958186127 604.5634423258726 142.9585037645536
    vertex 494.76872054854465 600.6812548258721 137.94282997717374
    vertex 494.76872054853385 604.5634423258726 137.9428299771768
  endloop
endfacet
facet normal 0.2915995743381066 -3.309440154588943e-13 0.9565404791465102
  outer loop
    vertex 494.76872054853385 776.9325673258752 137.94282997717704
    vertex 478.3156958186127 780.8147548258756 142.9585037645545
    vertex 478.3156958186127 776.9325673258752 142.95850376455448
  endloop
endfacet
facet normal 0.2915995743381066 -3.309440154588943e-13 0.9565404791465102
  outer loop
    vertex 478.3156958186127 780.8147548258756 142.9585037645545
    vertex 494.76872054853385 776.9325673258752 137.94282997717704
    vertex 494.7687205485425 780.8147548258756 137.94282997717704
  endloop
endfacet
facet normal 3.886153931393073e-13 -1.0 -1.215197553152876e-13
  outer loop
    vertex 434.73506357714723 765.9325673258755 3.383959779057477e-13
    vertex 468.2523644825426 765.9325673258741 119.07807529061282
    vertex 431.9516361550591 765.9325673258749 0.0
  endloop
endfacet
facet normal 3.886153931393073e-13 -1.0 -1.215197553152876e-13
  outer loop
    vertex 468.2523644825426 765.9325673258741 119.07807529061282
    vertex 434.73506357714723 765.9325673258755 3.383959779057477e-13
    vertex 470.7991162031923 765.9325673258755 118.3017027963208
  endloop
endfacet
facet normal 0.0 -1.0 0.0
  outer loop
    vertex 524.5560461823695 600.6812548258721 137.94282997717704
    vertex 431.9516361550526 600.6812548258721 0.0
    vertex 524.5560461823695 600.6812548258721 0.0
  endloop
endfacet
facet normal 0.0 -1.0 0.0
  outer loop
    vertex 431.9516361550526 600.6812548258721 0.0
    vertex 524.5560461823695 600.6812548258721 137.94282997717704
    vertex 494.76872054854465 600.6812548258721 137.94282997717374
  endloop
endfacet
facet normal 0.0 -1.0 0.0
  outer loop
    vertex 494.76872054854465 600.6812548258721 137.94282997717374
    vertex 475.7689440979608 600.6812548258721 143.73487625884704
    vertex 431.9516361550526 600.6812548258721 0.0
  endloop
endfacet
facet normal 0.0 -1.0 0.0
  outer loop
    vertex 475.7689440979608 600.6812548258721 143.73487625884704
    vertex 494.76872054854465 600.6812548258721 137.94282997717374
    vertex 478.3156958186127 600.6812548258721 142.9585037645545
  endloop
endfacet
facet normal 0.11159032598377244 0.9238795325111283 0.3660521937563749
  outer loop
    vertex 470.60423308659625 688.14992861452 126.79296145435306
    vertex 473.3619695986123 687.8502273470061 126.70868699853581
    vertex 473.1509848072524 688.14992861452 126.01658896005982
  endloop
endfacet
facet normal 0.11159032598377244 0.9238795325111283 0.3660521937563749
  outer loop
    vertex 473.3619695986123 687.8502273470061 126.70868699853581
    vertex 470.60423308659625 688.14992861452 126.79296145435306
    vertex 470.8152178779561 687.8502273470054 127.48505949282877
  endloop
endfacet
facet normal -0.038061382091517625 0.991444861373775 -0.12485358644756674
  outer loop
    vertex 471.04163244810405 687.7480048258727 128.2277721730727
    vertex 473.81479873890686 687.8502273470061 128.19411235902348
    vertex 473.58838416875955 687.7480048258735 127.45139967877967
  endloop
endfacet
facet normal -0.038061382091517625 0.991444861373775 -0.12485358644756674
  outer loop
    vertex 473.81479873890686 687.8502273470061 128.19411235902348
    vertex 471.04163244810405 687.7480048258727 128.2277721730727
    vertex 471.26804701825137 687.8502273470061 128.97048485331672
  endloop
endfacet
facet normal 0.2313414963281764 0.6087614290085813 0.7588745842549154
  outer loop
    vertex 470.4230563388861 688.6266844823132 126.19864339522034
    vertex 472.83078625143133 689.2480048258732 124.9662346147125
    vertex 470.28403453077516 689.2480048258739 125.74260710900467
  endloop
endfacet
facet normal 0.2313414963281764 0.6087614290085813 0.7588745842549154
  outer loop
    vertex 472.83078625143133 689.2480048258732 124.9662346147125
    vertex 470.4230563388861 688.6266844823132 126.19864339522034
    vertex 472.969808059543 688.626684482314 125.42227090092778
  endloop
endfacet
facet normal 0.2891048995557581 0.1305261922197021 0.948357142746065
  outer loop
    vertex 470.19664176873886 689.9715476905671 125.45593071497599
    vertex 472.7135854457453 690.7480048258735 124.58177824134003
    vertex 470.1668337250884 690.7480048258757 125.35815073563249
  endloop
endfacet
facet normal 0.2891048995557581 0.1305261922197021 0.948357142746065
  outer loop
    vertex 472.7135854457453 690.7480048258735 124.58177824134003
    vertex 470.19664176873886 689.9715476905671 125.45593071497599
    vertex 472.74339348939503 689.9715476905658 124.67955822068397
  endloop
endfacet
facet normal -0.23134149632809717 0.6087614290091304 -0.7588745842544988
  outer loop
    vertex 471.799230365433 689.2480048258739 130.71293723713953
    vertex 474.20696027797607 688.626684482314 129.4805284566315
    vertex 471.6602085573206 688.6266844823147 130.256900950924
  endloop
endfacet
facet normal -0.23134149632809717 0.6087614290091304 -0.7588745842544988
  outer loop
    vertex 474.20696027797607 688.626684482314 129.4805284566315
    vertex 471.799230365433 689.2480048258739 130.71293723713953
    vertex 474.3459820860878 689.2480048258732 129.93656474284677
  endloop
endfacet
facet normal 0.038061382090981755 -0.9914448613738954 0.12485358644677298
  outer loop
    vertex 473.58838416875955 693.7480048258735 127.45139967877962
    vertex 470.8152178779561 693.6457823047416 127.48505949282877
    vertex 473.3619695986123 693.6457823047409 126.70868699853581
  endloop
endfacet
facet normal 0.038061382090981755 -0.9914448613738954 0.12485358644677298
  outer loop
    vertex 470.8152178779561 693.6457823047416 127.48505949282877
    vertex 473.58838416875955 693.7480048258735 127.45139967877962
    vertex 471.04163244810405 693.7480048258735 128.22777217307262
  endloop
endfacet
facet normal -0.1775145735722485 0.7933533402907551 -0.5823049489906165
  outer loop
    vertex 471.4790318096105 688.14992861452 129.66258289179257
    vertex 474.20696027797607 688.626684482314 129.4805284566315
    vertex 474.02578353026666 688.14992861452 128.88621039749947
  endloop
endfacet
facet normal -0.1775145735722485 0.7933533402907551 -0.5823049489906165
  outer loop
    vertex 474.20696027797607 688.626684482314 129.4805284566315
    vertex 471.4790318096105 688.14992861452 129.66258289179257
    vertex 471.6602085573206 688.6266844823147 130.256900950924
  endloop
endfacet
facet normal 0.28910489955569507 -0.13052619222057857 0.9483571427459637
  outer loop
    vertex 472.7135854457453 690.7480048258735 124.58177824134003
    vertex 470.1966417687396 691.524461961182 125.45593071497672
    vertex 470.1668337250884 690.7480048258757 125.35815073563249
  endloop
endfacet
facet normal 0.28910489955569507 -0.13052619222057857 0.9483571427459637
  outer loop
    vertex 470.1966417687396 691.524461961182 125.45593071497672
    vertex 472.7135854457453 690.7480048258735 124.58177824134003
    vertex 472.74339348939577 691.5244619611813 124.67955822068397
  endloop
endfacet
facet normal -0.1115903259838077 0.9238795325112836 -0.3660521937559719
  outer loop
    vertex 471.26804701825137 687.8502273470061 128.97048485331672
    vertex 474.02578353026666 688.14992861452 128.88621039749947
    vertex 473.81479873890686 687.8502273470061 128.19411235902348
  endloop
endfacet
facet normal -0.1115903259838077 0.9238795325112836 -0.3660521937559719
  outer loop
    vertex 474.02578353026666 688.14992861452 128.88621039749947
    vertex 471.26804701825137 687.8502273470061 128.97048485331672
    vertex 471.4790318096105 688.14992861452 129.66258289179257
  endloop
endfacet
facet normal -0.1115903259837348 -0.9238795325111576 -0.3660521937563126
  outer loop
    vertex 474.02578353026666 693.346081037227 128.8862103974994
    vertex 471.2680470182506 693.6457823047409 128.9704848533164
    vertex 473.81479873890686 693.6457823047409 128.19411235902348
  endloop
endfacet
facet normal -0.1115903259837348 -0.9238795325111576 -0.3660521937563126
  outer loop
    vertex 471.2680470182506 693.6457823047409 128.9704848533164
    vertex 474.02578353026666 693.346081037227 128.8862103974994
    vertex 471.4790318096105 693.3460810372263 129.66258289179243
  endloop
endfacet
facet normal 0.17751457357193445 0.7933533402914913 0.582304948989709
  outer loop
    vertex 470.4230563388861 688.6266844823132 126.19864339522034
    vertex 473.1509848072524 688.14992861452 126.01658896005982
    vertex 472.969808059543 688.626684482314 125.42227090092778
  endloop
endfacet
facet normal 0.17751457357193445 0.7933533402914913 0.582304948989709
  outer loop
    vertex 473.1509848072524 688.14992861452 126.01658896005982
    vertex 470.4230563388861 688.6266844823132 126.19864339522034
    vertex 470.60423308659625 688.14992861452 126.79296145435306
  endloop
endfacet
facet normal 0.26940287841950383 0.38268343236512525 0.8837281707021298
  outer loop
    vertex 470.28403453077516 689.2480048258739 125.74260710900467
    vertex 472.74339348939503 689.9715476905658 124.67955822068397
    vertex 470.19664176873886 689.9715476905671 125.45593071497599
  endloop
endfacet
facet normal 0.26940287841950383 0.38268343236512525 0.8837281707021298
  outer loop
    vertex 472.74339348939503 689.9715476905658 124.67955822068397
    vertex 470.28403453077516 689.2480048258739 125.74260710900467
    vertex 472.83078625143133 689.2480048258732 124.9662346147125
  endloop
endfacet
facet normal -0.28910489955582813 0.13052619221950235 -0.9483571427460712
  outer loop
    vertex 471.9164311711176 690.7480048258757 131.0973936105116
    vertex 474.4333748481234 689.9715476905658 130.22324113687532
    vertex 471.88662312746857 689.9715476905671 130.9996136311682
  endloop
endfacet
facet normal -0.28910489955582813 0.13052619221950235 -0.9483571427460712
  outer loop
    vertex 474.4333748481234 689.9715476905658 130.22324113687532
    vertex 471.9164311711176 690.7480048258757 131.0973936105116
    vertex 474.4631828917738 690.7480048258735 130.32102111621927
  endloop
endfacet
facet normal 0.11159032598349582 -0.9238795325113205 0.36605219375597414
  outer loop
    vertex 473.3619695986123 693.6457823047409 126.70868699853581
    vertex 470.60423308659625 693.3460810372278 126.79296145435269
    vertex 473.1509848072524 693.346081037227 126.01658896005982
  endloop
endfacet
facet normal 0.11159032598349582 -0.9238795325113205 0.36605219375597414
  outer loop
    vertex 470.60423308659625 693.3460810372278 126.79296145435269
    vertex 473.3619695986123 693.6457823047409 126.70868699853581
    vertex 470.8152178779561 693.6457823047416 127.48505949282877
  endloop
endfacet
facet normal -0.1775145735720598 -0.7933533402912495 -0.5823049489900001
  outer loop
    vertex 474.20696027797607 692.8693251694332 129.48052845663145
    vertex 471.4790318096105 693.3460810372263 129.66258289179243
    vertex 474.02578353026666 693.346081037227 128.8862103974994
  endloop
endfacet
facet normal -0.1775145735720598 -0.7933533402912495 -0.5823049489900001
  outer loop
    vertex 471.4790318096105 693.3460810372263 129.66258289179243
    vertex 474.20696027797607 692.8693251694332 129.48052845663145
    vertex 471.66020855731915 692.8693251694345 130.25690095092256
  endloop
endfacet
facet normal -0.26940287841960275 0.3826834323648957 -0.883728170702199
  outer loop
    vertex 471.88662312746857 689.9715476905671 130.9996136311682
    vertex 474.3459820860878 689.2480048258732 129.93656474284677
    vertex 471.799230365433 689.2480048258739 130.71293723713953
  endloop
endfacet
facet normal -0.26940287841960275 0.3826834323648957 -0.883728170702199
  outer loop
    vertex 474.3459820860878 689.2480048258732 129.93656474284677
    vertex 471.88662312746857 689.9715476905671 130.9996136311682
    vertex 474.4333748481234 689.9715476905658 130.22324113687532
  endloop
endfacet
facet normal 0.23134149632812942 -0.6087614290098785 0.758874584253889
  outer loop
    vertex 472.83078625143133 692.2480048258739 124.9662346147125
    vertex 470.42305633888753 692.8693251694324 126.19864339522134
    vertex 470.28403453077584 692.2480048258753 125.74260710900538
  endloop
endfacet
facet normal 0.23134149632812942 -0.6087614290098785 0.758874584253889
  outer loop
    vertex 470.42305633888753 692.8693251694324 126.19864339522134
    vertex 472.83078625143133 692.2480048258739 124.9662346147125
    vertex 472.969808059543 692.8693251694332 125.42227090092778
  endloop
endfacet
facet normal -0.26940287841925165 -0.38268343236600433 -0.8837281707018261
  outer loop
    vertex 474.3459820860878 692.2480048258739 129.93656474284674
    vertex 471.8866231274679 691.524461961182 130.99961363116782
    vertex 471.79923036543084 692.2480048258753 130.7129372371377
  endloop
endfacet
facet normal -0.26940287841925165 -0.38268343236600433 -0.8837281707018261
  outer loop
    vertex 471.8866231274679 691.524461961182 130.99961363116782
    vertex 474.3459820860878 692.2480048258739 129.93656474284674
    vertex 474.43337484812406 691.5244619611813 130.22324113687532
  endloop
endfacet
facet normal -0.28910489955582885 -0.13052619221989786 -0.9483571427460167
  outer loop
    vertex 474.43337484812406 691.5244619611813 130.22324113687532
    vertex 471.9164311711176 690.7480048258757 131.0973936105116
    vertex 471.8866231274679 691.524461961182 130.99961363116782
  endloop
endfacet
facet normal -0.28910489955582885 -0.13052619221989786 -0.9483571427460167
  outer loop
    vertex 471.9164311711176 690.7480048258757 131.0973936105116
    vertex 474.43337484812406 691.5244619611813 130.22324113687532
    vertex 474.4631828917738 690.7480048258735 130.32102111621927
  endloop
endfacet
facet normal 0.26940287841948396 -0.38268343236501057 0.8837281707021856
  outer loop
    vertex 472.74339348939577 691.5244619611813 124.67955822068397
    vertex 470.28403453077584 692.2480048258753 125.74260710900538
    vertex 470.1966417687396 691.524461961182 125.45593071497672
  endloop
endfacet
facet normal 0.26940287841948396 -0.38268343236501057 0.8837281707021856
  outer loop
    vertex 470.28403453077584 692.2480048258753 125.74260710900538
    vertex 472.74339348939577 691.5244619611813 124.67955822068397
    vertex 472.83078625143133 692.2480048258739 124.9662346147125
  endloop
endfacet
facet normal -0.03806138209125522 -0.9914448613738295 -0.12485358644721271
  outer loop
    vertex 473.81479873890686 693.6457823047409 128.19411235902348
    vertex 471.04163244810405 693.7480048258735 128.22777217307262
    vertex 473.58838416875955 693.7480048258735 127.45139967877962
  endloop
endfacet
facet normal -0.03806138209125522 -0.9914448613738295 -0.12485358644721271
  outer loop
    vertex 471.04163244810405 693.7480048258735 128.22777217307262
    vertex 473.81479873890686 693.6457823047409 128.19411235902348
    vertex 471.2680470182506 693.6457823047409 128.9704848533164
  endloop
endfacet
facet normal -0.23134149632803416 -0.6087614290089073 -0.7588745842546973
  outer loop
    vertex 474.20696027797607 692.8693251694332 129.48052845663145
    vertex 471.79923036543084 692.2480048258753 130.7129372371377
    vertex 471.66020855731915 692.8693251694345 130.25690095092256
  endloop
endfacet
facet normal -0.23134149632803416 -0.6087614290089073 -0.7588745842546973
  outer loop
    vertex 471.79923036543084 692.2480048258753 130.7129372371377
    vertex 474.20696027797607 692.8693251694332 129.48052845663145
    vertex 474.3459820860878 692.2480048258739 129.93656474284674
  endloop
endfacet
facet normal 0.17751457357255984 -0.7933533402904175 0.5823049489909813
  outer loop
    vertex 473.1509848072524 693.346081037227 126.01658896005982
    vertex 470.42305633888753 692.8693251694324 126.19864339522134
    vertex 472.969808059543 692.8693251694332 125.42227090092778
  endloop
endfacet
facet normal 0.17751457357255984 -0.7933533402904175 0.5823049489909813
  outer loop
    vertex 470.42305633888753 692.8693251694324 126.19864339522134
    vertex 473.1509848072524 693.346081037227 126.01658896005982
    vertex 470.60423308659625 693.3460810372278 126.79296145435269
  endloop
endfacet
facet normal 0.03806138209098529 0.9914448613738363 0.12485358644724187
  outer loop
    vertex 470.8152178779561 687.8502273470054 127.48505949282877
    vertex 473.58838416875955 687.7480048258735 127.45139967877967
    vertex 473.3619695986123 687.8502273470061 126.70868699853581
  endloop
endfacet
facet normal 0.03806138209098529 0.9914448613738363 0.12485358644724187
  outer loop
    vertex 473.58838416875955 687.7480048258735 127.45139967877967
    vertex 470.8152178779561 687.8502273470054 127.48505949282877
    vertex 471.04163244810405 687.7480048258727 128.2277721730727
  endloop
endfacet
facet normal 0.0 0.0 -1.0
  outer loop
    vertex 510.0560461823698 712.314754825876 22.0
    vertex 467.0560461823698 669.314754825876 22.0
    vertex 467.0560461823698 712.314754825876 22.0
  endloop
endfacet
facet normal 0.0 0.0 -1.0
  outer loop
    vertex 467.0560461823698 669.314754825876 22.0
    vertex 510.0560461823698 712.314754825876 22.0
    vertex 510.0560461823698 669.314754825876 22.0
  endloop
endfacet
facet normal -1.0 0.0 0.0
  outer loop
    vertex 510.0560461823698 712.314754825876 22.0
    vertex 510.0560461823698 669.314754825876 0.0
    vertex 510.0560461823698 669.314754825876 22.0
  endloop
endfacet
facet normal -1.0 0.0 0.0
  outer loop
    vertex 510.0560461823698 669.314754825876 0.0
    vertex 510.0560461823698 712.314754825876 22.0
    vertex 510.0560461823698 712.314754825876 0.0
  endloop
endfacet
facet normal 0.0 1.0 0.0
  outer loop
    vertex 467.0560461823698 669.314754825876 22.0
    vertex 510.0560461823698 669.314754825876 0.0
    vertex 467.0560461823698 669.314754825876 0.0
  endloop
endfacet
facet normal 0.0 1.0 0.0
  outer loop
    vertex 510.0560461823698 669.314754825876 0.0
    vertex 467.0560461823698 669.314754825876 22.0
    vertex 510.0560461823698 669.314754825876 22.0
  endloop
endfacet
facet normal 1.0 -0.0 -0.0
  outer loop
    vertex 467.0560461823698 712.314754825876 0.0
    vertex 467.0560461823698 669.314754825876 22.0
    vertex 467.0560461823698 669.314754825876 0.0
  endloop
endfacet
facet normal 1.0 -0.0 -0.0
  outer loop
    vertex 467.0560461823698 669.314754825876 22.0
    vertex 467.0560461823698 712.314754825876 0.0
    vertex 467.0560461823698 712.314754825876 22.0
  endloop
endfacet
facet normal 0.0 -1.0 -0.0
  outer loop
    vertex 510.0560461823698 712.314754825876 22.0
    vertex 467.0560461823698 712.314754825876 0.0
    vertex 510.0560461823698 712.314754825876 0.0
  endloop
endfacet
facet normal 0.0 -1.0 -0.0
  outer loop
    vertex 467.0560461823698 712.314754825876 0.0
    vertex 510.0560461823698 712.314754825876 22.0
    vertex 467.0560461823698 712.314754825876 22.0
  endloop
endfacet
endsolid IpadAirSlotmachineTop
