solid IpadAirSlotmachineBottom
facet normal -1.0 0.0 0.0
  outer loop
    vertex 4386.394781761622 4955.482874691737 -63.847131167076945
    vertex 4386.394781761622 4775.349374691734 -178.58701086365312
    vertex 4386.394781761622 4775.349374691734 -63.847131167076945
  endloop
endfacet
facet normal -1.0 0.0 0.0
  outer loop
    vertex 4386.394781761622 4775.349374691734 -178.58701086365312
    vertex 4386.394781761622 4955.482874691737 -63.847131167076945
    vertex 4386.394781761622 4955.482874691737 -178.58701086365312
  endloop
endfacet
facet normal 5.906755847587736e-15 1.0 2.0638677014910436e-14
  outer loop
    vertex 4417.972965179838 4853.116124691736 -136.56140491235118
    vertex 4443.2798668353 4853.1161246917345 -170.18188967339242
    vertex 4407.723823341002 4853.116124691736 -170.18188967339262
  endloop
endfacet
facet normal 5.906755847587736e-15 1.0 2.0638677014910436e-14
  outer loop
    vertex 4443.2798668353 4853.1161246917345 -170.18188967339242
    vertex 4417.972965179838 4853.116124691736 -136.56140491235118
    vertex 4430.830437754712 4853.1161246917345 -153.37164729287014
  endloop
endfacet
facet normal 5.906755847587736e-15 1.0 2.0638677014910436e-14
  outer loop
    vertex 4430.830437754712 4853.1161246917345 -153.37164729287014
    vertex 4417.972965179838 4853.116124691736 -136.56140491235118
    vertex 4435.955008674126 4853.1161246917345 -136.56140491234794
  endloop
endfacet
facet normal 5.906755847587736e-15 1.0 2.0638677014910436e-14
  outer loop
    vertex 4407.723823341002 4853.116124691736 -170.18188967339262
    vertex 4535.298602364726 4853.116124691736 -178.58701086365312
    vertex 4407.723823341002 4853.116124691736 -178.58701086365312
  endloop
endfacet
facet normal 5.906755847587736e-15 1.0 2.0638677014910436e-14
  outer loop
    vertex 4535.298602364726 4853.116124691736 -178.58701086365312
    vertex 4407.723823341002 4853.116124691736 -170.18188967339262
    vertex 4535.298602364726 4853.1161246917345 -170.18188967339242
  endloop
endfacet
facet normal 5.906755847587736e-15 1.0 2.0638677014910436e-14
  outer loop
    vertex 4535.298602364726 4853.1161246917345 -170.18188967339242
    vertex 4407.723823341002 4853.116124691736 -170.18188967339262
    vertex 4443.2798668353 4853.1161246917345 -170.18188967339242
  endloop
endfacet
facet normal 1.0 0.0 0.0
  outer loop
    vertex 4407.723823341002 4877.716124691738 -178.58701086365312
    vertex 4407.723823341002 4853.116124691736 -170.18188967339262
    vertex 4407.723823341002 4853.116124691736 -178.58701086365312
  endloop
endfacet
facet normal 1.0 0.0 0.0
  outer loop
    vertex 4407.723823341002 4853.116124691736 -170.18188967339262
    vertex 4407.723823341002 4877.716124691738 -178.58701086365312
    vertex 4407.723823341002 4877.716124691738 -170.18188967339262
  endloop
endfacet
facet normal -1.8189445513701815e-13 2.683001118903362e-16 1.0
  outer loop
    vertex 4435.955008674126 4779.231562191734 -136.56140491234788
    vertex 4417.972965179838 4853.116124691736 -136.56140491235118
    vertex 4417.972965179838 4779.231562191736 -136.56140491235118
  endloop
endfacet
facet normal -1.8189445513701815e-13 2.683001118903362e-16 1.0
  outer loop
    vertex 4417.972965179838 4853.116124691736 -136.56140491235118
    vertex 4435.955008674126 4779.231562191734 -136.56140491234788
    vertex 4435.955008674126 4853.1161246917345 -136.56140491234794
  endloop
endfacet
facet normal -1.78587283225436e-13 5.366002237806884e-16 1.0
  outer loop
    vertex 4435.955008674126 4877.716124691736 -136.56140491234794
    vertex 4417.972965179838 4951.600687191737 -136.56140491235118
    vertex 4417.972965179838 4877.716124691738 -136.56140491235118
  endloop
endfacet
facet normal -1.78587283225436e-13 5.366002237806884e-16 1.0
  outer loop
    vertex 4417.972965179838 4951.600687191737 -136.56140491235118
    vertex 4435.955008674126 4877.716124691736 -136.56140491234794
    vertex 4435.955008674126 4951.600687191737 -136.561404912348
  endloop
endfacet
facet normal -0.9565404791465935 3.668685104019767e-16 0.29159957433783334
  outer loop
    vertex 4463.4596632537605 4951.600687191737 -46.3372832547338
    vertex 4435.955008674126 4779.231562191734 -136.56140491234788
    vertex 4463.4596632537605 4779.231562191734 -46.3372832547338
  endloop
endfacet
facet normal -0.9565404791465935 3.668685104019767e-16 0.29159957433783334
  outer loop
    vertex 4435.955008674126 4779.231562191734 -136.56140491234788
    vertex 4463.4596632537605 4951.600687191737 -46.3372832547338
    vertex 4435.955008674126 4853.1161246917345 -136.56140491234794
  endloop
endfacet
facet normal -0.9565404791465935 3.668685104019767e-16 0.29159957433783334
  outer loop
    vertex 4435.955008674126 4853.1161246917345 -136.56140491234794
    vertex 4463.4596632537605 4951.600687191737 -46.3372832547338
    vertex 4430.830437754712 4853.1161246917345 -153.37164729287014
  endloop
endfacet
facet normal -0.9565404791465935 3.668685104019767e-16 0.29159957433783334
  outer loop
    vertex 4430.830437754712 4853.1161246917345 -153.37164729287014
    vertex 4463.4596632537605 4951.600687191737 -46.3372832547338
    vertex 4435.955008674126 4877.716124691736 -136.56140491234794
  endloop
endfacet
facet normal -0.9565404791465935 3.668685104019767e-16 0.29159957433783334
  outer loop
    vertex 4435.955008674126 4877.716124691736 -136.56140491234794
    vertex 4463.4596632537605 4951.600687191737 -46.3372832547338
    vertex 4435.955008674126 4951.600687191737 -136.561404912348
  endloop
endfacet
facet normal -0.9565404791465935 3.668685104019767e-16 0.29159957433783334
  outer loop
    vertex 4430.830437754713 4877.716124691736 -153.37164729287014
    vertex 4430.830437754712 4853.1161246917345 -153.37164729287014
    vertex 4435.955008674126 4877.716124691736 -136.56140491234794
  endloop
endfacet
facet normal 1.0036559801481302e-13 1.0 -2.659560826113909e-14
  outer loop
    vertex 4445.477619759504 4779.231562191735 -46.3372832547338
    vertex 4435.955008674126 4779.231562191734 -136.56140491234788
    vertex 4417.972965179838 4779.231562191736 -136.56140491235118
  endloop
endfacet
facet normal 1.0036559801481302e-13 1.0 -2.659560826113909e-14
  outer loop
    vertex 4435.955008674126 4779.231562191734 -136.56140491234788
    vertex 4445.477619759504 4779.231562191735 -46.3372832547338
    vertex 4463.4596632537605 4779.231562191734 -46.3372832547338
  endloop
endfacet
facet normal 0.0 -1.0 0.0
  outer loop
    vertex 4435.955008674126 4951.600687191737 -136.561404912348
    vertex 4445.477619759504 4951.600687191737 -46.33728325473346
    vertex 4417.972965179838 4951.600687191737 -136.56140491235118
  endloop
endfacet
facet normal 0.0 -1.0 0.0
  outer loop
    vertex 4445.477619759504 4951.600687191737 -46.33728325473346
    vertex 4435.955008674126 4951.600687191737 -136.561404912348
    vertex 4463.4596632537605 4951.600687191737 -46.3372832547338
  endloop
endfacet
facet normal -0.8036166916938199 2.0714630262449745e-14 -0.595147219460093
  outer loop
    vertex 4430.830437754713 4877.716124691736 -153.37164729287014
    vertex 4443.2798668353 4853.1161246917345 -170.18188967339242
    vertex 4430.830437754712 4853.1161246917345 -153.37164729287014
  endloop
endfacet
facet normal -0.8036166916938199 2.0714630262449745e-14 -0.595147219460093
  outer loop
    vertex 4443.2798668353 4853.1161246917345 -170.18188967339242
    vertex 4430.830437754713 4877.716124691736 -153.37164729287014
    vertex 4443.2798668353 4877.716124691736 -170.18188967339242
  endloop
endfacet
facet normal -0.9565404791459212 9.629542710383483e-14 0.29159957434003875
  outer loop
    vertex 4442.694192337409 4790.231562191735 -46.3372832547338
    vertex 4442.417747940474 4775.349374691734 -47.244109873044835
    vertex 4442.694192337409 4775.349374691734 -46.3372832547338
  endloop
endfacet
facet normal -0.9565404791459212 9.629542710383483e-14 0.29159957434003875
  outer loop
    vertex 4442.417747940474 4775.349374691734 -47.244109873044835
    vertex 4442.694192337409 4790.231562191735 -46.3372832547338
    vertex 4442.417747940476 4790.231562191735 -47.24410987304993
  endloop
endfacet
facet normal -0.0 1.0 -0.0
  outer loop
    vertex 4445.477619759504 4790.231562191735 -46.3372832547338
    vertex 4442.417747940476 4790.231562191735 -47.24410987304993
    vertex 4442.694192337409 4790.231562191735 -46.3372832547338
  endloop
endfacet
facet normal 2.593606047722917e-13 -1.0 -8.751509819839499e-13
  outer loop
    vertex 4445.477619759504 4940.600687191737 -46.33728325473346
    vertex 4442.694192337415 4940.600687191736 -46.3372832547338
    vertex 4442.417747940483 4940.600687191737 -47.24410987304749
  endloop
endfacet
facet normal 0.9565404791465048 3.831379200059213e-16 -0.2915995743381241
  outer loop
    vertex 4407.723823341002 4877.716124691738 -170.18188967339262
    vertex 4417.972965179838 4853.116124691736 -136.56140491235118
    vertex 4407.723823341002 4853.116124691736 -170.18188967339262
  endloop
endfacet
facet normal 0.9565404791465048 3.831379200059213e-16 -0.2915995743381241
  outer loop
    vertex 4417.972965179838 4779.231562191736 -136.56140491235118
    vertex 4445.477619759504 4790.231562191735 -46.3372832547338
    vertex 4445.477619759504 4779.231562191735 -46.3372832547338
  endloop
endfacet
facet normal 0.9565404791465048 3.831379200059213e-16 -0.2915995743381241
  outer loop
    vertex 4445.477619759504 4790.231562191735 -46.3372832547338
    vertex 4417.972965179838 4779.231562191736 -136.56140491235118
    vertex 4417.972965179838 4853.116124691736 -136.56140491235118
  endloop
endfacet
facet normal 0.9565404791465048 3.831379200059213e-16 -0.2915995743381241
  outer loop
    vertex 4445.477619759504 4790.231562191735 -46.3372832547338
    vertex 4417.972965179838 4853.116124691736 -136.56140491235118
    vertex 4445.477619759504 4940.600687191737 -46.33728325473346
  endloop
endfacet
facet normal 0.9565404791465048 3.831379200059213e-16 -0.2915995743381241
  outer loop
    vertex 4445.477619759504 4940.600687191737 -46.33728325473346
    vertex 4417.972965179838 4853.116124691736 -136.56140491235118
    vertex 4417.972965179838 4877.716124691738 -136.56140491235118
  endloop
endfacet
facet normal 0.9565404791465048 3.831379200059213e-16 -0.2915995743381241
  outer loop
    vertex 4417.972965179838 4877.716124691738 -136.56140491235118
    vertex 4417.972965179838 4853.116124691736 -136.56140491235118
    vertex 4407.723823341002 4877.716124691738 -170.18188967339262
  endloop
endfacet
facet normal 0.9565404791465048 3.831379200059213e-16 -0.2915995743381241
  outer loop
    vertex 4445.477619759504 4940.600687191737 -46.33728325473346
    vertex 4417.972965179838 4877.716124691738 -136.56140491235118
    vertex 4417.972965179838 4951.600687191737 -136.56140491235118
  endloop
endfacet
facet normal 0.9565404791465048 3.831379200059213e-16 -0.2915995743381241
  outer loop
    vertex 4445.477619759504 4940.600687191737 -46.33728325473346
    vertex 4417.972965179838 4951.600687191737 -136.56140491235118
    vertex 4445.477619759504 4951.600687191737 -46.33728325473346
  endloop
endfacet
facet normal -0.0 1.0 -0.0
  outer loop
    vertex 4386.394781761622 4955.482874691737 -63.847131167076945
    vertex 4535.298602364726 4955.482874691737 -178.58701086365312
    vertex 4386.394781761622 4955.482874691737 -178.58701086365312
  endloop
endfacet
facet normal -0.0 1.0 -0.0
  outer loop
    vertex 4535.298602364726 4955.482874691737 -178.58701086365312
    vertex 4386.394781761622 4955.482874691737 -63.847131167076945
    vertex 4535.298602364726 4955.482874691737 -46.3372832547338
  endloop
endfacet
facet normal -0.0 1.0 -0.0
  outer loop
    vertex 4535.298602364726 4955.482874691737 -46.3372832547338
    vertex 4386.394781761622 4955.482874691737 -63.847131167076945
    vertex 4442.4177479404825 4955.482874691737 -47.244109873042625
  endloop
endfacet
facet normal -0.0 1.0 -0.0
  outer loop
    vertex 4535.298602364726 4955.482874691737 -46.3372832547338
    vertex 4442.4177479404825 4955.482874691737 -47.244109873042625
    vertex 4442.694192337412 4955.482874691737 -46.3372832547338
  endloop
endfacet
facet normal 0.0 -1.0 0.0
  outer loop
    vertex 4535.298602364726 4775.349374691734 -46.3372832547338
    vertex 4386.394781761622 4775.349374691734 -178.58701086365312
    vertex 4535.298602364726 4775.349374691734 -178.58701086365312
  endloop
endfacet
facet normal 0.0 -1.0 0.0
  outer loop
    vertex 4386.394781761622 4775.349374691734 -178.58701086365312
    vertex 4535.298602364726 4775.349374691734 -46.3372832547338
    vertex 4386.394781761622 4775.349374691734 -63.847131167076945
  endloop
endfacet
facet normal 0.0 -1.0 0.0
  outer loop
    vertex 4386.394781761622 4775.349374691734 -63.847131167076945
    vertex 4535.298602364726 4775.349374691734 -46.3372832547338
    vertex 4442.417747940474 4775.349374691734 -47.244109873044835
  endloop
endfacet
facet normal 0.0 -1.0 0.0
  outer loop
    vertex 4442.417747940474 4775.349374691734 -47.244109873044835
    vertex 4535.298602364726 4775.349374691734 -46.3372832547338
    vertex 4442.694192337409 4775.349374691734 -46.3372832547338
  endloop
endfacet
facet normal 1.0 -0.0 -0.0
  outer loop
    vertex 4535.298602364726 4775.349374691734 -178.58701086365312
    vertex 4535.298602364726 4785.349374691734 -165.18188967339242
    vertex 4535.298602364726 4775.349374691734 -46.3372832547338
  endloop
endfacet
facet normal 1.0 -0.0 -0.0
  outer loop
    vertex 4535.298602364726 4785.349374691734 -165.18188967339242
    vertex 4535.298602364726 4775.349374691734 -178.58701086365312
    vertex 4535.298602364726 4853.116124691736 -178.58701086365312
  endloop
endfacet
facet normal 1.0 -0.0 -0.0
  outer loop
    vertex 4535.298602364726 4785.349374691734 -165.18188967339242
    vertex 4535.298602364726 4853.116124691736 -178.58701086365312
    vertex 4535.298602364726 4785.849374691733 -165.18188967339242
  endloop
endfacet
facet normal 1.0 -0.0 -0.0
  outer loop
    vertex 4535.298602364726 4785.849374691733 -165.18188967339242
    vertex 4535.298602364726 4853.116124691736 -178.58701086365312
    vertex 4535.298602364726 4785.849374691733 -164.68188967339242
  endloop
endfacet
facet normal 1.0 -0.0 -0.0
  outer loop
    vertex 4535.298602364726 4785.849374691733 -164.68188967339242
    vertex 4535.298602364726 4853.116124691736 -178.58701086365312
    vertex 4535.298602364726 4853.1161246917345 -170.18188967339242
  endloop
endfacet
facet normal 1.0 -0.0 -0.0
  outer loop
    vertex 4535.298602364726 4775.349374691734 -46.3372832547338
    vertex 4535.298602364726 4785.349374691734 -164.68188967339242
    vertex 4535.298602364726 4955.482874691737 -46.3372832547338
  endloop
endfacet
facet normal 1.0 -0.0 -0.0
  outer loop
    vertex 4535.298602364726 4785.349374691734 -164.68188967339242
    vertex 4535.298602364726 4775.349374691734 -46.3372832547338
    vertex 4535.298602364726 4785.349374691734 -165.18188967339242
  endloop
endfacet
facet normal 1.0 -0.0 -0.0
  outer loop
    vertex 4535.298602364726 4955.482874691737 -46.3372832547338
    vertex 4535.298602364726 4785.349374691734 -164.68188967339242
    vertex 4535.298602364726 4785.849374691733 -164.68188967339242
  endloop
endfacet
facet normal 1.0 -0.0 -0.0
  outer loop
    vertex 4535.298602364726 4955.482874691737 -46.3372832547338
    vertex 4535.298602364726 4785.849374691733 -164.68188967339242
    vertex 4535.298602364726 4853.1161246917345 -170.18188967339242
  endloop
endfacet
facet normal 1.0 -0.0 -0.0
  outer loop
    vertex 4535.298602364726 4955.482874691737 -46.3372832547338
    vertex 4535.298602364726 4853.1161246917345 -170.18188967339242
    vertex 4535.298602364726 4877.716124691736 -170.18188967339242
  endloop
endfacet
facet normal 1.0 -0.0 -0.0
  outer loop
    vertex 4535.298602364726 4955.482874691737 -46.3372832547338
    vertex 4535.298602364726 4877.716124691736 -170.18188967339242
    vertex 4535.298602364726 4877.716124691738 -178.58701086365312
  endloop
endfacet
facet normal 1.0 -0.0 -0.0
  outer loop
    vertex 4535.298602364726 4955.482874691737 -46.3372832547338
    vertex 4535.298602364726 4877.716124691738 -178.58701086365312
    vertex 4535.298602364726 4955.482874691737 -178.58701086365312
  endloop
endfacet
facet normal -0.9565404791467748 -2.3328544114337234e-13 0.2915995743372387
  outer loop
    vertex 4442.694192337412 4955.482874691737 -46.3372832547338
    vertex 4442.417747940483 4940.600687191737 -47.24410987304749
    vertex 4442.694192337415 4940.600687191736 -46.3372832547338
  endloop
endfacet
facet normal -0.9565404791467748 -2.3328544114337234e-13 0.2915995743372387
  outer loop
    vertex 4442.417747940483 4940.600687191737 -47.24410987304749
    vertex 4442.694192337412 4955.482874691737 -46.3372832547338
    vertex 4442.4177479404825 4955.482874691737 -47.244109873042625
  endloop
endfacet
facet normal 8.651735158324336e-16 -6.44173880014325e-16 1.0
  outer loop
    vertex 4442.694192337409 4775.349374691734 -46.3372832547338
    vertex 4445.477619759504 4779.231562191735 -46.3372832547338
    vertex 4442.694192337409 4790.231562191735 -46.3372832547338
  endloop
endfacet
facet normal 8.651735158324336e-16 -6.44173880014325e-16 1.0
  outer loop
    vertex 4445.477619759504 4779.231562191735 -46.3372832547338
    vertex 4442.694192337409 4775.349374691734 -46.3372832547338
    vertex 4535.298602364726 4775.349374691734 -46.3372832547338
  endloop
endfacet
facet normal 8.651735158324336e-16 -6.44173880014325e-16 1.0
  outer loop
    vertex 4445.477619759504 4779.231562191735 -46.3372832547338
    vertex 4535.298602364726 4775.349374691734 -46.3372832547338
    vertex 4463.4596632537605 4779.231562191734 -46.3372832547338
  endloop
endfacet
facet normal 8.651735158324336e-16 -6.44173880014325e-16 1.0
  outer loop
    vertex 4463.4596632537605 4779.231562191734 -46.3372832547338
    vertex 4535.298602364726 4775.349374691734 -46.3372832547338
    vertex 4479.298602364725 4845.482874691737 -46.337283254733826
  endloop
endfacet
facet normal 8.651735158324336e-16 -6.44173880014325e-16 1.0
  outer loop
    vertex 4463.4596632537605 4779.231562191734 -46.3372832547338
    vertex 4479.298602364725 4845.482874691737 -46.337283254733826
    vertex 4463.4596632537605 4951.600687191737 -46.3372832547338
  endloop
endfacet
facet normal 8.651735158324336e-16 -6.44173880014325e-16 1.0
  outer loop
    vertex 4479.298602364725 4845.482874691737 -46.337283254733826
    vertex 4535.298602364726 4775.349374691734 -46.3372832547338
    vertex 4519.298602364726 4845.482874691737 -46.337283254733826
  endloop
endfacet
facet normal 8.651735158324336e-16 -6.44173880014325e-16 1.0
  outer loop
    vertex 4519.298602364726 4845.482874691737 -46.337283254733826
    vertex 4535.298602364726 4775.349374691734 -46.3372832547338
    vertex 4519.298602364726 4885.482874691737 -46.3372832547338
  endloop
endfacet
facet normal 8.651735158324336e-16 -6.44173880014325e-16 1.0
  outer loop
    vertex 4442.694192337412 4955.482874691737 -46.3372832547338
    vertex 4445.477619759504 4951.600687191737 -46.33728325473346
    vertex 4535.298602364726 4955.482874691737 -46.3372832547338
  endloop
endfacet
facet normal 8.651735158324336e-16 -6.44173880014325e-16 1.0
  outer loop
    vertex 4445.477619759504 4951.600687191737 -46.33728325473346
    vertex 4442.694192337412 4955.482874691737 -46.3372832547338
    vertex 4442.694192337415 4940.600687191736 -46.3372832547338
  endloop
endfacet
facet normal 8.651735158324336e-16 -6.44173880014325e-16 1.0
  outer loop
    vertex 4445.477619759504 4951.600687191737 -46.33728325473346
    vertex 4442.694192337415 4940.600687191736 -46.3372832547338
    vertex 4445.477619759504 4940.600687191737 -46.33728325473346
  endloop
endfacet
facet normal 8.651735158324336e-16 -6.44173880014325e-16 1.0
  outer loop
    vertex 4535.298602364726 4955.482874691737 -46.3372832547338
    vertex 4445.477619759504 4951.600687191737 -46.33728325473346
    vertex 4463.4596632537605 4951.600687191737 -46.3372832547338
  endloop
endfacet
facet normal 8.651735158324336e-16 -6.44173880014325e-16 1.0
  outer loop
    vertex 4535.298602364726 4955.482874691737 -46.3372832547338
    vertex 4463.4596632537605 4951.600687191737 -46.3372832547338
    vertex 4479.298602364725 4885.482874691737 -46.3372832547338
  endloop
endfacet
facet normal 8.651735158324336e-16 -6.44173880014325e-16 1.0
  outer loop
    vertex 4479.298602364725 4885.482874691737 -46.3372832547338
    vertex 4463.4596632537605 4951.600687191737 -46.3372832547338
    vertex 4479.298602364725 4845.482874691737 -46.337283254733826
  endloop
endfacet
facet normal 8.651735158324336e-16 -6.44173880014325e-16 1.0
  outer loop
    vertex 4535.298602364726 4955.482874691737 -46.3372832547338
    vertex 4479.298602364725 4885.482874691737 -46.3372832547338
    vertex 4519.298602364726 4885.482874691737 -46.3372832547338
  endloop
endfacet
facet normal 8.651735158324336e-16 -6.44173880014325e-16 1.0
  outer loop
    vertex 4535.298602364726 4955.482874691737 -46.3372832547338
    vertex 4519.298602364726 4885.482874691737 -46.3372832547338
    vertex 4535.298602364726 4775.349374691734 -46.3372832547338
  endloop
endfacet
facet normal 8.651735158324336e-16 -6.44173880014325e-16 1.0
  outer loop
    vertex 4445.477619759504 4790.231562191735 -46.3372832547338
    vertex 4442.694192337409 4790.231562191735 -46.3372832547338
    vertex 4445.477619759504 4779.231562191735 -46.3372832547338
  endloop
endfacet
facet normal 3.156033725841902e-32 -7.049916206369692e-16 1.0
  outer loop
    vertex 4519.298602364726 4845.482874691737 -26.337283254733844
    vertex 4479.298602364725 4885.482874691737 -26.33728325473381
    vertex 4479.298602364725 4845.482874691737 -26.337283254733844
  endloop
endfacet
facet normal 3.156033725841902e-32 -7.049916206369692e-16 1.0
  outer loop
    vertex 4479.298602364725 4885.482874691737 -26.33728325473381
    vertex 4519.298602364726 4845.482874691737 -26.337283254733844
    vertex 4519.298602364726 4885.482874691737 -26.33728325473381
  endloop
endfacet
facet normal 0.0 -1.0 -7.049916206369694e-16
  outer loop
    vertex 4519.298602364726 4845.482874691737 -26.337283254733844
    vertex 4479.298602364725 4845.482874691737 -46.337283254733826
    vertex 4519.298602364726 4845.482874691737 -46.337283254733826
  endloop
endfacet
facet normal 0.0 -1.0 -7.049916206369694e-16
  outer loop
    vertex 4479.298602364725 4845.482874691737 -46.337283254733826
    vertex 4519.298602364726 4845.482874691737 -26.337283254733844
    vertex 4479.298602364725 4845.482874691737 -26.337283254733844
  endloop
endfacet
facet normal 1.0 2.2249773311662153e-47 -3.1560337258419024e-32
  outer loop
    vertex 4519.298602364726 4885.482874691737 -46.3372832547338
    vertex 4519.298602364726 4845.482874691737 -26.337283254733844
    vertex 4519.298602364726 4845.482874691737 -46.337283254733826
  endloop
endfacet
facet normal 1.0 2.2249773311662153e-47 -3.1560337258419024e-32
  outer loop
    vertex 4519.298602364726 4845.482874691737 -26.337283254733844
    vertex 4519.298602364726 4885.482874691737 -46.3372832547338
    vertex 4519.298602364726 4885.482874691737 -26.33728325473381
  endloop
endfacet
facet normal 0.0 1.0 7.049916206369694e-16
  outer loop
    vertex 4479.298602364725 4885.482874691737 -26.33728325473381
    vertex 4519.298602364726 4885.482874691737 -46.3372832547338
    vertex 4479.298602364725 4885.482874691737 -46.3372832547338
  endloop
endfacet
facet normal 0.0 1.0 7.049916206369694e-16
  outer loop
    vertex 4519.298602364726 4885.482874691737 -46.3372832547338
    vertex 4479.298602364725 4885.482874691737 -26.33728325473381
    vertex 4519.298602364726 4885.482874691737 -26.33728325473381
  endloop
endfacet
facet normal -1.0 -2.2249773311662153e-47 3.1560337258419024e-32
  outer loop
    vertex 4479.298602364725 4885.482874691737 -26.33728325473381
    vertex 4479.298602364725 4845.482874691737 -46.337283254733826
    vertex 4479.298602364725 4845.482874691737 -26.337283254733844
  endloop
endfacet
facet normal -1.0 -2.2249773311662153e-47 3.1560337258419024e-32
  outer loop
    vertex 4479.298602364725 4845.482874691737 -46.337283254733826
    vertex 4479.298602364725 4885.482874691737 -26.33728325473381
    vertex 4479.298602364725 4885.482874691737 -46.3372832547338
  endloop
endfacet
facet normal 0.0 -1.0 0.0
  outer loop
    vertex 4525.298602364726 4945.482874691737 -56.3372832547338
    vertex 4473.459663253761 4945.482874691737 -165.18188967339242
    vertex 4525.298602364726 4945.482874691737 -165.18188967339242
  endloop
endfacet
facet normal 0.0 -1.0 0.0
  outer loop
    vertex 4473.459663253761 4945.482874691737 -165.18188967339242
    vertex 4525.298602364726 4945.482874691737 -56.3372832547338
    vertex 4473.459663253761 4945.482874691737 -56.3372832547338
  endloop
endfacet
facet normal 0.0 0.0 -1.0
  outer loop
    vertex 4473.459663253761 4945.482874691737 -56.3372832547338
    vertex 4525.298602364726 4785.349374691734 -56.3372832547338
    vertex 4473.4596632537605 4785.349374691734 -56.3372832547338
  endloop
endfacet
facet normal 0.0 0.0 -1.0
  outer loop
    vertex 4525.298602364726 4785.349374691734 -56.3372832547338
    vertex 4473.459663253761 4945.482874691737 -56.3372832547338
    vertex 4525.298602364726 4945.482874691737 -56.3372832547338
  endloop
endfacet
facet normal 0.0 -1.0 0.0
  outer loop
    vertex 4535.298602364726 4785.849374691733 -164.68188967339242
    vertex 4525.298602364726 4785.849374691733 -165.18188967339242
    vertex 4535.298602364726 4785.849374691733 -165.18188967339242
  endloop
endfacet
facet normal 0.0 -1.0 0.0
  outer loop
    vertex 4525.298602364726 4785.849374691733 -165.18188967339242
    vertex 4535.298602364726 4785.849374691733 -164.68188967339242
    vertex 4525.298602364726 4785.849374691733 -164.68188967339242
  endloop
endfacet
facet normal 0.0 0.0 -1.0
  outer loop
    vertex 4535.298602364726 4785.849374691733 -164.68188967339242
    vertex 4525.298602364726 4785.349374691734 -164.68188967339242
    vertex 4525.298602364726 4785.849374691733 -164.68188967339242
  endloop
endfacet
facet normal 0.0 0.0 -1.0
  outer loop
    vertex 4525.298602364726 4785.349374691734 -164.68188967339242
    vertex 4535.298602364726 4785.849374691733 -164.68188967339242
    vertex 4535.298602364726 4785.349374691734 -164.68188967339242
  endloop
endfacet
facet normal 1.0 -9.016369710675712e-15 -1.239469173295323e-44
  outer loop
    vertex 4473.459663253761 4945.482874691737 -165.18188967339242
    vertex 4473.4596632537605 4785.349374691734 -56.3372832547338
    vertex 4473.4596632537605 4785.349374691734 -165.18188967339242
  endloop
endfacet
facet normal 1.0 -9.016369710675712e-15 -1.239469173295323e-44
  outer loop
    vertex 4473.4596632537605 4785.349374691734 -56.3372832547338
    vertex 4473.459663253761 4945.482874691737 -165.18188967339242
    vertex 4473.459663253761 4945.482874691737 -56.3372832547338
  endloop
endfacet
facet normal -0.0 1.0 -0.0
  outer loop
    vertex 4535.298602364726 4785.349374691734 -164.68188967339242
    vertex 4535.298602364726 4785.349374691734 -165.18188967339242
    vertex 4525.298602364726 4785.349374691734 -164.68188967339242
  endloop
endfacet
facet normal -0.0 1.0 -0.0
  outer loop
    vertex 4473.4596632537605 4785.349374691734 -165.18188967339242
    vertex 4525.298602364726 4785.349374691734 -164.68188967339242
    vertex 4535.298602364726 4785.349374691734 -165.18188967339242
  endloop
endfacet
facet normal -0.0 1.0 -0.0
  outer loop
    vertex 4525.298602364726 4785.349374691734 -164.68188967339242
    vertex 4473.4596632537605 4785.349374691734 -165.18188967339242
    vertex 4473.4596632537605 4785.349374691734 -56.3372832547338
  endloop
endfacet
facet normal -0.0 1.0 -0.0
  outer loop
    vertex 4525.298602364726 4785.349374691734 -164.68188967339242
    vertex 4473.4596632537605 4785.349374691734 -56.3372832547338
    vertex 4525.298602364726 4785.349374691734 -56.3372832547338
  endloop
endfacet
facet normal -0.2841453436323 -3.2461791353639123e-16 0.9587812178448648
  outer loop
    vertex 4386.394781761622 4775.349374691734 -63.847131167076945
    vertex 4396.221399677063 4857.71602257954 -60.93490502793603
    vertex 4386.394781761622 4955.482874691737 -63.847131167076945
  endloop
endfacet
facet normal -0.2841453436323 -3.2461791353639123e-16 0.9587812178448648
  outer loop
    vertex 4396.221399677063 4857.71602257954 -60.93490502793603
    vertex 4386.394781761622 4775.349374691734 -63.847131167076945
    vertex 4399.284423334916 4841.104032220853 -60.027144327563555
  endloop
endfacet
facet normal -0.2841453436323 -3.2461791353639123e-16 0.9587812178448648
  outer loop
    vertex 4399.284423334916 4841.104032220853 -60.027144327563555
    vertex 4386.394781761622 4775.349374691734 -63.847131167076945
    vertex 4442.417747940474 4775.349374691734 -47.244109873044835
  endloop
endfacet
facet normal -0.2841453436323 -3.2461791353639123e-16 0.9587812178448648
  outer loop
    vertex 4399.284423334916 4841.104032220853 -60.027144327563555
    vertex 4442.417747940474 4775.349374691734 -47.244109873044835
    vertex 4411.835010832984 4832.479318347547 -56.30763988687057
  endloop
endfacet
facet normal -0.2841453436323 -3.2461791353639123e-16 0.9587812178448648
  outer loop
    vertex 4411.835010832984 4832.479318347547 -56.30763988687057
    vertex 4442.417747940474 4775.349374691734 -47.244109873044835
    vertex 4425.174937068987 4836.134358788561 -52.35420624235284
  endloop
endfacet
facet normal -0.2841453436323 -3.2461791353639123e-16 0.9587812178448648
  outer loop
    vertex 4425.174937068987 4836.134358788561 -52.35420624235284
    vertex 4442.417747940474 4775.349374691734 -47.244109873044835
    vertex 4437.409009046866 4857.632772004868 -48.728504652169704
  endloop
endfacet
facet normal -0.2841453436323 -3.2461791353639123e-16 0.9587812178448648
  outer loop
    vertex 4386.394781761622 4955.482874691737 -63.847131167076945
    vertex 4402.045477887847 4892.720755374102 -59.20887548778224
    vertex 4442.4177479404825 4955.482874691737 -47.244109873042625
  endloop
endfacet
facet normal -0.2841453436323 -3.2461791353639123e-16 0.9587812178448648
  outer loop
    vertex 4402.045477887847 4892.720755374102 -59.20887548778224
    vertex 4386.394781761622 4955.482874691737 -63.847131167076945
    vertex 4396.221399677063 4857.71602257954 -60.93490502793603
  endloop
endfacet
facet normal -0.2841453436323 -3.2461791353639123e-16 0.9587812178448648
  outer loop
    vertex 4442.4177479404825 4955.482874691737 -47.244109873042625
    vertex 4402.045477887847 4892.720755374102 -59.20887548778224
    vertex 4408.6654908897035 4893.911250293078 -57.24696193101503
  endloop
endfacet
facet normal -0.2841453436323 -3.2461791353639123e-16 0.9587812178448648
  outer loop
    vertex 4442.4177479404825 4955.482874691737 -47.244109873042625
    vertex 4408.6654908897035 4893.911250293078 -57.24696193101503
    vertex 4423.666734882087 4896.398460186933 -52.80117852412825
  endloop
endfacet
facet normal -0.2841453436323 -3.2461791353639123e-16 0.9587812178448648
  outer loop
    vertex 4442.4177479404825 4955.482874691737 -47.244109873042625
    vertex 4423.666734882087 4896.398460186933 -52.80117852412825
    vertex 4436.317528787877 4886.610419193775 -49.0519768139998
  endloop
endfacet
facet normal -0.2841453436323 -3.2461791353639123e-16 0.9587812178448648
  outer loop
    vertex 4442.4177479404825 4955.482874691737 -47.244109873042625
    vertex 4436.317528787877 4886.610419193775 -49.0519768139998
    vertex 4437.409009046866 4857.632772004868 -48.728504652169704
  endloop
endfacet
facet normal -0.2841453436323 -3.2461791353639123e-16 0.9587812178448648
  outer loop
    vertex 4442.4177479404825 4955.482874691737 -47.244109873042625
    vertex 4437.409009046866 4857.632772004868 -48.728504652169704
    vertex 4442.417747940474 4775.349374691734 -47.244109873044835
  endloop
endfacet
facet normal -0.2841453436323 -3.2461791353639123e-16 0.9587812178448648
  outer loop
    vertex 4442.4177479404825 4955.482874691737 -47.244109873042625
    vertex 4442.417747940474 4775.349374691734 -47.244109873044835
    vertex 4442.417747940476 4790.231562191735 -47.24410987304993
  endloop
endfacet
facet normal -0.2841453436323 -3.2461791353639123e-16 0.9587812178448648
  outer loop
    vertex 4442.4177479404825 4955.482874691737 -47.244109873042625
    vertex 4442.417747940476 4790.231562191735 -47.24410987304993
    vertex 4442.417747940483 4940.600687191737 -47.24410987304749
  endloop
endfacet
facet normal -0.2841453436323 -3.2461791353639123e-16 0.9587812178448648
  outer loop
    vertex 4442.417747940483 4940.600687191737 -47.24410987304749
    vertex 4442.417747940476 4790.231562191735 -47.24410987304993
    vertex 4445.477619759504 4790.231562191735 -46.3372832547338
  endloop
endfacet
facet normal -0.2841453436323 -3.2461791353639123e-16 0.9587812178448648
  outer loop
    vertex 4442.417747940483 4940.600687191737 -47.24410987304749
    vertex 4445.477619759504 4790.231562191735 -46.3372832547338
    vertex 4445.477619759504 4940.600687191737 -46.33728325473346
  endloop
endfacet
facet normal -0.0 -0.0 1.0
  outer loop
    vertex 4473.4596632537605 4785.349374691734 -165.18188967339242
    vertex 4525.298602364726 4785.849374691733 -165.18188967339242
    vertex 4473.459663253761 4945.482874691737 -165.18188967339242
  endloop
endfacet
facet normal -0.0 -0.0 1.0
  outer loop
    vertex 4525.298602364726 4785.849374691733 -165.18188967339242
    vertex 4473.4596632537605 4785.349374691734 -165.18188967339242
    vertex 4535.298602364726 4785.349374691734 -165.18188967339242
  endloop
endfacet
facet normal -0.0 -0.0 1.0
  outer loop
    vertex 4525.298602364726 4785.849374691733 -165.18188967339242
    vertex 4535.298602364726 4785.349374691734 -165.18188967339242
    vertex 4535.298602364726 4785.849374691733 -165.18188967339242
  endloop
endfacet
facet normal -0.0 -0.0 1.0
  outer loop
    vertex 4525.298602364726 4945.482874691737 -165.18188967339242
    vertex 4473.459663253761 4945.482874691737 -165.18188967339242
    vertex 4525.298602364726 4785.849374691733 -165.18188967339242
  endloop
endfacet
facet normal -1.0 0.0 0.0
  outer loop
    vertex 4525.298602364726 4945.482874691737 -56.3372832547338
    vertex 4525.298602364726 4785.349374691734 -164.68188967339242
    vertex 4525.298602364726 4785.349374691734 -56.3372832547338
  endloop
endfacet
facet normal -1.0 0.0 0.0
  outer loop
    vertex 4525.298602364726 4785.349374691734 -164.68188967339242
    vertex 4525.298602364726 4945.482874691737 -56.3372832547338
    vertex 4525.298602364726 4785.849374691733 -164.68188967339242
  endloop
endfacet
facet normal -1.0 0.0 0.0
  outer loop
    vertex 4525.298602364726 4785.849374691733 -164.68188967339242
    vertex 4525.298602364726 4945.482874691737 -56.3372832547338
    vertex 4525.298602364726 4785.849374691733 -165.18188967339242
  endloop
endfacet
facet normal -1.0 0.0 0.0
  outer loop
    vertex 4525.298602364726 4785.849374691733 -165.18188967339242
    vertex 4525.298602364726 4945.482874691737 -56.3372832547338
    vertex 4525.298602364726 4945.482874691737 -165.18188967339242
  endloop
endfacet
facet normal -5.906755847587801e-15 -1.0 -2.063867701491048e-14
  outer loop
    vertex 4535.298602364726 4877.716124691736 -170.18188967339242
    vertex 4407.723823341002 4877.716124691738 -178.58701086365312
    vertex 4535.298602364726 4877.716124691738 -178.58701086365312
  endloop
endfacet
facet normal -5.906755847587801e-15 -1.0 -2.063867701491048e-14
  outer loop
    vertex 4407.723823341002 4877.716124691738 -178.58701086365312
    vertex 4535.298602364726 4877.716124691736 -170.18188967339242
    vertex 4407.723823341002 4877.716124691738 -170.18188967339262
  endloop
endfacet
facet normal -5.906755847587801e-15 -1.0 -2.063867701491048e-14
  outer loop
    vertex 4407.723823341002 4877.716124691738 -170.18188967339262
    vertex 4535.298602364726 4877.716124691736 -170.18188967339242
    vertex 4443.2798668353 4877.716124691736 -170.18188967339242
  endloop
endfacet
facet normal -5.906755847587801e-15 -1.0 -2.063867701491048e-14
  outer loop
    vertex 4407.723823341002 4877.716124691738 -170.18188967339262
    vertex 4443.2798668353 4877.716124691736 -170.18188967339242
    vertex 4417.972965179838 4877.716124691738 -136.56140491235118
  endloop
endfacet
facet normal -5.906755847587801e-15 -1.0 -2.063867701491048e-14
  outer loop
    vertex 4417.972965179838 4877.716124691738 -136.56140491235118
    vertex 4443.2798668353 4877.716124691736 -170.18188967339242
    vertex 4430.830437754713 4877.716124691736 -153.37164729287014
  endloop
endfacet
facet normal -5.906755847587801e-15 -1.0 -2.063867701491048e-14
  outer loop
    vertex 4417.972965179838 4877.716124691738 -136.56140491235118
    vertex 4430.830437754713 4877.716124691736 -153.37164729287014
    vertex 4435.955008674126 4877.716124691736 -136.56140491234794
  endloop
endfacet
facet normal 0.0 0.0 -1.0
  outer loop
    vertex 4535.298602364726 4877.716124691736 -170.18188967339242
    vertex 4443.2798668353 4853.1161246917345 -170.18188967339242
    vertex 4443.2798668353 4877.716124691736 -170.18188967339242
  endloop
endfacet
facet normal 0.0 0.0 -1.0
  outer loop
    vertex 4443.2798668353 4853.1161246917345 -170.18188967339242
    vertex 4535.298602364726 4877.716124691736 -170.18188967339242
    vertex 4535.298602364726 4853.1161246917345 -170.18188967339242
  endloop
endfacet
facet normal 0.0 0.0 -1.0
  outer loop
    vertex 4386.394781761622 4955.482874691737 -178.58701086365312
    vertex 4407.723823341002 4877.716124691738 -178.58701086365312
    vertex 4386.394781761622 4775.349374691734 -178.58701086365312
  endloop
endfacet
facet normal 0.0 0.0 -1.0
  outer loop
    vertex 4407.723823341002 4877.716124691738 -178.58701086365312
    vertex 4386.394781761622 4955.482874691737 -178.58701086365312
    vertex 4535.298602364726 4955.482874691737 -178.58701086365312
  endloop
endfacet
facet normal 0.0 0.0 -1.0
  outer loop
    vertex 4407.723823341002 4877.716124691738 -178.58701086365312
    vertex 4535.298602364726 4955.482874691737 -178.58701086365312
    vertex 4535.298602364726 4877.716124691738 -178.58701086365312
  endloop
endfacet
facet normal 0.0 0.0 -1.0
  outer loop
    vertex 4386.394781761622 4775.349374691734 -178.58701086365312
    vertex 4407.723823341002 4853.116124691736 -178.58701086365312
    vertex 4535.298602364726 4775.349374691734 -178.58701086365312
  endloop
endfacet
facet normal 0.0 0.0 -1.0
  outer loop
    vertex 4407.723823341002 4853.116124691736 -178.58701086365312
    vertex 4386.394781761622 4775.349374691734 -178.58701086365312
    vertex 4407.723823341002 4877.716124691738 -178.58701086365312
  endloop
endfacet
facet normal 0.0 0.0 -1.0
  outer loop
    vertex 4535.298602364726 4775.349374691734 -178.58701086365312
    vertex 4407.723823341002 4853.116124691736 -178.58701086365312
    vertex 4535.298602364726 4853.116124691736 -178.58701086365312
  endloop
endfacet
facet normal -0.28414534363238403 1.2394958688269452e-15 0.9587812178448399
  outer loop
    vertex 4400.705150053078 4841.104032220853 -64.82105041678773
    vertex 4403.466204606008 4892.720755374102 -64.00278157700647
    vertex 4397.642126395225 4857.71602257954 -65.72881111716022
  endloop
endfacet
facet normal -0.28414534363238403 1.2394958688269452e-15 0.9587812178448399
  outer loop
    vertex 4403.466204606008 4892.720755374102 -64.00278157700647
    vertex 4400.705150053078 4841.104032220853 -64.82105041678773
    vertex 4413.255737551147 4832.479318347547 -61.10154597609479
  endloop
endfacet
facet normal -0.28414534363238403 1.2394958688269452e-15 0.9587812178448399
  outer loop
    vertex 4403.466204606008 4892.720755374102 -64.00278157700647
    vertex 4413.255737551147 4832.479318347547 -61.10154597609479
    vertex 4410.086217607865 4893.911250293078 -62.040868020239216
  endloop
endfacet
facet normal -0.28414534363238403 1.2394958688269452e-15 0.9587812178448399
  outer loop
    vertex 4410.086217607865 4893.911250293078 -62.040868020239216
    vertex 4413.255737551147 4832.479318347547 -61.10154597609479
    vertex 4425.08746160025 4896.398460186933 -57.59508461335247
  endloop
endfacet
facet normal -0.28414534363238403 1.2394958688269452e-15 0.9587812178448399
  outer loop
    vertex 4425.08746160025 4896.398460186933 -57.59508461335247
    vertex 4413.255737551147 4832.479318347547 -61.10154597609479
    vertex 4426.595663787149 4836.134358788561 -57.148112331577046
  endloop
endfacet
facet normal -0.28414534363238403 1.2394958688269452e-15 0.9587812178448399
  outer loop
    vertex 4425.08746160025 4896.398460186933 -57.59508461335247
    vertex 4426.595663787149 4836.134358788561 -57.148112331577046
    vertex 4437.7382555060385 4886.610419193775 -53.84588290322399
  endloop
endfacet
facet normal -0.28414534363238403 1.2394958688269452e-15 0.9587812178448399
  outer loop
    vertex 4437.7382555060385 4886.610419193775 -53.84588290322399
    vertex 4426.595663787149 4836.134358788561 -57.148112331577046
    vertex 4438.829735765028 4857.632772004868 -53.52241074139391
  endloop
endfacet
facet normal -0.9580422021399553 -0.039255306225725144 -0.28392632821200225
  outer loop
    vertex 4436.317528787877 4886.610419193775 -49.0519768139998
    vertex 4438.829735765028 4857.632772004868 -53.52241074139391
    vertex 4437.409009046866 4857.632772004868 -48.728504652169704
  endloop
endfacet
facet normal -0.9580422021399553 -0.039255306225725144 -0.28392632821200225
  outer loop
    vertex 4438.829735765028 4857.632772004868 -53.52241074139391
    vertex 4436.317528787877 4886.610419193775 -49.0519768139998
    vertex 4437.7382555060385 4886.610419193775 -53.84588290322399
  endloop
endfacet
facet normal -0.8244909922104598 0.5104009861761266 -0.24434696043587043
  outer loop
    vertex 4437.409009046866 4857.632772004868 -48.728504652169704
    vertex 4426.595663787149 4836.134358788561 -57.148112331577046
    vertex 4425.174937068987 4836.134358788561 -52.35420624235284
  endloop
endfacet
facet normal -0.8244909922104598 0.5104009861761266 -0.24434696043587043
  outer loop
    vertex 4426.595663787149 4836.134358788561 -57.148112331577046
    vertex 4437.409009046866 4857.632772004868 -48.728504652169704
    vertex 4438.829735765028 4857.632772004868 -53.52241074139391
  endloop
endfacet
facet normal -0.24360531751867598 0.9671837029193047 -0.0721951112190252
  outer loop
    vertex 4411.835010832984 4832.479318347547 -56.30763988687057
    vertex 4426.595663787149 4836.134358788561 -57.148112331577046
    vertex 4413.255737551147 4832.479318347547 -61.10154597609479
  endloop
endfacet
facet normal -0.24360531751867598 0.9671837029193047 -0.0721951112190252
  outer loop
    vertex 4426.595663787149 4836.134358788561 -57.148112331577046
    vertex 4411.835010832984 4832.479318347547 -56.30763988687057
    vertex 4425.174937068987 4836.134358788561 -52.35420624235284
  endloop
endfacet
facet normal 0.5275071666087392 0.8350427087581018 0.15633254212207953
  outer loop
    vertex 4399.284423334916 4841.104032220853 -60.027144327563555
    vertex 4413.255737551147 4832.479318347547 -61.10154597609479
    vertex 4400.705150053078 4841.104032220853 -64.82105041678773
  endloop
endfacet
facet normal 0.5275071666087392 0.8350427087581018 0.15633254212207953
  outer loop
    vertex 4413.255737551147 4832.479318347547 -61.10154597609479
    vertex 4399.284423334916 4841.104032220853 -60.027144327563555
    vertex 4411.835010832984 4832.479318347547 -56.30763988687057
  endloop
endfacet
facet normal 0.9415283701724979 0.18885263812307954 0.2790322727468505
  outer loop
    vertex 4397.642126395225 4857.71602257954 -65.72881111716022
    vertex 4399.284423334916 4841.104032220853 -60.027144327563555
    vertex 4400.705150053078 4841.104032220853 -64.82105041678773
  endloop
endfacet
facet normal 0.9415283701724979 0.18885263812307954 0.2790322727468505
  outer loop
    vertex 4399.284423334916 4841.104032220853 -60.027144327563555
    vertex 4397.642126395225 4857.71602257954 -65.72881111716022
    vertex 4396.221399677063 4857.71602257954 -60.93490502793603
  endloop
endfacet
facet normal 0.9446631397066719 -0.17097726501251856 0.27996129612568227
  outer loop
    vertex 4403.466204606008 4892.720755374102 -64.00278157700647
    vertex 4396.221399677063 4857.71602257954 -60.93490502793603
    vertex 4397.642126395225 4857.71602257954 -65.72881111716022
  endloop
endfacet
facet normal 0.9446631397066719 -0.17097726501251856 0.27996129612568227
  outer loop
    vertex 4396.221399677063 4857.71602257954 -60.93490502793603
    vertex 4403.466204606008 4892.720755374102 -64.00278157700647
    vertex 4402.045477887847 4892.720755374102 -59.20887548778224
  endloop
endfacet
facet normal 0.1629094671251664 -0.9854590535290627 0.048280009720362005
  outer loop
    vertex 4410.086217607865 4893.911250293078 -62.040868020239216
    vertex 4402.045477887847 4892.720755374102 -59.20887548778224
    vertex 4403.466204606008 4892.720755374102 -64.00278157700647
  endloop
endfacet
facet normal 0.1629094671251664 -0.9854590535290627 0.048280009720362005
  outer loop
    vertex 4402.045477887847 4892.720755374102 -59.20887548778224
    vertex 4410.086217607865 4893.911250293078 -62.040868020239216
    vertex 4408.6654908897035 4893.911250293078 -57.24696193101503
  endloop
endfacet
facet normal 0.15052374733853985 -0.9875994157474259 0.044609365636673205
  outer loop
    vertex 4425.08746160025 4896.398460186933 -57.59508461335247
    vertex 4408.6654908897035 4893.911250293078 -57.24696193101503
    vertex 4410.086217607865 4893.911250293078 -62.040868020239216
  endloop
endfacet
facet normal 0.15052374733853985 -0.9875994157474259 0.044609365636673205
  outer loop
    vertex 4408.6654908897035 4893.911250293078 -57.24696193101503
    vertex 4425.08746160025 4896.398460186933 -57.59508461335247
    vertex 4423.666734882087 4896.398460186933 -52.80117852412825
  endloop
endfacet
facet normal -0.5712286165384872 -0.8031430795424453 -0.16928987397538947
  outer loop
    vertex 4437.7382555060385 4886.610419193775 -53.84588290322399
    vertex 4423.666734882087 4896.398460186933 -52.80117852412825
    vertex 4425.08746160025 4896.398460186933 -57.59508461335247
  endloop
endfacet
facet normal -0.5712286165384872 -0.8031430795424453 -0.16928987397538947
  outer loop
    vertex 4423.666734882087 4896.398460186933 -52.80117852412825
    vertex 4437.7382555060385 4886.610419193775 -53.84588290322399
    vertex 4436.317528787877 4886.610419193775 -49.0519768139998
  endloop
endfacet
endsolid IpadAirSlotmachineBottom
