solid SlotmachinePrototypeTopFrontRight
facet normal 0.030036826201300704 0.9946806208880429 0.09853045976514284
  outer loop
    vertex 4727.371754208376 2606.821943462724 165.59295945333437
    vertex 4733.262432759937 2606.7681629651465 164.3401197788567
    vertex 4733.110997083255 2606.821943462726 163.84336200730655
  endloop
endfacet
facet normal 0.030036826201300704 0.9946806208880429 0.09853045976514284
  outer loop
    vertex 4733.262432759937 2606.7681629651465 164.3401197788567
    vertex 4727.371754208376 2606.821943462724 165.59295945333437
    vertex 4727.523189885058 2606.7681629651447 166.08971722488448
  endloop
endfacet
facet normal 0.2723911818561244 -0.3569395056266721 0.8935307680041078
  outer loop
    vertex 4732.678981738691 2609.2313106601873 162.42621259744934
    vertex 4726.99408130744 2609.719023083535 164.35407075316627
    vertex 4726.939738863812 2609.2313106601855 164.17581004347716
  endloop
endfacet
facet normal 0.2723911818561244 -0.3569395056266721 0.8935307680041078
  outer loop
    vertex 4726.99408130744 2609.719023083535 164.35407075316627
    vertex 4732.678981738691 2609.2313106601873 162.42621259744934
    vertex 4732.733324182319 2609.7190230835363 162.60447330713845
  endloop
endfacet
facet normal 0.283772504359099 0.23013735326511475 0.9308651698296015
  outer loop
    vertex 4729.294657464382 2608.057012944565 171.90070117766933
    vertex 4734.998862956316 2608.565103459237 170.03616983591917
    vertex 4729.259620081437 2608.5651034592356 171.78576728194687
  endloop
endfacet
facet normal 0.283772504359099 0.23013735326511475 0.9308651698296015
  outer loop
    vertex 4734.998862956316 2608.565103459237 170.03616983591917
    vertex 4729.294657464382 2608.057012944565 171.90070117766933
    vertex 4735.033900339261 2608.0570129445664 170.15110373164163
  endloop
endfacet
facet normal -0.24810995166940492 0.5253950489191797 -0.813880516079491
  outer loop
    vertex 4730.37179755209 2607.9477133697123 175.43406743152454
    vertex 4736.031051380146 2607.5034761335405 173.42208016086
    vertex 4730.291808505267 2607.503476133539 175.1716776068877
  endloop
endfacet
facet normal -0.24810995166940492 0.5253950489191797 -0.813880516079491
  outer loop
    vertex 4736.031051380146 2607.5034761335405 173.42208016086
    vertex 4730.37179755209 2607.9477133697123 175.43406743152454
    vertex 4736.111040426969 2607.9477133697137 173.68446998549683
  endloop
endfacet
facet normal 0.22633446628629852 0.6305083939815345 0.7424499137919828
  outer loop
    vertex 4727.106231515383 2607.314542305785 164.72195953999022
    vertex 4732.749482306682 2607.7197908541716 162.6574771568674
    vertex 4727.010239431803 2607.7197908541702 164.40707460289522
  endloop
endfacet
facet normal 0.22633446628629852 0.6305083939815345 0.7424499137919828
  outer loop
    vertex 4732.749482306682 2607.7197908541716 162.6574771568674
    vertex 4727.106231515383 2607.314542305785 164.72195953999022
    vertex 4732.845474390262 2607.3145423057863 162.9723620939624
  endloop
endfacet
facet normal -0.21220022054475401 -0.6858838728118664 -0.6960850374899272
  outer loop
    vertex 4735.947629490457 2610.3173979710623 173.14842950648267
    vertex 4730.312809368192 2609.937456582753 175.24056719813822
    vertex 4730.208386615578 2610.317397971061 174.89802695251038
  endloop
endfacet
facet normal -0.21220022054475401 -0.6858838728118664 -0.6960850374899272
  outer loop
    vertex 4730.312809368192 2609.937456582753 175.24056719813822
    vertex 4735.947629490457 2610.3173979710623 173.14842950648267
    vertex 4736.052052243071 2609.9374565827543 173.49096975211052
  endloop
endfacet
facet normal -0.1190115682874158 0.91292223580534 -0.39039625764849367
  outer loop
    vertex 4727.673524412267 2606.8506268401093 166.58286287166862
    vertex 4733.551755615293 2607.063715310818 165.28919188679225
    vertex 4733.412767287146 2606.8506268401106 164.8332654256408
  endloop
endfacet
facet normal -0.1190115682874158 0.91292223580534 -0.39039625764849367
  outer loop
    vertex 4733.551755615293 2607.063715310818 165.28919188679225
    vertex 4727.673524412267 2606.8506268401093 166.58286287166862
    vertex 4727.812512740414 2607.063715310817 167.03878933282007
  endloop
endfacet
facet normal 0.008624422443830777 0.9995625269725231 0.02829088209679095
  outer loop
    vertex 4729.7466376142465 2606.7930938835952 173.38334157622987
    vertex 4735.638059414179 2606.7776519814706 172.13293999568575
    vertex 4735.485880489126 2606.7930938835966 171.63374413020216
  endloop
endfacet
facet normal 0.008624422443830777 0.9995625269725231 0.02829088209679095
  outer loop
    vertex 4735.638059414179 2606.7776519814706 172.13293999568575
    vertex 4729.7466376142465 2606.7930938835952 173.38334157622987
    vertex 4729.8988165393 2606.7776519814693 173.88253744171345
  endloop
endfacet
facet normal -0.2723911818561244 0.3569395056266721 -0.8935307680041078
  outer loop
    vertex 4728.074324657579 2608.303479728834 167.8976167068339
    vertex 4733.75922508883 2607.815767305486 165.96975855111697
    vertex 4728.019982213951 2607.8157673054848 167.7193559971448
  endloop
endfacet
facet normal -0.2723911818561244 0.3569395056266721 -0.8935307680041078
  outer loop
    vertex 4733.75922508883 2607.815767305486 165.96975855111697
    vertex 4728.074324657579 2608.303479728834 167.8976167068339
    vertex 4733.813567532458 2608.3034797288356 166.14801926080608
  endloop
endfacet
facet normal 0.279308174796355 -0.28727428423717716 0.9162207316514654
  outer loop
    vertex 4735.003365808403 2609.0869798213635 170.05094064037726
    vertex 4729.307859158713 2609.5870770193073 171.94400698512973
    vertex 4729.264122933524 2609.0869798213616 171.80053808640497
  endloop
endfacet
facet normal 0.279308174796355 -0.28727428423717716 0.9162207316514654
  outer loop
    vertex 4729.307859158713 2609.5870770193073 171.94400698512973
    vertex 4735.003365808403 2609.0869798213635 170.05094064037726
    vertex 4735.047102033592 2609.5870770193087 170.19440953910203
  endloop
endfacet
facet normal 0.2662077353645035 0.40813354600141566 0.873247072861062
  outer loop
    vertex 4727.010239431803 2607.7197908541702 164.40707460289522
    vertex 4732.687345799327 2608.196431907102 162.45364940899654
    vertex 4726.948102924448 2608.1964319071008 164.20324685502436
  endloop
endfacet
facet normal 0.2662077353645035 0.40813354600141566 0.873247072861062
  outer loop
    vertex 4732.687345799327 2608.196431907102 162.45364940899654
    vertex 4727.010239431803 2607.7197908541702 164.40707460289522
    vertex 4732.749482306682 2607.7197908541716 162.6574771568674
  endloop
endfacet
facet normal -0.28377250435910173 -0.2301373532650756 -0.9308651698296104
  outer loop
    vertex 4736.1242421213 2609.477777444456 173.72777579295726
    vertex 4730.420036629366 2608.969686929784 175.5923071347074
    vertex 4730.384999246421 2609.4777774444547 175.47737323898497
  endloop
endfacet
facet normal -0.28377250435910173 -0.2301373532650756 -0.9308651698296104
  outer loop
    vertex 4730.420036629366 2608.969686929784 175.5923071347074
    vertex 4736.1242421213 2609.477777444456 173.72777579295726
    vertex 4736.159279504245 2608.9696869297854 173.8427096886797
  endloop
endfacet
facet normal -0.18385597930156442 0.7761824303083383 -0.6031068012845688
  outer loop
    vertex 4727.812512740414 2607.063715310817 167.03878933282007
    vertex 4733.669925919503 2607.392906750135 165.6768285274377
    vertex 4733.551755615293 2607.063715310818 165.28919188679225
  endloop
endfacet
facet normal -0.18385597930156442 0.7761824303083383 -0.6031068012845688
  outer loop
    vertex 4733.669925919503 2607.392906750135 165.6768285274377
    vertex 4727.812512740414 2607.063715310817 167.03878933282007
    vertex 4727.930683044624 2607.3929067501335 167.4264259734655
  endloop
endfacet
facet normal -0.06710795425187492 0.9731581570493826 -0.2201356941624367
  outer loop
    vertex 4729.8988165393 2606.7776519814693 173.88253744171345
    vertex 4735.786218391982 2606.8978077911083 172.61894914003832
    vertex 4735.638059414179 2606.7776519814706 172.13293999568575
  endloop
endfacet
facet normal -0.06710795425187492 0.9731581570493826 -0.2201356941624367
  outer loop
    vertex 4735.786218391982 2606.8978077911083 172.61894914003832
    vertex 4729.8988165393 2606.7776519814693 173.88253744171345
    vertex 4730.046975517103 2606.897807791107 174.36854658606603
  endloop
endfacet
facet normal 0.23617090916315817 -0.5865470748869709 0.7747166130957729
  outer loop
    vertex 4732.733324182319 2609.7190230835363 162.60447330713845
    vertex 4727.083380476767 2610.141883638886 164.64700077684554
    vertex 4726.99408130744 2609.719023083535 164.35407075316627
  endloop
endfacet
facet normal 0.23617090916315817 -0.5865470748869709 0.7747166130957729
  outer loop
    vertex 4727.083380476767 2610.141883638886 164.64700077684554
    vertex 4732.733324182319 2609.7190230835363 162.60447330713845
    vertex 4732.822623351646 2610.1418836388875 162.89740333081772
  endloop
endfacet
facet normal 0.17103687736600282 0.8099151368765602 0.5610560200542455
  outer loop
    vertex 4727.106231515383 2607.314542305785 164.72195953999022
    vertex 4732.968780348207 2607.0083032808157 163.3768453321905
    vertex 4732.845474390262 2607.3145423057863 162.9723620939624
  endloop
endfacet
facet normal 0.17103687736600282 0.8099151368765602 0.5610560200542455
  outer loop
    vertex 4732.968780348207 2607.0083032808157 163.3768453321905
    vertex 4727.106231515383 2607.314542305785 164.72195953999022
    vertex 4727.229537473328 2607.008303280814 165.12644277821832
  endloop
endfacet
facet normal 0.24810995166940492 -0.5253950489191797 0.813880516079491
  outer loop
    vertex 4735.047102033592 2609.5870770193087 170.19440953910203
    vertex 4729.387848205537 2610.0313142554805 172.20639680976657
    vertex 4729.307859158713 2609.5870770193073 171.94400698512973
  endloop
endfacet
facet normal 0.24810995166940492 -0.5253950489191797 0.813880516079491
  outer loop
    vertex 4729.387848205537 2610.0313142554805 172.20639680976657
    vertex 4735.047102033592 2609.5870770193087 170.19440953910203
    vertex 4735.127091080416 2610.031314255482 170.45679936373887
  endloop
endfacet
facet normal -0.030036826201300704 -0.9946806208880429 -0.09853045976514284
  outer loop
    vertex 4733.381552187894 2610.712846926297 164.73086985094886
    vertex 4727.490873636333 2610.766627423875 165.98370952542655
    vertex 4733.230116511212 2610.7666274238763 164.23411207939876
  endloop
endfacet
facet normal -0.030036826201300704 -0.9946806208880429 -0.09853045976514284
  outer loop
    vertex 4727.490873636333 2610.766627423875 165.98370952542655
    vertex 4733.381552187894 2610.712846926297 164.73086985094886
    vertex 4727.642309313015 2610.7128469262957 166.48046729697668
  endloop
endfacet
facet normal 0.2900484456531949 -0.10300709892930916 0.9514522777020051
  outer loop
    vertex 4732.663299368489 2608.711983164509 162.37476937452593
    vertex 4726.939738863812 2609.2313106601855 164.17581004347716
    vertex 4726.92405649361 2608.7119831645077 164.12436682055375
  endloop
endfacet
facet normal 0.2900484456531949 -0.10300709892930916 0.9514522777020051
  outer loop
    vertex 4726.939738863812 2609.2313106601855 164.17581004347716
    vertex 4732.663299368489 2608.711983164509 162.37476937452593
    vertex 4732.678981738691 2609.2313106601873 162.42621259744934
  endloop
endfacet
facet normal 0.2879393872067771 0.1579450713332022 0.9445338870239306
  outer loop
    vertex 4726.948102924448 2608.1964319071008 164.20324685502436
    vertex 4732.663299368489 2608.711983164509 162.37476937452593
    vertex 4726.92405649361 2608.7119831645077 164.12436682055375
  endloop
endfacet
facet normal 0.2879393872067771 0.1579450713332022 0.9445338870239306
  outer loop
    vertex 4732.663299368489 2608.711983164509 162.37476937452593
    vertex 4726.948102924448 2608.1964319071008 164.20324685502436
    vertex 4732.687345799327 2608.196431907102 162.45364940899654
  endloop
endfacet
facet normal 0.18385597930156442 -0.7761824303083383 0.6031068012845688
  outer loop
    vertex 4732.940793655856 2610.471075078204 163.28503997146316
    vertex 4727.083380476767 2610.141883638886 164.64700077684554
    vertex 4732.822623351646 2610.1418836388875 162.89740333081772
  endloop
endfacet
facet normal 0.18385597930156442 -0.7761824303083383 0.6031068012845688
  outer loop
    vertex 4727.083380476767 2610.141883638886 164.64700077684554
    vertex 4732.940793655856 2610.471075078204 163.28503997146316
    vertex 4727.201550780977 2610.471075078203 165.03463741749098
  endloop
endfacet
facet normal -0.2900484456531949 0.10300709892930916 -0.9514522777020051
  outer loop
    vertex 4728.090007027781 2608.822807224512 167.9490599297573
    vertex 4733.813567532458 2608.3034797288356 166.14801926080608
    vertex 4728.074324657579 2608.303479728834 167.8976167068339
  endloop
endfacet
facet normal -0.2900484456531949 0.10300709892930916 -0.9514522777020051
  outer loop
    vertex 4733.813567532458 2608.3034797288356 166.14801926080608
    vertex 4728.090007027781 2608.822807224512 167.9490599297573
    vertex 4733.82924990266 2608.8228072245133 166.1994624837295
  endloop
endfacet
facet normal -0.04605671556985978 0.9874478996085911 -0.15108085421223624
  outer loop
    vertex 4727.523189885058 2606.7681629651447 166.08971722488448
    vertex 4733.412767287146 2606.8506268401106 164.8332654256408
    vertex 4733.262432759937 2606.7681629651465 164.3401197788567
  endloop
endfacet
facet normal -0.04605671556985978 0.9874478996085911 -0.15108085421223624
  outer loop
    vertex 4733.412767287146 2606.8506268401106 164.8332654256408
    vertex 4727.523189885058 2606.7681629651447 166.08971722488448
    vertex 4727.673524412267 2606.8506268401093 166.58286287166862
  endloop
endfacet
facet normal 0.9565404791465035 8.522445901868971e-16 -0.2915995743381285
  outer loop
    vertex 4676.891050523918 2613.7673951945103 -9.023892744153272e-14
    vertex 4724.591036017314 2625.767395194509 156.47130858369113
    vertex 4724.591036017314 2613.767395194509 156.471308583691
  endloop
endfacet
facet normal 0.9565404791465035 8.522445901868971e-16 -0.2915995743381285
  outer loop
    vertex 4724.591036017314 2625.767395194509 156.47130858369113
    vertex 4676.891050523918 2613.7673951945103 -9.023892744153272e-14
    vertex 4676.891050523918 2625.7673951945103 -8.274925421356494e-14
  endloop
endfacet
facet normal 9.368732656382811e-14 1.0 -2.3072644230118946e-14
  outer loop
    vertex 4724.591036017314 2613.767395194509 156.471308583691
    vertex 4684.7318060000425 2613.767395194509 -9.023892744153272e-14
    vertex 4676.891050523918 2613.7673951945103 -9.023892744153272e-14
  endloop
endfacet
facet normal 9.368732656382811e-14 1.0 -2.3072644230118946e-14
  outer loop
    vertex 4684.7318060000425 2613.767395194509 -9.023892744153272e-14
    vertex 4724.591036017314 2613.767395194509 156.471308583691
    vertex 4739.346678543704 2613.767395194509 179.15436423396386
  endloop
endfacet
facet normal 9.368732656382811e-14 1.0 -2.3072644230118946e-14
  outer loop
    vertex 4739.346678543704 2613.767395194509 179.15436423396386
    vertex 4724.591036017314 2613.767395194509 156.471308583691
    vertex 4732.172624950105 2613.767395194509 181.34136104149925
  endloop
endfacet
facet normal -3.093036703571484e-17 -2.4237363947300655e-18 -1.0
  outer loop
    vertex 4744.346678543705 2760.12133891214 -9.023892744153272e-14
    vertex 4684.7318060000425 2613.767395194509 -9.023892744153272e-14
    vertex 4684.7318060000425 2760.12133891214 -9.023892744153272e-14
  endloop
endfacet
facet normal -3.093036703571484e-17 -2.4237363947300655e-18 -1.0
  outer loop
    vertex 4684.7318060000425 2613.767395194509 -9.023892744153272e-14
    vertex 4744.346678543705 2760.12133891214 -9.023892744153272e-14
    vertex 4713.880905432369 2664.2673951945103 -9.023892744153272e-14
  endloop
endfacet
facet normal -3.093036703571484e-17 -2.4237363947300655e-18 -1.0
  outer loop
    vertex 4713.880905432369 2664.2673951945103 -9.023892744153272e-14
    vertex 4744.346678543705 2760.12133891214 -9.023892744153272e-14
    vertex 4724.880905432369 2664.2673951945103 -9.023892744153272e-14
  endloop
endfacet
facet normal -3.093036703571484e-17 -2.4237363947300655e-18 -1.0
  outer loop
    vertex 4724.880905432369 2664.2673951945103 -9.023892744153272e-14
    vertex 4744.346678543705 2760.12133891214 -9.023892744153272e-14
    vertex 4724.880905432369 2653.2673951945108 -9.023892744153272e-14
  endloop
endfacet
facet normal -3.093036703571484e-17 -2.4237363947300655e-18 -1.0
  outer loop
    vertex 4676.891050523918 2625.7673951945103 -8.274925421356494e-14
    vertex 4673.754748333471 2603.7673951945094 -9.023892744153272e-14
    vertex 4673.754748333468 2625.767395194511 -8.459899447643693e-14
  endloop
endfacet
facet normal -3.093036703571484e-17 -2.4237363947300655e-18 -1.0
  outer loop
    vertex 4673.754748333471 2603.7673951945094 -9.023892744153272e-14
    vertex 4676.891050523918 2625.7673951945103 -8.274925421356494e-14
    vertex 4676.891050523918 2613.7673951945103 -9.023892744153272e-14
  endloop
endfacet
facet normal -3.093036703571484e-17 -2.4237363947300655e-18 -1.0
  outer loop
    vertex 4673.754748333471 2603.7673951945094 -9.023892744153272e-14
    vertex 4676.891050523918 2613.7673951945103 -9.023892744153272e-14
    vertex 4744.346678543705 2603.767395194511 -9.023892744153272e-14
  endloop
endfacet
facet normal -3.093036703571484e-17 -2.4237363947300655e-18 -1.0
  outer loop
    vertex 4744.346678543705 2603.767395194511 -9.023892744153272e-14
    vertex 4676.891050523918 2613.7673951945103 -9.023892744153272e-14
    vertex 4684.7318060000425 2613.767395194509 -9.023892744153272e-14
  endloop
endfacet
facet normal -3.093036703571484e-17 -2.4237363947300655e-18 -1.0
  outer loop
    vertex 4744.346678543705 2603.767395194511 -9.023892744153272e-14
    vertex 4684.7318060000425 2613.767395194509 -9.023892744153272e-14
    vertex 4713.880905432369 2653.2673951945108 -9.023892744153272e-14
  endloop
endfacet
facet normal -3.093036703571484e-17 -2.4237363947300655e-18 -1.0
  outer loop
    vertex 4713.880905432369 2653.2673951945108 -9.023892744153272e-14
    vertex 4684.7318060000425 2613.767395194509 -9.023892744153272e-14
    vertex 4713.880905432369 2664.2673951945103 -9.023892744153272e-14
  endloop
endfacet
facet normal -3.093036703571484e-17 -2.4237363947300655e-18 -1.0
  outer loop
    vertex 4744.346678543705 2603.767395194511 -9.023892744153272e-14
    vertex 4713.880905432369 2653.2673951945108 -9.023892744153272e-14
    vertex 4724.880905432369 2653.2673951945108 -9.023892744153272e-14
  endloop
endfacet
facet normal -3.093036703571484e-17 -2.4237363947300655e-18 -1.0
  outer loop
    vertex 4744.346678543705 2603.767395194511 -9.023892744153272e-14
    vertex 4724.880905432369 2653.2673951945108 -9.023892744153272e-14
    vertex 4744.346678543705 2760.12133891214 -9.023892744153272e-14
  endloop
endfacet
facet normal 1.7258848927778174e-14 -1.0 -3.835353938865289e-15
  outer loop
    vertex 4744.346678543705 2603.7673951945094 179.1543642339645
    vertex 4673.754748333471 2603.7673951945094 -9.023892744153272e-14
    vertex 4744.346678543705 2603.767395194511 -9.023892744153272e-14
  endloop
endfacet
facet normal 1.7258848927778174e-14 -1.0 -3.835353938865289e-15
  outer loop
    vertex 4673.754748333471 2603.7673951945094 -9.023892744153272e-14
    vertex 4744.346678543705 2603.7673951945094 179.1543642339645
    vertex 4724.591036017314 2603.7673951945103 156.47130858369104
  endloop
endfacet
facet normal 1.7258848927778174e-14 -1.0 -3.835353938865289e-15
  outer loop
    vertex 4724.591036017314 2603.7673951945103 156.47130858369104
    vertex 4744.346678543705 2603.7673951945094 179.1543642339645
    vertex 4739.346678543704 2603.767395194511 179.1543642339645
  endloop
endfacet
facet normal 1.7258848927778174e-14 -1.0 -3.835353938865289e-15
  outer loop
    vertex 4724.591036017314 2603.7673951945103 156.47130858369104
    vertex 4739.346678543704 2603.767395194511 179.1543642339645
    vertex 4732.172624950107 2603.7673951945103 181.3413610414993
  endloop
endfacet
facet normal 1.7258848927778174e-14 -1.0 -3.835353938865289e-15
  outer loop
    vertex 4721.721414579875 2603.7673951945094 157.34610730670522
    vertex 4673.754748333471 2603.7673951945094 -9.023892744153272e-14
    vertex 4724.591036017314 2603.7673951945103 156.47130858369104
  endloop
endfacet
facet normal -0.2567343741129856 -0.4741674780539065 -0.8421713981754614
  outer loop
    vertex 4736.052052243071 2609.9374565827543 173.49096975211052
    vertex 4730.384999246421 2609.4777774444547 175.47737323898497
    vertex 4730.312809368192 2609.937456582753 175.24056719813822
  endloop
endfacet
facet normal -0.2567343741129856 -0.4741674780539065 -0.8421713981754614
  outer loop
    vertex 4730.384999246421 2609.4777774444547 175.47737323898497
    vertex 4736.052052243071 2609.9374565827543 173.49096975211052
    vertex 4736.1242421213 2609.477777444456 173.72777579295726
  endloop
endfacet
facet normal 0.10408340790514452 0.9341275016412538 0.3414270857391381
  outer loop
    vertex 4727.229537473328 2607.008303280814 165.12644277821832
    vertex 4733.110997083255 2606.821943462726 163.84336200730655
    vertex 4732.968780348207 2607.0083032808157 163.3768453321905
  endloop
endfacet
facet normal 0.10408340790514452 0.9341275016412538 0.3414270857391381
  outer loop
    vertex 4733.110997083255 2606.821943462726 163.84336200730655
    vertex 4727.229537473328 2607.008303280814 165.12644277821832
    vertex 4727.371754208376 2606.821943462724 165.59295945333437
  endloop
endfacet
facet normal 0.06710795425187492 -0.9731581570493826 0.2201356941624367
  outer loop
    vertex 4735.520083046382 2610.757138407552 171.7459395289131
    vertex 4729.632681193701 2610.6369825979127 173.00952783058824
    vertex 4735.37192406858 2610.6369825979145 171.25993038456053
  endloop
endfacet
facet normal 0.06710795425187492 -0.9731581570493826 0.2201356941624367
  outer loop
    vertex 4729.632681193701 2610.6369825979127 173.00952783058824
    vertex 4735.520083046382 2610.757138407552 171.7459395289131
    vertex 4729.780840171503 2610.7571384075504 173.49553697494082
  endloop
endfacet
facet normal -0.10408340790514452 -0.9341275016412538 -0.3414270857391381
  outer loop
    vertex 4733.5237689229425 2610.526487108207 165.19738652606492
    vertex 4727.642309313015 2610.7128469262957 166.48046729697668
    vertex 4733.381552187894 2610.712846926297 164.73086985094886
  endloop
endfacet
facet normal -0.10408340790514452 -0.9341275016412538 -0.3414270857391381
  outer loop
    vertex 4727.642309313015 2610.7128469262957 166.48046729697668
    vertex 4733.5237689229425 2610.526487108207 165.19738652606492
    vertex 4727.7845260480635 2610.526487108206 166.94698397209274
  endloop
endfacet
facet normal 0.25673437411299066 0.47416747805387455 0.842171398175478
  outer loop
    vertex 4729.366847342612 2607.5973338062668 172.13750721851605
    vertex 4735.033900339261 2608.0570129445664 170.15110373164163
    vertex 4729.294657464382 2608.057012944565 171.90070117766933
  endloop
endfacet
facet normal 0.25673437411299066 0.47416747805387455 0.842171398175478
  outer loop
    vertex 4735.033900339261 2608.0570129445664 170.15110373164163
    vertex 4729.366847342612 2607.5973338062668 172.13750721851605
    vertex 4735.106090217491 2607.597333806268 170.38790977248834
  endloop
endfacet
facet normal 0.08376905900177296 0.9578483625373887 0.2747894814915605
  outer loop
    vertex 4729.600809484199 2606.9430811573725 172.9049783628878
    vertex 4735.485880489126 2606.7930938835966 171.63374413020216
    vertex 4735.340052359078 2606.943081157374 171.15538091686008
  endloop
endfacet
facet normal 0.08376905900177296 0.9578483625373887 0.2747894814915605
  outer loop
    vertex 4735.485880489126 2606.7930938835966 171.63374413020216
    vertex 4729.600809484199 2606.9430811573725 172.9049783628878
    vertex 4729.7466376142465 2606.7930938835952 173.38334157622987
  endloop
endfacet
facet normal -0.08376905900177296 -0.9578483625373887 -0.2747894814915605
  outer loop
    vertex 4735.818090101483 2610.5917092316486 172.72349860773878
    vertex 4729.933019096557 2610.7416965054244 173.9947328404244
    vertex 4735.672261971436 2610.741696505426 172.2451353943967
  endloop
endfacet
facet normal -0.08376905900177296 -0.9578483625373887 -0.2747894814915605
  outer loop
    vertex 4729.933019096557 2610.7416965054244 173.9947328404244
    vertex 4735.818090101483 2610.5917092316486 172.72349860773878
    vertex 4730.078847226604 2610.591709231647 174.47309605376648
  endloop
endfacet
facet normal -0.15320497262363308 -0.8508584151150289 -0.502561631833682
  outer loop
    vertex 4735.947629490457 2610.3173979710623 173.14842950648267
    vertex 4730.078847226604 2610.591709231647 174.47309605376648
    vertex 4735.818090101483 2610.5917092316486 172.72349860773878
  endloop
endfacet
facet normal -0.15320497262363308 -0.8508584151150289 -0.502561631833682
  outer loop
    vertex 4730.078847226604 2610.591709231647 174.47309605376648
    vertex 4735.947629490457 2610.3173979710623 173.14842950648267
    vertex 4730.208386615578 2610.317397971061 174.89802695251038
  endloop
endfacet
facet normal -0.2879393872067771 -0.1579450713332022 -0.9445338870239306
  outer loop
    vertex 4733.805203471822 2609.3383584819203 166.12058244925888
    vertex 4728.090007027781 2608.822807224512 167.9490599297573
    vertex 4728.065960596943 2609.338358481919 167.8701798952867
  endloop
endfacet
facet normal -0.2879393872067771 -0.1579450713332022 -0.9445338870239306
  outer loop
    vertex 4728.090007027781 2608.822807224512 167.9490599297573
    vertex 4733.805203471822 2609.3383584819203 166.12058244925888
    vertex 4733.82924990266 2608.8228072245133 166.1994624837295
  endloop
endfacet
facet normal -0.9565404791465513 -2.0751263314733833e-13 0.2915995743379714
  outer loop
    vertex 4733.412767287146 2606.8506268401106 164.8332654256408
    vertex 4733.110997083255 2606.821943462726 163.84336200730655
    vertex 4733.262432759937 2606.7681629651465 164.3401197788567
  endloop
endfacet
facet normal -0.9565404791465513 -2.0751263314733833e-13 0.2915995743379714
  outer loop
    vertex 4733.110997083255 2606.821943462726 163.84336200730655
    vertex 4733.412767287146 2606.8506268401106 164.8332654256408
    vertex 4732.968780348207 2607.0083032808157 163.3768453321905
  endloop
endfacet
facet normal -0.9565404791465513 -2.0751263314733833e-13 0.2915995743379714
  outer loop
    vertex 4732.968780348207 2607.0083032808157 163.3768453321905
    vertex 4733.412767287146 2606.8506268401106 164.8332654256408
    vertex 4733.551755615293 2607.063715310818 165.28919188679225
  endloop
endfacet
facet normal -0.9565404791465513 -2.0751263314733833e-13 0.2915995743379714
  outer loop
    vertex 4732.968780348207 2607.0083032808157 163.3768453321905
    vertex 4733.551755615293 2607.063715310818 165.28919188679225
    vertex 4732.845474390262 2607.3145423057863 162.9723620939624
  endloop
endfacet
facet normal -0.9565404791465513 -2.0751263314733833e-13 0.2915995743379714
  outer loop
    vertex 4732.845474390262 2607.3145423057863 162.9723620939624
    vertex 4733.551755615293 2607.063715310818 165.28919188679225
    vertex 4733.669925919503 2607.392906750135 165.6768285274377
  endloop
endfacet
facet normal -0.9565404791465513 -2.0751263314733833e-13 0.2915995743379714
  outer loop
    vertex 4732.845474390262 2607.3145423057863 162.9723620939624
    vertex 4733.669925919503 2607.392906750135 165.6768285274377
    vertex 4732.749482306682 2607.7197908541716 162.6574771568674
  endloop
endfacet
facet normal -0.9565404791465513 -2.0751263314733833e-13 0.2915995743379714
  outer loop
    vertex 4732.749482306682 2607.7197908541716 162.6574771568674
    vertex 4733.669925919503 2607.392906750135 165.6768285274377
    vertex 4733.75922508883 2607.815767305486 165.96975855111697
  endloop
endfacet
facet normal -0.9565404791465513 -2.0751263314733833e-13 0.2915995743379714
  outer loop
    vertex 4732.749482306682 2607.7197908541716 162.6574771568674
    vertex 4733.75922508883 2607.815767305486 165.96975855111697
    vertex 4732.687345799327 2608.196431907102 162.45364940899654
  endloop
endfacet
facet normal -0.9565404791465513 -2.0751263314733833e-13 0.2915995743379714
  outer loop
    vertex 4732.687345799327 2608.196431907102 162.45364940899654
    vertex 4733.75922508883 2607.815767305486 165.96975855111697
    vertex 4733.813567532458 2608.3034797288356 166.14801926080608
  endloop
endfacet
facet normal -0.9565404791465513 -2.0751263314733833e-13 0.2915995743379714
  outer loop
    vertex 4732.687345799327 2608.196431907102 162.45364940899654
    vertex 4733.813567532458 2608.3034797288356 166.14801926080608
    vertex 4732.663299368489 2608.711983164509 162.37476937452593
  endloop
endfacet
facet normal -0.9565404791465513 -2.0751263314733833e-13 0.2915995743379714
  outer loop
    vertex 4732.663299368489 2608.711983164509 162.37476937452593
    vertex 4733.813567532458 2608.3034797288356 166.14801926080608
    vertex 4733.82924990266 2608.8228072245133 166.1994624837295
  endloop
endfacet
facet normal -0.9565404791465513 -2.0751263314733833e-13 0.2915995743379714
  outer loop
    vertex 4732.663299368489 2608.711983164509 162.37476937452593
    vertex 4733.82924990266 2608.8228072245133 166.1994624837295
    vertex 4732.678981738691 2609.2313106601873 162.42621259744934
  endloop
endfacet
facet normal -0.9565404791465513 -2.0751263314733833e-13 0.2915995743379714
  outer loop
    vertex 4732.678981738691 2609.2313106601873 162.42621259744934
    vertex 4733.82924990266 2608.8228072245133 166.1994624837295
    vertex 4733.805203471822 2609.3383584819203 166.12058244925888
  endloop
endfacet
facet normal -0.9565404791465513 -2.0751263314733833e-13 0.2915995743379714
  outer loop
    vertex 4732.678981738691 2609.2313106601873 162.42621259744934
    vertex 4733.805203471822 2609.3383584819203 166.12058244925888
    vertex 4732.733324182319 2609.7190230835363 162.60447330713845
  endloop
endfacet
facet normal -0.9565404791465513 -2.0751263314733833e-13 0.2915995743379714
  outer loop
    vertex 4732.733324182319 2609.7190230835363 162.60447330713845
    vertex 4733.805203471822 2609.3383584819203 166.12058244925888
    vertex 4733.743066964467 2609.8149995348513 165.91675470138802
  endloop
endfacet
facet normal -0.9565404791465513 -2.0751263314733833e-13 0.2915995743379714
  outer loop
    vertex 4732.733324182319 2609.7190230835363 162.60447330713845
    vertex 4733.743066964467 2609.8149995348513 165.91675470138802
    vertex 4732.822623351646 2610.1418836388875 162.89740333081772
  endloop
endfacet
facet normal -0.9565404791465513 -2.0751263314733833e-13 0.2915995743379714
  outer loop
    vertex 4732.822623351646 2610.1418836388875 162.89740333081772
    vertex 4733.743066964467 2609.8149995348513 165.91675470138802
    vertex 4733.647074880887 2610.220248083236 165.601869764293
  endloop
endfacet
facet normal -0.9565404791465513 -2.0751263314733833e-13 0.2915995743379714
  outer loop
    vertex 4732.822623351646 2610.1418836388875 162.89740333081772
    vertex 4733.647074880887 2610.220248083236 165.601869764293
    vertex 4732.940793655856 2610.471075078204 163.28503997146316
  endloop
endfacet
facet normal -0.9565404791465513 -2.0751263314733833e-13 0.2915995743379714
  outer loop
    vertex 4732.940793655856 2610.471075078204 163.28503997146316
    vertex 4733.647074880887 2610.220248083236 165.601869764293
    vertex 4733.5237689229425 2610.526487108207 165.19738652606492
  endloop
endfacet
facet normal -0.9565404791465513 -2.0751263314733833e-13 0.2915995743379714
  outer loop
    vertex 4732.940793655856 2610.471075078204 163.28503997146316
    vertex 4733.5237689229425 2610.526487108207 165.19738652606492
    vertex 4733.079781984004 2610.684163548912 163.7409664326146
  endloop
endfacet
facet normal -0.9565404791465513 -2.0751263314733833e-13 0.2915995743379714
  outer loop
    vertex 4733.079781984004 2610.684163548912 163.7409664326146
    vertex 4733.5237689229425 2610.526487108207 165.19738652606492
    vertex 4733.381552187894 2610.712846926297 164.73086985094886
  endloop
endfacet
facet normal -0.9565404791465513 -2.0751263314733833e-13 0.2915995743379714
  outer loop
    vertex 4733.079781984004 2610.684163548912 163.7409664326146
    vertex 4733.381552187894 2610.712846926297 164.73086985094886
    vertex 4733.230116511212 2610.7666274238763 164.23411207939876
  endloop
endfacet
facet normal -0.22633446628629852 -0.6305083939815345 -0.7424499137919828
  outer loop
    vertex 4733.647074880887 2610.220248083236 165.601869764293
    vertex 4728.003824089588 2609.8149995348494 167.66635214741584
    vertex 4727.907832006008 2610.2202480832348 167.35146721032083
  endloop
endfacet
facet normal -0.22633446628629852 -0.6305083939815345 -0.7424499137919828
  outer loop
    vertex 4728.003824089588 2609.8149995348494 167.66635214741584
    vertex 4733.647074880887 2610.220248083236 165.601869764293
    vertex 4733.743066964467 2609.8149995348513 165.91675470138802
  endloop
endfacet
facet normal -0.13826703476538285 0.8804346669440598 -0.4535603866524181
  outer loop
    vertex 4730.046975517103 2606.897807791107 174.36854658606603
    vertex 4735.920260633042 2607.1453728926476 173.05865084324034
    vertex 4735.786218391982 2606.8978077911083 172.61894914003832
  endloop
endfacet
facet normal -0.13826703476538285 0.8804346669440598 -0.4535603866524181
  outer loop
    vertex 4735.920260633042 2607.1453728926476 173.05865084324034
    vertex 4730.046975517103 2606.897807791107 174.36854658606603
    vertex 4730.181017758163 2607.1453728926463 174.80824828926805
  endloop
endfacet
facet normal -0.17103687736600282 -0.8099151368765602 -0.5610560200542455
  outer loop
    vertex 4733.647074880887 2610.220248083236 165.601869764293
    vertex 4727.7845260480635 2610.526487108206 166.94698397209274
    vertex 4733.5237689229425 2610.526487108207 165.19738652606492
  endloop
endfacet
facet normal -0.17103687736600282 -0.8099151368765602 -0.5610560200542455
  outer loop
    vertex 4727.7845260480635 2610.526487108206 166.94698397209274
    vertex 4733.647074880887 2610.220248083236 165.601869764293
    vertex 4727.907832006008 2610.2202480832348 167.35146721032083
  endloop
endfacet
facet normal 0.15320497262363308 0.8508584151150289 0.502561631833682
  outer loop
    vertex 4729.471270095225 2607.2173924179588 172.4800474641439
    vertex 4735.340052359078 2606.943081157374 171.15538091686008
    vertex 4735.210512970105 2607.21739241796 170.7304500181162
  endloop
endfacet
facet normal 0.15320497262363308 0.8508584151150289 0.502561631833682
  outer loop
    vertex 4735.340052359078 2606.943081157374 171.15538091686008
    vertex 4729.471270095225 2607.2173924179588 172.4800474641439
    vertex 4729.600809484199 2606.9430811573725 172.9049783628878
  endloop
endfacet
facet normal -0.279308174796355 0.28727428423717716 -0.9162207316514654
  outer loop
    vertex 4730.415533777279 2608.447810567658 175.5775363302493
    vertex 4736.111040426969 2607.9477133697137 173.68446998549683
    vertex 4730.37179755209 2607.9477133697123 175.43406743152454
  endloop
endfacet
facet normal -0.279308174796355 0.28727428423717716 -0.9162207316514654
  outer loop
    vertex 4736.111040426969 2607.9477133697137 173.68446998549683
    vertex 4730.415533777279 2608.447810567658 175.5775363302493
    vertex 4736.154776652158 2608.4478105676594 173.8279388842216
  endloop
endfacet
facet normal -0.20000344535742504 0.7277110092725677 -0.6560756883383658
  outer loop
    vertex 4730.181017758163 2607.1453728926463 174.80824828926805
    vertex 4736.031051380146 2607.5034761335405 173.42208016086
    vertex 4735.920260633042 2607.1453728926476 173.05865084324034
  endloop
endfacet
facet normal -0.20000344535742504 0.7277110092725677 -0.6560756883383658
  outer loop
    vertex 4736.031051380146 2607.5034761335405 173.42208016086
    vertex 4730.181017758163 2607.1453728926463 174.80824828926805
    vertex 4730.291808505267 2607.503476133539 175.1716776068877
  endloop
endfacet
facet normal 0.1190115682874158 -0.91292223580534 0.39039625764849367
  outer loop
    vertex 4733.079781984004 2610.684163548912 163.7409664326146
    vertex 4727.201550780977 2610.471075078203 165.03463741749098
    vertex 4732.940793655856 2610.471075078204 163.28503997146316
  endloop
endfacet
facet normal 0.1190115682874158 -0.91292223580534 0.39039625764849367
  outer loop
    vertex 4727.201550780977 2610.471075078203 165.03463741749098
    vertex 4733.079781984004 2610.684163548912 163.7409664326146
    vertex 4727.340539109124 2610.6841635489104 165.49056387864243
  endloop
endfacet
facet normal 0.13826703476538285 -0.8804346669440598 0.4535603866524181
  outer loop
    vertex 4735.37192406858 2610.6369825979145 171.25993038456053
    vertex 4729.49863895264 2610.3894174963734 172.56982612738622
    vertex 4735.237881827519 2610.3894174963752 170.82022868135851
  endloop
endfacet
facet normal 0.13826703476538285 -0.8804346669440598 0.4535603866524181
  outer loop
    vertex 4729.49863895264 2610.3894174963734 172.56982612738622
    vertex 4735.37192406858 2610.6369825979145 171.25993038456053
    vertex 4729.632681193701 2610.6369825979127 173.00952783058824
  endloop
endfacet
facet normal 0.04605671556985978 -0.9874478996085911 0.15108085421223624
  outer loop
    vertex 4733.230116511212 2610.7666274238763 164.23411207939876
    vertex 4727.340539109124 2610.6841635489104 165.49056387864243
    vertex 4733.079781984004 2610.684163548912 163.7409664326146
  endloop
endfacet
facet normal 0.04605671556985978 -0.9874478996085911 0.15108085421223624
  outer loop
    vertex 4727.340539109124 2610.6841635489104 165.49056387864243
    vertex 4733.230116511212 2610.7666274238763 164.23411207939876
    vertex 4727.490873636333 2610.766627423875 165.98370952542655
  endloop
endfacet
facet normal 0.20000344535742504 -0.7277110092725677 0.6560756883383658
  outer loop
    vertex 4735.237881827519 2610.3894174963752 170.82022868135851
    vertex 4729.387848205537 2610.0313142554805 172.20639680976657
    vertex 4735.127091080416 2610.031314255482 170.45679936373887
  endloop
endfacet
facet normal 0.20000344535742504 -0.7277110092725677 0.6560756883383658
  outer loop
    vertex 4729.387848205537 2610.0313142554805 172.20639680976657
    vertex 4735.237881827519 2610.3894174963752 170.82022868135851
    vertex 4729.49863895264 2610.3894174963734 172.56982612738622
  endloop
endfacet
facet normal 0.29147200738936807 -0.029576251829283216 0.9561220184872551
  outer loop
    vertex 4734.998862956316 2608.565103459237 170.03616983591917
    vertex 4729.264122933524 2609.0869798213616 171.80053808640497
    vertex 4729.259620081437 2608.5651034592356 171.78576728194687
  endloop
endfacet
facet normal 0.29147200738936807 -0.029576251829283216 0.9561220184872551
  outer loop
    vertex 4729.264122933524 2609.0869798213616 171.80053808640497
    vertex 4734.998862956316 2608.565103459237 170.03616983591917
    vertex 4735.003365808403 2609.0869798213635 170.05094064037726
  endloop
endfacet
facet normal -0.008624422443830777 -0.9995625269725231 -0.02829088209679095
  outer loop
    vertex 4735.672261971436 2610.741696505426 172.2451353943967
    vertex 4729.780840171503 2610.7571384075504 173.49553697494082
    vertex 4735.520083046382 2610.757138407552 171.7459395289131
  endloop
endfacet
facet normal -0.008624422443830777 -0.9995625269725231 -0.02829088209679095
  outer loop
    vertex 4729.780840171503 2610.7571384075504 173.49553697494082
    vertex 4735.672261971436 2610.741696505426 172.2451353943967
    vertex 4729.933019096557 2610.7416965054244 173.9947328404244
  endloop
endfacet
facet normal -0.2662077353645035 -0.40813354600141566 -0.873247072861062
  outer loop
    vertex 4733.743066964467 2609.8149995348513 165.91675470138802
    vertex 4728.065960596943 2609.338358481919 167.8701798952867
    vertex 4728.003824089588 2609.8149995348494 167.66635214741584
  endloop
endfacet
facet normal -0.2662077353645035 -0.40813354600141566 -0.873247072861062
  outer loop
    vertex 4728.065960596943 2609.338358481919 167.8701798952867
    vertex 4733.743066964467 2609.8149995348513 165.91675470138802
    vertex 4733.805203471822 2609.3383584819203 166.12058244925888
  endloop
endfacet
facet normal -0.23617090916315817 0.5865470748869709 -0.7747166130957729
  outer loop
    vertex 4728.019982213951 2607.8157673054848 167.7193559971448
    vertex 4733.669925919503 2607.392906750135 165.6768285274377
    vertex 4727.930683044624 2607.3929067501335 167.4264259734655
  endloop
endfacet
facet normal -0.23617090916315817 0.5865470748869709 -0.7747166130957729
  outer loop
    vertex 4733.669925919503 2607.392906750135 165.6768285274377
    vertex 4728.019982213951 2607.8157673054848 167.7193559971448
    vertex 4733.75922508883 2607.815767305486 165.96975855111697
  endloop
endfacet
facet normal -0.29147200738936807 0.029576251829283216 -0.9561220184872551
  outer loop
    vertex 4730.420036629366 2608.969686929784 175.5923071347074
    vertex 4736.154776652158 2608.4478105676594 173.8279388842216
    vertex 4730.415533777279 2608.447810567658 175.5775363302493
  endloop
endfacet
facet normal -0.29147200738936807 0.029576251829283216 -0.9561220184872551
  outer loop
    vertex 4736.154776652158 2608.4478105676594 173.8279388842216
    vertex 4730.420036629366 2608.969686929784 175.5923071347074
    vertex 4736.159279504245 2608.9696869297854 173.8427096886797
  endloop
endfacet
facet normal 7.654762614688909e-14 1.0 -1.1892950108334783e-14
  outer loop
    vertex 4721.721414579875 2625.767395194509 157.34610730670533
    vertex 4676.891050523918 2625.7673951945103 -8.274925421356494e-14
    vertex 4673.754748333468 2625.767395194511 -8.459899447643693e-14
  endloop
endfacet
facet normal 7.654762614688909e-14 1.0 -1.1892950108334783e-14
  outer loop
    vertex 4676.891050523918 2625.7673951945103 -8.274925421356494e-14
    vertex 4721.721414579875 2625.767395194509 157.34610730670533
    vertex 4724.591036017314 2625.767395194509 156.47130858369113
  endloop
endfacet
facet normal -0.9565404791465029 -5.3178972570090795e-14 0.29159957433813016
  outer loop
    vertex 4721.721414579875 2625.767395194509 157.34610730670533
    vertex 4673.754748333471 2603.7673951945094 -9.023892744153272e-14
    vertex 4721.721414579875 2603.7673951945094 157.34610730670522
  endloop
endfacet
facet normal -0.9565404791465029 -5.3178972570090795e-14 0.29159957433813016
  outer loop
    vertex 4673.754748333471 2603.7673951945094 -9.023892744153272e-14
    vertex 4721.721414579875 2625.767395194509 157.34610730670533
    vertex 4673.754748333468 2625.767395194511 -8.459899447643693e-14
  endloop
endfacet
facet normal 0.21220022054475401 0.6858838728118664 0.6960850374899272
  outer loop
    vertex 4729.471270095225 2607.2173924179588 172.4800474641439
    vertex 4735.106090217491 2607.597333806268 170.38790977248834
    vertex 4729.366847342612 2607.5973338062668 172.13750721851605
  endloop
endfacet
facet normal 0.21220022054475401 0.6858838728118664 0.6960850374899272
  outer loop
    vertex 4735.106090217491 2607.597333806268 170.38790977248834
    vertex 4729.471270095225 2607.2173924179588 172.4800474641439
    vertex 4735.210512970105 2607.21739241796 170.7304500181162
  endloop
endfacet
facet normal 1.0 0.0 0.0
  outer loop
    vertex 4713.880905432369 2664.2673951945103 -9.023892744153272e-14
    vertex 4713.880905432369 2653.2673951945108 20.99999999999991
    vertex 4713.880905432369 2653.2673951945108 -9.023892744153272e-14
  endloop
endfacet
facet normal 1.0 0.0 0.0
  outer loop
    vertex 4713.880905432369 2653.2673951945108 20.99999999999991
    vertex 4713.880905432369 2664.2673951945103 -9.023892744153272e-14
    vertex 4713.880905432369 2664.2673951945103 20.99999999999991
  endloop
endfacet
facet normal -1.0 -0.0 -0.0
  outer loop
    vertex 4724.880905432369 2664.2673951945103 20.99999999999991
    vertex 4724.880905432369 2653.2673951945108 -9.023892744153272e-14
    vertex 4724.880905432369 2653.2673951945108 20.99999999999991
  endloop
endfacet
facet normal -1.0 -0.0 -0.0
  outer loop
    vertex 4724.880905432369 2653.2673951945108 -9.023892744153272e-14
    vertex 4724.880905432369 2664.2673951945103 20.99999999999991
    vertex 4724.880905432369 2664.2673951945103 -9.023892744153272e-14
  endloop
endfacet
facet normal -3.5399530404840553e-14 -3.179381838431776e-16 1.0
  outer loop
    vertex 4744.346678543705 2603.7673951945094 179.1543642339645
    vertex 4739.346678543704 2613.767395194509 179.15436423396386
    vertex 4739.346678543704 2603.767395194511 179.1543642339645
  endloop
endfacet
facet normal -3.5399530404840553e-14 -3.179381838431776e-16 1.0
  outer loop
    vertex 4739.346678543704 2613.767395194509 179.15436423396386
    vertex 4744.346678543705 2603.7673951945094 179.1543642339645
    vertex 4739.346678543704 2760.12133891214 179.1543642339644
  endloop
endfacet
facet normal -3.5399530404840553e-14 -3.179381838431776e-16 1.0
  outer loop
    vertex 4739.346678543704 2760.12133891214 179.1543642339644
    vertex 4744.346678543705 2603.7673951945094 179.1543642339645
    vertex 4744.346678543705 2760.12133891214 179.1543642339645
  endloop
endfacet
facet normal 1.0 0.0 0.0
  outer loop
    vertex 4744.346678543705 2603.767395194511 -9.023892744153272e-14
    vertex 4744.346678543705 2760.12133891214 179.1543642339645
    vertex 4744.346678543705 2603.7673951945094 179.1543642339645
  endloop
endfacet
facet normal 1.0 0.0 0.0
  outer loop
    vertex 4744.346678543705 2760.12133891214 179.1543642339645
    vertex 4744.346678543705 2603.767395194511 -9.023892744153272e-14
    vertex 4744.346678543705 2760.12133891214 -9.023892744153272e-14
  endloop
endfacet
facet normal 0.2915995743381426 -3.990697189872231e-15 0.9565404791464992
  outer loop
    vertex 4724.591036017314 2603.7673951945103 156.47130858369104
    vertex 4721.721414579875 2625.767395194509 157.34610730670533
    vertex 4721.721414579875 2603.7673951945094 157.34610730670522
  endloop
endfacet
facet normal 0.2915995743381426 -3.990697189872231e-15 0.9565404791464992
  outer loop
    vertex 4721.721414579875 2625.767395194509 157.34610730670533
    vertex 4724.591036017314 2603.7673951945103 156.47130858369104
    vertex 4724.591036017314 2625.767395194509 156.47130858369113
  endloop
endfacet
facet normal 0.2915995743381426 -3.990697189872231e-15 0.9565404791464992
  outer loop
    vertex 4724.591036017314 2625.767395194509 156.47130858369113
    vertex 4724.591036017314 2603.7673951945103 156.47130858369104
    vertex 4724.591036017314 2613.767395194509 156.471308583691
  endloop
endfacet
facet normal 0.291599574338053 5.341813170352294e-14 0.9565404791465265
  outer loop
    vertex 4732.172624950107 2603.7673951945103 181.3413610414993
    vertex 4739.346678543704 2613.767395194509 179.15436423396386
    vertex 4732.172624950105 2613.767395194509 181.34136104149925
  endloop
endfacet
facet normal 0.291599574338053 5.341813170352294e-14 0.9565404791465265
  outer loop
    vertex 4739.346678543704 2613.767395194509 179.15436423396386
    vertex 4732.172624950107 2603.7673951945103 181.3413610414993
    vertex 4739.346678543704 2603.767395194511 179.1543642339645
  endloop
endfacet
facet normal 0.0 1.0 0.0
  outer loop
    vertex 4739.346678543704 2760.12133891214 179.1543642339644
    vertex 4744.346678543705 2760.12133891214 -9.023892744153272e-14
    vertex 4684.7318060000425 2760.12133891214 -9.023892744153272e-14
  endloop
endfacet
facet normal 0.0 1.0 0.0
  outer loop
    vertex 4744.346678543705 2760.12133891214 -9.023892744153272e-14
    vertex 4739.346678543704 2760.12133891214 179.1543642339644
    vertex 4744.346678543705 2760.12133891214 179.1543642339645
  endloop
endfacet
facet normal -0.9565404791465075 -5.4606421434458e-16 0.29159957433811473
  outer loop
    vertex 4739.346678543704 2760.12133891214 179.1543642339644
    vertex 4684.7318060000425 2613.767395194509 -9.023892744153272e-14
    vertex 4739.346678543704 2613.767395194509 179.15436423396386
  endloop
endfacet
facet normal -0.9565404791465075 -5.4606421434458e-16 0.29159957433811473
  outer loop
    vertex 4684.7318060000425 2613.767395194509 -9.023892744153272e-14
    vertex 4739.346678543704 2760.12133891214 179.1543642339644
    vertex 4684.7318060000425 2760.12133891214 -9.023892744153272e-14
  endloop
endfacet
facet normal 0.0 0.0 -1.0
  outer loop
    vertex 4724.880905432369 2664.2673951945103 20.99999999999991
    vertex 4713.880905432369 2653.2673951945108 20.99999999999991
    vertex 4713.880905432369 2664.2673951945103 20.99999999999991
  endloop
endfacet
facet normal 0.0 0.0 -1.0
  outer loop
    vertex 4713.880905432369 2653.2673951945108 20.99999999999991
    vertex 4724.880905432369 2664.2673951945103 20.99999999999991
    vertex 4724.880905432369 2653.2673951945108 20.99999999999991
  endloop
endfacet
facet normal 0.0 1.0 0.0
  outer loop
    vertex 4713.880905432369 2653.2673951945108 20.99999999999991
    vertex 4724.880905432369 2653.2673951945108 -9.023892744153272e-14
    vertex 4713.880905432369 2653.2673951945108 -9.023892744153272e-14
  endloop
endfacet
facet normal 0.0 1.0 0.0
  outer loop
    vertex 4724.880905432369 2653.2673951945108 -9.023892744153272e-14
    vertex 4713.880905432369 2653.2673951945108 20.99999999999991
    vertex 4724.880905432369 2653.2673951945108 20.99999999999991
  endloop
endfacet
facet normal 0.0 -1.0 0.0
  outer loop
    vertex 4724.880905432369 2664.2673951945103 20.99999999999991
    vertex 4713.880905432369 2664.2673951945103 -9.023892744153272e-14
    vertex 4724.880905432369 2664.2673951945103 -9.023892744153272e-14
  endloop
endfacet
facet normal 0.0 -1.0 0.0
  outer loop
    vertex 4713.880905432369 2664.2673951945103 -9.023892744153272e-14
    vertex 4724.880905432369 2664.2673951945103 20.99999999999991
    vertex 4713.880905432369 2664.2673951945103 20.99999999999991
  endloop
endfacet
facet normal -0.9565404791465574 -2.853222212107482e-13 0.29159957433795153
  outer loop
    vertex 4735.786218391982 2606.8978077911083 172.61894914003832
    vertex 4735.485880489126 2606.7930938835966 171.63374413020216
    vertex 4735.638059414179 2606.7776519814706 172.13293999568575
  endloop
endfacet
facet normal -0.9565404791465574 -2.853222212107482e-13 0.29159957433795153
  outer loop
    vertex 4735.485880489126 2606.7930938835966 171.63374413020216
    vertex 4735.786218391982 2606.8978077911083 172.61894914003832
    vertex 4735.340052359078 2606.943081157374 171.15538091686008
  endloop
endfacet
facet normal -0.9565404791465574 -2.853222212107482e-13 0.29159957433795153
  outer loop
    vertex 4735.340052359078 2606.943081157374 171.15538091686008
    vertex 4735.786218391982 2606.8978077911083 172.61894914003832
    vertex 4735.920260633042 2607.1453728926476 173.05865084324034
  endloop
endfacet
facet normal -0.9565404791465574 -2.853222212107482e-13 0.29159957433795153
  outer loop
    vertex 4735.340052359078 2606.943081157374 171.15538091686008
    vertex 4735.920260633042 2607.1453728926476 173.05865084324034
    vertex 4735.210512970105 2607.21739241796 170.7304500181162
  endloop
endfacet
facet normal -0.9565404791465574 -2.853222212107482e-13 0.29159957433795153
  outer loop
    vertex 4735.210512970105 2607.21739241796 170.7304500181162
    vertex 4735.920260633042 2607.1453728926476 173.05865084324034
    vertex 4736.031051380146 2607.5034761335405 173.42208016086
  endloop
endfacet
facet normal -0.9565404791465574 -2.853222212107482e-13 0.29159957433795153
  outer loop
    vertex 4735.210512970105 2607.21739241796 170.7304500181162
    vertex 4736.031051380146 2607.5034761335405 173.42208016086
    vertex 4735.106090217491 2607.597333806268 170.38790977248834
  endloop
endfacet
facet normal -0.9565404791465574 -2.853222212107482e-13 0.29159957433795153
  outer loop
    vertex 4735.106090217491 2607.597333806268 170.38790977248834
    vertex 4736.031051380146 2607.5034761335405 173.42208016086
    vertex 4736.111040426969 2607.9477133697137 173.68446998549683
  endloop
endfacet
facet normal -0.9565404791465574 -2.853222212107482e-13 0.29159957433795153
  outer loop
    vertex 4735.106090217491 2607.597333806268 170.38790977248834
    vertex 4736.111040426969 2607.9477133697137 173.68446998549683
    vertex 4735.033900339261 2608.0570129445664 170.15110373164163
  endloop
endfacet
facet normal -0.9565404791465574 -2.853222212107482e-13 0.29159957433795153
  outer loop
    vertex 4735.033900339261 2608.0570129445664 170.15110373164163
    vertex 4736.111040426969 2607.9477133697137 173.68446998549683
    vertex 4736.154776652158 2608.4478105676594 173.8279388842216
  endloop
endfacet
facet normal -0.9565404791465574 -2.853222212107482e-13 0.29159957433795153
  outer loop
    vertex 4735.033900339261 2608.0570129445664 170.15110373164163
    vertex 4736.154776652158 2608.4478105676594 173.8279388842216
    vertex 4734.998862956316 2608.565103459237 170.03616983591917
  endloop
endfacet
facet normal -0.9565404791465574 -2.853222212107482e-13 0.29159957433795153
  outer loop
    vertex 4734.998862956316 2608.565103459237 170.03616983591917
    vertex 4736.154776652158 2608.4478105676594 173.8279388842216
    vertex 4736.159279504245 2608.9696869297854 173.8427096886797
  endloop
endfacet
facet normal -0.9565404791465574 -2.853222212107482e-13 0.29159957433795153
  outer loop
    vertex 4734.998862956316 2608.565103459237 170.03616983591917
    vertex 4736.159279504245 2608.9696869297854 173.8427096886797
    vertex 4735.003365808403 2609.0869798213635 170.05094064037726
  endloop
endfacet
facet normal -0.9565404791465574 -2.853222212107482e-13 0.29159957433795153
  outer loop
    vertex 4735.003365808403 2609.0869798213635 170.05094064037726
    vertex 4736.159279504245 2608.9696869297854 173.8427096886797
    vertex 4736.1242421213 2609.477777444456 173.72777579295726
  endloop
endfacet
facet normal -0.9565404791465574 -2.853222212107482e-13 0.29159957433795153
  outer loop
    vertex 4735.003365808403 2609.0869798213635 170.05094064037726
    vertex 4736.1242421213 2609.477777444456 173.72777579295726
    vertex 4735.047102033592 2609.5870770193087 170.19440953910203
  endloop
endfacet
facet normal -0.9565404791465574 -2.853222212107482e-13 0.29159957433795153
  outer loop
    vertex 4735.047102033592 2609.5870770193087 170.19440953910203
    vertex 4736.1242421213 2609.477777444456 173.72777579295726
    vertex 4736.052052243071 2609.9374565827543 173.49096975211052
  endloop
endfacet
facet normal -0.9565404791465574 -2.853222212107482e-13 0.29159957433795153
  outer loop
    vertex 4735.047102033592 2609.5870770193087 170.19440953910203
    vertex 4736.052052243071 2609.9374565827543 173.49096975211052
    vertex 4735.127091080416 2610.031314255482 170.45679936373887
  endloop
endfacet
facet normal -0.9565404791465574 -2.853222212107482e-13 0.29159957433795153
  outer loop
    vertex 4735.127091080416 2610.031314255482 170.45679936373887
    vertex 4736.052052243071 2609.9374565827543 173.49096975211052
    vertex 4735.947629490457 2610.3173979710623 173.14842950648267
  endloop
endfacet
facet normal -0.9565404791465574 -2.853222212107482e-13 0.29159957433795153
  outer loop
    vertex 4735.127091080416 2610.031314255482 170.45679936373887
    vertex 4735.947629490457 2610.3173979710623 173.14842950648267
    vertex 4735.237881827519 2610.3894174963752 170.82022868135851
  endloop
endfacet
facet normal -0.9565404791465574 -2.853222212107482e-13 0.29159957433795153
  outer loop
    vertex 4735.237881827519 2610.3894174963752 170.82022868135851
    vertex 4735.947629490457 2610.3173979710623 173.14842950648267
    vertex 4735.818090101483 2610.5917092316486 172.72349860773878
  endloop
endfacet
facet normal -0.9565404791465574 -2.853222212107482e-13 0.29159957433795153
  outer loop
    vertex 4735.237881827519 2610.3894174963752 170.82022868135851
    vertex 4735.818090101483 2610.5917092316486 172.72349860773878
    vertex 4735.37192406858 2610.6369825979145 171.25993038456053
  endloop
endfacet
facet normal -0.9565404791465574 -2.853222212107482e-13 0.29159957433795153
  outer loop
    vertex 4735.37192406858 2610.6369825979145 171.25993038456053
    vertex 4735.818090101483 2610.5917092316486 172.72349860773878
    vertex 4735.672261971436 2610.741696505426 172.2451353943967
  endloop
endfacet
facet normal -0.9565404791465574 -2.853222212107482e-13 0.29159957433795153
  outer loop
    vertex 4735.37192406858 2610.6369825979145 171.25993038456053
    vertex 4735.672261971436 2610.741696505426 172.2451353943967
    vertex 4735.520083046382 2610.757138407552 171.7459395289131
  endloop
endfacet
facet normal -0.9565404791464913 -6.805742861988691e-14 0.29159957433816847
  outer loop
    vertex 4732.172624950107 2603.7673951945103 181.3413610414993
    vertex 4729.8988165393 2606.7776519814693 173.88253744171345
    vertex 4724.591036017314 2603.7673951945103 156.47130858369104
  endloop
endfacet
facet normal -0.9565404791464913 -6.805742861988691e-14 0.29159957433816847
  outer loop
    vertex 4729.8988165393 2606.7776519814693 173.88253744171345
    vertex 4732.172624950107 2603.7673951945103 181.3413610414993
    vertex 4730.046975517103 2606.897807791107 174.36854658606603
  endloop
endfacet
facet normal -0.9565404791464913 -6.805742861988691e-14 0.29159957433816847
  outer loop
    vertex 4730.046975517103 2606.897807791107 174.36854658606603
    vertex 4732.172624950107 2603.7673951945103 181.3413610414993
    vertex 4730.181017758163 2607.1453728926463 174.80824828926805
  endloop
endfacet
facet normal -0.9565404791464913 -6.805742861988691e-14 0.29159957433816847
  outer loop
    vertex 4730.181017758163 2607.1453728926463 174.80824828926805
    vertex 4732.172624950107 2603.7673951945103 181.3413610414993
    vertex 4730.291808505267 2607.503476133539 175.1716776068877
  endloop
endfacet
facet normal -0.9565404791464913 -6.805742861988691e-14 0.29159957433816847
  outer loop
    vertex 4730.291808505267 2607.503476133539 175.1716776068877
    vertex 4732.172624950107 2603.7673951945103 181.3413610414993
    vertex 4732.172624950105 2613.767395194509 181.34136104149925
  endloop
endfacet
facet normal -0.9565404791464913 -6.805742861988691e-14 0.29159957433816847
  outer loop
    vertex 4724.591036017314 2603.7673951945103 156.47130858369104
    vertex 4729.8988165393 2606.7776519814693 173.88253744171345
    vertex 4727.523189885058 2606.7681629651447 166.08971722488448
  endloop
endfacet
facet normal -0.9565404791464913 -6.805742861988691e-14 0.29159957433816847
  outer loop
    vertex 4730.291808505267 2607.503476133539 175.1716776068877
    vertex 4732.172624950105 2613.767395194509 181.34136104149925
    vertex 4730.37179755209 2607.9477133697123 175.43406743152454
  endloop
endfacet
facet normal -0.9565404791464913 -6.805742861988691e-14 0.29159957433816847
  outer loop
    vertex 4730.37179755209 2607.9477133697123 175.43406743152454
    vertex 4732.172624950105 2613.767395194509 181.34136104149925
    vertex 4730.415533777279 2608.447810567658 175.5775363302493
  endloop
endfacet
facet normal -0.9565404791464913 -6.805742861988691e-14 0.29159957433816847
  outer loop
    vertex 4730.415533777279 2608.447810567658 175.5775363302493
    vertex 4732.172624950105 2613.767395194509 181.34136104149925
    vertex 4730.420036629366 2608.969686929784 175.5923071347074
  endloop
endfacet
facet normal -0.9565404791464913 -6.805742861988691e-14 0.29159957433816847
  outer loop
    vertex 4730.420036629366 2608.969686929784 175.5923071347074
    vertex 4732.172624950105 2613.767395194509 181.34136104149925
    vertex 4730.384999246421 2609.4777774444547 175.47737323898497
  endloop
endfacet
facet normal -0.9565404791464913 -6.805742861988691e-14 0.29159957433816847
  outer loop
    vertex 4730.384999246421 2609.4777774444547 175.47737323898497
    vertex 4732.172624950105 2613.767395194509 181.34136104149925
    vertex 4730.312809368192 2609.937456582753 175.24056719813822
  endloop
endfacet
facet normal -0.9565404791464913 -6.805742861988691e-14 0.29159957433816847
  outer loop
    vertex 4730.312809368192 2609.937456582753 175.24056719813822
    vertex 4732.172624950105 2613.767395194509 181.34136104149925
    vertex 4730.208386615578 2610.317397971061 174.89802695251038
  endloop
endfacet
facet normal -0.9565404791464913 -6.805742861988691e-14 0.29159957433816847
  outer loop
    vertex 4730.208386615578 2610.317397971061 174.89802695251038
    vertex 4732.172624950105 2613.767395194509 181.34136104149925
    vertex 4730.078847226604 2610.591709231647 174.47309605376648
  endloop
endfacet
facet normal -0.9565404791464913 -6.805742861988691e-14 0.29159957433816847
  outer loop
    vertex 4730.078847226604 2610.591709231647 174.47309605376648
    vertex 4732.172624950105 2613.767395194509 181.34136104149925
    vertex 4729.933019096557 2610.7416965054244 173.9947328404244
  endloop
endfacet
facet normal -0.9565404791464913 -6.805742861988691e-14 0.29159957433816847
  outer loop
    vertex 4729.933019096557 2610.7416965054244 173.9947328404244
    vertex 4732.172624950105 2613.767395194509 181.34136104149925
    vertex 4729.780840171503 2610.7571384075504 173.49553697494082
  endloop
endfacet
facet normal -0.9565404791464913 -6.805742861988691e-14 0.29159957433816847
  outer loop
    vertex 4729.780840171503 2610.7571384075504 173.49553697494082
    vertex 4732.172624950105 2613.767395194509 181.34136104149925
    vertex 4727.490873636333 2610.766627423875 165.98370952542655
  endloop
endfacet
facet normal -0.9565404791464913 -6.805742861988691e-14 0.29159957433816847
  outer loop
    vertex 4724.591036017314 2603.7673951945103 156.47130858369104
    vertex 4727.106231515383 2607.314542305785 164.72195953999022
    vertex 4724.591036017314 2613.767395194509 156.471308583691
  endloop
endfacet
facet normal -0.9565404791464913 -6.805742861988691e-14 0.29159957433816847
  outer loop
    vertex 4727.106231515383 2607.314542305785 164.72195953999022
    vertex 4724.591036017314 2603.7673951945103 156.47130858369104
    vertex 4727.229537473328 2607.008303280814 165.12644277821832
  endloop
endfacet
facet normal -0.9565404791464913 -6.805742861988691e-14 0.29159957433816847
  outer loop
    vertex 4727.229537473328 2607.008303280814 165.12644277821832
    vertex 4724.591036017314 2603.7673951945103 156.47130858369104
    vertex 4727.371754208376 2606.821943462724 165.59295945333437
  endloop
endfacet
facet normal -0.9565404791464913 -6.805742861988691e-14 0.29159957433816847
  outer loop
    vertex 4727.371754208376 2606.821943462724 165.59295945333437
    vertex 4724.591036017314 2603.7673951945103 156.47130858369104
    vertex 4727.523189885058 2606.7681629651447 166.08971722488448
  endloop
endfacet
facet normal -0.9565404791464913 -6.805742861988691e-14 0.29159957433816847
  outer loop
    vertex 4724.591036017314 2613.767395194509 156.471308583691
    vertex 4727.106231515383 2607.314542305785 164.72195953999022
    vertex 4727.010239431803 2607.7197908541702 164.40707460289522
  endloop
endfacet
facet normal -0.9565404791464913 -6.805742861988691e-14 0.29159957433816847
  outer loop
    vertex 4724.591036017314 2613.767395194509 156.471308583691
    vertex 4727.010239431803 2607.7197908541702 164.40707460289522
    vertex 4726.948102924448 2608.1964319071008 164.20324685502436
  endloop
endfacet
facet normal -0.9565404791464913 -6.805742861988691e-14 0.29159957433816847
  outer loop
    vertex 4724.591036017314 2613.767395194509 156.471308583691
    vertex 4726.948102924448 2608.1964319071008 164.20324685502436
    vertex 4726.92405649361 2608.7119831645077 164.12436682055375
  endloop
endfacet
facet normal -0.9565404791464913 -6.805742861988691e-14 0.29159957433816847
  outer loop
    vertex 4724.591036017314 2613.767395194509 156.471308583691
    vertex 4726.92405649361 2608.7119831645077 164.12436682055375
    vertex 4726.939738863812 2609.2313106601855 164.17581004347716
  endloop
endfacet
facet normal -0.9565404791464913 -6.805742861988691e-14 0.29159957433816847
  outer loop
    vertex 4724.591036017314 2613.767395194509 156.471308583691
    vertex 4726.939738863812 2609.2313106601855 164.17581004347716
    vertex 4726.99408130744 2609.719023083535 164.35407075316627
  endloop
endfacet
facet normal -0.9565404791464913 -6.805742861988691e-14 0.29159957433816847
  outer loop
    vertex 4724.591036017314 2613.767395194509 156.471308583691
    vertex 4726.99408130744 2609.719023083535 164.35407075316627
    vertex 4727.083380476767 2610.141883638886 164.64700077684554
  endloop
endfacet
facet normal -0.9565404791464913 -6.805742861988691e-14 0.29159957433816847
  outer loop
    vertex 4724.591036017314 2613.767395194509 156.471308583691
    vertex 4727.083380476767 2610.141883638886 164.64700077684554
    vertex 4727.201550780977 2610.471075078203 165.03463741749098
  endloop
endfacet
facet normal -0.9565404791464913 -6.805742861988691e-14 0.29159957433816847
  outer loop
    vertex 4724.591036017314 2613.767395194509 156.471308583691
    vertex 4727.201550780977 2610.471075078203 165.03463741749098
    vertex 4727.340539109124 2610.6841635489104 165.49056387864243
  endloop
endfacet
facet normal -0.9565404791464913 -6.805742861988691e-14 0.29159957433816847
  outer loop
    vertex 4724.591036017314 2613.767395194509 156.471308583691
    vertex 4727.340539109124 2610.6841635489104 165.49056387864243
    vertex 4727.490873636333 2610.766627423875 165.98370952542655
  endloop
endfacet
facet normal -0.9565404791464913 -6.805742861988691e-14 0.29159957433816847
  outer loop
    vertex 4724.591036017314 2613.767395194509 156.471308583691
    vertex 4727.490873636333 2610.766627423875 165.98370952542655
    vertex 4732.172624950105 2613.767395194509 181.34136104149925
  endloop
endfacet
facet normal -0.9565404791464913 -6.805742861988691e-14 0.29159957433816847
  outer loop
    vertex 4729.8988165393 2606.7776519814693 173.88253744171345
    vertex 4727.673524412267 2606.8506268401093 166.58286287166862
    vertex 4727.523189885058 2606.7681629651447 166.08971722488448
  endloop
endfacet
facet normal -0.9565404791464913 -6.805742861988691e-14 0.29159957433816847
  outer loop
    vertex 4727.673524412267 2606.8506268401093 166.58286287166862
    vertex 4729.8988165393 2606.7776519814693 173.88253744171345
    vertex 4729.7466376142465 2606.7930938835952 173.38334157622987
  endloop
endfacet
facet normal -0.9565404791464913 -6.805742861988691e-14 0.29159957433816847
  outer loop
    vertex 4727.673524412267 2606.8506268401093 166.58286287166862
    vertex 4729.7466376142465 2606.7930938835952 173.38334157622987
    vertex 4729.600809484199 2606.9430811573725 172.9049783628878
  endloop
endfacet
facet normal -0.9565404791464913 -6.805742861988691e-14 0.29159957433816847
  outer loop
    vertex 4727.673524412267 2606.8506268401093 166.58286287166862
    vertex 4729.600809484199 2606.9430811573725 172.9049783628878
    vertex 4727.812512740414 2607.063715310817 167.03878933282007
  endloop
endfacet
facet normal -0.9565404791464913 -6.805742861988691e-14 0.29159957433816847
  outer loop
    vertex 4727.812512740414 2607.063715310817 167.03878933282007
    vertex 4729.600809484199 2606.9430811573725 172.9049783628878
    vertex 4729.471270095225 2607.2173924179588 172.4800474641439
  endloop
endfacet
facet normal -0.9565404791464913 -6.805742861988691e-14 0.29159957433816847
  outer loop
    vertex 4727.812512740414 2607.063715310817 167.03878933282007
    vertex 4729.471270095225 2607.2173924179588 172.4800474641439
    vertex 4727.930683044624 2607.3929067501335 167.4264259734655
  endloop
endfacet
facet normal -0.9565404791464913 -6.805742861988691e-14 0.29159957433816847
  outer loop
    vertex 4727.930683044624 2607.3929067501335 167.4264259734655
    vertex 4729.471270095225 2607.2173924179588 172.4800474641439
    vertex 4729.366847342612 2607.5973338062668 172.13750721851605
  endloop
endfacet
facet normal -0.9565404791464913 -6.805742861988691e-14 0.29159957433816847
  outer loop
    vertex 4727.930683044624 2607.3929067501335 167.4264259734655
    vertex 4729.366847342612 2607.5973338062668 172.13750721851605
    vertex 4728.019982213951 2607.8157673054848 167.7193559971448
  endloop
endfacet
facet normal -0.9565404791464913 -6.805742861988691e-14 0.29159957433816847
  outer loop
    vertex 4728.019982213951 2607.8157673054848 167.7193559971448
    vertex 4729.366847342612 2607.5973338062668 172.13750721851605
    vertex 4729.294657464382 2608.057012944565 171.90070117766933
  endloop
endfacet
facet normal -0.9565404791464913 -6.805742861988691e-14 0.29159957433816847
  outer loop
    vertex 4728.019982213951 2607.8157673054848 167.7193559971448
    vertex 4729.294657464382 2608.057012944565 171.90070117766933
    vertex 4728.074324657579 2608.303479728834 167.8976167068339
  endloop
endfacet
facet normal -0.9565404791464913 -6.805742861988691e-14 0.29159957433816847
  outer loop
    vertex 4728.074324657579 2608.303479728834 167.8976167068339
    vertex 4729.294657464382 2608.057012944565 171.90070117766933
    vertex 4729.259620081437 2608.5651034592356 171.78576728194687
  endloop
endfacet
facet normal -0.9565404791464913 -6.805742861988691e-14 0.29159957433816847
  outer loop
    vertex 4728.074324657579 2608.303479728834 167.8976167068339
    vertex 4729.259620081437 2608.5651034592356 171.78576728194687
    vertex 4728.090007027781 2608.822807224512 167.9490599297573
  endloop
endfacet
facet normal -0.9565404791464913 -6.805742861988691e-14 0.29159957433816847
  outer loop
    vertex 4728.090007027781 2608.822807224512 167.9490599297573
    vertex 4729.259620081437 2608.5651034592356 171.78576728194687
    vertex 4729.264122933524 2609.0869798213616 171.80053808640497
  endloop
endfacet
facet normal -0.9565404791464913 -6.805742861988691e-14 0.29159957433816847
  outer loop
    vertex 4728.090007027781 2608.822807224512 167.9490599297573
    vertex 4729.264122933524 2609.0869798213616 171.80053808640497
    vertex 4728.065960596943 2609.338358481919 167.8701798952867
  endloop
endfacet
facet normal -0.9565404791464913 -6.805742861988691e-14 0.29159957433816847
  outer loop
    vertex 4728.065960596943 2609.338358481919 167.8701798952867
    vertex 4729.264122933524 2609.0869798213616 171.80053808640497
    vertex 4729.307859158713 2609.5870770193073 171.94400698512973
  endloop
endfacet
facet normal -0.9565404791464913 -6.805742861988691e-14 0.29159957433816847
  outer loop
    vertex 4728.065960596943 2609.338358481919 167.8701798952867
    vertex 4729.307859158713 2609.5870770193073 171.94400698512973
    vertex 4728.003824089588 2609.8149995348494 167.66635214741584
  endloop
endfacet
facet normal -0.9565404791464913 -6.805742861988691e-14 0.29159957433816847
  outer loop
    vertex 4728.003824089588 2609.8149995348494 167.66635214741584
    vertex 4729.307859158713 2609.5870770193073 171.94400698512973
    vertex 4729.387848205537 2610.0313142554805 172.20639680976657
  endloop
endfacet
facet normal -0.9565404791464913 -6.805742861988691e-14 0.29159957433816847
  outer loop
    vertex 4728.003824089588 2609.8149995348494 167.66635214741584
    vertex 4729.387848205537 2610.0313142554805 172.20639680976657
    vertex 4727.907832006008 2610.2202480832348 167.35146721032083
  endloop
endfacet
facet normal -0.9565404791464913 -6.805742861988691e-14 0.29159957433816847
  outer loop
    vertex 4727.907832006008 2610.2202480832348 167.35146721032083
    vertex 4729.387848205537 2610.0313142554805 172.20639680976657
    vertex 4729.49863895264 2610.3894174963734 172.56982612738622
  endloop
endfacet
facet normal -0.9565404791464913 -6.805742861988691e-14 0.29159957433816847
  outer loop
    vertex 4727.907832006008 2610.2202480832348 167.35146721032083
    vertex 4729.49863895264 2610.3894174963734 172.56982612738622
    vertex 4727.7845260480635 2610.526487108206 166.94698397209274
  endloop
endfacet
facet normal -0.9565404791464913 -6.805742861988691e-14 0.29159957433816847
  outer loop
    vertex 4727.7845260480635 2610.526487108206 166.94698397209274
    vertex 4729.49863895264 2610.3894174963734 172.56982612738622
    vertex 4729.632681193701 2610.6369825979127 173.00952783058824
  endloop
endfacet
facet normal -0.9565404791464913 -6.805742861988691e-14 0.29159957433816847
  outer loop
    vertex 4727.7845260480635 2610.526487108206 166.94698397209274
    vertex 4729.632681193701 2610.6369825979127 173.00952783058824
    vertex 4727.642309313015 2610.7128469262957 166.48046729697668
  endloop
endfacet
facet normal -0.9565404791464913 -6.805742861988691e-14 0.29159957433816847
  outer loop
    vertex 4727.642309313015 2610.7128469262957 166.48046729697668
    vertex 4729.632681193701 2610.6369825979127 173.00952783058824
    vertex 4729.780840171503 2610.7571384075504 173.49553697494082
  endloop
endfacet
facet normal -0.9565404791464913 -6.805742861988691e-14 0.29159957433816847
  outer loop
    vertex 4727.642309313015 2610.7128469262957 166.48046729697668
    vertex 4729.780840171503 2610.7571384075504 173.49553697494082
    vertex 4727.490873636333 2610.766627423875 165.98370952542655
  endloop
endfacet
endsolid SlotmachinePrototypeTopFrontRight
