solid SlotmachinePrototypeBottomRightFront
facet normal 0.6220576204619598 0.7609586481683376 0.1843536075129012
  outer loop
    vertex 18.639839471609076 99.62230519310909 71.89703824912051
    vertex 32.94343586237906 89.45169647193268 65.61428367219102
    vertex 21.50632253143088 99.62230519310909 62.22476952954859
  endloop
endfacet
facet normal 0.6220576204619598 0.7609586481683376 0.1843536075129012
  outer loop
    vertex 32.94343586237906 89.45169647193268 65.61428367219102
    vertex 18.639839471609076 99.62230519310909 71.89703824912051
    vertex 30.026356833712608 89.45169647193268 75.45727651487105
  endloop
endfacet
facet normal 0.0 -1.0 0.0
  outer loop
    vertex 80.85787542512327 60.49999999999996 13.39330045124566
    vertex 59.857875425123 60.49999999999996 2.393300451245657
    vertex 80.85787542512327 60.49999999999996 2.393300451245657
  endloop
endfacet
facet normal 0.0 -1.0 0.0
  outer loop
    vertex 59.857875425123 60.49999999999996 2.393300451245657
    vertex 80.85787542512327 60.49999999999996 13.39330045124566
    vertex 59.857875425123 60.49999999999996 13.39330045124566
  endloop
endfacet
facet normal -7.424269462896066e-16 7.61141013943805e-16 1.0
  outer loop
    vertex 70.51711994899946 0.0 87.17956571099168
    vertex 67.51711994899942 120.99999999999847 87.1795657109916
    vertex 67.51711994899942 0.0 87.17956571099168
  endloop
endfacet
facet normal -7.424269462896066e-16 7.61141013943805e-16 1.0
  outer loop
    vertex 67.51711994899942 120.99999999999847 87.1795657109916
    vertex 70.51711994899946 0.0 87.17956571099168
    vertex 70.51711994899946 120.99999999999847 87.1795657109916
  endloop
endfacet
facet normal -7.424269462896066e-16 7.61141013943805e-16 1.0
  outer loop
    vertex 70.51711994899946 120.99999999999847 87.1795657109916
    vertex 70.51711994899946 0.0 87.17956571099168
    vertex 70.51711994900019 9.999999999999531 87.17956571099168
  endloop
endfacet
facet normal 9.299214673348914e-14 1.0 -2.7624666914740717e-14
  outer loop
    vertex 70.51711994900019 9.999999999999531 87.17956571099168
    vertex 41.993680775293264 9.999999999999169 -32.10669954875435
    vertex 34.15292529917322 9.999999999999169 -32.10669954875435
  endloop
endfacet
facet normal 9.299214673348914e-14 1.0 -2.7624666914740717e-14
  outer loop
    vertex 41.993680775293264 9.999999999999169 -32.10669954875435
    vertex 70.51711994900019 9.999999999999531 87.17956571099168
    vertex 78.35787542512313 9.999999999998447 87.17956571099168
  endloop
endfacet
facet normal 1.2378235262620008e-14 1.0 2.6354997955182966e-15
  outer loop
    vertex 36.161689288530965 120.99999999999991 -51.23750913168467
    vertex 80.85787542512327 120.99999999999919 -57.10669954875435
    vertex 44.55877139693179 120.99999999999991 -57.10669954875435
  endloop
endfacet
facet normal 1.2378235262620008e-14 1.0 2.6354997955182966e-15
  outer loop
    vertex 80.85787542512327 120.99999999999919 -57.10669954875435
    vertex 36.161689288530965 120.99999999999991 -51.23750913168467
    vertex 80.85787542512327 120.99999999999847 87.17956571099164
  endloop
endfacet
facet normal 1.2378235262620008e-14 1.0 2.6354997955182966e-15
  outer loop
    vertex 80.85787542512327 120.99999999999847 87.17956571099164
    vertex 36.161689288530965 120.99999999999991 -51.23750913168467
    vertex 78.3578754251224 120.99999999999847 87.1795657109916
  endloop
endfacet
facet normal -0.5728878766395521 3.0857392162770695e-17 -0.8196337479627261
  outer loop
    vertex 44.55877139693179 120.99999999999991 -57.10669954875435
    vertex 36.161689288530965 115.9999999999996 -51.23750913168467
    vertex 36.161689288530965 120.99999999999991 -51.23750913168467
  endloop
endfacet
facet normal -0.5728878766395521 3.0857392162770695e-17 -0.8196337479627261
  outer loop
    vertex 36.161689288530965 115.9999999999996 -51.23750913168467
    vertex 44.55877139693179 120.99999999999991 -57.10669954875435
    vertex 44.55877139693179 115.9999999999996 -57.10669954875435
  endloop
endfacet
facet normal -0.29842402061956363 4.5719853253305936e-17 0.9544333941754418
  outer loop
    vertex 13.00697485745038 3.6095570976613087e-13 70.13580261337982
    vertex 18.639839471609076 99.62230519310909 71.89703824912051
    vertex 13.00697485745038 120.99999999999919 70.13580261337982
  endloop
endfacet
facet normal -0.29842402061956363 4.5719853253305936e-17 0.9544333941754418
  outer loop
    vertex 18.639839471609076 99.62230519310909 71.89703824912051
    vertex 13.00697485745038 3.6095570976613087e-13 70.13580261337982
    vertex 67.51711994899942 0.0 87.17956571099168
  endloop
endfacet
facet normal -0.29842402061956363 4.5719853253305936e-17 0.9544333941754418
  outer loop
    vertex 13.00697485745038 120.99999999999919 70.13580261337982
    vertex 18.639839471609076 99.62230519310909 71.89703824912051
    vertex 17.56566048173836 116.50122646915062 71.56117320607164
  endloop
endfacet
facet normal -0.29842402061956363 4.5719853253305936e-17 0.9544333941754418
  outer loop
    vertex 18.639839471609076 99.62230519310909 71.89703824912051
    vertex 67.51711994899942 0.0 87.17956571099168
    vertex 30.026356833712608 89.45169647193268 75.45727651487105
  endloop
endfacet
facet normal -0.29842402061956363 4.5719853253305936e-17 0.9544333941754418
  outer loop
    vertex 30.026356833712608 89.45169647193268 75.45727651487105
    vertex 67.51711994899942 0.0 87.17956571099168
    vertex 43.635754173162105 91.36608214245716 79.71254576365546
  endloop
endfacet
facet normal -0.29842402061956363 4.5719853253305936e-17 0.9544333941754418
  outer loop
    vertex 43.635754173162105 91.36608214245716 79.71254576365546
    vertex 67.51711994899942 0.0 87.17956571099168
    vertex 58.24936340556119 111.13010339338956 84.28180334570332
  endloop
endfacet
facet normal -0.29842402061956363 4.5719853253305936e-17 0.9544333941754418
  outer loop
    vertex 58.24936340556119 111.13010339338956 84.28180334570332
    vertex 67.51711994899942 0.0 87.17956571099168
    vertex 59.033832125854026 120.99999999999847 84.52708427466979
  endloop
endfacet
facet normal -0.29842402061956363 4.5719853253305936e-17 0.9544333941754418
  outer loop
    vertex 59.033832125854026 120.99999999999847 84.52708427466979
    vertex 67.51711994899942 0.0 87.17956571099168
    vertex 67.51711994899942 120.99999999999847 87.1795657109916
  endloop
endfacet
facet normal -0.29842402061956363 4.5719853253305936e-17 0.9544333941754418
  outer loop
    vertex 18.8716778145877 120.99999999999919 71.96952746719256
    vertex 13.00697485745038 120.99999999999919 70.13580261337982
    vertex 17.56566048173836 116.50122646915062 71.56117320607164
  endloop
endfacet
facet normal -0.0 -0.0 -1.0
  outer loop
    vertex 80.85787542512327 60.49999999999996 13.39330045124566
    vertex 59.857875425123 49.50000000000029 13.39330045124566
    vertex 59.857875425123 60.49999999999996 13.39330045124566
  endloop
endfacet
facet normal -0.0 -0.0 -1.0
  outer loop
    vertex 59.857875425123 49.50000000000029 13.39330045124566
    vertex 80.85787542512327 60.49999999999996 13.39330045124566
    vertex 80.85787542512327 49.50000000000029 13.39330045124566
  endloop
endfacet
facet normal 0.0 0.0 -1.0
  outer loop
    vertex 28.32093381241164 120.99999999999991 -62.106699548754335
    vertex 13.00697485745038 0.0 -62.106699548754335
    vertex 13.00697485745038 120.99999999999991 -62.106699548754335
  endloop
endfacet
facet normal 0.0 0.0 -1.0
  outer loop
    vertex 13.00697485745038 0.0 -62.106699548754335
    vertex 28.32093381241164 120.99999999999991 -62.106699548754335
    vertex 28.32093381241164 115.9999999999996 -62.106699548754335
  endloop
endfacet
facet normal 0.0 0.0 -1.0
  outer loop
    vertex 13.00697485745038 0.0 -62.106699548754335
    vertex 28.32093381241164 115.9999999999996 -62.106699548754335
    vertex 80.85787542512327 0.0 -62.106699548754335
  endloop
endfacet
facet normal 0.0 0.0 -1.0
  outer loop
    vertex 80.85787542512327 0.0 -62.106699548754335
    vertex 28.32093381241164 115.9999999999996 -62.106699548754335
    vertex 44.55877139693179 115.9999999999996 -62.106699548754335
  endloop
endfacet
facet normal 0.0 0.0 -1.0
  outer loop
    vertex 80.85787542512327 0.0 -62.106699548754335
    vertex 44.55877139693179 115.9999999999996 -62.106699548754335
    vertex 80.85787542512327 115.9999999999996 -62.106699548754335
  endloop
endfacet
facet normal 1.0 0.0 0.0
  outer loop
    vertex 28.32093381241164 120.99999999999991 -62.106699548754335
    vertex 28.32093381241164 115.9999999999996 -51.23750913168469
    vertex 28.32093381241164 115.9999999999996 -62.106699548754335
  endloop
endfacet
facet normal 1.0 0.0 0.0
  outer loop
    vertex 28.32093381241164 115.9999999999996 -51.23750913168469
    vertex 28.32093381241164 120.99999999999991 -62.106699548754335
    vertex 28.32093381241164 120.99999999999991 -51.23750913168469
  endloop
endfacet
facet normal -0.9565404791465094 -3.726642606132012e-15 0.2915995743381091
  outer loop
    vertex 78.3578754251224 120.99999999999847 87.1795657109916
    vertex 41.993680775293264 9.999999999999169 -32.10669954875435
    vertex 78.35787542512313 9.999999999998447 87.17956571099168
  endloop
endfacet
facet normal -0.9565404791465094 -3.726642606132012e-15 0.2915995743381091
  outer loop
    vertex 41.993680775293264 9.999999999999169 -32.10669954875435
    vertex 78.3578754251224 120.99999999999847 87.1795657109916
    vertex 41.993680775293264 115.9999999999996 -32.10669954875435
  endloop
endfacet
facet normal -0.9565404791465094 -3.726642606132012e-15 0.2915995743381091
  outer loop
    vertex 41.993680775293264 115.9999999999996 -32.10669954875435
    vertex 78.3578754251224 120.99999999999847 87.1795657109916
    vertex 36.161689288530965 115.9999999999996 -51.23750913168467
  endloop
endfacet
facet normal -0.9565404791465094 -3.726642606132012e-15 0.2915995743381091
  outer loop
    vertex 36.161689288530965 115.9999999999996 -51.23750913168467
    vertex 78.3578754251224 120.99999999999847 87.1795657109916
    vertex 36.161689288530965 120.99999999999991 -51.23750913168467
  endloop
endfacet
facet normal -1.0 0.0 0.0
  outer loop
    vertex 13.00697485745038 3.6095570976613087e-13 70.13580261337982
    vertex 13.00697485745038 120.99999999999991 -62.106699548754335
    vertex 13.00697485745038 0.0 -62.106699548754335
  endloop
endfacet
facet normal -1.0 0.0 0.0
  outer loop
    vertex 13.00697485745038 120.99999999999991 -62.106699548754335
    vertex 13.00697485745038 3.6095570976613087e-13 70.13580261337982
    vertex 13.00697485745038 120.99999999999919 70.13580261337982
  endloop
endfacet
facet normal 0.9566573839834978 0.06652346624597495 0.28351592214278065
  outer loop
    vertex 20.427370429205045 116.50122646915062 61.90501022456454
    vertex 18.639839471609076 99.62230519310909 71.89703824912051
    vertex 21.50632253143088 99.62230519310909 62.22476952954859
  endloop
endfacet
facet normal 0.9566573839834978 0.06652346624597495 0.28351592214278065
  outer loop
    vertex 18.639839471609076 99.62230519310909 71.89703824912051
    vertex 20.427370429205045 116.50122646915062 61.90501022456454
    vertex 17.56566048173836 116.50122646915062 71.56117320607164
  endloop
endfacet
facet normal 9.943928904851115e-15 1.0 7.219114195322618e-14
  outer loop
    vertex 44.55877139693179 115.9999999999996 -57.10669954875435
    vertex 80.85787542512327 115.9999999999996 -62.106699548754335
    vertex 44.55877139693179 115.9999999999996 -62.106699548754335
  endloop
endfacet
facet normal 9.943928904851115e-15 1.0 7.219114195322618e-14
  outer loop
    vertex 80.85787542512327 115.9999999999996 -62.106699548754335
    vertex 44.55877139693179 115.9999999999996 -57.10669954875435
    vertex 80.85787542512327 115.99999999999889 -57.10669954875435
  endloop
endfacet
facet normal -3.269866896168728e-15 -1.0 7.898946234549731e-16
  outer loop
    vertex 80.85787542512327 0.0 87.17956571099164
    vertex 13.00697485745038 0.0 -62.106699548754335
    vertex 80.85787542512327 0.0 -62.106699548754335
  endloop
endfacet
facet normal -3.269866896168728e-15 -1.0 7.898946234549731e-16
  outer loop
    vertex 13.00697485745038 0.0 -62.106699548754335
    vertex 80.85787542512327 0.0 87.17956571099164
    vertex 13.00697485745038 3.6095570976613087e-13 70.13580261337982
  endloop
endfacet
facet normal -3.269866896168728e-15 -1.0 7.898946234549731e-16
  outer loop
    vertex 13.00697485745038 3.6095570976613087e-13 70.13580261337982
    vertex 80.85787542512327 0.0 87.17956571099164
    vertex 67.51711994899942 0.0 87.17956571099168
  endloop
endfacet
facet normal -3.269866896168728e-15 -1.0 7.898946234549731e-16
  outer loop
    vertex 67.51711994899942 0.0 87.17956571099168
    vertex 80.85787542512327 0.0 87.17956571099164
    vertex 70.51711994899946 0.0 87.17956571099168
  endloop
endfacet
facet normal -0.12759216666612835 0.9911056403502323 -0.03781333986041508
  outer loop
    vertex 30.026356833712608 89.45169647193268 75.45727651487105
    vertex 46.61330653374256 91.36608214245716 69.66549997371186
    vertex 32.94343586237906 89.45169647193268 65.61428367219102
  endloop
endfacet
facet normal -0.12759216666612835 0.9911056403502323 -0.03781333986041508
  outer loop
    vertex 46.61330653374256 91.36608214245716 69.66549997371186
    vertex 30.026356833712608 89.45169647193268 75.45727651487105
    vertex 43.635754173162105 91.36608214245716 79.71254576365546
  endloop
endfacet
facet normal 0.9172963109782212 -0.29097182148439055 0.2718508358784329
  outer loop
    vertex 21.739191047658462 120.99999999999919 62.293782671789074
    vertex 17.56566048173836 116.50122646915062 71.56117320607164
    vertex 20.427370429205045 116.50122646915062 61.90501022456454
  endloop
endfacet
facet normal 0.9172963109782212 -0.29097182148439055 0.2718508358784329
  outer loop
    vertex 17.56566048173836 116.50122646915062 71.56117320607164
    vertex 21.739191047658462 120.99999999999919 62.293782671789074
    vertex 18.8716778145877 120.99999999999919 71.96952746719256
  endloop
endfacet
facet normal 0.0 0.0 1.0
  outer loop
    vertex 80.85787542512327 49.50000000000029 2.393300451245657
    vertex 59.857875425123 60.49999999999996 2.393300451245657
    vertex 59.857875425123 49.50000000000029 2.393300451245657
  endloop
endfacet
facet normal 0.0 0.0 1.0
  outer loop
    vertex 59.857875425123 60.49999999999996 2.393300451245657
    vertex 80.85787542512327 49.50000000000029 2.393300451245657
    vertex 80.85787542512327 60.49999999999996 2.393300451245657
  endloop
endfacet
facet normal -0.9552893307267066 0.08351803311865186 -0.2836318612986077
  outer loop
    vertex 59.033832125854026 120.99999999999847 84.52708427466979
    vertex 61.291851311745 111.13010339338956 74.01564792440307
    vertex 58.24936340556119 111.13010339338956 84.28180334570332
  endloop
endfacet
facet normal -0.9552893307267066 0.08351803311865186 -0.2836318612986077
  outer loop
    vertex 61.291851311745 111.13010339338956 74.01564792440307
    vertex 59.033832125854026 120.99999999999847 84.52708427466979
    vertex 62.090107158408834 120.99999999999919 74.25221981133122
  endloop
endfacet
facet normal -0.7579748945791844 0.6123834929097463 -0.22463418439617136
  outer loop
    vertex 58.24936340556119 111.13010339338956 84.28180334570332
    vertex 46.61330653374256 91.36608214245716 69.66549997371186
    vertex 43.635754173162105 91.36608214245716 79.71254576365546
  endloop
endfacet
facet normal -0.7579748945791844 0.6123834929097463 -0.22463418439617136
  outer loop
    vertex 46.61330653374256 91.36608214245716 69.66549997371186
    vertex 58.24936340556119 111.13010339338956 84.28180334570332
    vertex 61.291851311745 111.13010339338956 74.01564792440307
  endloop
endfacet
facet normal 0.0 0.0 -1.0
  outer loop
    vertex 80.85787542512327 120.99999999999919 -57.10669954875435
    vertex 44.55877139693179 115.9999999999996 -57.10669954875435
    vertex 44.55877139693179 120.99999999999991 -57.10669954875435
  endloop
endfacet
facet normal 0.0 0.0 -1.0
  outer loop
    vertex 44.55877139693179 115.9999999999996 -57.10669954875435
    vertex 80.85787542512327 120.99999999999919 -57.10669954875435
    vertex 80.85787542512327 115.99999999999889 -57.10669954875435
  endloop
endfacet
facet normal 2.462591738626239e-15 3.7674787722802644e-16 1.0
  outer loop
    vertex 80.85787542512327 0.0 87.17956571099164
    vertex 70.51711994900019 9.999999999999531 87.17956571099168
    vertex 70.51711994899946 0.0 87.17956571099168
  endloop
endfacet
facet normal 2.462591738626239e-15 3.7674787722802644e-16 1.0
  outer loop
    vertex 70.51711994900019 9.999999999999531 87.17956571099168
    vertex 80.85787542512327 0.0 87.17956571099164
    vertex 78.35787542512313 9.999999999998447 87.17956571099168
  endloop
endfacet
facet normal 2.462591738626239e-15 3.7674787722802644e-16 1.0
  outer loop
    vertex 78.35787542512313 9.999999999998447 87.17956571099168
    vertex 80.85787542512327 120.99999999999847 87.17956571099164
    vertex 78.3578754251224 120.99999999999847 87.1795657109916
  endloop
endfacet
facet normal 2.462591738626239e-15 3.7674787722802644e-16 1.0
  outer loop
    vertex 80.85787542512327 120.99999999999847 87.17956571099164
    vertex 78.35787542512313 9.999999999998447 87.17956571099168
    vertex 80.85787542512327 0.0 87.17956571099164
  endloop
endfacet
facet normal 0.0 1.0 0.0
  outer loop
    vertex 59.857875425123 49.50000000000029 13.39330045124566
    vertex 80.85787542512327 49.50000000000029 2.393300451245657
    vertex 59.857875425123 49.50000000000029 2.393300451245657
  endloop
endfacet
facet normal 0.0 1.0 0.0
  outer loop
    vertex 80.85787542512327 49.50000000000029 2.393300451245657
    vertex 59.857875425123 49.50000000000029 13.39330045124566
    vertex 80.85787542512327 49.50000000000029 13.39330045124566
  endloop
endfacet
facet normal 1.0 0.0 0.0
  outer loop
    vertex 59.857875425123 60.49999999999996 2.393300451245657
    vertex 59.857875425123 49.50000000000029 13.39330045124566
    vertex 59.857875425123 49.50000000000029 2.393300451245657
  endloop
endfacet
facet normal 1.0 0.0 0.0
  outer loop
    vertex 59.857875425123 49.50000000000029 13.39330045124566
    vertex 59.857875425123 60.49999999999996 2.393300451245657
    vertex 59.857875425123 60.49999999999996 13.39330045124566
  endloop
endfacet
facet normal 2.803450670787936e-14 1.0 -1.0293210762359611e-14
  outer loop
    vertex 28.32093381241164 115.9999999999996 -51.23750913168469
    vertex 44.55877139693179 115.9999999999996 -62.106699548754335
    vertex 28.32093381241164 115.9999999999996 -62.106699548754335
  endloop
endfacet
facet normal 2.803450670787936e-14 1.0 -1.0293210762359611e-14
  outer loop
    vertex 44.55877139693179 115.9999999999996 -62.106699548754335
    vertex 28.32093381241164 115.9999999999996 -51.23750913168469
    vertex 44.55877139693179 115.9999999999996 -57.10669954875435
  endloop
endfacet
facet normal 2.803450670787936e-14 1.0 -1.0293210762359611e-14
  outer loop
    vertex 44.55877139693179 115.9999999999996 -57.10669954875435
    vertex 28.32093381241164 115.9999999999996 -51.23750913168469
    vertex 36.161689288530965 115.9999999999996 -51.23750913168467
  endloop
endfacet
facet normal 2.803450670787936e-14 1.0 -1.0293210762359611e-14
  outer loop
    vertex 36.161689288530965 115.9999999999996 -51.23750913168467
    vertex 28.32093381241164 115.9999999999996 -51.23750913168469
    vertex 34.15292529917322 115.9999999999996 -32.10669954875435
  endloop
endfacet
facet normal 2.803450670787936e-14 1.0 -1.0293210762359611e-14
  outer loop
    vertex 36.161689288530965 115.9999999999996 -51.23750913168467
    vertex 34.15292529917322 115.9999999999996 -32.10669954875435
    vertex 41.993680775293264 115.9999999999996 -32.10669954875435
  endloop
endfacet
facet normal 8.991373634646691e-17 -6.650864345631784e-18 1.0
  outer loop
    vertex 41.993680775293264 9.999999999999169 -32.10669954875435
    vertex 34.15292529917322 115.9999999999996 -32.10669954875435
    vertex 34.15292529917322 9.999999999999169 -32.10669954875435
  endloop
endfacet
facet normal 8.991373634646691e-17 -6.650864345631784e-18 1.0
  outer loop
    vertex 34.15292529917322 115.9999999999996 -32.10669954875435
    vertex 41.993680775293264 9.999999999999169 -32.10669954875435
    vertex 41.993680775293264 115.9999999999996 -32.10669954875435
  endloop
endfacet
facet normal 1.0 0.0 0.0
  outer loop
    vertex 80.85787542512327 0.0 -62.106699548754335
    vertex 80.85787542512327 49.50000000000029 2.393300451245657
    vertex 80.85787542512327 0.0 87.17956571099164
  endloop
endfacet
facet normal 1.0 0.0 0.0
  outer loop
    vertex 80.85787542512327 49.50000000000029 2.393300451245657
    vertex 80.85787542512327 0.0 -62.106699548754335
    vertex 80.85787542512327 115.9999999999996 -62.106699548754335
  endloop
endfacet
facet normal 1.0 0.0 0.0
  outer loop
    vertex 80.85787542512327 49.50000000000029 2.393300451245657
    vertex 80.85787542512327 115.9999999999996 -62.106699548754335
    vertex 80.85787542512327 60.49999999999996 2.393300451245657
  endloop
endfacet
facet normal 1.0 0.0 0.0
  outer loop
    vertex 80.85787542512327 60.49999999999996 2.393300451245657
    vertex 80.85787542512327 115.9999999999996 -62.106699548754335
    vertex 80.85787542512327 60.49999999999996 13.39330045124566
  endloop
endfacet
facet normal 1.0 0.0 0.0
  outer loop
    vertex 80.85787542512327 60.49999999999996 13.39330045124566
    vertex 80.85787542512327 115.9999999999996 -62.106699548754335
    vertex 80.85787542512327 115.99999999999889 -57.10669954875435
  endloop
endfacet
facet normal 1.0 0.0 0.0
  outer loop
    vertex 80.85787542512327 0.0 87.17956571099164
    vertex 80.85787542512327 49.50000000000029 13.39330045124566
    vertex 80.85787542512327 120.99999999999847 87.17956571099164
  endloop
endfacet
facet normal 1.0 0.0 0.0
  outer loop
    vertex 80.85787542512327 49.50000000000029 13.39330045124566
    vertex 80.85787542512327 0.0 87.17956571099164
    vertex 80.85787542512327 49.50000000000029 2.393300451245657
  endloop
endfacet
facet normal 1.0 0.0 0.0
  outer loop
    vertex 80.85787542512327 120.99999999999847 87.17956571099164
    vertex 80.85787542512327 49.50000000000029 13.39330045124566
    vertex 80.85787542512327 60.49999999999996 13.39330045124566
  endloop
endfacet
facet normal 1.0 0.0 0.0
  outer loop
    vertex 80.85787542512327 120.99999999999847 87.17956571099164
    vertex 80.85787542512327 60.49999999999996 13.39330045124566
    vertex 80.85787542512327 115.99999999999889 -57.10669954875435
  endloop
endfacet
facet normal 1.0 0.0 0.0
  outer loop
    vertex 80.85787542512327 120.99999999999847 87.17956571099164
    vertex 80.85787542512327 115.99999999999889 -57.10669954875435
    vertex 80.85787542512327 120.99999999999919 -57.10669954875435
  endloop
endfacet
facet normal -0.2841453436323962 3.224868524251506e-15 0.9587812178448365
  outer loop
    vertex 21.50632253143088 99.62230519310909 62.22476952954859
    vertex 21.739191047658462 120.99999999999919 62.293782671789074
    vertex 20.427370429205045 116.50122646915062 61.90501022456454
  endloop
endfacet
facet normal -0.2841453436323962 3.224868524251506e-15 0.9587812178448365
  outer loop
    vertex 21.739191047658462 120.99999999999919 62.293782671789074
    vertex 21.50632253143088 99.62230519310909 62.22476952954859
    vertex 32.94343586237906 89.45169647193268 65.61428367219102
  endloop
endfacet
facet normal -0.2841453436323962 3.224868524251506e-15 0.9587812178448365
  outer loop
    vertex 21.739191047658462 120.99999999999919 62.293782671789074
    vertex 32.94343586237906 89.45169647193268 65.61428367219102
    vertex 62.090107158408834 120.99999999999919 74.25221981133122
  endloop
endfacet
facet normal -0.2841453436323962 3.224868524251506e-15 0.9587812178448365
  outer loop
    vertex 62.090107158408834 120.99999999999919 74.25221981133122
    vertex 32.94343586237906 89.45169647193268 65.61428367219102
    vertex 46.61330653374256 91.36608214245716 69.66549997371186
  endloop
endfacet
facet normal -0.2841453436323962 3.224868524251506e-15 0.9587812178448365
  outer loop
    vertex 62.090107158408834 120.99999999999919 74.25221981133122
    vertex 46.61330653374256 91.36608214245716 69.66549997371186
    vertex 61.291851311745 111.13010339338956 74.01564792440307
  endloop
endfacet
facet normal 0.9565404791465159 1.864951377203673e-15 -0.2915995743380877
  outer loop
    vertex 28.32093381241164 120.99999999999991 -51.23750913168469
    vertex 34.15292529917322 115.9999999999996 -32.10669954875435
    vertex 28.32093381241164 115.9999999999996 -51.23750913168469
  endloop
endfacet
facet normal 0.9565404791465159 1.864951377203673e-15 -0.2915995743380877
  outer loop
    vertex 34.15292529917322 115.9999999999996 -32.10669954875435
    vertex 28.32093381241164 120.99999999999991 -51.23750913168469
    vertex 70.51711994899946 120.99999999999847 87.1795657109916
  endloop
endfacet
facet normal 0.9565404791465159 1.864951377203673e-15 -0.2915995743380877
  outer loop
    vertex 34.15292529917322 115.9999999999996 -32.10669954875435
    vertex 70.51711994900019 9.999999999999531 87.17956571099168
    vertex 34.15292529917322 9.999999999999169 -32.10669954875435
  endloop
endfacet
facet normal 0.9565404791465159 1.864951377203673e-15 -0.2915995743380877
  outer loop
    vertex 70.51711994900019 9.999999999999531 87.17956571099168
    vertex 34.15292529917322 115.9999999999996 -32.10669954875435
    vertex 70.51711994899946 120.99999999999847 87.1795657109916
  endloop
endfacet
facet normal 9.29913248295361e-15 1.0 6.230897799340844e-15
  outer loop
    vertex 13.00697485745038 120.99999999999919 70.13580261337982
    vertex 28.32093381241164 120.99999999999991 -62.106699548754335
    vertex 13.00697485745038 120.99999999999991 -62.106699548754335
  endloop
endfacet
facet normal 9.29913248295361e-15 1.0 6.230897799340844e-15
  outer loop
    vertex 28.32093381241164 120.99999999999991 -62.106699548754335
    vertex 13.00697485745038 120.99999999999919 70.13580261337982
    vertex 28.32093381241164 120.99999999999991 -51.23750913168469
  endloop
endfacet
facet normal 9.29913248295361e-15 1.0 6.230897799340844e-15
  outer loop
    vertex 28.32093381241164 120.99999999999991 -51.23750913168469
    vertex 13.00697485745038 120.99999999999919 70.13580261337982
    vertex 21.739191047658462 120.99999999999919 62.293782671789074
  endloop
endfacet
facet normal 9.29913248295361e-15 1.0 6.230897799340844e-15
  outer loop
    vertex 21.739191047658462 120.99999999999919 62.293782671789074
    vertex 13.00697485745038 120.99999999999919 70.13580261337982
    vertex 18.8716778145877 120.99999999999919 71.96952746719256
  endloop
endfacet
facet normal 9.29913248295361e-15 1.0 6.230897799340844e-15
  outer loop
    vertex 28.32093381241164 120.99999999999991 -51.23750913168469
    vertex 62.090107158408834 120.99999999999919 74.25221981133122
    vertex 70.51711994899946 120.99999999999847 87.1795657109916
  endloop
endfacet
facet normal 9.29913248295361e-15 1.0 6.230897799340844e-15
  outer loop
    vertex 62.090107158408834 120.99999999999919 74.25221981133122
    vertex 28.32093381241164 120.99999999999991 -51.23750913168469
    vertex 21.739191047658462 120.99999999999919 62.293782671789074
  endloop
endfacet
facet normal 9.29913248295361e-15 1.0 6.230897799340844e-15
  outer loop
    vertex 70.51711994899946 120.99999999999847 87.1795657109916
    vertex 62.090107158408834 120.99999999999919 74.25221981133122
    vertex 59.033832125854026 120.99999999999847 84.52708427466979
  endloop
endfacet
facet normal 9.29913248295361e-15 1.0 6.230897799340844e-15
  outer loop
    vertex 70.51711994899946 120.99999999999847 87.1795657109916
    vertex 59.033832125854026 120.99999999999847 84.52708427466979
    vertex 67.51711994899942 120.99999999999847 87.1795657109916
  endloop
endfacet
endsolid SlotmachinePrototypeBottomRightFront
