solid SlotmachinePrototypeTopFrontLeft
facet normal -1.0 0.0 0.0
  outer loop
    vertex 4021.712514277018 4134.823714506806 21.000000000000007
    vertex 4021.712514277018 4123.823714506807 5.639932965095795e-15
    vertex 4021.712514277018 4123.823714506807 21.000000000000007
  endloop
endfacet
facet normal -1.0 0.0 0.0
  outer loop
    vertex 4021.712514277018 4123.823714506807 5.639932965095795e-15
    vertex 4021.712514277018 4134.823714506806 21.000000000000007
    vertex 4021.712514277018 4134.823714506806 5.639932965095795e-15
  endloop
endfacet
facet normal 0.0 1.0 0.0
  outer loop
    vertex 4010.7125142770183 4123.823714506807 21.000000000000007
    vertex 4021.712514277018 4123.823714506807 5.639932965095795e-15
    vertex 4010.7125142770183 4123.823714506807 5.639932965095795e-15
  endloop
endfacet
facet normal 0.0 1.0 0.0
  outer loop
    vertex 4021.712514277018 4123.823714506807 5.639932965095795e-15
    vertex 4010.7125142770183 4123.823714506807 21.000000000000007
    vertex 4021.712514277018 4123.823714506807 21.000000000000007
  endloop
endfacet
facet normal 0.11901229104081795 -0.9129211277194257 0.39039862851284207
  outer loop
    vertex 4029.91138931116 4181.240481311035 163.74096145475616
    vertex 4024.033158276836 4181.0273915462485 165.03463299302678
    vertex 4029.772401151715 4181.0273915462485 163.28503554699864
  endloop
endfacet
facet normal 0.11901229104081795 -0.9129211277194257 0.39039862851284207
  outer loop
    vertex 4024.033158276836 4181.0273915462485 165.03463299302678
    vertex 4029.91138931116 4181.240481311035 163.74096145475616
    vertex 4024.172146436281 4181.240481311035 165.49055890078427
  endloop
endfacet
facet normal 0.2723914644414512 -0.35693696947010534 0.8935316949750238
  outer loop
    vertex 4029.5105902160617 4179.787624690581 162.42621139266492
    vertex 4023.825689398693 4180.275337619894 164.3540682817889
    vertex 4023.7713473411827 4179.787624690581 164.17580883869306
  endloop
endfacet
facet normal 0.2723914644414512 -0.35693696947010534 0.8935316949750238
  outer loop
    vertex 4023.825689398693 4180.275337619894 164.3540682817889
    vertex 4029.5105902160617 4179.787624690581 162.42621139266492
    vertex 4029.564932273572 4180.275337619894 162.6044708357608
  endloop
endfacet
facet normal 0.18385659379886063 -0.7761807184751713 0.6031088170339145
  outer loop
    vertex 4029.772401151715 4181.0273915462485 163.28503554699864
    vertex 4023.9149882332445 4180.698199006683 164.64699720729524
    vertex 4029.6542311081234 4180.698199006683 162.8973997612671
  endloop
endfacet
facet normal 0.18385659379886063 -0.7761807184751713 0.6031088170339145
  outer loop
    vertex 4023.9149882332445 4180.698199006683 164.64699720729524
    vertex 4029.772401151715 4181.0273915462485 163.28503554699864
    vertex 4024.033158276836 4181.0273915462485 165.03463299302678
  endloop
endfacet
facet normal 0.2900485272021319 -0.10300439837121353 0.9514525452086713
  outer loop
    vertex 4029.494908257008 4179.2682970488895 162.3747695184389
    vertex 4023.7713473411827 4179.787624690581 164.17580883869306
    vertex 4023.755665382129 4179.2682970488895 164.12436696446704
  endloop
endfacet
facet normal 0.2900485272021319 -0.10300439837121353 0.9514525452086713
  outer loop
    vertex 4023.7713473411827 4179.787624690581 164.17580883869306
    vertex 4029.494908257008 4179.2682970488895 162.3747695184389
    vertex 4029.5105902160617 4179.787624690581 162.42621139266492
  endloop
endfacet
facet normal -0.030036038719717877 -0.9946809005486943 -0.09852787657138656
  outer loop
    vertex 4030.213159492341 4181.269167498116 164.73086479859586
    vertex 4024.3224808982036 4181.32294658572 165.98370433340733
    vertex 4030.0617237730826 4181.32294658572 164.23410688737923
  endloop
endfacet
facet normal -0.030036038719717877 -0.9946809005486943 -0.09852787657138656
  outer loop
    vertex 4024.3224808982036 4181.32294658572 165.98370433340733
    vertex 4030.213159492341 4181.269167498116 164.73086479859586
    vertex 4024.4739166174622 4181.269167498116 166.48046224462396
  endloop
endfacet
facet normal -0.046057497324499264 0.987447470784335 -0.1510834186197265
  outer loop
    vertex 4024.3548003124824 4177.324482427894 166.0897224169054
    vertex 4030.2443776492846 4177.406947702579 164.83327040350034
    vertex 4030.0940431873614 4177.324482427894 164.3401249708773
  endloop
endfacet
facet normal -0.046057497324499264 0.987447470784335 -0.1510834186197265
  outer loop
    vertex 4030.2443776492846 4177.406947702579 164.83327040350034
    vertex 4024.3548003124824 4177.324482427894 166.0897224169054
    vertex 4024.5051347744056 4177.406947702579 166.58286784952844
  endloop
endfacet
facet normal 1.0 0.0 0.0
  outer loop
    vertex 4010.7125142770183 4134.823714506806 5.639932965095795e-15
    vertex 4010.7125142770183 4123.823714506807 21.000000000000007
    vertex 4010.7125142770183 4123.823714506807 5.639932965095795e-15
  endloop
endfacet
facet normal 1.0 0.0 0.0
  outer loop
    vertex 4010.7125142770183 4123.823714506807 21.000000000000007
    vertex 4010.7125142770183 4134.823714506806 5.639932965095795e-15
    vertex 4010.7125142770183 4134.823714506806 21.000000000000007
  endloop
endfacet
facet normal -0.22633396711658077 -0.6305105013147096 -0.7424482763540798
  outer loop
    vertex 4030.47868257532 4180.776571127261 165.60186599121948
    vertex 4024.8354321048537 4180.371323472633 167.6663494267748
    vertex 4024.739439700441 4180.776571127261 167.3514634372476
  endloop
endfacet
facet normal -0.22633396711658077 -0.6305105013147096 -0.7424482763540798
  outer loop
    vertex 4024.8354321048537 4180.371323472633 167.6663494267748
    vertex 4030.47868257532 4180.776571127261 165.60186599121948
    vertex 4030.5746749797327 4180.371323472633 165.91675198074668
  endloop
endfacet
facet normal 0.046057497324499264 -0.987447470784335 0.1510834186197265
  outer loop
    vertex 4030.0617237730826 4181.32294658572 164.23410688737923
    vertex 4024.172146436281 4181.240481311035 165.49055890078427
    vertex 4029.91138931116 4181.240481311035 163.74096145475616
  endloop
endfacet
facet normal 0.046057497324499264 -0.987447470784335 0.1510834186197265
  outer loop
    vertex 4024.172146436281 4181.240481311035 165.49055890078427
    vertex 4030.0617237730826 4181.32294658572 164.23410688737923
    vertex 4024.3224808982036 4181.32294658572 165.98370433340733
  endloop
endfacet
facet normal 0.038061382091373816 -0.9914448613737784 0.12485358644758164
  outer loop
    vertex 4032.4106800749273 4181.323714506807 171.9394397622996
    vertex 4026.520494153283 4181.255566159385 173.19389542149906
    vertex 4032.259737028162 4181.255566159385 171.44429797547036
  endloop
endfacet
facet normal 0.038061382091373816 -0.9914448613737784 0.12485358644758164
  outer loop
    vertex 4026.520494153283 4181.255566159385 173.19389542149906
    vertex 4032.4106800749273 4181.323714506807 171.9394397622996
    vertex 4026.6714372000483 4181.323714506807 173.6890372083283
  endloop
endfacet
facet normal -0.9565404791465075 4.1175768261043634e-14 0.2915995743381149
  outer loop
    vertex 4032.5616231216927 4177.391862854229 172.43458154912886
    vertex 4032.259737028162 4177.391862854229 171.44429797547036
    vertex 4032.4106800749273 4177.323714506807 171.9394397622996
  endloop
endfacet
facet normal -0.9565404791465075 4.1175768261043634e-14 0.2915995743381149
  outer loop
    vertex 4032.259737028162 4177.391862854229 171.44429797547036
    vertex 4032.5616231216927 4177.391862854229 172.43458154912886
    vertex 4032.7022796492656 4177.591663699238 172.89598024144618
  endloop
endfacet
facet normal -0.9565404791465075 4.1175768261043634e-14 0.2915995743381149
  outer loop
    vertex 4032.259737028162 4177.391862854229 171.44429797547036
    vertex 4032.7022796492656 4177.591663699238 172.89598024144618
    vertex 4032.1190805005895 4177.591663699238 170.98289928315305
  endloop
endfacet
facet normal -0.9565404791465075 4.1175768261043634e-14 0.2915995743381149
  outer loop
    vertex 4032.1190805005895 4177.591663699238 170.98289928315305
    vertex 4032.7022796492656 4177.591663699238 172.89598024144618
    vertex 4032.823064147738 4177.9095009444345 173.29219228086757
  endloop
endfacet
facet normal -0.9565404791465075 4.1175768261043634e-14 0.2915995743381149
  outer loop
    vertex 4032.1190805005895 4177.591663699238 170.98289928315305
    vertex 4032.823064147738 4177.9095009444345 173.29219228086757
    vertex 4031.998296002116 4177.9095009444345 170.58668724373166
  endloop
endfacet
facet normal -0.9565404791465075 4.1175768261043634e-14 0.2915995743381149
  outer loop
    vertex 4031.998296002116 4177.9095009444345 170.58668724373166
    vertex 4032.823064147738 4177.9095009444345 173.29219228086757
    vertex 4032.9157453531466 4178.323714506807 173.59621647167776
  endloop
endfacet
facet normal -0.9565404791465075 4.1175768261043634e-14 0.2915995743381149
  outer loop
    vertex 4031.998296002116 4177.9095009444345 170.58668724373166
    vertex 4032.9157453531466 4178.323714506807 173.59621647167776
    vertex 4031.905614796708 4178.323714506807 170.28266305292146
  endloop
endfacet
facet normal -0.9565404791465075 4.1175768261043634e-14 0.2915995743381149
  outer loop
    vertex 4031.905614796708 4178.323714506807 170.28266305292146
    vertex 4032.9157453531466 4178.323714506807 173.59621647167776
    vertex 4032.9740071945034 4178.806076416601 173.7873340676968
  endloop
endfacet
facet normal -0.9565404791465075 4.1175768261043634e-14 0.2915995743381149
  outer loop
    vertex 4031.905614796708 4178.323714506807 170.28266305292146
    vertex 4032.9740071945034 4178.806076416601 173.7873340676968
    vertex 4031.847352955351 4178.806076416601 170.09154545690242
  endloop
endfacet
facet normal -0.9565404791465075 4.1175768261043634e-14 0.2915995743381149
  outer loop
    vertex 4031.847352955351 4178.806076416601 170.09154545690242
    vertex 4032.9740071945034 4178.806076416601 173.7873340676968
    vertex 4032.9938792236035 4179.323714506807 173.85252072059276
  endloop
endfacet
facet normal -0.9565404791465075 4.1175768261043634e-14 0.2915995743381149
  outer loop
    vertex 4031.847352955351 4178.806076416601 170.09154545690242
    vertex 4032.9938792236035 4179.323714506807 173.85252072059276
    vertex 4031.827480926251 4179.323714506807 170.02635880400646
  endloop
endfacet
facet normal -0.9565404791465075 4.1175768261043634e-14 0.2915995743381149
  outer loop
    vertex 4031.827480926251 4179.323714506807 170.02635880400646
    vertex 4032.9938792236035 4179.323714506807 173.85252072059276
    vertex 4032.9740071945034 4179.841352597013 173.7873340676968
  endloop
endfacet
facet normal -0.9565404791465075 4.1175768261043634e-14 0.2915995743381149
  outer loop
    vertex 4031.827480926251 4179.323714506807 170.02635880400646
    vertex 4032.9740071945034 4179.841352597013 173.7873340676968
    vertex 4031.847352955351 4179.841352597012 170.09154545690242
  endloop
endfacet
facet normal -0.9565404791465075 4.1175768261043634e-14 0.2915995743381149
  outer loop
    vertex 4031.847352955351 4179.841352597012 170.09154545690242
    vertex 4032.9740071945034 4179.841352597013 173.7873340676968
    vertex 4031.905614796708 4180.323714506807 170.28266305292146
  endloop
endfacet
facet normal -0.9565404791465075 4.1175768261043634e-14 0.2915995743381149
  outer loop
    vertex 4031.905614796708 4180.323714506807 170.28266305292146
    vertex 4032.9740071945034 4179.841352597013 173.7873340676968
    vertex 4032.9157453531466 4180.323714506807 173.59621647167776
  endloop
endfacet
facet normal -0.9565404791465075 4.1175768261043634e-14 0.2915995743381149
  outer loop
    vertex 4031.905614796708 4180.323714506807 170.28266305292146
    vertex 4032.9157453531466 4180.323714506807 173.59621647167776
    vertex 4032.823064147739 4180.737928069179 173.29219228086757
  endloop
endfacet
facet normal -0.9565404791465075 4.1175768261043634e-14 0.2915995743381149
  outer loop
    vertex 4031.905614796708 4180.323714506807 170.28266305292146
    vertex 4032.823064147739 4180.737928069179 173.29219228086757
    vertex 4031.9982960021166 4180.737928069179 170.58668724373166
  endloop
endfacet
facet normal -0.9565404791465075 4.1175768261043634e-14 0.2915995743381149
  outer loop
    vertex 4031.9982960021166 4180.737928069179 170.58668724373166
    vertex 4032.823064147739 4180.737928069179 173.29219228086757
    vertex 4032.7022796492656 4181.055765314376 172.89598024144618
  endloop
endfacet
facet normal -0.9565404791465075 4.1175768261043634e-14 0.2915995743381149
  outer loop
    vertex 4031.9982960021166 4180.737928069179 170.58668724373166
    vertex 4032.7022796492656 4181.055765314376 172.89598024144618
    vertex 4032.1190805005895 4181.055765314376 170.98289928315302
  endloop
endfacet
facet normal -0.9565404791465075 4.1175768261043634e-14 0.2915995743381149
  outer loop
    vertex 4032.1190805005895 4181.055765314376 170.98289928315302
    vertex 4032.7022796492656 4181.055765314376 172.89598024144618
    vertex 4032.5616231216927 4181.255566159385 172.43458154912886
  endloop
endfacet
facet normal -0.9565404791465075 4.1175768261043634e-14 0.2915995743381149
  outer loop
    vertex 4032.1190805005895 4181.055765314376 170.98289928315302
    vertex 4032.5616231216927 4181.255566159385 172.43458154912886
    vertex 4032.259737028162 4181.255566159385 171.44429797547036
  endloop
endfacet
facet normal -0.9565404791465075 4.1175768261043634e-14 0.2915995743381149
  outer loop
    vertex 4032.259737028162 4181.255566159385 171.44429797547036
    vertex 4032.5616231216927 4181.255566159385 172.43458154912886
    vertex 4032.4106800749273 4181.323714506807 171.9394397622996
  endloop
endfacet
facet normal 0.0 -1.0 0.0
  outer loop
    vertex 4021.712514277018 4134.823714506806 21.000000000000007
    vertex 4010.7125142770183 4134.823714506806 5.639932965095795e-15
    vertex 4021.712514277018 4134.823714506806 5.639932965095795e-15
  endloop
endfacet
facet normal 0.0 -1.0 0.0
  outer loop
    vertex 4010.7125142770183 4134.823714506806 5.639932965095795e-15
    vertex 4021.712514277018 4134.823714506806 21.000000000000007
    vertex 4010.7125142770183 4134.823714506806 21.000000000000007
  endloop
endfacet
facet normal -7.63451145365388e-15 -8.573601800300044e-16 1.0
  outer loop
    vertex 4041.178287388353 4098.677658224437 179.15436423396457
    vertex 4036.1782873883526 4174.323714506807 179.15436423396457
    vertex 4036.1782873883526 4098.677658224437 179.15436423396443
  endloop
endfacet
facet normal -7.63451145365388e-15 -8.573601800300044e-16 1.0
  outer loop
    vertex 4036.1782873883526 4174.323714506807 179.15436423396457
    vertex 4041.178287388353 4098.677658224437 179.15436423396457
    vertex 4036.1782873883526 4184.323714506807 179.15436423396457
  endloop
endfacet
facet normal -7.63451145365388e-15 -8.573601800300044e-16 1.0
  outer loop
    vertex 4036.1782873883526 4184.323714506807 179.15436423396457
    vertex 4041.178287388353 4098.677658224437 179.15436423396457
    vertex 4041.178287388353 4184.323714506807 179.15436423396457
  endloop
endfacet
facet normal -0.18385659379886063 0.7761807184751713 -0.6031088170339145
  outer loop
    vertex 4024.6441229338507 4177.620037467365 167.03879375728596
    vertex 4030.5015358523206 4177.9492300069305 165.6768320969894
    vertex 4030.3833658087296 4177.620037467365 165.28919631125785
  endloop
endfacet
facet normal -0.18385659379886063 0.7761807184751713 -0.6031088170339145
  outer loop
    vertex 4030.5015358523206 4177.9492300069305 165.6768320969894
    vertex 4024.6441229338507 4177.620037467365 167.03879375728596
    vertex 4024.7622929774416 4177.9492300069305 167.4264295430175
  endloop
endfacet
facet normal 1.0 0.0 0.0
  outer loop
    vertex 4041.178287388353 4184.323714506807 5.639932965095795e-15
    vertex 4041.178287388353 4098.677658224437 179.15436423396457
    vertex 4041.178287388353 4098.677658224437 5.639932965095795e-15
  endloop
endfacet
facet normal 1.0 0.0 0.0
  outer loop
    vertex 4041.178287388353 4098.677658224437 179.15436423396457
    vertex 4041.178287388353 4184.323714506807 5.639932965095795e-15
    vertex 4041.178287388353 4184.323714506807 179.15436423396457
  endloop
endfacet
facet normal 0.0 0.0 -1.0
  outer loop
    vertex 4021.712514277018 4134.823714506806 21.000000000000007
    vertex 4010.7125142770183 4123.823714506807 21.000000000000007
    vertex 4010.7125142770183 4134.823714506806 21.000000000000007
  endloop
endfacet
facet normal 0.0 0.0 -1.0
  outer loop
    vertex 4010.7125142770183 4123.823714506807 21.000000000000007
    vertex 4021.712514277018 4134.823714506806 21.000000000000007
    vertex 4021.712514277018 4123.823714506807 21.000000000000007
  endloop
endfacet
facet normal -0.11159032598406907 -0.923879532511111 -0.36605219375632775
  outer loop
    vertex 4032.7022796492656 4181.055765314376 172.89598024144618
    vertex 4026.8223802468137 4181.255566159385 174.18417899515757
    vertex 4032.5616231216927 4181.255566159385 172.43458154912886
  endloop
endfacet
facet normal -0.11159032598406907 -0.923879532511111 -0.36605219375632775
  outer loop
    vertex 4026.8223802468137 4181.255566159385 174.18417899515757
    vertex 4032.7022796492656 4181.055765314376 172.89598024144618
    vertex 4026.9630367743866 4181.055765314376 174.64557768747488
  endloop
endfacet
facet normal 0.17751457357245665 -0.7933533402910183 0.5823049489901941
  outer loop
    vertex 4032.1190805005895 4181.055765314376 170.98289928315302
    vertex 4026.2590531272376 4180.737928069179 172.33628468976036
    vertex 4031.9982960021166 4180.737928069179 170.58668724373166
  endloop
endfacet
facet normal 0.17751457357245665 -0.7933533402910183 0.5823049489901941
  outer loop
    vertex 4026.2590531272376 4180.737928069179 172.33628468976036
    vertex 4032.1190805005895 4181.055765314376 170.98289928315302
    vertex 4026.3798376257105 4181.055765314376 172.73249672918172
  endloop
endfacet
facet normal -0.2900485272021319 0.10300439837121353 -0.9514525452086713
  outer loop
    vertex 4024.921615828557 4179.3791319647235 167.9490597858457
    vertex 4030.6451767443823 4178.859804323033 166.14802046559157
    vertex 4024.9059338695033 4178.859804323033 167.89761791161968
  endloop
endfacet
facet normal -0.2900485272021319 0.10300439837121353 -0.9514525452086713
  outer loop
    vertex 4030.6451767443823 4178.859804323033 166.14802046559157
    vertex 4024.921615828557 4179.3791319647235 167.9490597858457
    vertex 4030.660858703436 4179.3791319647235 166.1994623398176
  endloop
endfacet
facet normal -0.28793926216181454 -0.15794775225350893 -0.9445334768359319
  outer loop
    vertex 4030.6368118644405 4179.894682998239 166.12058096645697
    vertex 4024.921615828557 4179.3791319647235 167.9490597858457
    vertex 4024.8975689895615 4179.894682998239 167.87017841248507
  endloop
endfacet
facet normal -0.28793926216181454 -0.15794775225350893 -0.9445334768359319
  outer loop
    vertex 4024.921615828557 4179.3791319647235 167.9490597858457
    vertex 4030.6368118644405 4179.894682998239 166.12058096645697
    vertex 4030.660858703436 4179.3791319647235 166.1994623398176
  endloop
endfacet
facet normal 0.17751457357245654 0.7933533402911831 0.5823049489899697
  outer loop
    vertex 4026.2590531272367 4177.9095009444345 172.33628468976036
    vertex 4032.1190805005895 4177.591663699238 170.98289928315305
    vertex 4031.998296002116 4177.9095009444345 170.58668724373166
  endloop
endfacet
facet normal 0.17751457357245654 0.7933533402911831 0.5823049489899697
  outer loop
    vertex 4032.1190805005895 4177.591663699238 170.98289928315305
    vertex 4026.2590531272367 4177.9095009444345 172.33628468976036
    vertex 4026.3798376257105 4177.591663699238 172.73249672918175
  endloop
endfacet
facet normal -0.23617137352732764 0.5865448759652884 -0.7747181363599797
  outer loop
    vertex 4024.8515918119933 4178.3720913937195 167.7193584685238
    vertex 4030.5015358523206 4177.9492300069305 165.6768320969894
    vertex 4024.7622929774416 4177.9492300069305 167.4264295430175
  endloop
endfacet
facet normal -0.23617137352732764 0.5865448759652884 -0.7747181363599797
  outer loop
    vertex 4030.5015358523206 4177.9492300069305 165.6768320969894
    vertex 4024.8515918119933 4178.3720913937195 167.7193584685238
    vertex 4030.5908346868723 4178.3720913937195 165.9697610224957
  endloop
endfacet
facet normal -0.11901229104081795 0.9129211277194257 -0.39039862851284207
  outer loop
    vertex 4024.5051347744056 4177.406947702579 166.58286784952844
    vertex 4030.3833658087296 4177.620037467365 165.28919631125785
    vertex 4030.2443776492846 4177.406947702579 164.83327040350034
  endloop
endfacet
facet normal -0.11901229104081795 0.9129211277194257 -0.39039862851284207
  outer loop
    vertex 4030.3833658087296 4177.620037467365 165.28919631125785
    vertex 4024.5051347744056 4177.406947702579 166.58286784952844
    vertex 4024.6441229338507 4177.620037467365 167.03879375728596
  endloop
endfacet
facet normal -0.269402878419937 0.382683432365386 -0.8837281707018848
  outer loop
    vertex 4027.2347643196244 4178.806076416601 175.5369315137255
    vertex 4032.9157453531466 4178.323714506807 173.59621647167776
    vertex 4027.1765024782676 4178.323714506807 175.34581391770647
  endloop
endfacet
facet normal -0.269402878419937 0.382683432365386 -0.8837281707018848
  outer loop
    vertex 4032.9157453531466 4178.323714506807 173.59621647167776
    vertex 4027.2347643196244 4178.806076416601 175.5369315137255
    vertex 4032.9740071945034 4178.806076416601 173.7873340676968
  endloop
endfacet
facet normal 0.26620741224732475 0.4081360245830491 0.8732460129322823
  outer loop
    vertex 4023.8418491058324 4178.276105540981 164.40707732353795
    vertex 4029.5189550960035 4178.752746015375 162.45365089179953
    vertex 4023.7797122211246 4178.752746015375 164.20324833782763
  endloop
endfacet
facet normal 0.26620741224732475 0.4081360245830491 0.8732460129322823
  outer loop
    vertex 4029.5189550960035 4178.752746015375 162.45365089179953
    vertex 4023.8418491058324 4178.276105540981 164.40707732353795
    vertex 4029.5810919807113 4178.276105540981 162.65747987750981
  endloop
endfacet
facet normal 0.10408266836283459 0.9341284707286339 0.34142465980162606
  outer loop
    vertex 4024.0611477106363 4177.564620009448 165.12644734659665
    vertex 4029.942607468103 4177.378261515498 163.84336705966066
    vertex 4029.8003905855153 4177.564620009448 163.37684990056852
  endloop
endfacet
facet normal 0.10408266836283459 0.9341284707286339 0.34142465980162606
  outer loop
    vertex 4029.942607468103 4177.378261515498 163.84336705966066
    vertex 4024.0611477106363 4177.564620009448 165.12644734659665
    vertex 4024.203364593224 4177.378261515498 165.59296450568877
  endloop
endfacet
facet normal 0.23134149632855758 -0.6087614290090076 0.7588745842544569
  outer loop
    vertex 4031.905614796708 4180.323714506807 170.28266305292146
    vertex 4026.2590531272376 4180.737928069179 172.33628468976036
    vertex 4026.166371921829 4180.323714506807 172.03226049895017
  endloop
endfacet
facet normal 0.23134149632855758 -0.6087614290090076 0.7588745842544569
  outer loop
    vertex 4026.2590531272376 4180.737928069179 172.33628468976036
    vertex 4031.905614796708 4180.323714506807 170.28266305292146
    vertex 4031.9982960021166 4180.737928069179 170.58668724373166
  endloop
endfacet
facet normal -0.9565404791465182 1.485646606770678e-15 0.2915995743380806
  outer loop
    vertex 4018.5530234245243 4184.323714506807 157.34610730670528
    vertex 3970.586357178128 4162.323714506807 5.639932965095795e-15
    vertex 4018.5530234245243 4162.323714506807 157.34610730670528
  endloop
endfacet
facet normal -0.9565404791465182 1.485646606770678e-15 0.2915995743380806
  outer loop
    vertex 3970.586357178128 4162.323714506807 5.639932965095795e-15
    vertex 4018.5530234245243 4184.323714506807 157.34610730670528
    vertex 3970.586357178128 4184.323714506807 0.0
  endloop
endfacet
facet normal 0.23617137352732764 -0.5865448759652884 0.7747181363599797
  outer loop
    vertex 4029.564932273572 4180.275337619894 162.6044708357608
    vertex 4023.9149882332445 4180.698199006683 164.64699720729524
    vertex 4023.825689398693 4180.275337619894 164.3540682817889
  endloop
endfacet
facet normal 0.23617137352732764 -0.5865448759652884 0.7747181363599797
  outer loop
    vertex 4023.9149882332445 4180.698199006683 164.64699720729524
    vertex 4029.564932273572 4180.275337619894 162.6044708357608
    vertex 4029.6542311081234 4180.698199006683 162.8973997612671
  endloop
endfacet
facet normal -0.17751457357245654 -0.7933533402911831 -0.5823049489899697
  outer loop
    vertex 4032.823064147739 4180.737928069179 173.29219228086757
    vertex 4026.9630367743866 4181.055765314376 174.64557768747488
    vertex 4032.7022796492656 4181.055765314376 172.89598024144618
  endloop
endfacet
facet normal -0.17751457357245654 -0.7933533402911831 -0.5823049489899697
  outer loop
    vertex 4026.9630367743866 4181.055765314376 174.64557768747488
    vertex 4032.823064147739 4180.737928069179 173.29219228086757
    vertex 4027.08382127286 4180.737928069179 175.04178972689627
  endloop
endfacet
facet normal -0.1710362361619147 -0.8099167293479149 -0.5610539166978
  outer loop
    vertex 4030.47868257532 4180.776571127261 165.60186599121948
    vertex 4024.6161335000497 4181.082809004166 166.94697940371609
    vertex 4030.3553763749287 4181.082809004166 165.19738195768798
  endloop
endfacet
facet normal -0.1710362361619147 -0.8099167293479149 -0.5610539166978
  outer loop
    vertex 4024.6161335000497 4181.082809004166 166.94697940371609
    vertex 4030.47868257532 4180.776571127261 165.60186599121948
    vertex 4024.739439700441 4180.776571127261 167.3514634372476
  endloop
endfacet
facet normal 0.1710362361619147 0.8099167293479149 0.5610539166978
  outer loop
    vertex 4023.937841510245 4177.8708578863525 164.72196331306515
    vertex 4029.8003905855153 4177.564620009448 163.37684990056852
    vertex 4029.677084385124 4177.8708578863525 162.972365867037
  endloop
endfacet
facet normal 0.1710362361619147 0.8099167293479149 0.5610539166978
  outer loop
    vertex 4029.8003905855153 4177.564620009448 163.37684990056852
    vertex 4023.937841510245 4177.8708578863525 164.72196331306515
    vertex 4024.0611477106363 4177.564620009448 165.12644734659665
  endloop
endfacet
facet normal -0.2891048995563134 0.13052619221994588 -0.9483571427458624
  outer loop
    vertex 4027.2546363487245 4179.323714506807 175.60211816662147
    vertex 4032.9740071945034 4178.806076416601 173.7873340676968
    vertex 4027.2347643196244 4178.806076416601 175.5369315137255
  endloop
endfacet
facet normal -0.2891048995563134 0.13052619221994588 -0.9483571427458624
  outer loop
    vertex 4032.9740071945034 4178.806076416601 173.7873340676968
    vertex 4027.2546363487245 4179.323714506807 175.60211816662147
    vertex 4032.9938792236035 4179.323714506807 173.85252072059276
  endloop
endfacet
facet normal -0.2723914644414512 0.35693696947010534 -0.8935316949750238
  outer loop
    vertex 4024.9059338695033 4178.859804323033 167.89761791161968
    vertex 4030.5908346868723 4178.3720913937195 165.9697610224957
    vertex 4024.8515918119933 4178.3720913937195 167.7193584685238
  endloop
endfacet
facet normal -0.2723914644414512 0.35693696947010534 -0.8935316949750238
  outer loop
    vertex 4030.5908346868723 4178.3720913937195 165.9697610224957
    vertex 4024.9059338695033 4178.859804323033 167.89761791161968
    vertex 4030.6451767443823 4178.859804323033 166.14802046559157
  endloop
endfacet
facet normal -0.038061382091373816 0.9914448613737784 -0.12485358644758164
  outer loop
    vertex 4026.6714372000483 4177.323714506807 173.6890372083283
    vertex 4032.5616231216927 4177.391862854229 172.43458154912886
    vertex 4032.4106800749273 4177.323714506807 171.9394397622996
  endloop
endfacet
facet normal -0.038061382091373816 0.9914448613737784 -0.12485358644758164
  outer loop
    vertex 4032.5616231216927 4177.391862854229 172.43458154912886
    vertex 4026.6714372000483 4177.323714506807 173.6890372083283
    vertex 4026.8223802468137 4177.391862854229 174.18417899515757
  endloop
endfacet
facet normal 0.030036038719717877 0.9946809005486943 0.09852787657138656
  outer loop
    vertex 4024.203364593224 4177.378261515498 165.59296450568877
    vertex 4030.0940431873614 4177.324482427894 164.3401249708773
    vertex 4029.942607468103 4177.378261515498 163.84336705966066
  endloop
endfacet
facet normal 0.030036038719717877 0.9946809005486943 0.09852787657138656
  outer loop
    vertex 4030.0940431873614 4177.324482427894 164.3401249708773
    vertex 4024.203364593224 4177.378261515498 165.59296450568877
    vertex 4024.3548003124824 4177.324482427894 166.0897224169054
  endloop
endfacet
facet normal -0.23134149632866235 -0.608761429008754 -0.7588745842546286
  outer loop
    vertex 4032.823064147739 4180.737928069179 173.29219228086757
    vertex 4027.1765024782676 4180.323714506807 175.34581391770647
    vertex 4027.08382127286 4180.737928069179 175.04178972689627
  endloop
endfacet
facet normal -0.23134149632866235 -0.608761429008754 -0.7588745842546286
  outer loop
    vertex 4027.1765024782676 4180.323714506807 175.34581391770647
    vertex 4032.823064147739 4180.737928069179 173.29219228086757
    vertex 4032.9157453531466 4180.323714506807 173.59621647167776
  endloop
endfacet
facet normal 0.23134149632866235 0.608761429008754 0.7588745842546286
  outer loop
    vertex 4026.2590531272367 4177.9095009444345 172.33628468976036
    vertex 4031.905614796708 4178.323714506807 170.28266305292146
    vertex 4026.166371921829 4178.323714506807 172.03226049895017
  endloop
endfacet
facet normal 0.23134149632866235 0.608761429008754 0.7588745842546286
  outer loop
    vertex 4031.905614796708 4178.323714506807 170.28266305292146
    vertex 4026.2590531272367 4177.9095009444345 172.33628468976036
    vertex 4031.998296002116 4177.9095009444345 170.58668724373166
  endloop
endfacet
facet normal 0.28793926216181454 0.15794775225350893 0.9445334768359319
  outer loop
    vertex 4023.7797122211246 4178.752746015375 164.20324833782763
    vertex 4029.494908257008 4179.2682970488895 162.3747695184389
    vertex 4023.755665382129 4179.2682970488895 164.12436696446704
  endloop
endfacet
facet normal 0.28793926216181454 0.15794775225350893 0.9445334768359319
  outer loop
    vertex 4029.494908257008 4179.2682970488895 162.3747695184389
    vertex 4023.7797122211246 4178.752746015375 164.20324833782763
    vertex 4029.5189550960035 4178.752746015375 162.45365089179953
  endloop
endfacet
facet normal -9.113213783414644e-14 -1.0 3.0972668436242036e-14
  outer loop
    vertex 4036.1782873883526 4174.323714506807 179.15436423396457
    vertex 3973.7226593685664 4174.323714506807 5.639932965095795e-15
    vertex 3981.563414844691 4174.323714506806 5.639932965095795e-15
  endloop
endfacet
facet normal -9.113213783414644e-14 -1.0 3.0972668436242036e-14
  outer loop
    vertex 3973.7226593685664 4174.323714506807 5.639932965095795e-15
    vertex 4036.1782873883526 4174.323714506807 179.15436423396457
    vertex 4021.4226448619625 4174.323714506807 156.47130858369124
  endloop
endfacet
facet normal -9.113213783414644e-14 -1.0 3.0972668436242036e-14
  outer loop
    vertex 4021.4226448619625 4174.323714506807 156.47130858369124
    vertex 4036.1782873883526 4174.323714506807 179.15436423396457
    vertex 4029.004233794754 4174.323714506807 181.3413610415003
  endloop
endfacet
facet normal -0.26940287841996713 -0.382683432365386 -0.8837281707018757
  outer loop
    vertex 4032.9157453531466 4180.323714506807 173.59621647167776
    vertex 4027.2347643196244 4179.841352597013 175.5369315137255
    vertex 4027.1765024782676 4180.323714506807 175.34581391770647
  endloop
endfacet
facet normal -0.26940287841996713 -0.382683432365386 -0.8837281707018757
  outer loop
    vertex 4027.2347643196244 4179.841352597013 175.5369315137255
    vertex 4032.9157453531466 4180.323714506807 173.59621647167776
    vertex 4032.9740071945034 4179.841352597013 173.7873340676968
  endloop
endfacet
facet normal 0.2891048995563237 0.13052619221994585 0.9483571427458592
  outer loop
    vertex 4026.108110080472 4178.806076416601 171.84114290293113
    vertex 4031.827480926251 4179.323714506807 170.02635880400646
    vertex 4026.088238051372 4179.323714506807 171.77595625003516
  endloop
endfacet
facet normal 0.2891048995563237 0.13052619221994585 0.9483571427458592
  outer loop
    vertex 4031.827480926251 4179.323714506807 170.02635880400646
    vertex 4026.108110080472 4178.806076416601 171.84114290293113
    vertex 4031.847352955351 4178.806076416601 170.09154545690242
  endloop
endfacet
facet normal -0.17751457357245665 0.7933533402910183 -0.5823049489901941
  outer loop
    vertex 4026.9630367743866 4177.591663699238 174.64557768747488
    vertex 4032.823064147738 4177.9095009444345 173.29219228086757
    vertex 4032.7022796492656 4177.591663699238 172.89598024144618
  endloop
endfacet
facet normal -0.17751457357245665 0.7933533402910183 -0.5823049489901941
  outer loop
    vertex 4032.823064147738 4177.9095009444345 173.29219228086757
    vertex 4026.9630367743866 4177.591663699238 174.64557768747488
    vertex 4027.083821272859 4177.9095009444345 175.04178972689627
  endloop
endfacet
facet normal 0.0 1.0 0.0
  outer loop
    vertex 4018.5530234245243 4184.323714506807 157.34610730670528
    vertex 4041.178287388353 4184.323714506807 5.639932965095795e-15
    vertex 3970.586357178128 4184.323714506807 0.0
  endloop
endfacet
facet normal 0.0 1.0 0.0
  outer loop
    vertex 4041.178287388353 4184.323714506807 5.639932965095795e-15
    vertex 4018.5530234245243 4184.323714506807 157.34610730670528
    vertex 4021.4226448619625 4184.323714506807 156.47130858369118
  endloop
endfacet
facet normal 0.0 1.0 0.0
  outer loop
    vertex 4029.004233794754 4184.323714506807 181.34136104150033
    vertex 4036.1782873883526 4184.323714506807 179.15436423396457
    vertex 4021.4226448619625 4184.323714506807 156.47130858369118
  endloop
endfacet
facet normal 0.0 1.0 0.0
  outer loop
    vertex 4021.4226448619625 4184.323714506807 156.47130858369118
    vertex 4041.178287388353 4184.323714506807 179.15436423396457
    vertex 4041.178287388353 4184.323714506807 5.639932965095795e-15
  endloop
endfacet
facet normal 0.0 1.0 0.0
  outer loop
    vertex 4041.178287388353 4184.323714506807 179.15436423396457
    vertex 4021.4226448619625 4184.323714506807 156.47130858369118
    vertex 4036.1782873883526 4184.323714506807 179.15436423396457
  endloop
endfacet
facet normal 0.9565404791465035 -1.1603581144084355e-15 -0.2915995743381282
  outer loop
    vertex 3973.7226593685664 4174.323714506807 5.639932965095795e-15
    vertex 4021.4226448619625 4162.323714506807 156.4713085836913
    vertex 3973.7226593685664 4162.323714506807 1.2765725485304208e-13
  endloop
endfacet
facet normal 0.9565404791465035 -1.1603581144084355e-15 -0.2915995743381282
  outer loop
    vertex 4021.4226448619625 4162.323714506807 156.4713085836913
    vertex 3973.7226593685664 4174.323714506807 5.639932965095795e-15
    vertex 4021.4226448619625 4174.323714506807 156.47130858369124
  endloop
endfacet
facet normal 0.11159032598406907 0.923879532511111 0.36605219375632775
  outer loop
    vertex 4026.3798376257105 4177.591663699238 172.73249672918175
    vertex 4032.259737028162 4177.391862854229 171.44429797547036
    vertex 4032.1190805005895 4177.591663699238 170.98289928315305
  endloop
endfacet
facet normal 0.11159032598406907 0.923879532511111 0.36605219375632775
  outer loop
    vertex 4032.259737028162 4177.391862854229 171.44429797547036
    vertex 4026.3798376257105 4177.591663699238 172.73249672918175
    vertex 4026.520494153283 4177.391862854229 173.19389542149906
  endloop
endfacet
facet normal -0.11159032598399202 0.9238795325111171 -0.366052193756336
  outer loop
    vertex 4026.8223802468137 4177.391862854229 174.18417899515757
    vertex 4032.7022796492656 4177.591663699238 172.89598024144618
    vertex 4032.5616231216927 4177.391862854229 172.43458154912886
  endloop
endfacet
facet normal -0.11159032598399202 0.9238795325111171 -0.366052193756336
  outer loop
    vertex 4032.7022796492656 4177.591663699238 172.89598024144618
    vertex 4026.8223802468137 4177.391862854229 174.18417899515757
    vertex 4026.9630367743866 4177.591663699238 174.64557768747488
  endloop
endfacet
facet normal 0.0 -1.0 0.0
  outer loop
    vertex 4041.178287388353 4098.677658224437 179.15436423396457
    vertex 3981.563414844691 4098.677658224437 5.639932965095795e-15
    vertex 4041.178287388353 4098.677658224437 5.639932965095795e-15
  endloop
endfacet
facet normal 0.0 -1.0 0.0
  outer loop
    vertex 3981.563414844691 4098.677658224437 5.639932965095795e-15
    vertex 4041.178287388353 4098.677658224437 179.15436423396457
    vertex 4036.1782873883526 4098.677658224437 179.15436423396443
  endloop
endfacet
facet normal -0.9565404791465019 6.78809496929079e-16 0.291599574338134
  outer loop
    vertex 4026.520494153283 4177.391862854229 173.19389542149906
    vertex 4024.3548003124824 4177.324482427894 166.0897224169054
    vertex 4026.6714372000483 4177.323714506807 173.6890372083283
  endloop
endfacet
facet normal -0.9565404791465019 6.78809496929079e-16 0.291599574338134
  outer loop
    vertex 4024.3548003124824 4177.324482427894 166.0897224169054
    vertex 4026.520494153283 4177.391862854229 173.19389542149906
    vertex 4024.5051347744056 4177.406947702579 166.58286784952844
  endloop
endfacet
facet normal -0.9565404791465019 6.78809496929079e-16 0.291599574338134
  outer loop
    vertex 4024.5051347744056 4177.406947702579 166.58286784952844
    vertex 4026.520494153283 4177.391862854229 173.19389542149906
    vertex 4026.3798376257105 4177.591663699238 172.73249672918175
  endloop
endfacet
facet normal -0.9565404791465019 6.78809496929079e-16 0.291599574338134
  outer loop
    vertex 4024.5051347744056 4177.406947702579 166.58286784952844
    vertex 4026.3798376257105 4177.591663699238 172.73249672918175
    vertex 4024.6441229338507 4177.620037467365 167.03879375728596
  endloop
endfacet
facet normal -0.9565404791465019 6.78809496929079e-16 0.291599574338134
  outer loop
    vertex 4024.6441229338507 4177.620037467365 167.03879375728596
    vertex 4026.3798376257105 4177.591663699238 172.73249672918175
    vertex 4026.2590531272367 4177.9095009444345 172.33628468976036
  endloop
endfacet
facet normal -0.9565404791465019 6.78809496929079e-16 0.291599574338134
  outer loop
    vertex 4024.6441229338507 4177.620037467365 167.03879375728596
    vertex 4026.2590531272367 4177.9095009444345 172.33628468976036
    vertex 4024.7622929774416 4177.9492300069305 167.4264295430175
  endloop
endfacet
facet normal -0.9565404791465019 6.78809496929079e-16 0.291599574338134
  outer loop
    vertex 4024.7622929774416 4177.9492300069305 167.4264295430175
    vertex 4026.2590531272367 4177.9095009444345 172.33628468976036
    vertex 4026.166371921829 4178.323714506807 172.03226049895017
  endloop
endfacet
facet normal -0.9565404791465019 6.78809496929079e-16 0.291599574338134
  outer loop
    vertex 4024.7622929774416 4177.9492300069305 167.4264295430175
    vertex 4026.166371921829 4178.323714506807 172.03226049895017
    vertex 4024.8515918119933 4178.3720913937195 167.7193584685238
  endloop
endfacet
facet normal -0.9565404791465019 6.78809496929079e-16 0.291599574338134
  outer loop
    vertex 4024.8515918119933 4178.3720913937195 167.7193584685238
    vertex 4026.166371921829 4178.323714506807 172.03226049895017
    vertex 4026.108110080472 4178.806076416601 171.84114290293113
  endloop
endfacet
facet normal -0.9565404791465019 6.78809496929079e-16 0.291599574338134
  outer loop
    vertex 4024.8515918119933 4178.3720913937195 167.7193584685238
    vertex 4026.108110080472 4178.806076416601 171.84114290293113
    vertex 4024.9059338695033 4178.859804323033 167.89761791161968
  endloop
endfacet
facet normal -0.9565404791465019 6.78809496929079e-16 0.291599574338134
  outer loop
    vertex 4024.9059338695033 4178.859804323033 167.89761791161968
    vertex 4026.108110080472 4178.806076416601 171.84114290293113
    vertex 4026.088238051372 4179.323714506807 171.77595625003516
  endloop
endfacet
facet normal -0.9565404791465019 6.78809496929079e-16 0.291599574338134
  outer loop
    vertex 4024.9059338695033 4178.859804323033 167.89761791161968
    vertex 4026.088238051372 4179.323714506807 171.77595625003516
    vertex 4024.921615828557 4179.3791319647235 167.9490597858457
  endloop
endfacet
facet normal -0.9565404791465019 6.78809496929079e-16 0.291599574338134
  outer loop
    vertex 4024.921615828557 4179.3791319647235 167.9490597858457
    vertex 4026.088238051372 4179.323714506807 171.77595625003516
    vertex 4026.108110080472 4179.841352597012 171.84114290293113
  endloop
endfacet
facet normal -0.9565404791465019 6.78809496929079e-16 0.291599574338134
  outer loop
    vertex 4024.921615828557 4179.3791319647235 167.9490597858457
    vertex 4026.108110080472 4179.841352597012 171.84114290293113
    vertex 4024.8975689895615 4179.894682998239 167.87017841248507
  endloop
endfacet
facet normal -0.9565404791465019 6.78809496929079e-16 0.291599574338134
  outer loop
    vertex 4024.8975689895615 4179.894682998239 167.87017841248507
    vertex 4026.108110080472 4179.841352597012 171.84114290293113
    vertex 4026.166371921829 4180.323714506807 172.03226049895017
  endloop
endfacet
facet normal -0.9565404791465019 6.78809496929079e-16 0.291599574338134
  outer loop
    vertex 4024.8975689895615 4179.894682998239 167.87017841248507
    vertex 4026.166371921829 4180.323714506807 172.03226049895017
    vertex 4024.8354321048537 4180.371323472633 167.6663494267748
  endloop
endfacet
facet normal -0.9565404791465019 6.78809496929079e-16 0.291599574338134
  outer loop
    vertex 4024.8354321048537 4180.371323472633 167.6663494267748
    vertex 4026.166371921829 4180.323714506807 172.03226049895017
    vertex 4026.2590531272376 4180.737928069179 172.33628468976036
  endloop
endfacet
facet normal -0.9565404791465019 6.78809496929079e-16 0.291599574338134
  outer loop
    vertex 4024.8354321048537 4180.371323472633 167.6663494267748
    vertex 4026.2590531272376 4180.737928069179 172.33628468976036
    vertex 4024.739439700441 4180.776571127261 167.3514634372476
  endloop
endfacet
facet normal -0.9565404791465019 6.78809496929079e-16 0.291599574338134
  outer loop
    vertex 4024.739439700441 4180.776571127261 167.3514634372476
    vertex 4026.2590531272376 4180.737928069179 172.33628468976036
    vertex 4026.3798376257105 4181.055765314376 172.73249672918172
  endloop
endfacet
facet normal -0.9565404791465019 6.78809496929079e-16 0.291599574338134
  outer loop
    vertex 4024.739439700441 4180.776571127261 167.3514634372476
    vertex 4026.3798376257105 4181.055765314376 172.73249672918172
    vertex 4024.6161335000497 4181.082809004166 166.94697940371609
  endloop
endfacet
facet normal -0.9565404791465019 6.78809496929079e-16 0.291599574338134
  outer loop
    vertex 4024.6161335000497 4181.082809004166 166.94697940371609
    vertex 4026.3798376257105 4181.055765314376 172.73249672918172
    vertex 4026.520494153283 4181.255566159385 173.19389542149906
  endloop
endfacet
facet normal -0.9565404791465019 6.78809496929079e-16 0.291599574338134
  outer loop
    vertex 4024.6161335000497 4181.082809004166 166.94697940371609
    vertex 4026.520494153283 4181.255566159385 173.19389542149906
    vertex 4024.4739166174622 4181.269167498116 166.48046224462396
  endloop
endfacet
facet normal -0.9565404791465019 6.78809496929079e-16 0.291599574338134
  outer loop
    vertex 4024.4739166174622 4181.269167498116 166.48046224462396
    vertex 4026.520494153283 4181.255566159385 173.19389542149906
    vertex 4026.6714372000483 4181.323714506807 173.6890372083283
  endloop
endfacet
facet normal -0.9565404791465019 6.78809496929079e-16 0.291599574338134
  outer loop
    vertex 4024.4739166174622 4181.269167498116 166.48046224462396
    vertex 4026.6714372000483 4181.323714506807 173.6890372083283
    vertex 4024.3224808982036 4181.32294658572 165.98370433340733
  endloop
endfacet
facet normal -0.9565404791465019 6.78809496929079e-16 0.291599574338134
  outer loop
    vertex 4029.004233794754 4174.323714506807 181.3413610415003
    vertex 4026.8223802468137 4177.391862854229 174.18417899515757
    vertex 4021.4226448619625 4174.323714506807 156.47130858369124
  endloop
endfacet
facet normal -0.9565404791465019 6.78809496929079e-16 0.291599574338134
  outer loop
    vertex 4026.8223802468137 4177.391862854229 174.18417899515757
    vertex 4029.004233794754 4174.323714506807 181.3413610415003
    vertex 4026.9630367743866 4177.591663699238 174.64557768747488
  endloop
endfacet
facet normal -0.9565404791465019 6.78809496929079e-16 0.291599574338134
  outer loop
    vertex 4026.9630367743866 4177.591663699238 174.64557768747488
    vertex 4029.004233794754 4174.323714506807 181.3413610415003
    vertex 4027.083821272859 4177.9095009444345 175.04178972689627
  endloop
endfacet
facet normal -0.9565404791465019 6.78809496929079e-16 0.291599574338134
  outer loop
    vertex 4027.083821272859 4177.9095009444345 175.04178972689627
    vertex 4029.004233794754 4174.323714506807 181.3413610415003
    vertex 4029.004233794754 4184.323714506807 181.34136104150033
  endloop
endfacet
facet normal -0.9565404791465019 6.78809496929079e-16 0.291599574338134
  outer loop
    vertex 4021.4226448619625 4174.323714506807 156.47130858369124
    vertex 4026.8223802468137 4177.391862854229 174.18417899515757
    vertex 4026.6714372000483 4177.323714506807 173.6890372083283
  endloop
endfacet
facet normal -0.9565404791465019 6.78809496929079e-16 0.291599574338134
  outer loop
    vertex 4027.083821272859 4177.9095009444345 175.04178972689627
    vertex 4029.004233794754 4184.323714506807 181.34136104150033
    vertex 4027.1765024782676 4178.323714506807 175.34581391770647
  endloop
endfacet
facet normal -0.9565404791465019 6.78809496929079e-16 0.291599574338134
  outer loop
    vertex 4027.1765024782676 4178.323714506807 175.34581391770647
    vertex 4029.004233794754 4184.323714506807 181.34136104150033
    vertex 4027.2347643196244 4178.806076416601 175.5369315137255
  endloop
endfacet
facet normal -0.9565404791465019 6.78809496929079e-16 0.291599574338134
  outer loop
    vertex 4027.2347643196244 4178.806076416601 175.5369315137255
    vertex 4029.004233794754 4184.323714506807 181.34136104150033
    vertex 4027.2546363487245 4179.323714506807 175.60211816662147
  endloop
endfacet
facet normal -0.9565404791465019 6.78809496929079e-16 0.291599574338134
  outer loop
    vertex 4027.2546363487245 4179.323714506807 175.60211816662147
    vertex 4029.004233794754 4184.323714506807 181.34136104150033
    vertex 4027.2347643196244 4179.841352597013 175.5369315137255
  endloop
endfacet
facet normal -0.9565404791465019 6.78809496929079e-16 0.291599574338134
  outer loop
    vertex 4027.2347643196244 4179.841352597013 175.5369315137255
    vertex 4029.004233794754 4184.323714506807 181.34136104150033
    vertex 4027.1765024782676 4180.323714506807 175.34581391770647
  endloop
endfacet
facet normal -0.9565404791465019 6.78809496929079e-16 0.291599574338134
  outer loop
    vertex 4027.1765024782676 4180.323714506807 175.34581391770647
    vertex 4029.004233794754 4184.323714506807 181.34136104150033
    vertex 4027.08382127286 4180.737928069179 175.04178972689627
  endloop
endfacet
facet normal -0.9565404791465019 6.78809496929079e-16 0.291599574338134
  outer loop
    vertex 4027.08382127286 4180.737928069179 175.04178972689627
    vertex 4029.004233794754 4184.323714506807 181.34136104150033
    vertex 4026.9630367743866 4181.055765314376 174.64557768747488
  endloop
endfacet
facet normal -0.9565404791465019 6.78809496929079e-16 0.291599574338134
  outer loop
    vertex 4026.9630367743866 4181.055765314376 174.64557768747488
    vertex 4029.004233794754 4184.323714506807 181.34136104150033
    vertex 4026.8223802468137 4181.255566159385 174.18417899515757
  endloop
endfacet
facet normal -0.9565404791465019 6.78809496929079e-16 0.291599574338134
  outer loop
    vertex 4026.8223802468137 4181.255566159385 174.18417899515757
    vertex 4029.004233794754 4184.323714506807 181.34136104150033
    vertex 4026.6714372000483 4181.323714506807 173.6890372083283
  endloop
endfacet
facet normal -0.9565404791465019 6.78809496929079e-16 0.291599574338134
  outer loop
    vertex 4021.4226448619625 4174.323714506807 156.47130858369124
    vertex 4023.937841510245 4177.8708578863525 164.72196331306515
    vertex 4021.4226448619625 4184.323714506807 156.47130858369118
  endloop
endfacet
facet normal -0.9565404791465019 6.78809496929079e-16 0.291599574338134
  outer loop
    vertex 4023.937841510245 4177.8708578863525 164.72196331306515
    vertex 4021.4226448619625 4174.323714506807 156.47130858369124
    vertex 4024.0611477106363 4177.564620009448 165.12644734659665
  endloop
endfacet
facet normal -0.9565404791465019 6.78809496929079e-16 0.291599574338134
  outer loop
    vertex 4024.0611477106363 4177.564620009448 165.12644734659665
    vertex 4021.4226448619625 4174.323714506807 156.47130858369124
    vertex 4024.203364593224 4177.378261515498 165.59296450568877
  endloop
endfacet
facet normal -0.9565404791465019 6.78809496929079e-16 0.291599574338134
  outer loop
    vertex 4024.203364593224 4177.378261515498 165.59296450568877
    vertex 4021.4226448619625 4174.323714506807 156.47130858369124
    vertex 4024.3548003124824 4177.324482427894 166.0897224169054
  endloop
endfacet
facet normal -0.9565404791465019 6.78809496929079e-16 0.291599574338134
  outer loop
    vertex 4024.3548003124824 4177.324482427894 166.0897224169054
    vertex 4021.4226448619625 4174.323714506807 156.47130858369124
    vertex 4026.6714372000483 4177.323714506807 173.6890372083283
  endloop
endfacet
facet normal -0.9565404791465019 6.78809496929079e-16 0.291599574338134
  outer loop
    vertex 4021.4226448619625 4184.323714506807 156.47130858369118
    vertex 4023.937841510245 4177.8708578863525 164.72196331306515
    vertex 4023.8418491058324 4178.276105540981 164.40707732353795
  endloop
endfacet
facet normal -0.9565404791465019 6.78809496929079e-16 0.291599574338134
  outer loop
    vertex 4021.4226448619625 4184.323714506807 156.47130858369118
    vertex 4023.8418491058324 4178.276105540981 164.40707732353795
    vertex 4023.7797122211246 4178.752746015375 164.20324833782763
  endloop
endfacet
facet normal -0.9565404791465019 6.78809496929079e-16 0.291599574338134
  outer loop
    vertex 4021.4226448619625 4184.323714506807 156.47130858369118
    vertex 4023.7797122211246 4178.752746015375 164.20324833782763
    vertex 4023.755665382129 4179.2682970488895 164.12436696446704
  endloop
endfacet
facet normal -0.9565404791465019 6.78809496929079e-16 0.291599574338134
  outer loop
    vertex 4021.4226448619625 4184.323714506807 156.47130858369118
    vertex 4023.755665382129 4179.2682970488895 164.12436696446704
    vertex 4023.7713473411827 4179.787624690581 164.17580883869306
  endloop
endfacet
facet normal -0.9565404791465019 6.78809496929079e-16 0.291599574338134
  outer loop
    vertex 4021.4226448619625 4184.323714506807 156.47130858369118
    vertex 4023.7713473411827 4179.787624690581 164.17580883869306
    vertex 4023.825689398693 4180.275337619894 164.3540682817889
  endloop
endfacet
facet normal -0.9565404791465019 6.78809496929079e-16 0.291599574338134
  outer loop
    vertex 4021.4226448619625 4184.323714506807 156.47130858369118
    vertex 4023.825689398693 4180.275337619894 164.3540682817889
    vertex 4023.9149882332445 4180.698199006683 164.64699720729524
  endloop
endfacet
facet normal -0.9565404791465019 6.78809496929079e-16 0.291599574338134
  outer loop
    vertex 4021.4226448619625 4184.323714506807 156.47130858369118
    vertex 4023.9149882332445 4180.698199006683 164.64699720729524
    vertex 4024.033158276836 4181.0273915462485 165.03463299302678
  endloop
endfacet
facet normal -0.9565404791465019 6.78809496929079e-16 0.291599574338134
  outer loop
    vertex 4021.4226448619625 4184.323714506807 156.47130858369118
    vertex 4024.033158276836 4181.0273915462485 165.03463299302678
    vertex 4024.172146436281 4181.240481311035 165.49055890078427
  endloop
endfacet
facet normal -0.9565404791465019 6.78809496929079e-16 0.291599574338134
  outer loop
    vertex 4021.4226448619625 4184.323714506807 156.47130858369118
    vertex 4024.172146436281 4181.240481311035 165.49055890078427
    vertex 4024.3224808982036 4181.32294658572 165.98370433340733
  endloop
endfacet
facet normal -0.9565404791465019 6.78809496929079e-16 0.291599574338134
  outer loop
    vertex 4021.4226448619625 4184.323714506807 156.47130858369118
    vertex 4024.3224808982036 4181.32294658572 165.98370433340733
    vertex 4026.6714372000483 4181.323714506807 173.6890372083283
  endloop
endfacet
facet normal -0.9565404791465019 6.78809496929079e-16 0.291599574338134
  outer loop
    vertex 4021.4226448619625 4184.323714506807 156.47130858369118
    vertex 4026.6714372000483 4181.323714506807 173.6890372083283
    vertex 4029.004233794754 4184.323714506807 181.34136104150033
  endloop
endfacet
facet normal 0.26940287841996713 0.382683432365386 0.8837281707018757
  outer loop
    vertex 4026.166371921829 4178.323714506807 172.03226049895017
    vertex 4031.847352955351 4178.806076416601 170.09154545690242
    vertex 4026.108110080472 4178.806076416601 171.84114290293113
  endloop
endfacet
facet normal 0.26940287841996713 0.382683432365386 0.8837281707018757
  outer loop
    vertex 4031.847352955351 4178.806076416601 170.09154545690242
    vertex 4026.166371921829 4178.323714506807 172.03226049895017
    vertex 4031.905614796708 4178.323714506807 170.28266305292146
  endloop
endfacet
facet normal -3.117263841180956e-16 5.429922074525442e-18 -1.0
  outer loop
    vertex 3970.586357178128 4184.323714506807 0.0
    vertex 3973.7226593685664 4174.323714506807 5.639932965095795e-15
    vertex 3970.586357178128 4162.323714506807 5.639932965095795e-15
  endloop
endfacet
facet normal -3.117263841180956e-16 5.429922074525442e-18 -1.0
  outer loop
    vertex 3973.7226593685664 4174.323714506807 5.639932965095795e-15
    vertex 3970.586357178128 4184.323714506807 0.0
    vertex 4041.178287388353 4184.323714506807 5.639932965095795e-15
  endloop
endfacet
facet normal -3.117263841180956e-16 5.429922074525442e-18 -1.0
  outer loop
    vertex 3973.7226593685664 4174.323714506807 5.639932965095795e-15
    vertex 4041.178287388353 4184.323714506807 5.639932965095795e-15
    vertex 3981.563414844691 4174.323714506806 5.639932965095795e-15
  endloop
endfacet
facet normal -3.117263841180956e-16 5.429922074525442e-18 -1.0
  outer loop
    vertex 3981.563414844691 4174.323714506806 5.639932965095795e-15
    vertex 4041.178287388353 4184.323714506807 5.639932965095795e-15
    vertex 3981.563414844691 4098.677658224437 5.639932965095795e-15
  endloop
endfacet
facet normal -3.117263841180956e-16 5.429922074525442e-18 -1.0
  outer loop
    vertex 3981.563414844691 4098.677658224437 5.639932965095795e-15
    vertex 4041.178287388353 4184.323714506807 5.639932965095795e-15
    vertex 4010.7125142770183 4134.823714506806 5.639932965095795e-15
  endloop
endfacet
facet normal -3.117263841180956e-16 5.429922074525442e-18 -1.0
  outer loop
    vertex 4010.7125142770183 4134.823714506806 5.639932965095795e-15
    vertex 4041.178287388353 4184.323714506807 5.639932965095795e-15
    vertex 4021.712514277018 4134.823714506806 5.639932965095795e-15
  endloop
endfacet
facet normal -3.117263841180956e-16 5.429922074525442e-18 -1.0
  outer loop
    vertex 4021.712514277018 4134.823714506806 5.639932965095795e-15
    vertex 4041.178287388353 4184.323714506807 5.639932965095795e-15
    vertex 4021.712514277018 4123.823714506807 5.639932965095795e-15
  endloop
endfacet
facet normal -3.117263841180956e-16 5.429922074525442e-18 -1.0
  outer loop
    vertex 3981.563414844691 4098.677658224437 5.639932965095795e-15
    vertex 4010.7125142770183 4123.823714506807 5.639932965095795e-15
    vertex 4041.178287388353 4098.677658224437 5.639932965095795e-15
  endloop
endfacet
facet normal -3.117263841180956e-16 5.429922074525442e-18 -1.0
  outer loop
    vertex 4010.7125142770183 4123.823714506807 5.639932965095795e-15
    vertex 3981.563414844691 4098.677658224437 5.639932965095795e-15
    vertex 4010.7125142770183 4134.823714506806 5.639932965095795e-15
  endloop
endfacet
facet normal -3.117263841180956e-16 5.429922074525442e-18 -1.0
  outer loop
    vertex 4041.178287388353 4098.677658224437 5.639932965095795e-15
    vertex 4010.7125142770183 4123.823714506807 5.639932965095795e-15
    vertex 4021.712514277018 4123.823714506807 5.639932965095795e-15
  endloop
endfacet
facet normal -3.117263841180956e-16 5.429922074525442e-18 -1.0
  outer loop
    vertex 4041.178287388353 4098.677658224437 5.639932965095795e-15
    vertex 4021.712514277018 4123.823714506807 5.639932965095795e-15
    vertex 4041.178287388353 4184.323714506807 5.639932965095795e-15
  endloop
endfacet
facet normal -3.117263841180956e-16 5.429922074525442e-18 -1.0
  outer loop
    vertex 3973.7226593685664 4162.323714506807 1.2765725485304208e-13
    vertex 3970.586357178128 4162.323714506807 5.639932965095795e-15
    vertex 3973.7226593685664 4174.323714506807 5.639932965095795e-15
  endloop
endfacet
facet normal 0.269402878419996 -0.3826834323648971 0.8837281707020784
  outer loop
    vertex 4031.847352955351 4179.841352597012 170.09154545690242
    vertex 4026.166371921829 4180.323714506807 172.03226049895017
    vertex 4026.108110080472 4179.841352597012 171.84114290293113
  endloop
endfacet
facet normal 0.269402878419996 -0.3826834323648971 0.8837281707020784
  outer loop
    vertex 4026.166371921829 4180.323714506807 172.03226049895017
    vertex 4031.847352955351 4179.841352597012 170.09154545690242
    vertex 4031.905614796708 4180.323714506807 170.28266305292146
  endloop
endfacet
facet normal 0.03806138209145191 0.9914448613737784 0.12485358644755784
  outer loop
    vertex 4026.520494153283 4177.391862854229 173.19389542149906
    vertex 4032.4106800749273 4177.323714506807 171.9394397622996
    vertex 4032.259737028162 4177.391862854229 171.44429797547036
  endloop
endfacet
facet normal 0.03806138209145191 0.9914448613737784 0.12485358644755784
  outer loop
    vertex 4032.4106800749273 4177.323714506807 171.9394397622996
    vertex 4026.520494153283 4177.391862854229 173.19389542149906
    vertex 4026.6714372000483 4177.323714506807 173.6890372083283
  endloop
endfacet
facet normal 0.0 -1.0 0.0
  outer loop
    vertex 3973.7226593685664 4162.323714506807 1.2765725485304208e-13
    vertex 4018.5530234245243 4162.323714506807 157.34610730670528
    vertex 3970.586357178128 4162.323714506807 5.639932965095795e-15
  endloop
endfacet
facet normal 0.0 -1.0 0.0
  outer loop
    vertex 4018.5530234245243 4162.323714506807 157.34610730670528
    vertex 3973.7226593685664 4162.323714506807 1.2765725485304208e-13
    vertex 4021.4226448619625 4162.323714506807 156.4713085836913
  endloop
endfacet
facet normal -0.9565404791465371 -2.233555673503894e-14 0.291599574338018
  outer loop
    vertex 4030.2443776492846 4177.406947702579 164.83327040350034
    vertex 4029.942607468103 4177.378261515498 163.84336705966066
    vertex 4030.0940431873614 4177.324482427894 164.3401249708773
  endloop
endfacet
facet normal -0.9565404791465371 -2.233555673503894e-14 0.291599574338018
  outer loop
    vertex 4029.942607468103 4177.378261515498 163.84336705966066
    vertex 4030.2443776492846 4177.406947702579 164.83327040350034
    vertex 4029.8003905855153 4177.564620009448 163.37684990056852
  endloop
endfacet
facet normal -0.9565404791465371 -2.233555673503894e-14 0.291599574338018
  outer loop
    vertex 4029.8003905855153 4177.564620009448 163.37684990056852
    vertex 4030.2443776492846 4177.406947702579 164.83327040350034
    vertex 4030.3833658087296 4177.620037467365 165.28919631125785
  endloop
endfacet
facet normal -0.9565404791465371 -2.233555673503894e-14 0.291599574338018
  outer loop
    vertex 4029.8003905855153 4177.564620009448 163.37684990056852
    vertex 4030.3833658087296 4177.620037467365 165.28919631125785
    vertex 4029.677084385124 4177.8708578863525 162.972365867037
  endloop
endfacet
facet normal -0.9565404791465371 -2.233555673503894e-14 0.291599574338018
  outer loop
    vertex 4029.677084385124 4177.8708578863525 162.972365867037
    vertex 4030.3833658087296 4177.620037467365 165.28919631125785
    vertex 4030.5015358523206 4177.9492300069305 165.6768320969894
  endloop
endfacet
facet normal -0.9565404791465371 -2.233555673503894e-14 0.291599574338018
  outer loop
    vertex 4029.677084385124 4177.8708578863525 162.972365867037
    vertex 4030.5015358523206 4177.9492300069305 165.6768320969894
    vertex 4029.5810919807113 4178.276105540981 162.65747987750981
  endloop
endfacet
facet normal -0.9565404791465371 -2.233555673503894e-14 0.291599574338018
  outer loop
    vertex 4029.5810919807113 4178.276105540981 162.65747987750981
    vertex 4030.5015358523206 4177.9492300069305 165.6768320969894
    vertex 4030.5908346868723 4178.3720913937195 165.9697610224957
  endloop
endfacet
facet normal -0.9565404791465371 -2.233555673503894e-14 0.291599574338018
  outer loop
    vertex 4029.5810919807113 4178.276105540981 162.65747987750981
    vertex 4030.5908346868723 4178.3720913937195 165.9697610224957
    vertex 4029.5189550960035 4178.752746015375 162.45365089179953
  endloop
endfacet
facet normal -0.9565404791465371 -2.233555673503894e-14 0.291599574338018
  outer loop
    vertex 4029.5189550960035 4178.752746015375 162.45365089179953
    vertex 4030.5908346868723 4178.3720913937195 165.9697610224957
    vertex 4030.6451767443823 4178.859804323033 166.14802046559157
  endloop
endfacet
facet normal -0.9565404791465371 -2.233555673503894e-14 0.291599574338018
  outer loop
    vertex 4029.5189550960035 4178.752746015375 162.45365089179953
    vertex 4030.6451767443823 4178.859804323033 166.14802046559157
    vertex 4029.494908257008 4179.2682970488895 162.3747695184389
  endloop
endfacet
facet normal -0.9565404791465371 -2.233555673503894e-14 0.291599574338018
  outer loop
    vertex 4029.494908257008 4179.2682970488895 162.3747695184389
    vertex 4030.6451767443823 4178.859804323033 166.14802046559157
    vertex 4030.660858703436 4179.3791319647235 166.1994623398176
  endloop
endfacet
facet normal -0.9565404791465371 -2.233555673503894e-14 0.291599574338018
  outer loop
    vertex 4029.494908257008 4179.2682970488895 162.3747695184389
    vertex 4030.660858703436 4179.3791319647235 166.1994623398176
    vertex 4029.5105902160617 4179.787624690581 162.42621139266492
  endloop
endfacet
facet normal -0.9565404791465371 -2.233555673503894e-14 0.291599574338018
  outer loop
    vertex 4029.5105902160617 4179.787624690581 162.42621139266492
    vertex 4030.660858703436 4179.3791319647235 166.1994623398176
    vertex 4030.6368118644405 4179.894682998239 166.12058096645697
  endloop
endfacet
facet normal -0.9565404791465371 -2.233555673503894e-14 0.291599574338018
  outer loop
    vertex 4029.5105902160617 4179.787624690581 162.42621139266492
    vertex 4030.6368118644405 4179.894682998239 166.12058096645697
    vertex 4029.564932273572 4180.275337619894 162.6044708357608
  endloop
endfacet
facet normal -0.9565404791465371 -2.233555673503894e-14 0.291599574338018
  outer loop
    vertex 4029.564932273572 4180.275337619894 162.6044708357608
    vertex 4030.6368118644405 4179.894682998239 166.12058096645697
    vertex 4030.5746749797327 4180.371323472633 165.91675198074668
  endloop
endfacet
facet normal -0.9565404791465371 -2.233555673503894e-14 0.291599574338018
  outer loop
    vertex 4029.564932273572 4180.275337619894 162.6044708357608
    vertex 4030.5746749797327 4180.371323472633 165.91675198074668
    vertex 4029.6542311081234 4180.698199006683 162.8973997612671
  endloop
endfacet
facet normal -0.9565404791465371 -2.233555673503894e-14 0.291599574338018
  outer loop
    vertex 4029.6542311081234 4180.698199006683 162.8973997612671
    vertex 4030.5746749797327 4180.371323472633 165.91675198074668
    vertex 4030.47868257532 4180.776571127261 165.60186599121948
  endloop
endfacet
facet normal -0.9565404791465371 -2.233555673503894e-14 0.291599574338018
  outer loop
    vertex 4029.6542311081234 4180.698199006683 162.8973997612671
    vertex 4030.47868257532 4180.776571127261 165.60186599121948
    vertex 4029.772401151715 4181.0273915462485 163.28503554699864
  endloop
endfacet
facet normal -0.9565404791465371 -2.233555673503894e-14 0.291599574338018
  outer loop
    vertex 4029.772401151715 4181.0273915462485 163.28503554699864
    vertex 4030.47868257532 4180.776571127261 165.60186599121948
    vertex 4030.3553763749287 4181.082809004166 165.19738195768798
  endloop
endfacet
facet normal -0.9565404791465371 -2.233555673503894e-14 0.291599574338018
  outer loop
    vertex 4029.772401151715 4181.0273915462485 163.28503554699864
    vertex 4030.3553763749287 4181.082809004166 165.19738195768798
    vertex 4029.91138931116 4181.240481311035 163.74096145475616
  endloop
endfacet
facet normal -0.9565404791465371 -2.233555673503894e-14 0.291599574338018
  outer loop
    vertex 4029.91138931116 4181.240481311035 163.74096145475616
    vertex 4030.3553763749287 4181.082809004166 165.19738195768798
    vertex 4030.213159492341 4181.269167498116 164.73086479859586
  endloop
endfacet
facet normal -0.9565404791465371 -2.233555673503894e-14 0.291599574338018
  outer loop
    vertex 4029.91138931116 4181.240481311035 163.74096145475616
    vertex 4030.213159492341 4181.269167498116 164.73086479859586
    vertex 4030.0617237730826 4181.32294658572 164.23410688737923
  endloop
endfacet
facet normal 0.29159957433815853 2.4307624379653337e-15 0.9565404791464942
  outer loop
    vertex 4021.4226448619625 4162.323714506807 156.4713085836913
    vertex 4018.5530234245243 4184.323714506807 157.34610730670528
    vertex 4018.5530234245243 4162.323714506807 157.34610730670528
  endloop
endfacet
facet normal 0.29159957433815853 2.4307624379653337e-15 0.9565404791464942
  outer loop
    vertex 4018.5530234245243 4184.323714506807 157.34610730670528
    vertex 4021.4226448619625 4162.323714506807 156.4713085836913
    vertex 4021.4226448619625 4184.323714506807 156.47130858369118
  endloop
endfacet
facet normal 0.29159957433815853 2.4307624379653337e-15 0.9565404791464942
  outer loop
    vertex 4021.4226448619625 4184.323714506807 156.47130858369118
    vertex 4021.4226448619625 4162.323714506807 156.4713085836913
    vertex 4021.4226448619625 4174.323714506807 156.47130858369124
  endloop
endfacet
facet normal -0.9565404791465077 -2.714995091793402e-16 0.29159957433811445
  outer loop
    vertex 4036.1782873883526 4174.323714506807 179.15436423396457
    vertex 3981.563414844691 4098.677658224437 5.639932965095795e-15
    vertex 4036.1782873883526 4098.677658224437 179.15436423396443
  endloop
endfacet
facet normal -0.9565404791465077 -2.714995091793402e-16 0.29159957433811445
  outer loop
    vertex 3981.563414844691 4098.677658224437 5.639932965095795e-15
    vertex 4036.1782873883526 4174.323714506807 179.15436423396457
    vertex 3981.563414844691 4174.323714506806 5.639932965095795e-15
  endloop
endfacet
facet normal 0.29159957433810185 -1.0705354233750856e-15 0.9565404791465116
  outer loop
    vertex 4036.1782873883526 4174.323714506807 179.15436423396457
    vertex 4029.004233794754 4184.323714506807 181.34136104150033
    vertex 4029.004233794754 4174.323714506807 181.3413610415003
  endloop
endfacet
facet normal 0.29159957433810185 -1.0705354233750856e-15 0.9565404791465116
  outer loop
    vertex 4029.004233794754 4184.323714506807 181.34136104150033
    vertex 4036.1782873883526 4174.323714506807 179.15436423396457
    vertex 4036.1782873883526 4184.323714506807 179.15436423396457
  endloop
endfacet
facet normal -0.23134149632855758 0.6087614290090076 -0.7588745842544569
  outer loop
    vertex 4027.1765024782676 4178.323714506807 175.34581391770647
    vertex 4032.823064147738 4177.9095009444345 173.29219228086757
    vertex 4027.083821272859 4177.9095009444345 175.04178972689627
  endloop
endfacet
facet normal -0.23134149632855758 0.6087614290090076 -0.7588745842544569
  outer loop
    vertex 4032.823064147738 4177.9095009444345 173.29219228086757
    vertex 4027.1765024782676 4178.323714506807 175.34581391770647
    vertex 4032.9157453531466 4178.323714506807 173.59621647167776
  endloop
endfacet
facet normal 0.22633396711658077 0.6305105013147096 0.7424482763540798
  outer loop
    vertex 4023.937841510245 4177.8708578863525 164.72196331306515
    vertex 4029.5810919807113 4178.276105540981 162.65747987750981
    vertex 4023.8418491058324 4178.276105540981 164.40707732353795
  endloop
endfacet
facet normal 0.22633396711658077 0.6305105013147096 0.7424482763540798
  outer loop
    vertex 4029.5810919807113 4178.276105540981 162.65747987750981
    vertex 4023.937841510245 4177.8708578863525 164.72196331306515
    vertex 4029.677084385124 4177.8708578863525 162.972365867037
  endloop
endfacet
facet normal -0.2891048995563237 -0.13052619221994585 -0.9483571427458592
  outer loop
    vertex 4032.9740071945034 4179.841352597013 173.7873340676968
    vertex 4027.2546363487245 4179.323714506807 175.60211816662147
    vertex 4027.2347643196244 4179.841352597013 175.5369315137255
  endloop
endfacet
facet normal -0.2891048995563237 -0.13052619221994585 -0.9483571427458592
  outer loop
    vertex 4027.2546363487245 4179.323714506807 175.60211816662147
    vertex 4032.9740071945034 4179.841352597013 173.7873340676968
    vertex 4032.9938792236035 4179.323714506807 173.85252072059276
  endloop
endfacet
facet normal 0.2891048995563065 -0.1305261922201248 0.9483571427458397
  outer loop
    vertex 4031.827480926251 4179.323714506807 170.02635880400646
    vertex 4026.108110080472 4179.841352597012 171.84114290293113
    vertex 4026.088238051372 4179.323714506807 171.77595625003516
  endloop
endfacet
facet normal 0.2891048995563065 -0.1305261922201248 0.9483571427458397
  outer loop
    vertex 4026.108110080472 4179.841352597012 171.84114290293113
    vertex 4031.827480926251 4179.323714506807 170.02635880400646
    vertex 4031.847352955351 4179.841352597012 170.09154545690242
  endloop
endfacet
facet normal 0.11159032598399202 -0.9238795325111171 0.366052193756336
  outer loop
    vertex 4032.259737028162 4181.255566159385 171.44429797547036
    vertex 4026.3798376257105 4181.055765314376 172.73249672918172
    vertex 4032.1190805005895 4181.055765314376 170.98289928315302
  endloop
endfacet
facet normal 0.11159032598399202 -0.9238795325111171 0.366052193756336
  outer loop
    vertex 4026.3798376257105 4181.055765314376 172.73249672918172
    vertex 4032.259737028162 4181.255566159385 171.44429797547036
    vertex 4026.520494153283 4181.255566159385 173.19389542149906
  endloop
endfacet
facet normal -0.26620741224732475 -0.4081360245830491 -0.8732460129322823
  outer loop
    vertex 4030.5746749797327 4180.371323472633 165.91675198074668
    vertex 4024.8975689895615 4179.894682998239 167.87017841248507
    vertex 4024.8354321048537 4180.371323472633 167.6663494267748
  endloop
endfacet
facet normal -0.26620741224732475 -0.4081360245830491 -0.8732460129322823
  outer loop
    vertex 4024.8975689895615 4179.894682998239 167.87017841248507
    vertex 4030.5746749797327 4180.371323472633 165.91675198074668
    vertex 4030.6368118644405 4179.894682998239 166.12058096645697
  endloop
endfacet
facet normal -0.03806138209145191 -0.9914448613737784 -0.12485358644755784
  outer loop
    vertex 4032.5616231216927 4181.255566159385 172.43458154912886
    vertex 4026.6714372000483 4181.323714506807 173.6890372083283
    vertex 4032.4106800749273 4181.323714506807 171.9394397622996
  endloop
endfacet
facet normal -0.03806138209145191 -0.9914448613737784 -0.12485358644755784
  outer loop
    vertex 4026.6714372000483 4181.323714506807 173.6890372083283
    vertex 4032.5616231216927 4181.255566159385 172.43458154912886
    vertex 4026.8223802468137 4181.255566159385 174.18417899515757
  endloop
endfacet
facet normal -0.10408266836283459 -0.9341284707286339 -0.34142465980162606
  outer loop
    vertex 4030.3553763749287 4181.082809004166 165.19738195768798
    vertex 4024.4739166174622 4181.269167498116 166.48046224462396
    vertex 4030.213159492341 4181.269167498116 164.73086479859586
  endloop
endfacet
facet normal -0.10408266836283459 -0.9341284707286339 -0.34142465980162606
  outer loop
    vertex 4024.4739166174622 4181.269167498116 166.48046224462396
    vertex 4030.3553763749287 4181.082809004166 165.19738195768798
    vertex 4024.6161335000497 4181.082809004166 166.94697940371609
  endloop
endfacet
endsolid SlotmachinePrototypeTopFrontLeft
