solid SlotmachinePrototypeBottomRightBack
facet normal -1.0 0.0 0.0
  outer loop
    vertex 0.0 415.6234900308299 106.97133068221949
    vertex 0.0 405.6234900308298 96.97133068221949
    vertex 0.0 405.6234900308298 106.97133068221949
  endloop
endfacet
facet normal -1.0 0.0 0.0
  outer loop
    vertex 0.0 405.6234900308298 96.97133068221949
    vertex 0.0 415.6234900308299 106.97133068221949
    vertex 0.0 415.6234900308299 96.97133068221949
  endloop
endfacet
facet normal -1.0 0.0 0.0
  outer loop
    vertex 114.93050986775177 471.62349003082903 176.25759594196543
    vertex 114.93050986775177 360.62349003082977 41.97133068221948
    vertex 114.93050986775177 360.62349003082977 176.25759594196543
  endloop
endfacet
facet normal -1.0 0.0 0.0
  outer loop
    vertex 114.93050986775177 360.62349003082977 41.97133068221948
    vertex 114.93050986775177 471.62349003082903 176.25759594196543
    vertex 114.93050986775177 471.62349003082795 176.15759594196544
  endloop
endfacet
facet normal -1.0 0.0 0.0
  outer loop
    vertex 114.93050986775177 471.62349003082903 41.971330682219495
    vertex 114.93050986775177 360.62349003082977 41.97133068221948
    vertex 114.93050986775177 471.62349003082795 176.15759594196544
  endloop
endfacet
facet normal 0.0 0.0 -1.0
  outer loop
    vertex 108.93050986775168 476.623490030829 37.07133068221949
    vertex 108.8305098677517 471.62349003082903 37.07133068221949
    vertex 108.8305098677517 476.623490030829 37.07133068221949
  endloop
endfacet
facet normal 0.0 0.0 -1.0
  outer loop
    vertex 108.8305098677517 471.62349003082903 37.07133068221949
    vertex 108.93050986775168 476.623490030829 37.07133068221949
    vertex 108.93050986775168 471.62349003082903 37.07133068221949
  endloop
endfacet
facet normal -1.5024256942379381e-15 1.0 9.810381003480135e-16
  outer loop
    vertex 19.999999999999062 476.62349003082863 181.25759594196546
    vertex 108.8305098677517 476.623490030829 36.97133068221949
    vertex 19.999999999999062 476.623490030829 36.97133068221949
  endloop
endfacet
facet normal -1.5024256942379381e-15 1.0 9.810381003480135e-16
  outer loop
    vertex 108.8305098677517 476.623490030829 36.97133068221949
    vertex 19.999999999999062 476.62349003082863 181.25759594196546
    vertex 108.8305098677517 476.623490030829 37.07133068221949
  endloop
endfacet
facet normal -1.5024256942379381e-15 1.0 9.810381003480135e-16
  outer loop
    vertex 108.8305098677517 476.623490030829 37.07133068221949
    vertex 19.999999999999062 476.62349003082863 181.25759594196546
    vertex 108.93050986775168 476.623490030829 37.07133068221949
  endloop
endfacet
facet normal -1.5024256942379381e-15 1.0 9.810381003480135e-16
  outer loop
    vertex 108.93050986775168 476.623490030829 37.07133068221949
    vertex 19.999999999999062 476.62349003082863 181.25759594196546
    vertex 114.83050986775179 476.62349003082863 176.15759594196544
  endloop
endfacet
facet normal -1.5024256942379381e-15 1.0 9.810381003480135e-16
  outer loop
    vertex 114.83050986775179 476.62349003082863 176.15759594196544
    vertex 19.999999999999062 476.62349003082863 181.25759594196546
    vertex 114.83050986775179 476.62349003082863 176.25759594196543
  endloop
endfacet
facet normal -1.5024256942379381e-15 1.0 9.810381003480135e-16
  outer loop
    vertex 114.83050986775179 476.62349003082863 176.25759594196543
    vertex 19.999999999999062 476.62349003082863 181.25759594196546
    vertex 114.93050986775177 476.62349003082863 176.25759594196543
  endloop
endfacet
facet normal -1.5024256942379381e-15 1.0 9.810381003480135e-16
  outer loop
    vertex 114.93050986775177 476.62349003082863 176.25759594196543
    vertex 19.999999999999062 476.62349003082863 181.25759594196546
    vertex 119.93050986775206 476.623490030829 181.25759594196543
  endloop
endfacet
facet normal -1.5024256942379381e-15 1.0 9.810381003480135e-16
  outer loop
    vertex 108.93050986775168 476.623490030829 37.07133068221949
    vertex 119.93050986775206 476.623490030829 36.97133068221949
    vertex 108.93050986775168 476.623490030829 36.97133068221949
  endloop
endfacet
facet normal -1.5024256942379381e-15 1.0 9.810381003480135e-16
  outer loop
    vertex 119.93050986775206 476.623490030829 36.97133068221949
    vertex 108.93050986775168 476.623490030829 37.07133068221949
    vertex 119.93050986775206 476.623490030829 181.25759594196543
  endloop
endfacet
facet normal -1.5024256942379381e-15 1.0 9.810381003480135e-16
  outer loop
    vertex 119.93050986775206 476.623490030829 181.25759594196543
    vertex 108.93050986775168 476.623490030829 37.07133068221949
    vertex 114.93050986775177 476.62349003082863 176.15759594196544
  endloop
endfacet
facet normal -1.5024256942379381e-15 1.0 9.810381003480135e-16
  outer loop
    vertex 114.93050986775177 476.62349003082863 176.15759594196544
    vertex 108.93050986775168 476.623490030829 37.07133068221949
    vertex 114.83050986775179 476.62349003082863 176.15759594196544
  endloop
endfacet
facet normal -1.5024256942379381e-15 1.0 9.810381003480135e-16
  outer loop
    vertex 119.93050986775206 476.623490030829 181.25759594196543
    vertex 114.93050986775177 476.62349003082863 176.15759594196544
    vertex 114.93050986775177 476.62349003082863 176.25759594196543
  endloop
endfacet
facet normal -1.3330750644771474e-16 -3.9633347109264245e-16 -1.0
  outer loop
    vertex 119.93050986775206 476.623490030829 36.97133068221949
    vertex 108.93050986775168 471.62349003082903 36.97133068221949
    vertex 108.93050986775168 476.623490030829 36.97133068221949
  endloop
endfacet
facet normal -1.3330750644771474e-16 -3.9633347109264245e-16 -1.0
  outer loop
    vertex 108.93050986775168 471.62349003082903 36.97133068221949
    vertex 119.93050986775206 476.623490030829 36.97133068221949
    vertex 109.93050986775145 471.62349003082903 36.97133068221949
  endloop
endfacet
facet normal -1.3330750644771474e-16 -3.9633347109264245e-16 -1.0
  outer loop
    vertex 109.93050986775145 471.62349003082903 36.97133068221949
    vertex 119.93050986775206 476.623490030829 36.97133068221949
    vertex 119.93050986775206 471.62349003082903 36.97133068221949
  endloop
endfacet
facet normal 0.0 0.0 -1.0
  outer loop
    vertex 108.8305098677517 476.623490030829 36.97133068221949
    vertex 19.999999999999062 471.6234900308287 36.97133068221949
    vertex 19.999999999999062 476.623490030829 36.97133068221949
  endloop
endfacet
facet normal 0.0 0.0 -1.0
  outer loop
    vertex 19.999999999999062 471.6234900308287 36.97133068221949
    vertex 108.8305098677517 476.623490030829 36.97133068221949
    vertex 22.499999999998494 471.62349003082903 36.97133068221949
  endloop
endfacet
facet normal 0.0 0.0 -1.0
  outer loop
    vertex 22.499999999998494 471.62349003082903 36.97133068221949
    vertex 108.8305098677517 476.623490030829 36.97133068221949
    vertex 108.8305098677517 471.62349003082903 36.97133068221949
  endloop
endfacet
facet normal 1.0 0.0 0.0
  outer loop
    vertex 108.8305098677517 476.623490030829 36.97133068221949
    vertex 108.8305098677517 471.62349003082903 37.07133068221949
    vertex 108.8305098677517 471.62349003082903 36.97133068221949
  endloop
endfacet
facet normal 1.0 0.0 0.0
  outer loop
    vertex 108.8305098677517 471.62349003082903 37.07133068221949
    vertex 108.8305098677517 476.623490030829 36.97133068221949
    vertex 108.8305098677517 476.623490030829 37.07133068221949
  endloop
endfacet
facet normal -1.3040050256240577e-17 -1.0196438801868703e-17 1.0
  outer loop
    vertex 22.499999999999215 360.62349003082977 36.97133068221949
    vertex 108.8305098677517 471.62349003082903 36.97133068221949
    vertex 22.499999999998494 471.62349003082903 36.97133068221949
  endloop
endfacet
facet normal -1.3040050256240577e-17 -1.0196438801868703e-17 1.0
  outer loop
    vertex 108.8305098677517 471.62349003082903 36.97133068221949
    vertex 22.499999999999215 360.62349003082977 36.97133068221949
    vertex 109.93050986775145 360.62349003082977 36.97133068221949
  endloop
endfacet
facet normal -1.3040050256240577e-17 -1.0196438801868703e-17 1.0
  outer loop
    vertex 108.8305098677517 471.62349003082903 36.97133068221949
    vertex 109.93050986775145 360.62349003082977 36.97133068221949
    vertex 108.93050986775168 471.62349003082903 36.97133068221949
  endloop
endfacet
facet normal -1.3040050256240577e-17 -1.0196438801868703e-17 1.0
  outer loop
    vertex 108.93050986775168 471.62349003082903 36.97133068221949
    vertex 109.93050986775145 360.62349003082977 36.97133068221949
    vertex 109.93050986775145 471.62349003082903 36.97133068221949
  endloop
endfacet
facet normal 0.0 1.0 0.0
  outer loop
    vertex 94.9305098677527 415.6234900308288 201.25759594196538
    vertex 104.93050986775259 415.6234900308288 181.25759594196543
    vertex 94.9305098677527 415.6234900308288 181.25759594196543
  endloop
endfacet
facet normal 0.0 1.0 0.0
  outer loop
    vertex 104.93050986775259 415.6234900308288 181.25759594196543
    vertex 94.9305098677527 415.6234900308288 201.25759594196538
    vertex 104.93050986775259 415.6234900308288 201.25759594196538
  endloop
endfacet
facet normal 0.0 0.0 -1.0
  outer loop
    vertex 119.93050986775206 471.62349003082903 31.971330682219488
    vertex 19.999999999999062 355.6234900308298 31.971330682219488
    vertex 19.999999999999062 471.62349003082903 31.971330682219488
  endloop
endfacet
facet normal 0.0 0.0 -1.0
  outer loop
    vertex 19.999999999999062 355.6234900308298 31.971330682219488
    vertex 119.93050986775206 471.62349003082903 31.971330682219488
    vertex 119.93050986775206 355.6234900308298 31.971330682219488
  endloop
endfacet
facet normal 0.0 -1.0 0.0
  outer loop
    vertex 119.93050986775206 355.6234900308298 181.25759594196543
    vertex 19.999999999999062 355.6234900308298 31.971330682219488
    vertex 119.93050986775206 355.6234900308298 31.971330682219488
  endloop
endfacet
facet normal 0.0 -1.0 0.0
  outer loop
    vertex 19.999999999999062 355.6234900308298 31.971330682219488
    vertex 119.93050986775206 355.6234900308298 181.25759594196543
    vertex 19.999999999999062 355.6234900308298 181.25759594196543
  endloop
endfacet
facet normal -1.1065670936218363e-16 -8.712695856336213e-17 -1.0
  outer loop
    vertex 114.83050986775179 471.62349003082795 176.25759594196543
    vertex 27.4999999999988 360.62349003082977 176.25759594196546
    vertex 27.4999999999988 471.6234900308287 176.25759594196543
  endloop
endfacet
facet normal -1.1065670936218363e-16 -8.712695856336213e-17 -1.0
  outer loop
    vertex 27.4999999999988 360.62349003082977 176.25759594196546
    vertex 114.83050986775179 471.62349003082795 176.25759594196543
    vertex 114.93050986775177 360.62349003082977 176.25759594196543
  endloop
endfacet
facet normal -1.1065670936218363e-16 -8.712695856336213e-17 -1.0
  outer loop
    vertex 114.93050986775177 360.62349003082977 176.25759594196543
    vertex 114.83050986775179 471.62349003082795 176.25759594196543
    vertex 114.93050986775177 471.62349003082903 176.25759594196543
  endloop
endfacet
facet normal 0.8380314978655617 2.5229297925871723e-17 0.5456218549372842
  outer loop
    vertex 114.93050986775177 471.62349003082903 41.971330682219495
    vertex 27.4999999999988 360.62349003082977 176.25759594196546
    vertex 114.93050986775177 360.62349003082977 41.97133068221948
  endloop
endfacet
facet normal 0.8380314978655617 2.5229297925871723e-17 0.5456218549372842
  outer loop
    vertex 27.4999999999988 360.62349003082977 176.25759594196546
    vertex 114.93050986775177 471.62349003082903 41.971330682219495
    vertex 27.4999999999988 471.6234900308287 176.25759594196543
  endloop
endfacet
facet normal 0.0 1.0 0.0
  outer loop
    vertex 27.4999999999988 360.62349003082977 176.25759594196546
    vertex 114.93050986775177 360.62349003082977 176.25759594196543
    vertex 114.93050986775177 360.62349003082977 41.97133068221948
  endloop
endfacet
facet normal 0.0 0.0 1.0
  outer loop
    vertex 104.93050986775259 405.6234900308289 201.25759594196538
    vertex 94.9305098677527 415.6234900308288 201.25759594196538
    vertex 94.9305098677527 405.6234900308289 201.25759594196538
  endloop
endfacet
facet normal 0.0 0.0 1.0
  outer loop
    vertex 94.9305098677527 415.6234900308288 201.25759594196538
    vertex 104.93050986775259 405.6234900308289 201.25759594196538
    vertex 104.93050986775259 415.6234900308288 201.25759594196538
  endloop
endfacet
facet normal -1.0 -0.0 -0.0
  outer loop
    vertex 94.9305098677527 415.6234900308288 201.25759594196538
    vertex 94.9305098677527 405.6234900308289 181.25759594196543
    vertex 94.9305098677527 405.6234900308289 201.25759594196538
  endloop
endfacet
facet normal -1.0 -0.0 -0.0
  outer loop
    vertex 94.9305098677527 405.6234900308289 181.25759594196543
    vertex 94.9305098677527 415.6234900308288 201.25759594196538
    vertex 94.9305098677527 415.6234900308288 181.25759594196543
  endloop
endfacet
facet normal 1.0 0.0 0.0
  outer loop
    vertex 119.93050986775206 471.62349003082903 31.971330682219488
    vertex 119.93050986775206 355.6234900308298 181.25759594196543
    vertex 119.93050986775206 355.6234900308298 31.971330682219488
  endloop
endfacet
facet normal 1.0 0.0 0.0
  outer loop
    vertex 119.93050986775206 355.6234900308298 181.25759594196543
    vertex 119.93050986775206 471.62349003082903 31.971330682219488
    vertex 119.93050986775206 471.62349003082903 36.97133068221949
  endloop
endfacet
facet normal 1.0 0.0 0.0
  outer loop
    vertex 119.93050986775206 355.6234900308298 181.25759594196543
    vertex 119.93050986775206 471.62349003082903 36.97133068221949
    vertex 119.93050986775206 476.623490030829 181.25759594196543
  endloop
endfacet
facet normal 1.0 0.0 0.0
  outer loop
    vertex 119.93050986775206 476.623490030829 181.25759594196543
    vertex 119.93050986775206 471.62349003082903 36.97133068221949
    vertex 119.93050986775206 476.623490030829 36.97133068221949
  endloop
endfacet
facet normal 0.0 -1.0 0.0
  outer loop
    vertex 19.999999999999062 405.6234900308298 106.97133068221949
    vertex 0.0 405.6234900308298 96.97133068221949
    vertex 19.999999999999062 405.6234900308298 96.97133068221949
  endloop
endfacet
facet normal 0.0 -1.0 0.0
  outer loop
    vertex 0.0 405.6234900308298 96.97133068221949
    vertex 19.999999999999062 405.6234900308298 106.97133068221949
    vertex 0.0 405.6234900308298 106.97133068221949
  endloop
endfacet
facet normal 0.0 0.0 1.0
  outer loop
    vertex 19.999999999999062 405.6234900308298 106.97133068221949
    vertex 0.0 415.6234900308299 106.97133068221949
    vertex 0.0 405.6234900308298 106.97133068221949
  endloop
endfacet
facet normal 0.0 0.0 1.0
  outer loop
    vertex 0.0 415.6234900308299 106.97133068221949
    vertex 19.999999999999062 405.6234900308298 106.97133068221949
    vertex 19.999999999999062 415.6234900308299 106.97133068221949
  endloop
endfacet
facet normal 0.0 0.0 -1.0
  outer loop
    vertex 114.93050986775177 476.62349003082863 176.25759594196543
    vertex 114.83050986775179 471.62349003082795 176.25759594196543
    vertex 114.83050986775179 476.62349003082863 176.25759594196543
  endloop
endfacet
facet normal 0.0 0.0 -1.0
  outer loop
    vertex 114.83050986775179 471.62349003082795 176.25759594196543
    vertex 114.93050986775177 476.62349003082863 176.25759594196543
    vertex 114.93050986775177 471.62349003082903 176.25759594196543
  endloop
endfacet
facet normal 0.0 -1.0 -2.6879570227673305e-15
  outer loop
    vertex 109.93050986775145 471.62349003082903 36.97133068221949
    vertex 108.93050986775168 471.62349003082903 37.07133068221949
    vertex 108.93050986775168 471.62349003082903 36.97133068221949
  endloop
endfacet
facet normal 0.0 -1.0 -2.6879570227673305e-15
  outer loop
    vertex 108.93050986775168 471.62349003082903 37.07133068221949
    vertex 109.93050986775145 471.62349003082903 36.97133068221949
    vertex 22.499999999998494 471.6234900308287 171.25759594196543
  endloop
endfacet
facet normal 0.0 -1.0 -2.6879570227673305e-15
  outer loop
    vertex 108.93050986775168 471.62349003082903 37.07133068221949
    vertex 22.499999999998494 471.6234900308287 171.25759594196543
    vertex 108.8305098677517 471.62349003082903 37.07133068221949
  endloop
endfacet
facet normal 0.0 -1.0 -2.6879570227673305e-15
  outer loop
    vertex 108.8305098677517 471.62349003082903 37.07133068221949
    vertex 22.499999999998494 471.62349003082903 36.97133068221949
    vertex 108.8305098677517 471.62349003082903 36.97133068221949
  endloop
endfacet
facet normal 0.0 -1.0 -2.6879570227673305e-15
  outer loop
    vertex 22.499999999998494 471.62349003082903 36.97133068221949
    vertex 108.8305098677517 471.62349003082903 37.07133068221949
    vertex 22.499999999998494 471.6234900308287 171.25759594196543
  endloop
endfacet
facet normal 0.0 0.0 1.0
  outer loop
    vertex 114.93050986775177 471.62349003082795 176.15759594196544
    vertex 114.83050986775179 476.62349003082863 176.15759594196544
    vertex 114.83050986775179 471.62349003082795 176.15759594196544
  endloop
endfacet
facet normal 0.0 0.0 1.0
  outer loop
    vertex 114.83050986775179 476.62349003082863 176.15759594196544
    vertex 114.93050986775177 471.62349003082795 176.15759594196544
    vertex 114.93050986775177 476.62349003082863 176.15759594196544
  endloop
endfacet
facet normal 1.0 0.0 0.0
  outer loop
    vertex 104.93050986775259 415.6234900308288 181.25759594196543
    vertex 104.93050986775259 405.6234900308289 201.25759594196538
    vertex 104.93050986775259 405.6234900308289 181.25759594196543
  endloop
endfacet
facet normal 1.0 0.0 0.0
  outer loop
    vertex 104.93050986775259 405.6234900308289 201.25759594196538
    vertex 104.93050986775259 415.6234900308288 181.25759594196543
    vertex 104.93050986775259 415.6234900308288 201.25759594196538
  endloop
endfacet
facet normal -1.0 -0.0 -0.0
  outer loop
    vertex 47.14909943232622 415.6234900308302 201.25759594196538
    vertex 47.14909943232622 405.62349003083034 181.25759594196543
    vertex 47.14909943232622 405.62349003083034 201.25759594196538
  endloop
endfacet
facet normal -1.0 -0.0 -0.0
  outer loop
    vertex 47.14909943232622 405.62349003083034 181.25759594196543
    vertex 47.14909943232622 415.6234900308302 201.25759594196538
    vertex 47.14909943232622 415.6234900308302 181.25759594196543
  endloop
endfacet
facet normal 0.0 0.0 1.0
  outer loop
    vertex 57.14909943232611 405.62349003083034 201.25759594196538
    vertex 47.14909943232622 415.6234900308302 201.25759594196538
    vertex 47.14909943232622 405.62349003083034 201.25759594196538
  endloop
endfacet
facet normal 0.0 0.0 1.0
  outer loop
    vertex 47.14909943232622 415.6234900308302 201.25759594196538
    vertex 57.14909943232611 405.62349003083034 201.25759594196538
    vertex 57.14909943232611 415.6234900308302 201.25759594196538
  endloop
endfacet
facet normal 8.416089936008012e-33 5.639932965095787e-16 -1.0
  outer loop
    vertex 19.999999999999062 415.6234900308299 96.97133068221949
    vertex 0.0 405.6234900308298 96.97133068221949
    vertex 0.0 415.6234900308299 96.97133068221949
  endloop
endfacet
facet normal 8.416089936008012e-33 5.639932965095787e-16 -1.0
  outer loop
    vertex 0.0 405.6234900308298 96.97133068221949
    vertex 19.999999999999062 415.6234900308299 96.97133068221949
    vertex 19.999999999999062 405.6234900308298 96.97133068221949
  endloop
endfacet
facet normal -1.0 0.0 0.0
  outer loop
    vertex 108.93050986775168 476.623490030829 37.07133068221949
    vertex 108.93050986775168 471.62349003082903 36.97133068221949
    vertex 108.93050986775168 471.62349003082903 37.07133068221949
  endloop
endfacet
facet normal -1.0 0.0 0.0
  outer loop
    vertex 108.93050986775168 471.62349003082903 36.97133068221949
    vertex 108.93050986775168 476.623490030829 37.07133068221949
    vertex 108.93050986775168 476.623490030829 36.97133068221949
  endloop
endfacet
facet normal 1.0 6.5037064822726814e-15 8.848322454859969e-30
  outer loop
    vertex 22.499999999998494 471.62349003082903 36.97133068221949
    vertex 22.499999999999215 360.62349003082977 171.2575959419655
    vertex 22.499999999999215 360.62349003082977 36.97133068221949
  endloop
endfacet
facet normal 1.0 6.5037064822726814e-15 8.848322454859969e-30
  outer loop
    vertex 22.499999999999215 360.62349003082977 171.2575959419655
    vertex 22.499999999998494 471.62349003082903 36.97133068221949
    vertex 22.499999999998494 471.6234900308287 171.25759594196543
  endloop
endfacet
facet normal -0.8380314978655629 -2.753453609175921e-15 -0.5456218549372827
  outer loop
    vertex 22.499999999998494 471.6234900308287 171.25759594196543
    vertex 109.93050986775145 360.62349003082977 36.97133068221949
    vertex 22.499999999999215 360.62349003082977 171.2575959419655
  endloop
endfacet
facet normal -0.8380314978655629 -2.753453609175921e-15 -0.5456218549372827
  outer loop
    vertex 109.93050986775145 360.62349003082977 36.97133068221949
    vertex 22.499999999998494 471.6234900308287 171.25759594196543
    vertex 109.93050986775145 471.62349003082903 36.97133068221949
  endloop
endfacet
facet normal 0.0 -1.0 0.0
  outer loop
    vertex 104.93050986775259 405.6234900308289 201.25759594196538
    vertex 94.9305098677527 405.6234900308289 181.25759594196543
    vertex 104.93050986775259 405.6234900308289 181.25759594196543
  endloop
endfacet
facet normal 0.0 -1.0 0.0
  outer loop
    vertex 94.9305098677527 405.6234900308289 181.25759594196543
    vertex 104.93050986775259 405.6234900308289 201.25759594196538
    vertex 94.9305098677527 405.6234900308289 201.25759594196538
  endloop
endfacet
facet normal 2.2575419549283326e-16 -1.864440649618457e-16 1.0
  outer loop
    vertex 19.999999999999062 355.6234900308298 181.25759594196543
    vertex 47.14909943232622 405.62349003083034 181.25759594196543
    vertex 19.999999999999062 476.62349003082863 181.25759594196546
  endloop
endfacet
facet normal 2.2575419549283326e-16 -1.864440649618457e-16 1.0
  outer loop
    vertex 47.14909943232622 405.62349003083034 181.25759594196543
    vertex 19.999999999999062 355.6234900308298 181.25759594196543
    vertex 119.93050986775206 355.6234900308298 181.25759594196543
  endloop
endfacet
facet normal 2.2575419549283326e-16 -1.864440649618457e-16 1.0
  outer loop
    vertex 47.14909943232622 405.62349003083034 181.25759594196543
    vertex 119.93050986775206 355.6234900308298 181.25759594196543
    vertex 57.14909943232611 405.62349003083034 181.25759594196543
  endloop
endfacet
facet normal 2.2575419549283326e-16 -1.864440649618457e-16 1.0
  outer loop
    vertex 57.14909943232611 405.62349003083034 181.25759594196543
    vertex 119.93050986775206 355.6234900308298 181.25759594196543
    vertex 57.14909943232611 415.6234900308302 181.25759594196543
  endloop
endfacet
facet normal 2.2575419549283326e-16 -1.864440649618457e-16 1.0
  outer loop
    vertex 57.14909943232611 415.6234900308302 181.25759594196543
    vertex 119.93050986775206 355.6234900308298 181.25759594196543
    vertex 94.9305098677527 405.6234900308289 181.25759594196543
  endloop
endfacet
facet normal 2.2575419549283326e-16 -1.864440649618457e-16 1.0
  outer loop
    vertex 94.9305098677527 405.6234900308289 181.25759594196543
    vertex 119.93050986775206 355.6234900308298 181.25759594196543
    vertex 104.93050986775259 405.6234900308289 181.25759594196543
  endloop
endfacet
facet normal 2.2575419549283326e-16 -1.864440649618457e-16 1.0
  outer loop
    vertex 104.93050986775259 405.6234900308289 181.25759594196543
    vertex 119.93050986775206 355.6234900308298 181.25759594196543
    vertex 104.93050986775259 415.6234900308288 181.25759594196543
  endloop
endfacet
facet normal 2.2575419549283326e-16 -1.864440649618457e-16 1.0
  outer loop
    vertex 19.999999999999062 476.62349003082863 181.25759594196546
    vertex 47.14909943232622 415.6234900308302 181.25759594196543
    vertex 119.93050986775206 476.623490030829 181.25759594196543
  endloop
endfacet
facet normal 2.2575419549283326e-16 -1.864440649618457e-16 1.0
  outer loop
    vertex 47.14909943232622 415.6234900308302 181.25759594196543
    vertex 19.999999999999062 476.62349003082863 181.25759594196546
    vertex 47.14909943232622 405.62349003083034 181.25759594196543
  endloop
endfacet
facet normal 2.2575419549283326e-16 -1.864440649618457e-16 1.0
  outer loop
    vertex 119.93050986775206 476.623490030829 181.25759594196543
    vertex 47.14909943232622 415.6234900308302 181.25759594196543
    vertex 57.14909943232611 415.6234900308302 181.25759594196543
  endloop
endfacet
facet normal 2.2575419549283326e-16 -1.864440649618457e-16 1.0
  outer loop
    vertex 119.93050986775206 476.623490030829 181.25759594196543
    vertex 57.14909943232611 415.6234900308302 181.25759594196543
    vertex 94.9305098677527 415.6234900308288 181.25759594196543
  endloop
endfacet
facet normal 2.2575419549283326e-16 -1.864440649618457e-16 1.0
  outer loop
    vertex 94.9305098677527 415.6234900308288 181.25759594196543
    vertex 57.14909943232611 415.6234900308302 181.25759594196543
    vertex 94.9305098677527 405.6234900308289 181.25759594196543
  endloop
endfacet
facet normal 2.2575419549283326e-16 -1.864440649618457e-16 1.0
  outer loop
    vertex 119.93050986775206 476.623490030829 181.25759594196543
    vertex 94.9305098677527 415.6234900308288 181.25759594196543
    vertex 104.93050986775259 415.6234900308288 181.25759594196543
  endloop
endfacet
facet normal 2.2575419549283326e-16 -1.864440649618457e-16 1.0
  outer loop
    vertex 119.93050986775206 476.623490030829 181.25759594196543
    vertex 104.93050986775259 415.6234900308288 181.25759594196543
    vertex 119.93050986775206 355.6234900308298 181.25759594196543
  endloop
endfacet
facet normal 1.0 0.0 0.0
  outer loop
    vertex 57.14909943232611 415.6234900308302 181.25759594196543
    vertex 57.14909943232611 405.62349003083034 201.25759594196538
    vertex 57.14909943232611 405.62349003083034 181.25759594196543
  endloop
endfacet
facet normal 1.0 0.0 0.0
  outer loop
    vertex 57.14909943232611 405.62349003083034 201.25759594196538
    vertex 57.14909943232611 415.6234900308302 181.25759594196543
    vertex 57.14909943232611 415.6234900308302 201.25759594196538
  endloop
endfacet
facet normal -1.0 0.0 0.0
  outer loop
    vertex 114.93050986775177 471.62349003082903 176.25759594196543
    vertex 114.93050986775177 476.62349003082863 176.15759594196544
    vertex 114.93050986775177 471.62349003082795 176.15759594196544
  endloop
endfacet
facet normal -1.0 0.0 0.0
  outer loop
    vertex 114.93050986775177 476.62349003082863 176.15759594196544
    vertex 114.93050986775177 471.62349003082903 176.25759594196543
    vertex 114.93050986775177 476.62349003082863 176.25759594196543
  endloop
endfacet
facet normal 0.0 1.0 0.0
  outer loop
    vertex 22.499999999999215 360.62349003082977 171.2575959419655
    vertex 109.93050986775145 360.62349003082977 36.97133068221949
    vertex 22.499999999999215 360.62349003082977 36.97133068221949
  endloop
endfacet
facet normal 0.0 1.0 0.0
  outer loop
    vertex 47.14909943232622 415.6234900308302 201.25759594196538
    vertex 57.14909943232611 415.6234900308302 181.25759594196543
    vertex 47.14909943232622 415.6234900308302 181.25759594196543
  endloop
endfacet
facet normal 0.0 1.0 0.0
  outer loop
    vertex 57.14909943232611 415.6234900308302 181.25759594196543
    vertex 47.14909943232622 415.6234900308302 201.25759594196538
    vertex 57.14909943232611 415.6234900308302 201.25759594196538
  endloop
endfacet
facet normal 0.0 -1.0 0.0
  outer loop
    vertex 57.14909943232611 405.62349003083034 201.25759594196538
    vertex 47.14909943232622 405.62349003083034 181.25759594196543
    vertex 57.14909943232611 405.62349003083034 181.25759594196543
  endloop
endfacet
facet normal 0.0 -1.0 0.0
  outer loop
    vertex 47.14909943232622 405.62349003083034 181.25759594196543
    vertex 57.14909943232611 405.62349003083034 201.25759594196538
    vertex 47.14909943232622 405.62349003083034 201.25759594196538
  endloop
endfacet
facet normal 0.0 1.0 0.0
  outer loop
    vertex 0.0 415.6234900308299 106.97133068221949
    vertex 19.999999999999062 415.6234900308299 96.97133068221949
    vertex 0.0 415.6234900308299 96.97133068221949
  endloop
endfacet
facet normal 0.0 1.0 0.0
  outer loop
    vertex 19.999999999999062 415.6234900308299 96.97133068221949
    vertex 0.0 415.6234900308299 106.97133068221949
    vertex 19.999999999999062 415.6234900308299 106.97133068221949
  endloop
endfacet
facet normal -1.3881129469490708e-15 1.0 1.5286080035969513e-14
  outer loop
    vertex 19.999999999999062 471.6234900308287 36.97133068221949
    vertex 119.93050986775206 471.62349003082903 31.971330682219488
    vertex 19.999999999999062 471.62349003082903 31.971330682219488
  endloop
endfacet
facet normal -1.3881129469490708e-15 1.0 1.5286080035969513e-14
  outer loop
    vertex 119.93050986775206 471.62349003082903 31.971330682219488
    vertex 19.999999999999062 471.6234900308287 36.97133068221949
    vertex 119.93050986775206 471.62349003082903 36.97133068221949
  endloop
endfacet
facet normal -1.3881129469490708e-15 1.0 1.5286080035969513e-14
  outer loop
    vertex 119.93050986775206 471.62349003082903 36.97133068221949
    vertex 19.999999999999062 471.6234900308287 36.97133068221949
    vertex 22.499999999998494 471.62349003082903 36.97133068221949
  endloop
endfacet
facet normal -1.3881129469490708e-15 1.0 1.5286080035969513e-14
  outer loop
    vertex 119.93050986775206 471.62349003082903 36.97133068221949
    vertex 22.499999999998494 471.62349003082903 36.97133068221949
    vertex 108.8305098677517 471.62349003082903 36.97133068221949
  endloop
endfacet
facet normal -1.3881129469490708e-15 1.0 1.5286080035969513e-14
  outer loop
    vertex 119.93050986775206 471.62349003082903 36.97133068221949
    vertex 108.8305098677517 471.62349003082903 36.97133068221949
    vertex 108.93050986775168 471.62349003082903 36.97133068221949
  endloop
endfacet
facet normal -1.3881129469490708e-15 1.0 1.5286080035969513e-14
  outer loop
    vertex 119.93050986775206 471.62349003082903 36.97133068221949
    vertex 108.93050986775168 471.62349003082903 36.97133068221949
    vertex 109.93050986775145 471.62349003082903 36.97133068221949
  endloop
endfacet
facet normal -4.1247807854822265e-15 -1.0 -5.3745741194625776e-15
  outer loop
    vertex 114.93050986775177 471.62349003082903 41.971330682219495
    vertex 114.83050986775179 471.62349003082795 176.15759594196544
    vertex 27.4999999999988 471.6234900308287 176.25759594196543
  endloop
endfacet
facet normal -4.1247807854822265e-15 -1.0 -5.3745741194625776e-15
  outer loop
    vertex 114.83050986775179 471.62349003082795 176.15759594196544
    vertex 114.93050986775177 471.62349003082903 41.971330682219495
    vertex 114.93050986775177 471.62349003082795 176.15759594196544
  endloop
endfacet
facet normal -4.1247807854822265e-15 -1.0 -5.3745741194625776e-15
  outer loop
    vertex 27.4999999999988 471.6234900308287 176.25759594196543
    vertex 114.83050986775179 471.62349003082795 176.15759594196544
    vertex 114.83050986775179 471.62349003082795 176.25759594196543
  endloop
endfacet
facet normal 1.0 0.0 0.0
  outer loop
    vertex 114.83050986775179 476.62349003082863 176.15759594196544
    vertex 114.83050986775179 471.62349003082795 176.25759594196543
    vertex 114.83050986775179 471.62349003082795 176.15759594196544
  endloop
endfacet
facet normal 1.0 0.0 0.0
  outer loop
    vertex 114.83050986775179 471.62349003082795 176.25759594196543
    vertex 114.83050986775179 476.62349003082863 176.15759594196544
    vertex 114.83050986775179 476.62349003082863 176.25759594196543
  endloop
endfacet
facet normal -1.0 0.0 0.0
  outer loop
    vertex 19.999999999999062 355.6234900308298 181.25759594196543
    vertex 19.999999999999062 405.6234900308298 106.97133068221949
    vertex 19.999999999999062 355.6234900308298 31.971330682219488
  endloop
endfacet
facet normal -1.0 0.0 0.0
  outer loop
    vertex 19.999999999999062 405.6234900308298 106.97133068221949
    vertex 19.999999999999062 355.6234900308298 181.25759594196543
    vertex 19.999999999999062 476.62349003082863 181.25759594196546
  endloop
endfacet
facet normal -1.0 0.0 0.0
  outer loop
    vertex 19.999999999999062 405.6234900308298 106.97133068221949
    vertex 19.999999999999062 476.62349003082863 181.25759594196546
    vertex 19.999999999999062 415.6234900308299 106.97133068221949
  endloop
endfacet
facet normal -1.0 0.0 0.0
  outer loop
    vertex 19.999999999999062 415.6234900308299 106.97133068221949
    vertex 19.999999999999062 476.62349003082863 181.25759594196546
    vertex 19.999999999999062 415.6234900308299 96.97133068221949
  endloop
endfacet
facet normal -1.0 0.0 0.0
  outer loop
    vertex 19.999999999999062 415.6234900308299 96.97133068221949
    vertex 19.999999999999062 476.62349003082863 181.25759594196546
    vertex 19.999999999999062 471.6234900308287 36.97133068221949
  endloop
endfacet
facet normal -1.0 0.0 0.0
  outer loop
    vertex 19.999999999999062 471.6234900308287 36.97133068221949
    vertex 19.999999999999062 476.62349003082863 181.25759594196546
    vertex 19.999999999999062 476.623490030829 36.97133068221949
  endloop
endfacet
facet normal -1.0 0.0 0.0
  outer loop
    vertex 19.999999999999062 355.6234900308298 31.971330682219488
    vertex 19.999999999999062 405.6234900308298 96.97133068221949
    vertex 19.999999999999062 471.62349003082903 31.971330682219488
  endloop
endfacet
facet normal -1.0 0.0 0.0
  outer loop
    vertex 19.999999999999062 405.6234900308298 96.97133068221949
    vertex 19.999999999999062 355.6234900308298 31.971330682219488
    vertex 19.999999999999062 405.6234900308298 106.97133068221949
  endloop
endfacet
facet normal -1.0 0.0 0.0
  outer loop
    vertex 19.999999999999062 471.62349003082903 31.971330682219488
    vertex 19.999999999999062 405.6234900308298 96.97133068221949
    vertex 19.999999999999062 415.6234900308299 96.97133068221949
  endloop
endfacet
facet normal -1.0 0.0 0.0
  outer loop
    vertex 19.999999999999062 471.62349003082903 31.971330682219488
    vertex 19.999999999999062 415.6234900308299 96.97133068221949
    vertex 19.999999999999062 471.6234900308287 36.97133068221949
  endloop
endfacet
endsolid SlotmachinePrototypeBottomRightBack
