solid SlotmachinePrototypeBottomLeftFront
facet normal -3.764298530097435e-15 -1.0 -2.4284963306233024e-16
  outer loop
    vertex 139.26044658561136 95.155874596226 4.999999999999991
    vertex 86.72350497289828 95.155874596226 0.0
    vertex 139.26044658561136 95.155874596226 0.0
  endloop
endfacet
facet normal -3.764298530097435e-15 -1.0 -2.4284963306233024e-16
  outer loop
    vertex 86.72350497289828 95.155874596226 0.0
    vertex 139.26044658561136 95.155874596226 4.999999999999991
    vertex 102.40660365178928 95.155874596226 4.999999999999991
  endloop
endfacet
facet normal -3.764298530097435e-15 -1.0 -2.4284963306233024e-16
  outer loop
    vertex 86.72350497289828 95.155874596226 0.0
    vertex 102.40660365178928 95.155874596226 4.999999999999991
    vertex 86.72350497289828 95.155874596226 10.869190417069628
  endloop
endfacet
facet normal -3.764298530097435e-15 -1.0 -2.4284963306233024e-16
  outer loop
    vertex 86.72350497289828 95.155874596226 10.869190417069628
    vertex 102.40660365178928 95.155874596226 4.999999999999991
    vertex 94.56426044901906 95.155874596226 10.869190417069786
  endloop
endfacet
facet normal -3.764298530097435e-15 -1.0 -2.4284963306233024e-16
  outer loop
    vertex 86.72350497289828 95.155874596226 10.869190417069628
    vertex 94.56426044901906 95.155874596226 10.869190417069786
    vertex 92.55549645965986 95.155874596226 29.99999999999999
  endloop
endfacet
facet normal -3.764298530097435e-15 -1.0 -2.4284963306233024e-16
  outer loop
    vertex 92.55549645965986 95.155874596226 29.99999999999999
    vertex 94.56426044901906 95.155874596226 10.869190417069786
    vertex 100.39625193578135 95.155874596226 29.99999999999999
  endloop
endfacet
facet normal -0.9565404791465082 9.521746796526291e-17 0.2915995743381129
  outer loop
    vertex 136.76044658561122 90.15587459622569 149.28626525974593
    vertex 100.39625193578135 95.155874596226 29.99999999999999
    vertex 94.56426044901906 90.15587459622641 10.869190417069786
  endloop
endfacet
facet normal -0.9565404791465082 9.521746796526291e-17 0.2915995743381129
  outer loop
    vertex 100.39625193578135 95.155874596226 29.99999999999999
    vertex 136.76044658561122 90.15587459622569 149.28626525974593
    vertex 136.76044658561122 201.155874596225 149.28626525974593
  endloop
endfacet
facet normal -0.9565404791465082 9.521746796526291e-17 0.2915995743381129
  outer loop
    vertex 100.39625193578135 95.155874596226 29.99999999999999
    vertex 136.76044658561122 201.155874596225 149.28626525974593
    vertex 100.39625193578135 201.15587459622571 29.99999999999999
  endloop
endfacet
facet normal -0.9565404791465082 9.521746796526291e-17 0.2915995743381129
  outer loop
    vertex 94.56426044901906 95.155874596226 10.869190417069786
    vertex 94.56426044901906 90.15587459622641 10.869190417069786
    vertex 100.39625193578135 95.155874596226 29.99999999999999
  endloop
endfacet
facet normal -4.593571170392511e-16 -1.0 -4.985635451417418e-15
  outer loop
    vertex 139.26044658561136 90.15587459622569 149.28626525974593
    vertex 102.40660365178928 90.15587459622641 4.999999999999991
    vertex 139.26044658561136 90.15587459622641 4.999999999999991
  endloop
endfacet
facet normal -4.593571170392511e-16 -1.0 -4.985635451417418e-15
  outer loop
    vertex 102.40660365178928 90.15587459622641 4.999999999999991
    vertex 139.26044658561136 90.15587459622569 149.28626525974593
    vertex 94.56426044901906 90.15587459622641 10.869190417069786
  endloop
endfacet
facet normal -4.593571170392511e-16 -1.0 -4.985635451417418e-15
  outer loop
    vertex 94.56426044901906 90.15587459622641 10.869190417069786
    vertex 139.26044658561136 90.15587459622569 149.28626525974593
    vertex 136.76044658561122 90.15587459622569 149.28626525974593
  endloop
endfacet
facet normal 0.0 1.0 0.0
  outer loop
    vertex 118.26044658561109 150.65587459622566 75.5
    vertex 139.26044658561136 150.65587459622566 64.5
    vertex 118.26044658561109 150.65587459622566 64.5
  endloop
endfacet
facet normal 0.0 1.0 0.0
  outer loop
    vertex 139.26044658561136 150.65587459622566 64.5
    vertex 118.26044658561109 150.65587459622566 75.5
    vertex 139.26044658561136 150.65587459622566 75.5
  endloop
endfacet
facet normal -0.29673379779795767 -3.182376322038654e-15 0.9549602364729124
  outer loop
    vertex 126.26044658561143 90.15587459622569 149.28626525974593
    vertex 119.00382669495457 109.18334717948254 147.0314233332553
    vertex 117.47092620336322 90.15587459622569 146.55510676305275
  endloop
endfacet
facet normal -0.29673379779795767 -3.182376322038654e-15 0.9549602364729124
  outer loop
    vertex 77.27734038550544 90.15587459622569 134.06579578304616
    vertex 71.40954601793776 211.1558745962256 132.24250216213414
    vertex 71.40954601793776 90.15587459622569 132.24250216213414
  endloop
endfacet
facet normal -0.29673379779795767 -3.182376322038654e-15 0.9549602364729124
  outer loop
    vertex 71.40954601793776 211.1558745962256 132.24250216213414
    vertex 77.27734038550544 90.15587459622569 134.06579578304616
    vertex 85.84349781729576 119.64774906419909 136.72754894321818
  endloop
endfacet
facet normal -0.29673379779795767 -3.182376322038654e-15 0.9549602364729124
  outer loop
    vertex 71.40954601793776 211.1558745962256 132.24250216213414
    vertex 85.84349781729576 119.64774906419909 136.72754894321818
    vertex 126.26044658561143 211.1558745962256 149.2862652597467
  endloop
endfacet
facet normal -0.29673379779795767 -3.182376322038654e-15 0.9549602364729124
  outer loop
    vertex 126.26044658561143 211.1558745962256 149.2862652597467
    vertex 85.84349781729576 119.64774906419909 136.72754894321818
    vertex 92.52750932535704 119.9791758787265 138.80446486449037
  endloop
endfacet
facet normal -0.29673379779795767 -3.182376322038654e-15 0.9549602364729124
  outer loop
    vertex 126.26044658561143 211.1558745962256 149.2862652597467
    vertex 92.52750932535704 119.9791758787265 138.80446486449037
    vertex 107.64902706005944 120.52130047396582 143.5031582912032
  endloop
endfacet
facet normal -0.29673379779795767 -3.182376322038654e-15 0.9549602364729124
  outer loop
    vertex 126.26044658561143 211.1558745962256 149.2862652597467
    vertex 107.64902706005944 120.52130047396582 143.5031582912032
    vertex 119.00382669495457 109.18334717948254 147.0314233332553
  endloop
endfacet
facet normal -0.29673379779795767 -3.182376322038654e-15 0.9549602364729124
  outer loop
    vertex 126.26044658561143 211.1558745962256 149.2862652597467
    vertex 119.00382669495457 109.18334717948254 147.0314233332553
    vertex 126.26044658561143 90.15587459622569 149.28626525974593
  endloop
endfacet
facet normal 1.6430407636868448e-15 -1.0 -5.550723681951506e-15
  outer loop
    vertex 86.72350497289828 90.15587459622641 10.869190417069628
    vertex 120.49267831889621 90.15587459622569 136.35891936008557
    vertex 80.14176220814583 90.15587459622569 124.4004822205434
  endloop
endfacet
facet normal 1.6430407636868448e-15 -1.0 -5.550723681951506e-15
  outer loop
    vertex 120.49267831889621 90.15587459622569 136.35891936008557
    vertex 86.72350497289828 90.15587459622641 10.869190417069628
    vertex 128.91969110948685 90.15587459622569 149.28626525974593
  endloop
endfacet
facet normal 1.6430407636868448e-15 -1.0 -5.550723681951506e-15
  outer loop
    vertex 120.49267831889621 90.15587459622569 136.35891936008557
    vertex 128.91969110948685 90.15587459622569 149.28626525974593
    vertex 117.47092620336322 90.15587459622569 146.55510676305275
  endloop
endfacet
facet normal 1.6430407636868448e-15 -1.0 -5.550723681951506e-15
  outer loop
    vertex 117.47092620336322 90.15587459622569 146.55510676305275
    vertex 128.91969110948685 90.15587459622569 149.28626525974593
    vertex 126.26044658561143 90.15587459622569 149.28626525974593
  endloop
endfacet
facet normal 1.6430407636868448e-15 -1.0 -5.550723681951506e-15
  outer loop
    vertex 86.72350497289828 90.15587459622641 10.869190417069628
    vertex 71.40954601793847 90.15587459622641 0.0
    vertex 86.72350497289828 90.15587459622641 0.0
  endloop
endfacet
facet normal 1.6430407636868448e-15 -1.0 -5.550723681951506e-15
  outer loop
    vertex 71.40954601793847 90.15587459622641 0.0
    vertex 86.72350497289828 90.15587459622641 10.869190417069628
    vertex 71.40954601793776 90.15587459622569 132.24250216213414
  endloop
endfacet
facet normal 1.6430407636868448e-15 -1.0 -5.550723681951506e-15
  outer loop
    vertex 71.40954601793776 90.15587459622569 132.24250216213414
    vertex 86.72350497289828 90.15587459622641 10.869190417069628
    vertex 80.14176220814583 90.15587459622569 124.4004822205434
  endloop
endfacet
facet normal 1.6430407636868448e-15 -1.0 -5.550723681951506e-15
  outer loop
    vertex 71.40954601793776 90.15587459622569 132.24250216213414
    vertex 80.14176220814583 90.15587459622569 124.4004822205434
    vertex 77.27734038550544 90.15587459622569 134.06579578304616
  endloop
endfacet
facet normal -1.0 6.460099733907576e-32 -5.458996976986809e-15
  outer loop
    vertex 71.40954601793776 211.1558745962256 132.24250216213414
    vertex 71.40954601793847 90.15587459622641 0.0
    vertex 71.40954601793776 90.15587459622569 132.24250216213414
  endloop
endfacet
facet normal -1.0 6.460099733907576e-32 -5.458996976986809e-15
  outer loop
    vertex 71.40954601793847 90.15587459622641 0.0
    vertex 71.40954601793776 211.1558745962256 132.24250216213414
    vertex 71.40954601793847 211.1558745962256 0.0
  endloop
endfacet
facet normal 3.5965494538580143e-16 0.0 1.0
  outer loop
    vertex 100.39625193578135 95.155874596226 29.99999999999999
    vertex 92.55549645965986 201.15587459622571 29.99999999999999
    vertex 92.55549645965986 95.155874596226 29.99999999999999
  endloop
endfacet
facet normal 3.5965494538580143e-16 0.0 1.0
  outer loop
    vertex 92.55549645965986 201.15587459622571 29.99999999999999
    vertex 100.39625193578135 95.155874596226 29.99999999999999
    vertex 100.39625193578135 201.15587459622571 29.99999999999999
  endloop
endfacet
facet normal -0.9553880973921319 0.08405630512420137 -0.28313975512158274
  outer loop
    vertex 119.00382669495457 109.18334717948254 147.0314233332553
    vertex 120.49267831889621 90.15587459622569 136.35891936008557
    vertex 117.47092620336322 90.15587459622569 146.55510676305275
  endloop
endfacet
facet normal -0.9553880973921319 0.08405630512420137 -0.28313975512158274
  outer loop
    vertex 120.49267831889621 90.15587459622569 136.35891936008557
    vertex 119.00382669495457 109.18334717948254 147.0314233332553
    vertex 122.03157906347394 109.18334717948254 136.81498949657313
  endloop
endfacet
facet normal 0.04535304173500414 -0.9988805957496443 0.013440872003662722
  outer loop
    vertex 95.45162508913658 119.9791758787265 128.93772822444643
    vertex 85.84349781729576 119.64774906419909 136.72754894321818
    vertex 88.74145026504195 119.64774906419909 126.94909422146564
  endloop
endfacet
facet normal 0.04535304173500414 -0.9988805957496443 0.013440872003662722
  outer loop
    vertex 85.84349781729576 119.64774906419909 136.72754894321818
    vertex 95.45162508913658 119.9791758787265 128.93772822444643
    vertex 92.52750932535704 119.9791758787265 138.80446486449037
  endloop
endfacet
facet normal -0.6616812679178709 -0.723687818204319 -0.19609651059942812
  outer loop
    vertex 122.03157906347394 109.18334717948254 136.81498949657313
    vertex 107.64902706005944 120.52130047396582 143.5031582912032
    vertex 110.63233318383745 120.52130047396582 133.43669778900255
  endloop
endfacet
facet normal -0.6616812679178709 -0.723687818204319 -0.19609651059942812
  outer loop
    vertex 107.64902706005944 120.52130047396582 143.5031582912032
    vertex 122.03157906347394 109.18334717948254 136.81498949657313
    vertex 119.00382669495457 109.18334717948254 147.0314233332553
  endloop
endfacet
facet normal 0.03280890197543237 -0.9994143454083059 0.009723278421083942
  outer loop
    vertex 110.63233318383745 120.52130047396582 133.43669778900255
    vertex 92.52750932535704 119.9791758787265 138.80446486449037
    vertex 95.45162508913658 119.9791758787265 128.93772822444643
  endloop
endfacet
facet normal 0.03280890197543237 -0.9994143454083059 0.009723278421083942
  outer loop
    vertex 92.52750932535704 119.9791758787265 138.80446486449037
    vertex 110.63233318383745 120.52130047396582 133.43669778900255
    vertex 107.64902706005944 120.52130047396582 143.5031582912032
  endloop
endfacet
facet normal -6.058388645726602e-13 -1.8654857571491003e-14 1.0
  outer loop
    vertex 128.91969110948685 90.15587459622569 149.28626525974593
    vertex 126.26044658561143 211.1558745962256 149.2862652597467
    vertex 126.26044658561143 90.15587459622569 149.28626525974593
  endloop
endfacet
facet normal -6.058388645726602e-13 -1.8654857571491003e-14 1.0
  outer loop
    vertex 126.26044658561143 211.1558745962256 149.2862652597467
    vertex 128.91969110948685 90.15587459622569 149.28626525974593
    vertex 128.91969110948827 211.1558745962256 149.28626525974846
  endloop
endfacet
facet normal -6.058388645726602e-13 -1.8654857571491003e-14 1.0
  outer loop
    vertex 128.91969110948827 211.1558745962256 149.28626525974846
    vertex 128.91969110948685 90.15587459622569 149.28626525974593
    vertex 128.91969110948827 201.15587459622643 149.28626525975034
  endloop
endfacet
facet normal 0.9172963109782241 -0.29097182148437695 0.27185083587843767
  outer loop
    vertex 88.74145026504195 119.64774906419909 126.94909422146564
    vertex 77.27734038550544 90.15587459622569 134.06579578304616
    vertex 80.14176220814583 90.15587459622569 124.4004822205434
  endloop
endfacet
facet normal 0.9172963109782241 -0.29097182148437695 0.27185083587843767
  outer loop
    vertex 77.27734038550544 90.15587459622569 134.06579578304616
    vertex 88.74145026504195 119.64774906419909 126.94909422146564
    vertex 85.84349781729576 119.64774906419909 136.72754894321818
  endloop
endfacet
facet normal 0.0 0.0 1.0
  outer loop
    vertex 139.26044658561136 150.65587459622566 64.5
    vertex 118.26044658561109 161.65587459622532 64.5
    vertex 118.26044658561109 150.65587459622566 64.5
  endloop
endfacet
facet normal 0.0 0.0 1.0
  outer loop
    vertex 118.26044658561109 161.65587459622532 64.5
    vertex 139.26044658561136 150.65587459622566 64.5
    vertex 139.26044658561136 161.65587459622532 64.5
  endloop
endfacet
facet normal -0.599178597001266 3.5841123645837624e-17 -0.80061539386624
  outer loop
    vertex 102.40660365178928 95.155874596226 4.999999999999991
    vertex 94.56426044901906 90.15587459622641 10.869190417069786
    vertex 94.56426044901906 95.155874596226 10.869190417069786
  endloop
endfacet
facet normal -0.599178597001266 3.5841123645837624e-17 -0.80061539386624
  outer loop
    vertex 94.56426044901906 90.15587459622641 10.869190417069786
    vertex 102.40660365178928 95.155874596226 4.999999999999991
    vertex 102.40660365178928 90.15587459622641 4.999999999999991
  endloop
endfacet
facet normal -0.2841453436323965 3.0982046790789805e-15 0.9587812178448363
  outer loop
    vertex 120.49267831889621 90.15587459622569 136.35891936008557
    vertex 88.74145026504195 119.64774906419909 126.94909422146564
    vertex 80.14176220814583 90.15587459622569 124.4004822205434
  endloop
endfacet
facet normal -0.2841453436323965 3.0982046790789805e-15 0.9587812178448363
  outer loop
    vertex 88.74145026504195 119.64774906419909 126.94909422146564
    vertex 120.49267831889621 90.15587459622569 136.35891936008557
    vertex 95.45162508913658 119.9791758787265 128.93772822444643
  endloop
endfacet
facet normal -0.2841453436323965 3.0982046790789805e-15 0.9587812178448363
  outer loop
    vertex 95.45162508913658 119.9791758787265 128.93772822444643
    vertex 120.49267831889621 90.15587459622569 136.35891936008557
    vertex 110.63233318383745 120.52130047396582 133.43669778900255
  endloop
endfacet
facet normal -0.2841453436323965 3.0982046790789805e-15 0.9587812178448363
  outer loop
    vertex 110.63233318383745 120.52130047396582 133.43669778900255
    vertex 120.49267831889621 90.15587459622569 136.35891936008557
    vertex 122.03157906347394 109.18334717948254 136.81498949657313
  endloop
endfacet
facet normal 0.0 0.0 -1.0
  outer loop
    vertex 139.26044658561136 211.1558745962256 0.0
    vertex 71.40954601793847 90.15587459622641 0.0
    vertex 71.40954601793847 211.1558745962256 0.0
  endloop
endfacet
facet normal 0.0 0.0 -1.0
  outer loop
    vertex 71.40954601793847 90.15587459622641 0.0
    vertex 139.26044658561136 211.1558745962256 0.0
    vertex 86.72350497289828 95.155874596226 0.0
  endloop
endfacet
facet normal 0.0 0.0 -1.0
  outer loop
    vertex 86.72350497289828 95.155874596226 0.0
    vertex 139.26044658561136 211.1558745962256 0.0
    vertex 139.26044658561136 95.155874596226 0.0
  endloop
endfacet
facet normal 0.0 0.0 -1.0
  outer loop
    vertex 86.72350497289828 90.15587459622641 0.0
    vertex 71.40954601793847 90.15587459622641 0.0
    vertex 86.72350497289828 95.155874596226 0.0
  endloop
endfacet
facet normal 0.0 1.0 0.0
  outer loop
    vertex 71.40954601793776 211.1558745962256 132.24250216213414
    vertex 139.26044658561136 211.1558745962256 0.0
    vertex 71.40954601793847 211.1558745962256 0.0
  endloop
endfacet
facet normal 0.0 1.0 0.0
  outer loop
    vertex 139.26044658561136 211.1558745962256 0.0
    vertex 71.40954601793776 211.1558745962256 132.24250216213414
    vertex 139.26044658561136 211.1558745962256 149.2862652597467
  endloop
endfacet
facet normal 0.0 1.0 0.0
  outer loop
    vertex 139.26044658561136 211.1558745962256 149.2862652597467
    vertex 71.40954601793776 211.1558745962256 132.24250216213414
    vertex 126.26044658561143 211.1558745962256 149.2862652597467
  endloop
endfacet
facet normal 0.0 1.0 0.0
  outer loop
    vertex 139.26044658561136 211.1558745962256 149.2862652597467
    vertex 126.26044658561143 211.1558745962256 149.2862652597467
    vertex 128.91969110948827 211.1558745962256 149.28626525974846
  endloop
endfacet
facet normal -7.651756935122536e-17 -3.271629878156585e-33 -1.0
  outer loop
    vertex 139.26044658561136 95.155874596226 4.999999999999991
    vertex 102.40660365178928 90.15587459622641 4.999999999999991
    vertex 102.40660365178928 95.155874596226 4.999999999999991
  endloop
endfacet
facet normal -7.651756935122536e-17 -3.271629878156585e-33 -1.0
  outer loop
    vertex 102.40660365178928 90.15587459622641 4.999999999999991
    vertex 139.26044658561136 95.155874596226 4.999999999999991
    vertex 139.26044658561136 90.15587459622641 4.999999999999991
  endloop
endfacet
facet normal -6.905374951407372e-14 -1.0 2.256388728117582e-14
  outer loop
    vertex 136.76044658561122 201.155874596225 149.28626525974593
    vertex 92.55549645965986 201.15587459622571 29.99999999999999
    vertex 100.39625193578135 201.15587459622571 29.99999999999999
  endloop
endfacet
facet normal -6.905374951407372e-14 -1.0 2.256388728117582e-14
  outer loop
    vertex 92.55549645965986 201.15587459622571 29.99999999999999
    vertex 136.76044658561122 201.155874596225 149.28626525974593
    vertex 128.91969110948827 201.15587459622643 149.28626525975034
  endloop
endfacet
facet normal 0.0 -1.0 0.0
  outer loop
    vertex 139.26044658561136 161.65587459622532 75.5
    vertex 118.26044658561109 161.65587459622532 64.5
    vertex 139.26044658561136 161.65587459622532 64.5
  endloop
endfacet
facet normal 0.0 -1.0 0.0
  outer loop
    vertex 118.26044658561109 161.65587459622532 64.5
    vertex 139.26044658561136 161.65587459622532 75.5
    vertex 118.26044658561109 161.65587459622532 75.5
  endloop
endfacet
facet normal 3.0571657251546117e-13 -4.480130320937215e-15 1.0
  outer loop
    vertex 139.26044658561136 90.15587459622569 149.28626525974593
    vertex 136.76044658561122 201.155874596225 149.28626525974593
    vertex 136.76044658561122 90.15587459622569 149.28626525974593
  endloop
endfacet
facet normal 3.0571657251546117e-13 -4.480130320937215e-15 1.0
  outer loop
    vertex 136.76044658561122 201.155874596225 149.28626525974593
    vertex 128.91969110948827 211.1558745962256 149.28626525974846
    vertex 128.91969110948827 201.15587459622643 149.28626525975034
  endloop
endfacet
facet normal 3.0571657251546117e-13 -4.480130320937215e-15 1.0
  outer loop
    vertex 128.91969110948827 211.1558745962256 149.28626525974846
    vertex 136.76044658561122 201.155874596225 149.28626525974593
    vertex 139.26044658561136 211.1558745962256 149.2862652597467
  endloop
endfacet
facet normal 3.0571657251546117e-13 -4.480130320937215e-15 1.0
  outer loop
    vertex 139.26044658561136 211.1558745962256 149.2862652597467
    vertex 136.76044658561122 201.155874596225 149.28626525974593
    vertex 139.26044658561136 90.15587459622569 149.28626525974593
  endloop
endfacet
facet normal 1.0 0.0 0.0
  outer loop
    vertex 86.72350497289828 95.155874596226 0.0
    vertex 86.72350497289828 90.15587459622641 10.869190417069628
    vertex 86.72350497289828 90.15587459622641 0.0
  endloop
endfacet
facet normal 1.0 0.0 0.0
  outer loop
    vertex 86.72350497289828 90.15587459622641 10.869190417069628
    vertex 86.72350497289828 95.155874596226 0.0
    vertex 86.72350497289828 95.155874596226 10.869190417069628
  endloop
endfacet
facet normal 1.0 0.0 0.0
  outer loop
    vertex 139.26044658561136 211.1558745962256 0.0
    vertex 139.26044658561136 95.155874596226 4.999999999999991
    vertex 139.26044658561136 95.155874596226 0.0
  endloop
endfacet
facet normal 1.0 0.0 0.0
  outer loop
    vertex 139.26044658561136 95.155874596226 4.999999999999991
    vertex 139.26044658561136 211.1558745962256 0.0
    vertex 139.26044658561136 150.65587459622566 64.5
  endloop
endfacet
facet normal 1.0 0.0 0.0
  outer loop
    vertex 139.26044658561136 150.65587459622566 64.5
    vertex 139.26044658561136 211.1558745962256 0.0
    vertex 139.26044658561136 161.65587459622532 64.5
  endloop
endfacet
facet normal 1.0 0.0 0.0
  outer loop
    vertex 139.26044658561136 161.65587459622532 64.5
    vertex 139.26044658561136 211.1558745962256 0.0
    vertex 139.26044658561136 161.65587459622532 75.5
  endloop
endfacet
facet normal 1.0 0.0 0.0
  outer loop
    vertex 139.26044658561136 90.15587459622641 4.999999999999991
    vertex 139.26044658561136 211.1558745962256 149.2862652597467
    vertex 139.26044658561136 90.15587459622569 149.28626525974593
  endloop
endfacet
facet normal 1.0 0.0 0.0
  outer loop
    vertex 139.26044658561136 211.1558745962256 149.2862652597467
    vertex 139.26044658561136 90.15587459622641 4.999999999999991
    vertex 139.26044658561136 150.65587459622566 75.5
  endloop
endfacet
facet normal 1.0 0.0 0.0
  outer loop
    vertex 139.26044658561136 150.65587459622566 75.5
    vertex 139.26044658561136 90.15587459622641 4.999999999999991
    vertex 139.26044658561136 95.155874596226 4.999999999999991
  endloop
endfacet
facet normal 1.0 0.0 0.0
  outer loop
    vertex 139.26044658561136 150.65587459622566 75.5
    vertex 139.26044658561136 95.155874596226 4.999999999999991
    vertex 139.26044658561136 150.65587459622566 64.5
  endloop
endfacet
facet normal 1.0 0.0 0.0
  outer loop
    vertex 139.26044658561136 211.1558745962256 149.2862652597467
    vertex 139.26044658561136 150.65587459622566 75.5
    vertex 139.26044658561136 161.65587459622532 75.5
  endloop
endfacet
facet normal 1.0 0.0 0.0
  outer loop
    vertex 139.26044658561136 211.1558745962256 149.2862652597467
    vertex 139.26044658561136 161.65587459622532 75.5
    vertex 139.26044658561136 211.1558745962256 0.0
  endloop
endfacet
facet normal -0.0 -0.0 -1.0
  outer loop
    vertex 139.26044658561136 161.65587459622532 75.5
    vertex 118.26044658561109 150.65587459622566 75.5
    vertex 118.26044658561109 161.65587459622532 75.5
  endloop
endfacet
facet normal -0.0 -0.0 -1.0
  outer loop
    vertex 118.26044658561109 150.65587459622566 75.5
    vertex 139.26044658561136 161.65587459622532 75.5
    vertex 139.26044658561136 150.65587459622566 75.5
  endloop
endfacet
facet normal 0.9565404791465149 5.228835637019486e-16 -0.2915995743380911
  outer loop
    vertex 128.91969110948685 90.15587459622569 149.28626525974593
    vertex 92.55549645965986 95.155874596226 29.99999999999999
    vertex 128.91969110948827 201.15587459622643 149.28626525975034
  endloop
endfacet
facet normal 0.9565404791465149 5.228835637019486e-16 -0.2915995743380911
  outer loop
    vertex 92.55549645965986 95.155874596226 29.99999999999999
    vertex 128.91969110948685 90.15587459622569 149.28626525974593
    vertex 86.72350497289828 90.15587459622641 10.869190417069628
  endloop
endfacet
facet normal 0.9565404791465149 5.228835637019486e-16 -0.2915995743380911
  outer loop
    vertex 92.55549645965986 95.155874596226 29.99999999999999
    vertex 86.72350497289828 90.15587459622641 10.869190417069628
    vertex 86.72350497289828 95.155874596226 10.869190417069628
  endloop
endfacet
facet normal 0.9565404791465149 5.228835637019486e-16 -0.2915995743380911
  outer loop
    vertex 128.91969110948827 201.15587459622643 149.28626525975034
    vertex 92.55549645965986 95.155874596226 29.99999999999999
    vertex 92.55549645965986 201.15587459622571 29.99999999999999
  endloop
endfacet
facet normal 1.0 0.0 0.0
  outer loop
    vertex 118.26044658561109 161.65587459622532 64.5
    vertex 118.26044658561109 150.65587459622566 75.5
    vertex 118.26044658561109 150.65587459622566 64.5
  endloop
endfacet
facet normal 1.0 0.0 0.0
  outer loop
    vertex 118.26044658561109 150.65587459622566 75.5
    vertex 118.26044658561109 161.65587459622532 64.5
    vertex 118.26044658561109 161.65587459622532 75.5
  endloop
endfacet
endsolid SlotmachinePrototypeBottomLeftFront
