solid SlotmachinePrototypeBottomLeftBack
facet normal 0.0 1.0 0.0
  outer loop
    vertex 318.0207554977324 232.42877754130268 149.2862652597467
    vertex 417.9512653654854 232.42877754130268 0.0
    vertex 318.0207554977324 232.42877754130268 0.0
  endloop
endfacet
facet normal 0.0 1.0 0.0
  outer loop
    vertex 417.9512653654854 232.42877754130268 0.0
    vertex 318.0207554977324 232.42877754130268 149.2862652597467
    vertex 417.9512653654854 232.42877754130268 149.28626525974593
  endloop
endfacet
facet normal -1.0 -0.0 -0.0
  outer loop
    vertex 318.0207554977324 232.42877754130268 149.2862652597467
    vertex 318.0207554977324 111.42877754130312 4.9999999999999964
    vertex 318.0207554977324 111.4287775413024 149.28626525974593
  endloop
endfacet
facet normal -1.0 -0.0 -0.0
  outer loop
    vertex 318.0207554977324 111.42877754130312 4.9999999999999964
    vertex 318.0207554977324 232.42877754130268 149.2862652597467
    vertex 318.0207554977324 172.4287775413026 75.0
  endloop
endfacet
facet normal -1.0 -0.0 -0.0
  outer loop
    vertex 318.0207554977324 111.42877754130312 4.9999999999999964
    vertex 318.0207554977324 172.4287775413026 75.0
    vertex 318.0207554977324 116.42877754130271 4.9999999999999964
  endloop
endfacet
facet normal -1.0 -0.0 -0.0
  outer loop
    vertex 318.0207554977324 116.42877754130271 4.9999999999999964
    vertex 318.0207554977324 172.4287775413026 75.0
    vertex 318.0207554977324 116.42877754130306 0.0
  endloop
endfacet
facet normal -1.0 -0.0 -0.0
  outer loop
    vertex 318.0207554977324 172.4287775413026 75.0
    vertex 318.0207554977324 232.42877754130268 149.2862652597467
    vertex 318.0207554977324 182.42877754130248 75.0
  endloop
endfacet
facet normal -1.0 -0.0 -0.0
  outer loop
    vertex 318.0207554977324 182.42877754130248 75.0
    vertex 318.0207554977324 232.42877754130268 149.2862652597467
    vertex 318.0207554977324 182.42877754130248 65.0
  endloop
endfacet
facet normal -1.0 -0.0 -0.0
  outer loop
    vertex 318.0207554977324 116.42877754130306 0.0
    vertex 318.0207554977324 172.4287775413026 65.0
    vertex 318.0207554977324 232.42877754130268 0.0
  endloop
endfacet
facet normal -1.0 -0.0 -0.0
  outer loop
    vertex 318.0207554977324 172.4287775413026 65.0
    vertex 318.0207554977324 116.42877754130306 0.0
    vertex 318.0207554977324 172.4287775413026 75.0
  endloop
endfacet
facet normal -1.0 -0.0 -0.0
  outer loop
    vertex 318.0207554977324 232.42877754130268 0.0
    vertex 318.0207554977324 172.4287775413026 65.0
    vertex 318.0207554977324 182.42877754130248 65.0
  endloop
endfacet
facet normal -1.0 -0.0 -0.0
  outer loop
    vertex 318.0207554977324 232.42877754130268 0.0
    vertex 318.0207554977324 182.42877754130248 65.0
    vertex 318.0207554977324 232.42877754130268 149.2862652597467
  endloop
endfacet
facet normal -1.0 -0.0 -0.0
  outer loop
    vertex 392.95126536548605 182.42877754130248 169.28626525974593
    vertex 392.95126536548605 172.4287775413026 149.28626525974593
    vertex 392.95126536548605 172.4287775413026 169.28626525974593
  endloop
endfacet
facet normal -1.0 -0.0 -0.0
  outer loop
    vertex 392.95126536548605 172.4287775413026 149.28626525974593
    vertex 392.95126536548605 182.42877754130248 169.28626525974593
    vertex 392.95126536548605 182.42877754130248 149.28626525974593
  endloop
endfacet
facet normal -1.2193867613283357e-18 -1.0 -5.004214294451078e-15
  outer loop
    vertex 417.9512653654854 111.4287775413024 149.28626525974593
    vertex 320.62075549773255 111.42877754130312 4.9999999999999964
    vertex 417.9512653654854 111.42877754130312 4.9999999999999964
  endloop
endfacet
facet normal -1.2193867613283357e-18 -1.0 -5.004214294451078e-15
  outer loop
    vertex 320.62075549773255 111.42877754130312 4.9999999999999964
    vertex 417.9512653654854 111.4287775413024 149.28626525974593
    vertex 320.62075549773255 111.42877754130312 5.099999999999996
  endloop
endfacet
facet normal -1.2193867613283357e-18 -1.0 -5.004214294451078e-15
  outer loop
    vertex 320.62075549773255 111.42877754130312 5.099999999999996
    vertex 417.9512653654854 111.4287775413024 149.28626525974593
    vertex 320.5207554977326 111.42877754130312 5.099999999999996
  endloop
endfacet
facet normal -1.2193867613283357e-18 -1.0 -5.004214294451078e-15
  outer loop
    vertex 320.5207554977326 111.42877754130312 5.099999999999996
    vertex 417.9512653654854 111.4287775413024 149.28626525974593
    vertex 412.95126536548514 111.42877754130204 144.18626525974594
  endloop
endfacet
facet normal -1.2193867613283357e-18 -1.0 -5.004214294451078e-15
  outer loop
    vertex 412.95126536548514 111.42877754130204 144.18626525974594
    vertex 417.9512653654854 111.4287775413024 149.28626525974593
    vertex 412.95126536548514 111.42877754130204 144.28626525974593
  endloop
endfacet
facet normal -1.2193867613283357e-18 -1.0 -5.004214294451078e-15
  outer loop
    vertex 412.95126536548514 111.42877754130204 144.28626525974593
    vertex 417.9512653654854 111.4287775413024 149.28626525974593
    vertex 412.8512653654852 111.42877754130204 144.28626525974593
  endloop
endfacet
facet normal -1.2193867613283357e-18 -1.0 -5.004214294451078e-15
  outer loop
    vertex 320.5207554977326 111.42877754130312 5.099999999999996
    vertex 318.0207554977324 111.42877754130312 4.9999999999999964
    vertex 320.5207554977326 111.42877754130312 4.9999999999999964
  endloop
endfacet
facet normal -1.2193867613283357e-18 -1.0 -5.004214294451078e-15
  outer loop
    vertex 318.0207554977324 111.42877754130312 4.9999999999999964
    vertex 320.5207554977326 111.42877754130312 5.099999999999996
    vertex 318.0207554977324 111.4287775413024 149.28626525974593
  endloop
endfacet
facet normal -1.2193867613283357e-18 -1.0 -5.004214294451078e-15
  outer loop
    vertex 318.0207554977324 111.4287775413024 149.28626525974593
    vertex 320.5207554977326 111.42877754130312 5.099999999999996
    vertex 412.8512653654852 111.42877754130204 144.18626525974594
  endloop
endfacet
facet normal -1.2193867613283357e-18 -1.0 -5.004214294451078e-15
  outer loop
    vertex 412.8512653654852 111.42877754130204 144.18626525974594
    vertex 320.5207554977326 111.42877754130312 5.099999999999996
    vertex 412.95126536548514 111.42877754130204 144.18626525974594
  endloop
endfacet
facet normal -1.2193867613283357e-18 -1.0 -5.004214294451078e-15
  outer loop
    vertex 318.0207554977324 111.4287775413024 149.28626525974593
    vertex 412.8512653654852 111.42877754130204 144.18626525974594
    vertex 412.8512653654852 111.42877754130204 144.28626525974593
  endloop
endfacet
facet normal -1.2193867613283357e-18 -1.0 -5.004214294451078e-15
  outer loop
    vertex 318.0207554977324 111.4287775413024 149.28626525974593
    vertex 412.8512653654852 111.42877754130204 144.28626525974593
    vertex 417.9512653654854 111.4287775413024 149.28626525974593
  endloop
endfacet
facet normal -1.0 0.0 0.0
  outer loop
    vertex 320.62075549773255 116.42877754130234 5.099999999999996
    vertex 320.62075549773255 111.42877754130312 4.9999999999999964
    vertex 320.62075549773255 111.42877754130312 5.099999999999996
  endloop
endfacet
facet normal -1.0 0.0 0.0
  outer loop
    vertex 320.62075549773255 111.42877754130312 4.9999999999999964
    vertex 320.62075549773255 116.42877754130234 5.099999999999996
    vertex 320.62075549773255 116.42877754130234 4.9999999999999964
  endloop
endfacet
facet normal 1.0 0.0 0.0
  outer loop
    vertex 412.8512653654852 116.42877754130271 144.18626525974594
    vertex 412.8512653654852 111.42877754130204 144.28626525974593
    vertex 412.8512653654852 111.42877754130204 144.18626525974594
  endloop
endfacet
facet normal 1.0 0.0 0.0
  outer loop
    vertex 412.8512653654852 111.42877754130204 144.28626525974593
    vertex 412.8512653654852 116.42877754130271 144.18626525974594
    vertex 412.8512653654852 116.42877754130271 144.28626525974593
  endloop
endfacet
facet normal -2.7495597458403223e-15 1.0 3.585380586701657e-15
  outer loop
    vertex 325.5207554977329 116.42877754130234 144.28626525974593
    vertex 412.8512653654852 116.42877754130271 144.18626525974594
    vertex 412.95126536548514 116.42877754130306 9.999999999999998
  endloop
endfacet
facet normal -2.7495597458403223e-15 1.0 3.585380586701657e-15
  outer loop
    vertex 412.8512653654852 116.42877754130271 144.18626525974594
    vertex 325.5207554977329 116.42877754130234 144.28626525974593
    vertex 412.8512653654852 116.42877754130271 144.28626525974593
  endloop
endfacet
facet normal -2.7495597458403223e-15 1.0 3.585380586701657e-15
  outer loop
    vertex 412.95126536548514 116.42877754130271 144.18626525974594
    vertex 412.95126536548514 116.42877754130306 9.999999999999998
    vertex 412.8512653654852 116.42877754130271 144.18626525974594
  endloop
endfacet
facet normal 0.0 0.0 -1.0
  outer loop
    vertex 320.62075549773255 116.42877754130234 5.099999999999996
    vertex 320.5207554977326 111.42877754130312 5.099999999999996
    vertex 320.5207554977326 116.42877754130234 5.099999999999996
  endloop
endfacet
facet normal 0.0 0.0 -1.0
  outer loop
    vertex 320.5207554977326 111.42877754130312 5.099999999999996
    vertex 320.62075549773255 116.42877754130234 5.099999999999996
    vertex 320.62075549773255 111.42877754130312 5.099999999999996
  endloop
endfacet
facet normal 1.0 0.0 0.0
  outer loop
    vertex 402.95126536548594 182.42877754130248 149.28626525974593
    vertex 402.95126536548594 172.4287775413026 169.28626525974593
    vertex 402.95126536548594 172.4287775413026 149.28626525974593
  endloop
endfacet
facet normal 1.0 0.0 0.0
  outer loop
    vertex 402.95126536548594 172.4287775413026 169.28626525974593
    vertex 402.95126536548594 182.42877754130248 149.28626525974593
    vertex 402.95126536548594 182.42877754130248 169.28626525974593
  endloop
endfacet
facet normal 0.0 0.0 -1.0
  outer loop
    vertex 412.95126536548514 116.42877754130234 144.28626525974593
    vertex 412.8512653654852 111.42877754130204 144.28626525974593
    vertex 412.8512653654852 116.42877754130271 144.28626525974593
  endloop
endfacet
facet normal 0.0 0.0 -1.0
  outer loop
    vertex 412.8512653654852 111.42877754130204 144.28626525974593
    vertex 412.95126536548514 116.42877754130234 144.28626525974593
    vertex 412.95126536548514 111.42877754130204 144.28626525974593
  endloop
endfacet
facet normal -1.0 -0.0 -0.0
  outer loop
    vertex 345.1698549300596 182.42877754130248 169.28626525974593
    vertex 345.1698549300596 172.4287775413026 149.28626525974593
    vertex 345.1698549300596 172.4287775413026 169.28626525974593
  endloop
endfacet
facet normal -1.0 -0.0 -0.0
  outer loop
    vertex 345.1698549300596 172.4287775413026 149.28626525974593
    vertex 345.1698549300596 182.42877754130248 169.28626525974593
    vertex 345.1698549300596 182.42877754130248 149.28626525974593
  endloop
endfacet
facet normal 0.0 -1.0 0.0
  outer loop
    vertex 402.95126536548594 172.4287775413026 169.28626525974593
    vertex 392.95126536548605 172.4287775413026 149.28626525974593
    vertex 402.95126536548594 172.4287775413026 149.28626525974593
  endloop
endfacet
facet normal 0.0 -1.0 0.0
  outer loop
    vertex 392.95126536548605 172.4287775413026 149.28626525974593
    vertex 402.95126536548594 172.4287775413026 169.28626525974593
    vertex 392.95126536548605 172.4287775413026 169.28626525974593
  endloop
endfacet
facet normal 1.0 0.0 0.0
  outer loop
    vertex 417.9512653654854 232.42877754130268 0.0
    vertex 417.9512653654854 116.42877754130306 4.9999999999999964
    vertex 417.9512653654854 116.42877754130306 0.0
  endloop
endfacet
facet normal 1.0 0.0 0.0
  outer loop
    vertex 417.9512653654854 111.42877754130312 4.9999999999999964
    vertex 417.9512653654854 232.42877754130268 149.28626525974593
    vertex 417.9512653654854 111.4287775413024 149.28626525974593
  endloop
endfacet
facet normal 1.0 0.0 0.0
  outer loop
    vertex 417.9512653654854 232.42877754130268 149.28626525974593
    vertex 417.9512653654854 111.42877754130312 4.9999999999999964
    vertex 417.9512653654854 116.42877754130306 4.9999999999999964
  endloop
endfacet
facet normal 1.0 0.0 0.0
  outer loop
    vertex 417.9512653654854 232.42877754130268 149.28626525974593
    vertex 417.9512653654854 116.42877754130306 4.9999999999999964
    vertex 417.9512653654854 232.42877754130268 0.0
  endloop
endfacet
facet normal 3.4577780648343462e-15 -1.0 -5.0164438561304795e-14
  outer loop
    vertex 417.9512653654854 116.42877754130306 4.9999999999999964
    vertex 318.0207554977324 116.42877754130306 0.0
    vertex 417.9512653654854 116.42877754130306 0.0
  endloop
endfacet
facet normal 3.4577780648343462e-15 -1.0 -5.0164438561304795e-14
  outer loop
    vertex 318.0207554977324 116.42877754130306 0.0
    vertex 417.9512653654854 116.42877754130306 4.9999999999999964
    vertex 318.0207554977324 116.42877754130271 4.9999999999999964
  endloop
endfacet
facet normal 3.4577780648343462e-15 -1.0 -5.0164438561304795e-14
  outer loop
    vertex 318.0207554977324 116.42877754130271 4.9999999999999964
    vertex 417.9512653654854 116.42877754130306 4.9999999999999964
    vertex 407.9512653654848 116.42877754130306 4.9999999999999964
  endloop
endfacet
facet normal 3.4577780648343462e-15 -1.0 -5.0164438561304795e-14
  outer loop
    vertex 318.0207554977324 116.42877754130271 4.9999999999999964
    vertex 407.9512653654848 116.42877754130306 4.9999999999999964
    vertex 320.62075549773255 116.42877754130234 4.9999999999999964
  endloop
endfacet
facet normal 3.4577780648343462e-15 -1.0 -5.0164438561304795e-14
  outer loop
    vertex 318.0207554977324 116.42877754130271 4.9999999999999964
    vertex 320.62075549773255 116.42877754130234 4.9999999999999964
    vertex 320.5207554977326 116.42877754130271 4.9999999999999964
  endloop
endfacet
facet normal 2.9686415216195256e-17 1.7476695257793556e-17 -1.0
  outer loop
    vertex 407.9512653654848 116.42877754130306 4.9999999999999964
    vertex 320.62075549773255 111.42877754130312 4.9999999999999964
    vertex 320.62075549773255 116.42877754130234 4.9999999999999964
  endloop
endfacet
facet normal 2.9686415216195256e-17 1.7476695257793556e-17 -1.0
  outer loop
    vertex 320.62075549773255 111.42877754130312 4.9999999999999964
    vertex 407.9512653654848 116.42877754130306 4.9999999999999964
    vertex 417.9512653654854 111.42877754130312 4.9999999999999964
  endloop
endfacet
facet normal 2.9686415216195256e-17 1.7476695257793556e-17 -1.0
  outer loop
    vertex 417.9512653654854 111.42877754130312 4.9999999999999964
    vertex 407.9512653654848 116.42877754130306 4.9999999999999964
    vertex 417.9512653654854 116.42877754130306 4.9999999999999964
  endloop
endfacet
facet normal 0.0 0.0 -1.0
  outer loop
    vertex 417.9512653654854 232.42877754130268 0.0
    vertex 318.0207554977324 116.42877754130306 0.0
    vertex 318.0207554977324 232.42877754130268 0.0
  endloop
endfacet
facet normal 0.0 0.0 -1.0
  outer loop
    vertex 318.0207554977324 116.42877754130306 0.0
    vertex 417.9512653654854 232.42877754130268 0.0
    vertex 417.9512653654854 116.42877754130306 0.0
  endloop
endfacet
facet normal 0.0 1.0 0.0
  outer loop
    vertex 345.1698549300596 182.42877754130248 169.28626525974593
    vertex 355.1698549300595 182.42877754130248 149.28626525974593
    vertex 345.1698549300596 182.42877754130248 149.28626525974593
  endloop
endfacet
facet normal 0.0 1.0 0.0
  outer loop
    vertex 355.1698549300595 182.42877754130248 149.28626525974593
    vertex 345.1698549300596 182.42877754130248 169.28626525974593
    vertex 355.1698549300595 182.42877754130248 169.28626525974593
  endloop
endfacet
facet normal 0.0 0.0 1.0
  outer loop
    vertex 355.1698549300595 172.4287775413026 169.28626525974593
    vertex 345.1698549300596 182.42877754130248 169.28626525974593
    vertex 345.1698549300596 172.4287775413026 169.28626525974593
  endloop
endfacet
facet normal 0.0 0.0 1.0
  outer loop
    vertex 345.1698549300596 182.42877754130248 169.28626525974593
    vertex 355.1698549300595 172.4287775413026 169.28626525974593
    vertex 355.1698549300595 182.42877754130248 169.28626525974593
  endloop
endfacet
facet normal -1.0 0.0 0.0
  outer loop
    vertex 412.95126536548514 116.42877754130234 144.28626525974593
    vertex 412.95126536548514 111.42877754130204 144.18626525974594
    vertex 412.95126536548514 111.42877754130204 144.28626525974593
  endloop
endfacet
facet normal -1.0 0.0 0.0
  outer loop
    vertex 412.95126536548514 111.42877754130204 144.18626525974594
    vertex 412.95126536548514 116.42877754130234 144.28626525974593
    vertex 412.95126536548514 116.42877754130271 144.18626525974594
  endloop
endfacet
facet normal 0.0 -1.0 0.0
  outer loop
    vertex 355.1698549300595 172.4287775413026 169.28626525974593
    vertex 345.1698549300596 172.4287775413026 149.28626525974593
    vertex 355.1698549300595 172.4287775413026 149.28626525974593
  endloop
endfacet
facet normal 0.0 -1.0 0.0
  outer loop
    vertex 345.1698549300596 172.4287775413026 149.28626525974593
    vertex 355.1698549300595 172.4287775413026 169.28626525974593
    vertex 345.1698549300596 172.4287775413026 169.28626525974593
  endloop
endfacet
facet normal 1.0 0.0 0.0
  outer loop
    vertex 320.5207554977326 116.42877754130271 4.9999999999999964
    vertex 320.5207554977326 116.42877754130234 139.28626525974596
    vertex 320.5207554977326 116.42877754130234 5.099999999999996
  endloop
endfacet
facet normal 1.0 0.0 0.0
  outer loop
    vertex 320.5207554977326 116.42877754130234 139.28626525974596
    vertex 320.5207554977326 116.42877754130271 4.9999999999999964
    vertex 320.5207554977326 227.42877754130274 139.28626525974596
  endloop
endfacet
facet normal 1.0 0.0 0.0
  outer loop
    vertex 320.5207554977326 227.42877754130274 139.28626525974596
    vertex 320.5207554977326 116.42877754130271 4.9999999999999964
    vertex 320.5207554977326 227.42877754130274 4.9999999999999964
  endloop
endfacet
facet normal 3.837821323378159e-15 -3.1695491043513486e-15 1.0
  outer loop
    vertex 318.0207554977324 111.4287775413024 149.28626525974593
    vertex 345.1698549300596 172.4287775413026 149.28626525974593
    vertex 318.0207554977324 232.42877754130268 149.2862652597467
  endloop
endfacet
facet normal 3.837821323378159e-15 -3.1695491043513486e-15 1.0
  outer loop
    vertex 345.1698549300596 172.4287775413026 149.28626525974593
    vertex 318.0207554977324 111.4287775413024 149.28626525974593
    vertex 417.9512653654854 111.4287775413024 149.28626525974593
  endloop
endfacet
facet normal 3.837821323378159e-15 -3.1695491043513486e-15 1.0
  outer loop
    vertex 345.1698549300596 172.4287775413026 149.28626525974593
    vertex 417.9512653654854 111.4287775413024 149.28626525974593
    vertex 355.1698549300595 172.4287775413026 149.28626525974593
  endloop
endfacet
facet normal 3.837821323378159e-15 -3.1695491043513486e-15 1.0
  outer loop
    vertex 355.1698549300595 172.4287775413026 149.28626525974593
    vertex 417.9512653654854 111.4287775413024 149.28626525974593
    vertex 355.1698549300595 182.42877754130248 149.28626525974593
  endloop
endfacet
facet normal 3.837821323378159e-15 -3.1695491043513486e-15 1.0
  outer loop
    vertex 355.1698549300595 182.42877754130248 149.28626525974593
    vertex 417.9512653654854 111.4287775413024 149.28626525974593
    vertex 392.95126536548605 172.4287775413026 149.28626525974593
  endloop
endfacet
facet normal 3.837821323378159e-15 -3.1695491043513486e-15 1.0
  outer loop
    vertex 392.95126536548605 172.4287775413026 149.28626525974593
    vertex 417.9512653654854 111.4287775413024 149.28626525974593
    vertex 402.95126536548594 172.4287775413026 149.28626525974593
  endloop
endfacet
facet normal 3.837821323378159e-15 -3.1695491043513486e-15 1.0
  outer loop
    vertex 402.95126536548594 172.4287775413026 149.28626525974593
    vertex 417.9512653654854 111.4287775413024 149.28626525974593
    vertex 402.95126536548594 182.42877754130248 149.28626525974593
  endloop
endfacet
facet normal 3.837821323378159e-15 -3.1695491043513486e-15 1.0
  outer loop
    vertex 318.0207554977324 232.42877754130268 149.2862652597467
    vertex 345.1698549300596 182.42877754130248 149.28626525974593
    vertex 417.9512653654854 232.42877754130268 149.28626525974593
  endloop
endfacet
facet normal 3.837821323378159e-15 -3.1695491043513486e-15 1.0
  outer loop
    vertex 345.1698549300596 182.42877754130248 149.28626525974593
    vertex 318.0207554977324 232.42877754130268 149.2862652597467
    vertex 345.1698549300596 172.4287775413026 149.28626525974593
  endloop
endfacet
facet normal 3.837821323378159e-15 -3.1695491043513486e-15 1.0
  outer loop
    vertex 417.9512653654854 232.42877754130268 149.28626525974593
    vertex 345.1698549300596 182.42877754130248 149.28626525974593
    vertex 355.1698549300595 182.42877754130248 149.28626525974593
  endloop
endfacet
facet normal 3.837821323378159e-15 -3.1695491043513486e-15 1.0
  outer loop
    vertex 417.9512653654854 232.42877754130268 149.28626525974593
    vertex 355.1698549300595 182.42877754130248 149.28626525974593
    vertex 392.95126536548605 182.42877754130248 149.28626525974593
  endloop
endfacet
facet normal 3.837821323378159e-15 -3.1695491043513486e-15 1.0
  outer loop
    vertex 392.95126536548605 182.42877754130248 149.28626525974593
    vertex 355.1698549300595 182.42877754130248 149.28626525974593
    vertex 392.95126536548605 172.4287775413026 149.28626525974593
  endloop
endfacet
facet normal 3.837821323378159e-15 -3.1695491043513486e-15 1.0
  outer loop
    vertex 417.9512653654854 232.42877754130268 149.28626525974593
    vertex 392.95126536548605 182.42877754130248 149.28626525974593
    vertex 402.95126536548594 182.42877754130248 149.28626525974593
  endloop
endfacet
facet normal 3.837821323378159e-15 -3.1695491043513486e-15 1.0
  outer loop
    vertex 417.9512653654854 232.42877754130268 149.28626525974593
    vertex 402.95126536548594 182.42877754130248 149.28626525974593
    vertex 417.9512653654854 111.4287775413024 149.28626525974593
  endloop
endfacet
facet normal -3.226432645351578e-17 -8.30756076292475e-21 1.0
  outer loop
    vertex 320.62075549773255 116.42877754130234 4.9999999999999964
    vertex 320.5207554977326 227.42877754130274 4.9999999999999964
    vertex 320.5207554977326 116.42877754130271 4.9999999999999964
  endloop
endfacet
facet normal -3.226432645351578e-17 -8.30756076292475e-21 1.0
  outer loop
    vertex 320.5207554977326 227.42877754130274 4.9999999999999964
    vertex 320.62075549773255 116.42877754130234 4.9999999999999964
    vertex 407.9512653654848 227.42877754130274 4.9999999999999964
  endloop
endfacet
facet normal -3.226432645351578e-17 -8.30756076292475e-21 1.0
  outer loop
    vertex 407.9512653654848 227.42877754130274 4.9999999999999964
    vertex 320.62075549773255 116.42877754130234 4.9999999999999964
    vertex 407.9512653654848 116.42877754130306 4.9999999999999964
  endloop
endfacet
facet normal 1.0 0.0 0.0
  outer loop
    vertex 355.1698549300595 182.42877754130248 149.28626525974593
    vertex 355.1698549300595 172.4287775413026 169.28626525974593
    vertex 355.1698549300595 172.4287775413026 149.28626525974593
  endloop
endfacet
facet normal 1.0 0.0 0.0
  outer loop
    vertex 355.1698549300595 172.4287775413026 169.28626525974593
    vertex 355.1698549300595 182.42877754130248 149.28626525974593
    vertex 355.1698549300595 182.42877754130248 169.28626525974593
  endloop
endfacet
facet normal 0.0 0.0 1.0
  outer loop
    vertex 402.95126536548594 172.4287775413026 169.28626525974593
    vertex 392.95126536548605 182.42877754130248 169.28626525974593
    vertex 392.95126536548605 172.4287775413026 169.28626525974593
  endloop
endfacet
facet normal 0.0 0.0 1.0
  outer loop
    vertex 392.95126536548605 182.42877754130248 169.28626525974593
    vertex 402.95126536548594 172.4287775413026 169.28626525974593
    vertex 402.95126536548594 182.42877754130248 169.28626525974593
  endloop
endfacet
facet normal 1.0 0.0 0.0
  outer loop
    vertex 320.5207554977326 116.42877754130271 4.9999999999999964
    vertex 320.5207554977326 111.42877754130312 5.099999999999996
    vertex 320.5207554977326 111.42877754130312 4.9999999999999964
  endloop
endfacet
facet normal 1.0 0.0 0.0
  outer loop
    vertex 320.5207554977326 111.42877754130312 5.099999999999996
    vertex 320.5207554977326 116.42877754130271 4.9999999999999964
    vertex 320.5207554977326 116.42877754130234 5.099999999999996
  endloop
endfacet
facet normal 0.0 0.0 -1.0
  outer loop
    vertex 412.95126536548514 227.42877754130274 144.28626525974593
    vertex 325.5207554977329 116.42877754130234 144.28626525974593
    vertex 325.5207554977329 227.42877754130274 144.28626525974593
  endloop
endfacet
facet normal 0.0 0.0 -1.0
  outer loop
    vertex 325.5207554977329 116.42877754130234 144.28626525974593
    vertex 412.95126536548514 227.42877754130274 144.28626525974593
    vertex 412.8512653654852 116.42877754130271 144.28626525974593
  endloop
endfacet
facet normal 0.0 0.0 -1.0
  outer loop
    vertex 412.8512653654852 116.42877754130271 144.28626525974593
    vertex 412.95126536548514 227.42877754130274 144.28626525974593
    vertex 412.95126536548514 116.42877754130234 144.28626525974593
  endloop
endfacet
facet normal 0.0 1.0 0.0
  outer loop
    vertex 392.95126536548605 182.42877754130248 169.28626525974593
    vertex 402.95126536548594 182.42877754130248 149.28626525974593
    vertex 392.95126536548605 182.42877754130248 149.28626525974593
  endloop
endfacet
facet normal 0.0 1.0 0.0
  outer loop
    vertex 402.95126536548594 182.42877754130248 149.28626525974593
    vertex 392.95126536548605 182.42877754130248 169.28626525974593
    vertex 402.95126536548594 182.42877754130248 169.28626525974593
  endloop
endfacet
facet normal 0.8380314978655637 -1.2068500441877769e-17 0.5456218549372812
  outer loop
    vertex 412.95126536548514 116.42877754130306 9.999999999999998
    vertex 325.5207554977329 227.42877754130274 144.28626525974593
    vertex 325.5207554977329 116.42877754130234 144.28626525974593
  endloop
endfacet
facet normal 0.8380314978655637 -1.2068500441877769e-17 0.5456218549372812
  outer loop
    vertex 325.5207554977329 227.42877754130274 144.28626525974593
    vertex 412.95126536548514 116.42877754130306 9.999999999999998
    vertex 412.95126536548514 227.42877754130274 9.999999999999998
  endloop
endfacet
facet normal 0.0 0.0 -1.0
  outer loop
    vertex 320.5207554977326 116.42877754130271 4.9999999999999964
    vertex 318.0207554977324 111.42877754130312 4.9999999999999964
    vertex 318.0207554977324 116.42877754130271 4.9999999999999964
  endloop
endfacet
facet normal 0.0 0.0 -1.0
  outer loop
    vertex 318.0207554977324 111.42877754130312 4.9999999999999964
    vertex 320.5207554977326 116.42877754130271 4.9999999999999964
    vertex 320.5207554977326 111.42877754130312 4.9999999999999964
  endloop
endfacet
facet normal 0.0 -1.0 0.0
  outer loop
    vertex 320.5207554977326 227.42877754130274 139.28626525974596
    vertex 320.5207554977326 227.42877754130274 4.9999999999999964
    vertex 407.9512653654848 227.42877754130274 4.9999999999999964
  endloop
endfacet
facet normal 0.0 0.0 1.0
  outer loop
    vertex 412.95126536548514 111.42877754130204 144.18626525974594
    vertex 412.8512653654852 116.42877754130271 144.18626525974594
    vertex 412.8512653654852 111.42877754130204 144.18626525974594
  endloop
endfacet
facet normal 0.0 0.0 1.0
  outer loop
    vertex 412.8512653654852 116.42877754130271 144.18626525974594
    vertex 412.95126536548514 111.42877754130204 144.18626525974594
    vertex 412.95126536548514 116.42877754130271 144.18626525974594
  endloop
endfacet
facet normal 0.0 -1.0 0.0
  outer loop
    vertex 318.0207554977324 172.4287775413026 75.0
    vertex 298.02075549773264 172.4287775413026 65.0
    vertex 318.0207554977324 172.4287775413026 65.0
  endloop
endfacet
facet normal 0.0 -1.0 0.0
  outer loop
    vertex 298.02075549773264 172.4287775413026 65.0
    vertex 318.0207554977324 172.4287775413026 75.0
    vertex 298.02075549773264 172.4287775413026 75.0
  endloop
endfacet
facet normal -1.0 0.0 0.0
  outer loop
    vertex 298.02075549773264 182.42877754130248 75.0
    vertex 298.02075549773264 172.4287775413026 65.0
    vertex 298.02075549773264 172.4287775413026 75.0
  endloop
endfacet
facet normal -1.0 0.0 0.0
  outer loop
    vertex 298.02075549773264 172.4287775413026 65.0
    vertex 298.02075549773264 182.42877754130248 75.0
    vertex 298.02075549773264 182.42877754130248 65.0
  endloop
endfacet
facet normal 0.0 1.0 0.0
  outer loop
    vertex 298.02075549773264 182.42877754130248 75.0
    vertex 318.0207554977324 182.42877754130248 65.0
    vertex 298.02075549773264 182.42877754130248 65.0
  endloop
endfacet
facet normal 0.0 1.0 0.0
  outer loop
    vertex 318.0207554977324 182.42877754130248 65.0
    vertex 298.02075549773264 182.42877754130248 75.0
    vertex 318.0207554977324 182.42877754130248 75.0
  endloop
endfacet
facet normal 0.0 0.0 1.0
  outer loop
    vertex 318.0207554977324 172.4287775413026 75.0
    vertex 298.02075549773264 182.42877754130248 75.0
    vertex 298.02075549773264 172.4287775413026 75.0
  endloop
endfacet
facet normal 0.0 0.0 1.0
  outer loop
    vertex 298.02075549773264 182.42877754130248 75.0
    vertex 318.0207554977324 172.4287775413026 75.0
    vertex 318.0207554977324 182.42877754130248 75.0
  endloop
endfacet
facet normal -0.838031497865564 1.2068500441877769e-17 -0.5456218549372812
  outer loop
    vertex 320.5207554977326 227.42877754130274 139.28626525974596
    vertex 407.9512653654848 116.42877754130306 4.9999999999999964
    vertex 320.5207554977326 116.42877754130234 139.28626525974596
  endloop
endfacet
facet normal -0.838031497865564 1.2068500441877769e-17 -0.5456218549372812
  outer loop
    vertex 407.9512653654848 116.42877754130306 4.9999999999999964
    vertex 320.5207554977326 227.42877754130274 139.28626525974596
    vertex 407.9512653654848 227.42877754130274 4.9999999999999964
  endloop
endfacet
facet normal 0.0 -1.0 0.0
  outer loop
    vertex 325.5207554977329 227.42877754130274 144.28626525974593
    vertex 412.95126536548514 227.42877754130274 9.999999999999998
    vertex 412.95126536548514 227.42877754130274 144.28626525974593
  endloop
endfacet
facet normal -6.880643669977324e-15 1.0 8.957313169213347e-16
  outer loop
    vertex 320.5207554977326 116.42877754130234 139.28626525974596
    vertex 320.62075549773255 116.42877754130234 5.099999999999996
    vertex 320.5207554977326 116.42877754130234 5.099999999999996
  endloop
endfacet
facet normal -6.880643669977324e-15 1.0 8.957313169213347e-16
  outer loop
    vertex 320.62075549773255 116.42877754130234 5.099999999999996
    vertex 407.9512653654848 116.42877754130306 4.9999999999999964
    vertex 320.62075549773255 116.42877754130234 4.9999999999999964
  endloop
endfacet
facet normal -6.880643669977324e-15 1.0 8.957313169213347e-16
  outer loop
    vertex 407.9512653654848 116.42877754130306 4.9999999999999964
    vertex 320.62075549773255 116.42877754130234 5.099999999999996
    vertex 320.5207554977326 116.42877754130234 139.28626525974596
  endloop
endfacet
facet normal -1.0 0.0 0.0
  outer loop
    vertex 412.95126536548514 227.42877754130274 144.28626525974593
    vertex 412.95126536548514 116.42877754130271 144.18626525974594
    vertex 412.95126536548514 116.42877754130234 144.28626525974593
  endloop
endfacet
facet normal -1.0 0.0 0.0
  outer loop
    vertex 412.95126536548514 116.42877754130271 144.18626525974594
    vertex 412.95126536548514 227.42877754130274 144.28626525974593
    vertex 412.95126536548514 116.42877754130306 9.999999999999998
  endloop
endfacet
facet normal -1.0 0.0 0.0
  outer loop
    vertex 412.95126536548514 116.42877754130306 9.999999999999998
    vertex 412.95126536548514 227.42877754130274 144.28626525974593
    vertex 412.95126536548514 227.42877754130274 9.999999999999998
  endloop
endfacet
facet normal -0.0 -0.0 -1.0
  outer loop
    vertex 318.0207554977324 182.42877754130248 65.0
    vertex 298.02075549773264 172.4287775413026 65.0
    vertex 298.02075549773264 182.42877754130248 65.0
  endloop
endfacet
facet normal -0.0 -0.0 -1.0
  outer loop
    vertex 298.02075549773264 172.4287775413026 65.0
    vertex 318.0207554977324 182.42877754130248 65.0
    vertex 318.0207554977324 172.4287775413026 65.0
  endloop
endfacet
endsolid SlotmachinePrototypeBottomLeftBack
