solid SlotmachinePrototypeTopBack
facet normal 0.0 -1.0 0.0
  outer loop
    vertex 4628.678573563857 3161.2266866429427 179.15436423396457
    vertex 4585.862936239765 3161.2266866429427 0.0
    vertex 4628.678573563857 3161.2266866429427 0.0
  endloop
endfacet
facet normal 0.0 -1.0 0.0
  outer loop
    vertex 4585.862936239765 3161.2266866429427 0.0
    vertex 4628.678573563857 3161.2266866429427 179.15436423396457
    vertex 4585.862936239765 3161.2266866429427 179.1543642339644
  endloop
endfacet
facet normal -1.0 0.0 0.0
  outer loop
    vertex 4585.862936239765 3403.226686642945 179.15436423396457
    vertex 4585.862936239765 3161.2266866429427 0.0
    vertex 4585.862936239765 3161.2266866429427 179.1543642339644
  endloop
endfacet
facet normal -1.0 0.0 0.0
  outer loop
    vertex 4585.862936239765 3161.2266866429427 0.0
    vertex 4585.862936239765 3403.226686642945 179.15436423396457
    vertex 4585.862936239765 3403.226686642945 0.0
  endloop
endfacet
facet normal 0.0 -1.0 0.0
  outer loop
    vertex 4623.678573563857 3398.2266866429445 174.15436423396457
    vertex 4590.678573563855 3398.2266866429445 64.15436423396456
    vertex 4623.678573563857 3398.2266866429445 64.15436423396456
  endloop
endfacet
facet normal 0.0 -1.0 0.0
  outer loop
    vertex 4590.678573563855 3398.2266866429445 64.15436423396456
    vertex 4623.678573563857 3398.2266866429445 174.15436423396457
    vertex 4590.678573563855 3398.2266866429445 174.15436423396457
  endloop
endfacet
facet normal 0.0 -1.0 0.0
  outer loop
    vertex 4614.178573563857 3353.7266866429445 20.99999999999996
    vertex 4603.178573563857 3353.7266866429445 0.0
    vertex 4614.178573563857 3353.7266866429445 0.0
  endloop
endfacet
facet normal 0.0 -1.0 0.0
  outer loop
    vertex 4603.178573563857 3353.7266866429445 0.0
    vertex 4614.178573563857 3353.7266866429445 20.99999999999996
    vertex 4603.178573563857 3353.7266866429445 20.99999999999996
  endloop
endfacet
facet normal 0.0 -1.0 0.0
  outer loop
    vertex 4628.678573563857 3166.3266866429426 64.25436423396458
    vertex 4623.678573563858 3166.3266866429426 64.15436423396456
    vertex 4628.678573563857 3166.3266866429426 64.15436423396456
  endloop
endfacet
facet normal 0.0 -1.0 0.0
  outer loop
    vertex 4623.678573563858 3166.3266866429426 64.15436423396456
    vertex 4628.678573563857 3166.3266866429426 64.25436423396458
    vertex 4623.678573563858 3166.3266866429426 64.25436423396458
  endloop
endfacet
facet normal -1.0 -3.735824178382889e-15 -7.877933139744299e-15
  outer loop
    vertex 4623.678573563857 3398.2266866429445 174.15436423396457
    vertex 4623.678573563858 3166.2266866429427 64.25436423396458
    vertex 4623.678573563857 3166.2266866429427 174.15436423396457
  endloop
endfacet
facet normal -1.0 -3.735824178382889e-15 -7.877933139744299e-15
  outer loop
    vertex 4623.678573563858 3166.2266866429427 64.25436423396458
    vertex 4623.678573563857 3398.2266866429445 174.15436423396457
    vertex 4623.678573563858 3166.3266866429426 64.25436423396458
  endloop
endfacet
facet normal -1.0 -3.735824178382889e-15 -7.877933139744299e-15
  outer loop
    vertex 4623.678573563858 3166.3266866429426 64.25436423396458
    vertex 4623.678573563857 3398.2266866429445 174.15436423396457
    vertex 4623.678573563858 3166.3266866429426 64.15436423396456
  endloop
endfacet
facet normal -1.0 -3.735824178382889e-15 -7.877933139744299e-15
  outer loop
    vertex 4623.678573563858 3166.3266866429426 64.15436423396456
    vertex 4623.678573563857 3398.2266866429445 174.15436423396457
    vertex 4623.678573563857 3398.2266866429445 64.15436423396456
  endloop
endfacet
facet normal -0.0 1.0 -0.0
  outer loop
    vertex 4603.178573563857 3342.726686642944 20.99999999999996
    vertex 4614.178573563857 3342.726686642944 0.0
    vertex 4603.178573563857 3342.726686642944 0.0
  endloop
endfacet
facet normal -0.0 1.0 -0.0
  outer loop
    vertex 4614.178573563857 3342.726686642944 0.0
    vertex 4603.178573563857 3342.726686642944 20.99999999999996
    vertex 4614.178573563857 3342.726686642944 20.99999999999996
  endloop
endfacet
facet normal -0.0 1.0 -0.0
  outer loop
    vertex 4623.678573563858 3166.2266866429427 64.25436423396458
    vertex 4628.678573563857 3166.2266866429427 64.15436423396456
    vertex 4623.678573563857 3166.2266866429427 64.15436423396456
  endloop
endfacet
facet normal -0.0 1.0 -0.0
  outer loop
    vertex 4628.678573563857 3166.2266866429427 64.15436423396456
    vertex 4623.678573563858 3166.2266866429427 64.25436423396458
    vertex 4628.678573563857 3166.2266866429427 64.25436423396458
  endloop
endfacet
facet normal 1.0 -0.0 -0.0
  outer loop
    vertex 4628.678573563857 3398.2266866429445 64.15436423396456
    vertex 4628.678573563857 3166.3266866429426 64.25436423396458
    vertex 4628.678573563857 3166.3266866429426 64.15436423396456
  endloop
endfacet
facet normal 1.0 -0.0 -0.0
  outer loop
    vertex 4628.678573563857 3166.3266866429426 64.25436423396458
    vertex 4628.678573563857 3166.2266866429427 174.15436423396457
    vertex 4628.678573563857 3166.2266866429427 64.25436423396458
  endloop
endfacet
facet normal 1.0 -0.0 -0.0
  outer loop
    vertex 4628.678573563857 3166.2266866429427 174.15436423396457
    vertex 4628.678573563857 3166.3266866429426 64.25436423396458
    vertex 4628.678573563857 3398.2266866429445 174.15436423396457
  endloop
endfacet
facet normal 1.0 -0.0 -0.0
  outer loop
    vertex 4628.678573563857 3398.2266866429445 174.15436423396457
    vertex 4628.678573563857 3166.3266866429426 64.25436423396458
    vertex 4628.678573563857 3398.2266866429445 64.15436423396456
  endloop
endfacet
facet normal -0.0 -0.0 1.0
  outer loop
    vertex 4623.678573563857 3166.2266866429427 64.15436423396456
    vertex 4590.678573563855 3398.2266866429445 64.15436423396456
    vertex 4590.678573563855 3166.2266866429427 64.15436423396456
  endloop
endfacet
facet normal -0.0 -0.0 1.0
  outer loop
    vertex 4590.678573563855 3398.2266866429445 64.15436423396456
    vertex 4623.678573563857 3166.2266866429427 64.15436423396456
    vertex 4623.678573563857 3398.2266866429445 64.15436423396456
  endloop
endfacet
facet normal -0.0 -0.0 1.0
  outer loop
    vertex 4623.678573563857 3398.2266866429445 64.15436423396456
    vertex 4623.678573563857 3166.2266866429427 64.15436423396456
    vertex 4623.678573563858 3166.3266866429426 64.15436423396456
  endloop
endfacet
facet normal 0.0 0.0 -1.0
  outer loop
    vertex 4614.178573563857 3353.7266866429445 20.99999999999996
    vertex 4603.178573563857 3342.726686642944 20.99999999999996
    vertex 4603.178573563857 3353.7266866429445 20.99999999999996
  endloop
endfacet
facet normal 0.0 0.0 -1.0
  outer loop
    vertex 4603.178573563857 3342.726686642944 20.99999999999996
    vertex 4614.178573563857 3353.7266866429445 20.99999999999996
    vertex 4614.178573563857 3342.726686642944 20.99999999999996
  endloop
endfacet
facet normal 1.0 -0.0 -0.0
  outer loop
    vertex 4590.678573563855 3398.2266866429445 64.15436423396456
    vertex 4590.678573563855 3166.2266866429427 174.15436423396457
    vertex 4590.678573563855 3166.2266866429427 64.15436423396456
  endloop
endfacet
facet normal 1.0 -0.0 -0.0
  outer loop
    vertex 4590.678573563855 3166.2266866429427 174.15436423396457
    vertex 4590.678573563855 3398.2266866429445 64.15436423396456
    vertex 4590.678573563855 3398.2266866429445 174.15436423396457
  endloop
endfacet
facet normal 1.0 -0.0 -0.0
  outer loop
    vertex 4628.678573563857 3161.2266866429427 0.0
    vertex 4628.678573563857 3166.2266866429427 64.15436423396456
    vertex 4628.678573563857 3161.2266866429427 179.15436423396457
  endloop
endfacet
facet normal 1.0 -0.0 -0.0
  outer loop
    vertex 4628.678573563857 3166.2266866429427 64.15436423396456
    vertex 4628.678573563857 3161.2266866429427 0.0
    vertex 4628.678573563857 3403.226686642945 0.0
  endloop
endfacet
facet normal 1.0 -0.0 -0.0
  outer loop
    vertex 4628.678573563857 3166.2266866429427 64.15436423396456
    vertex 4628.678573563857 3403.226686642945 0.0
    vertex 4628.678573563857 3166.3266866429426 64.15436423396456
  endloop
endfacet
facet normal 1.0 -0.0 -0.0
  outer loop
    vertex 4628.678573563857 3166.3266866429426 64.15436423396456
    vertex 4628.678573563857 3403.226686642945 0.0
    vertex 4628.678573563857 3398.2266866429445 64.15436423396456
  endloop
endfacet
facet normal 1.0 -0.0 -0.0
  outer loop
    vertex 4628.678573563857 3398.2266866429445 64.15436423396456
    vertex 4628.678573563857 3403.226686642945 0.0
    vertex 4628.678573563857 3398.2266866429445 174.15436423396457
  endloop
endfacet
facet normal 1.0 -0.0 -0.0
  outer loop
    vertex 4628.678573563857 3161.2266866429427 179.15436423396457
    vertex 4628.678573563857 3166.2266866429427 174.15436423396457
    vertex 4628.678573563857 3403.226686642945 179.15436423396457
  endloop
endfacet
facet normal 1.0 -0.0 -0.0
  outer loop
    vertex 4628.678573563857 3166.2266866429427 174.15436423396457
    vertex 4628.678573563857 3161.2266866429427 179.15436423396457
    vertex 4628.678573563857 3166.2266866429427 64.15436423396456
  endloop
endfacet
facet normal 1.0 -0.0 -0.0
  outer loop
    vertex 4628.678573563857 3166.2266866429427 174.15436423396457
    vertex 4628.678573563857 3166.2266866429427 64.15436423396456
    vertex 4628.678573563857 3166.2266866429427 64.25436423396458
  endloop
endfacet
facet normal 1.0 -0.0 -0.0
  outer loop
    vertex 4628.678573563857 3403.226686642945 179.15436423396457
    vertex 4628.678573563857 3166.2266866429427 174.15436423396457
    vertex 4628.678573563857 3398.2266866429445 174.15436423396457
  endloop
endfacet
facet normal 1.0 -0.0 -0.0
  outer loop
    vertex 4628.678573563857 3403.226686642945 179.15436423396457
    vertex 4628.678573563857 3398.2266866429445 174.15436423396457
    vertex 4628.678573563857 3403.226686642945 0.0
  endloop
endfacet
facet normal 0.0 0.0 -1.0
  outer loop
    vertex 4628.678573563857 3166.3266866429426 64.25436423396458
    vertex 4623.678573563858 3166.2266866429427 64.25436423396458
    vertex 4623.678573563858 3166.3266866429426 64.25436423396458
  endloop
endfacet
facet normal 0.0 0.0 -1.0
  outer loop
    vertex 4623.678573563858 3166.2266866429427 64.25436423396458
    vertex 4628.678573563857 3166.3266866429426 64.25436423396458
    vertex 4628.678573563857 3166.2266866429427 64.25436423396458
  endloop
endfacet
facet normal -2.1076161206820965e-15 -3.728881299236852e-16 1.0
  outer loop
    vertex 4628.678573563857 3161.2266866429427 179.15436423396457
    vertex 4585.862936239765 3403.226686642945 179.15436423396457
    vertex 4585.862936239765 3161.2266866429427 179.1543642339644
  endloop
endfacet
facet normal -2.1076161206820965e-15 -3.728881299236852e-16 1.0
  outer loop
    vertex 4585.862936239765 3403.226686642945 179.15436423396457
    vertex 4628.678573563857 3161.2266866429427 179.15436423396457
    vertex 4628.678573563857 3403.226686642945 179.15436423396457
  endloop
endfacet
facet normal 0.0 0.0 -1.0
  outer loop
    vertex 4623.678573563857 3398.2266866429445 174.15436423396457
    vertex 4590.678573563855 3166.2266866429427 174.15436423396457
    vertex 4590.678573563855 3398.2266866429445 174.15436423396457
  endloop
endfacet
facet normal 0.0 0.0 -1.0
  outer loop
    vertex 4590.678573563855 3166.2266866429427 174.15436423396457
    vertex 4623.678573563857 3398.2266866429445 174.15436423396457
    vertex 4623.678573563857 3166.2266866429427 174.15436423396457
  endloop
endfacet
facet normal -0.0 1.0 -0.0
  outer loop
    vertex 4590.678573563855 3166.2266866429427 174.15436423396457
    vertex 4623.678573563857 3166.2266866429427 64.15436423396456
    vertex 4590.678573563855 3166.2266866429427 64.15436423396456
  endloop
endfacet
facet normal -0.0 1.0 -0.0
  outer loop
    vertex 4623.678573563857 3166.2266866429427 64.15436423396456
    vertex 4590.678573563855 3166.2266866429427 174.15436423396457
    vertex 4623.678573563858 3166.2266866429427 64.25436423396458
  endloop
endfacet
facet normal -0.0 1.0 -0.0
  outer loop
    vertex 4623.678573563858 3166.2266866429427 64.25436423396458
    vertex 4590.678573563855 3166.2266866429427 174.15436423396457
    vertex 4623.678573563857 3166.2266866429427 174.15436423396457
  endloop
endfacet
facet normal 0.0 0.0 -1.0
  outer loop
    vertex 4585.862936239765 3403.226686642945 0.0
    vertex 4603.178573563857 3353.7266866429445 0.0
    vertex 4585.862936239765 3161.2266866429427 0.0
  endloop
endfacet
facet normal 0.0 0.0 -1.0
  outer loop
    vertex 4603.178573563857 3353.7266866429445 0.0
    vertex 4585.862936239765 3403.226686642945 0.0
    vertex 4628.678573563857 3403.226686642945 0.0
  endloop
endfacet
facet normal 0.0 0.0 -1.0
  outer loop
    vertex 4603.178573563857 3353.7266866429445 0.0
    vertex 4628.678573563857 3403.226686642945 0.0
    vertex 4614.178573563857 3353.7266866429445 0.0
  endloop
endfacet
facet normal 0.0 0.0 -1.0
  outer loop
    vertex 4614.178573563857 3353.7266866429445 0.0
    vertex 4628.678573563857 3403.226686642945 0.0
    vertex 4614.178573563857 3342.726686642944 0.0
  endloop
endfacet
facet normal 0.0 0.0 -1.0
  outer loop
    vertex 4614.178573563857 3342.726686642944 0.0
    vertex 4628.678573563857 3403.226686642945 0.0
    vertex 4614.178573563857 3221.7266866429422 0.0
  endloop
endfacet
facet normal 0.0 0.0 -1.0
  outer loop
    vertex 4614.178573563857 3221.7266866429422 0.0
    vertex 4628.678573563857 3403.226686642945 0.0
    vertex 4614.178573563857 3210.7266866429427 0.0
  endloop
endfacet
facet normal 0.0 0.0 -1.0
  outer loop
    vertex 4585.862936239765 3161.2266866429427 0.0
    vertex 4603.178573563857 3210.7266866429427 0.0
    vertex 4628.678573563857 3161.2266866429427 0.0
  endloop
endfacet
facet normal 0.0 0.0 -1.0
  outer loop
    vertex 4603.178573563857 3210.7266866429427 0.0
    vertex 4585.862936239765 3161.2266866429427 0.0
    vertex 4603.178573563857 3353.7266866429445 0.0
  endloop
endfacet
facet normal 0.0 0.0 -1.0
  outer loop
    vertex 4603.178573563857 3210.7266866429427 0.0
    vertex 4603.178573563857 3353.7266866429445 0.0
    vertex 4603.178573563857 3342.726686642944 0.0
  endloop
endfacet
facet normal 0.0 0.0 -1.0
  outer loop
    vertex 4603.178573563857 3210.7266866429427 0.0
    vertex 4603.178573563857 3342.726686642944 0.0
    vertex 4603.178573563857 3221.7266866429422 0.0
  endloop
endfacet
facet normal 0.0 0.0 -1.0
  outer loop
    vertex 4628.678573563857 3161.2266866429427 0.0
    vertex 4603.178573563857 3210.7266866429427 0.0
    vertex 4614.178573563857 3210.7266866429427 0.0
  endloop
endfacet
facet normal 0.0 0.0 -1.0
  outer loop
    vertex 4628.678573563857 3161.2266866429427 0.0
    vertex 4614.178573563857 3210.7266866429427 0.0
    vertex 4628.678573563857 3403.226686642945 0.0
  endloop
endfacet
facet normal 0.0 0.0 -1.0
  outer loop
    vertex 4614.178573563857 3342.726686642944 0.0
    vertex 4603.178573563857 3221.7266866429422 0.0
    vertex 4603.178573563857 3342.726686642944 0.0
  endloop
endfacet
facet normal 0.0 0.0 -1.0
  outer loop
    vertex 4603.178573563857 3221.7266866429422 0.0
    vertex 4614.178573563857 3342.726686642944 0.0
    vertex 4614.178573563857 3221.7266866429422 0.0
  endloop
endfacet
facet normal 0.0 0.0 -1.0
  outer loop
    vertex 4614.178573563857 3221.7266866429422 20.99999999999996
    vertex 4603.178573563857 3210.7266866429427 20.99999999999996
    vertex 4603.178573563857 3221.7266866429422 20.99999999999996
  endloop
endfacet
facet normal 0.0 0.0 -1.0
  outer loop
    vertex 4603.178573563857 3210.7266866429427 20.99999999999996
    vertex 4614.178573563857 3221.7266866429422 20.99999999999996
    vertex 4614.178573563857 3210.7266866429427 20.99999999999996
  endloop
endfacet
facet normal 1.0 -0.0 -0.0
  outer loop
    vertex 4603.178573563857 3353.7266866429445 0.0
    vertex 4603.178573563857 3342.726686642944 20.99999999999996
    vertex 4603.178573563857 3342.726686642944 0.0
  endloop
endfacet
facet normal 1.0 -0.0 -0.0
  outer loop
    vertex 4603.178573563857 3342.726686642944 20.99999999999996
    vertex 4603.178573563857 3353.7266866429445 0.0
    vertex 4603.178573563857 3353.7266866429445 20.99999999999996
  endloop
endfacet
facet normal 0.0 -1.0 0.0
  outer loop
    vertex 4614.178573563857 3221.7266866429422 20.99999999999996
    vertex 4603.178573563857 3221.7266866429422 0.0
    vertex 4614.178573563857 3221.7266866429422 0.0
  endloop
endfacet
facet normal 0.0 -1.0 0.0
  outer loop
    vertex 4603.178573563857 3221.7266866429422 0.0
    vertex 4614.178573563857 3221.7266866429422 20.99999999999996
    vertex 4603.178573563857 3221.7266866429422 20.99999999999996
  endloop
endfacet
facet normal -1.0 0.0 0.0
  outer loop
    vertex 4614.178573563857 3221.7266866429422 20.99999999999996
    vertex 4614.178573563857 3210.7266866429427 0.0
    vertex 4614.178573563857 3210.7266866429427 20.99999999999996
  endloop
endfacet
facet normal -1.0 0.0 0.0
  outer loop
    vertex 4614.178573563857 3210.7266866429427 0.0
    vertex 4614.178573563857 3221.7266866429422 20.99999999999996
    vertex 4614.178573563857 3221.7266866429422 0.0
  endloop
endfacet
facet normal -1.0 0.0 0.0
  outer loop
    vertex 4614.178573563857 3353.7266866429445 20.99999999999996
    vertex 4614.178573563857 3342.726686642944 0.0
    vertex 4614.178573563857 3342.726686642944 20.99999999999996
  endloop
endfacet
facet normal -1.0 0.0 0.0
  outer loop
    vertex 4614.178573563857 3342.726686642944 0.0
    vertex 4614.178573563857 3353.7266866429445 20.99999999999996
    vertex 4614.178573563857 3353.7266866429445 0.0
  endloop
endfacet
facet normal -0.0 1.0 -0.0
  outer loop
    vertex 4585.862936239765 3403.226686642945 179.15436423396457
    vertex 4628.678573563857 3403.226686642945 0.0
    vertex 4585.862936239765 3403.226686642945 0.0
  endloop
endfacet
facet normal -0.0 1.0 -0.0
  outer loop
    vertex 4628.678573563857 3403.226686642945 0.0
    vertex 4585.862936239765 3403.226686642945 179.15436423396457
    vertex 4628.678573563857 3403.226686642945 179.15436423396457
  endloop
endfacet
facet normal 1.0 -0.0 -0.0
  outer loop
    vertex 4603.178573563857 3221.7266866429422 0.0
    vertex 4603.178573563857 3210.7266866429427 20.99999999999996
    vertex 4603.178573563857 3210.7266866429427 0.0
  endloop
endfacet
facet normal 1.0 -0.0 -0.0
  outer loop
    vertex 4603.178573563857 3210.7266866429427 20.99999999999996
    vertex 4603.178573563857 3221.7266866429422 0.0
    vertex 4603.178573563857 3221.7266866429422 20.99999999999996
  endloop
endfacet
facet normal -0.0 -0.0 1.0
  outer loop
    vertex 4628.678573563857 3166.2266866429427 64.15436423396456
    vertex 4623.678573563858 3166.3266866429426 64.15436423396456
    vertex 4623.678573563857 3166.2266866429427 64.15436423396456
  endloop
endfacet
facet normal -0.0 -0.0 1.0
  outer loop
    vertex 4623.678573563858 3166.3266866429426 64.15436423396456
    vertex 4628.678573563857 3166.2266866429427 64.15436423396456
    vertex 4628.678573563857 3166.3266866429426 64.15436423396456
  endloop
endfacet
facet normal -0.0 1.0 -0.0
  outer loop
    vertex 4603.178573563857 3210.7266866429427 20.99999999999996
    vertex 4614.178573563857 3210.7266866429427 0.0
    vertex 4603.178573563857 3210.7266866429427 0.0
  endloop
endfacet
facet normal -0.0 1.0 -0.0
  outer loop
    vertex 4614.178573563857 3210.7266866429427 0.0
    vertex 4603.178573563857 3210.7266866429427 20.99999999999996
    vertex 4614.178573563857 3210.7266866429427 20.99999999999996
  endloop
endfacet
endsolid SlotmachinePrototypeTopBack
